<svg xmlns="http://www.w3.org/2000/svg" viewBox="0 0 512 512"><defs><style>.cls-1{fill:#27273d;}.cls-2{fill:#363651;}.cls-3{fill:#3e436d;}.cls-4{fill:#a65c3b;}.cls-5{fill:#9e4830;}.cls-6{fill:none;stroke:#27273d;stroke-linecap:round;stroke-miterlimit:10;stroke-width:7px;}.cls-7{fill:#893d2b;}.cls-8{fill:#fff;}.cls-9{fill:#db1b1b;}.cls-10{fill:#4b537f;}</style></defs><title>Avatar Users2</title><g id="BULINE"><circle class="cls-1" cx="256" cy="256" r="256"/></g><g id="Icons"><path class="cls-2" d="M484.77,371a257,257,0,0,1-90.65,100.57q-2,1.29-4,2.53-10.16,6.25-20.92,11.57a251.78,251.78,0,0,1-36.45,14.61h0a257.05,257.05,0,0,1-166.62-4.53,252.37,252.37,0,0,1-35.3-16.42q-5.7-3.18-11.21-6.67-4.47-2.82-8.81-5.83A257,257,0,0,1,27.23,371a256.88,256.88,0,0,1,66.86-83.3q5.25-4.31,10.75-8.33a255.86,255.86,0,0,1,23.85-15.53h0l2.28-1.29q6.16-3.46,12.52-6.57a254.06,254.06,0,0,1,34.89-14q3.43-1.09,6.93-2.09,7.23-2.07,14.64-3.73a258.32,258.32,0,0,1,105.75-1.32q8.28,1.62,16.36,3.78A253,253,0,0,1,364,253.84q6.47,3,12.72,6.36c1.5.8,3,1.62,4.46,2.44a254.07,254.07,0,0,1,22.11,14q5.58,3.92,10.94,8.14A257.07,257.07,0,0,1,484.77,371Z"/><path class="cls-3" d="M402.52,103.64C332.17,34.74,232.82,54.57,199.18,64a54.45,54.45,0,0,0-91.79,39.64s-35.35,56,20.25,101.2l6.23-31.5,243.52,6.77,4.89,24.73C437.87,159.65,402.52,103.64,402.52,103.64Z"/><path class="cls-4" d="M394.12,471.57q-2,1.29-4,2.53-10.16,6.25-20.92,11.57a251.78,251.78,0,0,1-36.45,14.61h0a257.05,257.05,0,0,1-166.62-4.53,252.37,252.37,0,0,1-35.3-16.42q-5.7-3.18-11.21-6.67-4.47-2.82-8.81-5.83A153.54,153.54,0,0,1,122,455.44c2.08-1.91,4.24-3.79,6.45-5.6,1.11-.93,2.23-1.82,3.36-2.71a162.14,162.14,0,0,1,19.31-12.9q5.73-3.28,12-6.25c.37-.17.77-.35,1.23-.52a3.17,3.17,0,0,1,.37-.15c.35-.14.71-.29,1.1-.42s.65-.24,1-.35l1.35-.45,1.8-.58,2.13-.63c2.06-.61,4.3-1.24,6.66-1.9.91-.26,1.84-.52,2.78-.77,3.19-.89,6.51-1.82,9.75-2.8,8.81-2.61,17.09-5.53,21.14-8.63a9.17,9.17,0,0,0,1.42-1.32c7.39-8.55,4-23.87,4-35,0-2.56,0-4.83-.08-6.88h0c-.57-23.05-3.22-16,16.24-22.48a33.68,33.68,0,0,1,4.91-.8h0c13.54-1.51,48.63-3,52.7.8,3.77,3.52,3.64,11.6,2.63,20.67h0c-1.35,12.16-4.29,26.05-1.58,33a29.4,29.4,0,0,0,7.17,11c8,7.59,19.52,9.15,32.42,15l.89.4c.8.37,1.6.75,2.38,1.14a4.51,4.51,0,0,1,.44.22c3.76,1.81,7.37,3.7,10.88,5.67.93.52,1.85,1.05,2.75,1.59a171.34,171.34,0,0,1,20.54,14c.7.57,1.4,1.12,2.09,1.71q3.93,3.22,7.57,6.64A157.7,157.7,0,0,1,394.12,471.57Z"/><path class="cls-4" d="M382.06,162v86.51c0,64.56-51.37,85.23-88.82,118.06a57.67,57.67,0,0,1-76.79,0c-37.44-32.83-88.81-53.5-88.81-118.06V162c0-2.93.09-5.85.29-8.72C132,93.86,177.66,46.65,234.13,44.22c1.52-.08,3.07-.11,4.61-.11H271c60,0,108.85,50.44,111,113.52C382,159.09,382.06,160.54,382.06,162Z"/><path class="cls-5" d="M178.4,248.54V162c0-61.79,44.79-112.49,101.82-117.48-3.06-.29-6.15-.42-9.28-.42h-32.2c-61.37,0-111.1,52.79-111.1,117.9v42.83a25.46,25.46,0,0,0,0,50.92h.25c3.69,58.92,52.54,79.28,88.56,110.83,18.24,16,43.12,18.91,63.77,8.7a59.62,59.62,0,0,1-13-8.7C229.76,333.77,178.4,313.09,178.4,248.54Z"/><circle class="cls-4" cx="382.05" cy="230.3" r="25.46"/><path class="cls-6" d="M161.85,188.59s32.09-17.88,59.8,0"/><path class="cls-6" d="M285.49,188.59s32.09-17.88,59.8,0"/><rect class="cls-5" x="237.1" y="255.76" width="36.98" height="14.02" rx="6.43"/><path class="cls-7" d="M128.37,220.18a10.13,10.13,0,1,0,0,20.25Z"/><path class="cls-5" d="M382.05,240.43a10.13,10.13,0,1,0,0-20.25Z"/><ellipse class="cls-1" cx="191.33" cy="227.23" rx="10.64" ry="15.31"/><ellipse class="cls-1" cx="314.96" cy="227.23" rx="10.64" ry="15.31"/><path class="cls-6" d="M172,216s18.37-11.6,38.68,0"/><path class="cls-6" d="M295.62,216s18.37-11.6,38.68,0"/><path class="cls-8" d="M225.55,295.56c0,15.87,14,31.28,31.32,31.28h0c17.3,0,28.93-15.41,28.93-31.28Z"/><path class="cls-9" d="M286.91,295.56a36,36,0,0,1-9.17,23.54c-5.67,6.36-13.51,10.55-22.15,10.55-17.3,0-31.32-16.79-31.32-34.09h1.82c4.33,12.83,15.9,23.23,29.5,23.23,8.64,0,16.48-4.2,22.15-10.57a36.79,36.79,0,0,0,7.35-12.66Z"/><path class="cls-9" d="M255.59,287.4c-16.74-2.72-31.32,8.16-31.32,8.16h62.64S272.33,284.68,255.59,287.4Z"/><path class="cls-3" d="M407.51,121.3h0a35.81,35.81,0,0,0-31.15-53.47c-.8,0-1.6,0-2.39.09a41.54,41.54,0,0,0-51.89-27.46,52.41,52.41,0,0,0-90.29-9.88A55,55,0,0,0,147,76.76a56.39,56.39,0,0,0,.43,6.79,27.51,27.51,0,1,0,27.29,41A54.71,54.71,0,0,0,202,131.75c1.28,0,2.54-.06,3.79-.14a52.41,52.41,0,0,0,98.52,18.64,41.45,41.45,0,0,0,55.68,4h0c85.4,24.52,91.35-32.94,91.35-32.94C420.94,137.84,407.51,121.3,407.51,121.3Z"/><path class="cls-10" d="M332.24,65.22c1.16,13.3-.18,32.55-13.74,47.06a3.4,3.4,0,0,0,2.69,5.74c9-.63,22.18-2.5,29.46-8a3.42,3.42,0,0,1,5.28,1.42c1.83,4.75,4.09,12.48,3.12,19.84a3.4,3.4,0,0,0,6,2.5c6.51-8,12-22.13,3.86-45.8a3.4,3.4,0,0,0-6-.9l-1.25,1.71a3.41,3.41,0,0,1-5.54-.08L338.42,63A3.39,3.39,0,0,0,332.24,65.22Z"/><path class="cls-9" d="M151.07,434.23a330.19,330.19,0,0,0,15,61.53,252.37,252.37,0,0,1-35.3-16.42l-2.41-29.5-.51-6.22a5.35,5.35,0,0,1,2.33-4.84l12.56-8.48A5.32,5.32,0,0,1,151,434C151,434.05,151.06,434.14,151.07,434.23Z"/><path class="cls-9" d="M372.62,443.62l-.49,5.92-2.95,36.13a251.78,251.78,0,0,1-36.45,14.61c10.12-26.61,14.85-53.17,16.75-66.32,0,0,0-.11,0-.16a5.32,5.32,0,0,1,8.22-3.5l12.56,8.48A5.36,5.36,0,0,1,372.62,443.62Z"/><path class="cls-8" d="M159.11,271.58l-31-31a.87.87,0,0,0-.15-.13l0,0a1.6,1.6,0,0,0-.27-.25h0a6.77,6.77,0,0,0-9.09.41l-8.31,8.31L87.5,271.58a6.75,6.75,0,0,0,0,9.54l6.59,6.59,24.45,24.45a6.68,6.68,0,0,0,4.76,2,6.76,6.76,0,0,0,4.78-2l13.23-13.24,0,0h0l17.77-17.77A6.75,6.75,0,0,0,159.11,271.58Zm-24.27,14.74,0,0L123.3,297.85l-18.46-18.47-3-3,21-21.06.44-.44,21.5,21.5Z"/><path class="cls-8" d="M417.86,271.58,397.1,250.82l-10.27-10.27a7.89,7.89,0,0,0-1-.84h0a6.66,6.66,0,0,0-3.74-1.12h0a6.72,6.72,0,0,0-4.76,2L364,253.84l-17.75,17.74a6.75,6.75,0,0,0,0,9.54l31,31a6.74,6.74,0,0,0,9.54,0l27.4-27.41,3.63-3.63A6.75,6.75,0,0,0,417.86,271.58Zm-35.81,26.27-8.5-8.5-13-13,16.15-16.16,4.45-4.46.88-.88.88.88,20.61,20.62Z"/></g></svg>