<svg xmlns="http://www.w3.org/2000/svg" viewBox="0 0 512 512"><defs><style>.cls-1{fill:#f7bb38;}.cls-2{fill:#dba231;}.cls-3{fill:#fcc8bc;}.cls-4{fill:#b0d46c;}.cls-5{fill:#fff;}.cls-6{fill:#32314b;}.cls-7{fill:#fc4581;}.cls-8{fill:#fab3a7;}.cls-9{fill:none;stroke:#27273d;stroke-linecap:round;stroke-miterlimit:10;stroke-width:7px;}.cls-10{fill:#f58d89;}.cls-11{fill:#27273d;}.cls-12{fill:#d54545;}.cls-13{fill:#c11e1e;}.cls-14{fill:#3e436d;}.cls-15{fill:#db1b1b;}</style></defs><title>Avatar Users2</title><g id="BULINE"><circle class="cls-1" cx="256" cy="256" r="256"/></g><g id="Icons"><path class="cls-2" d="M484.77,371a257.52,257.52,0,0,1-86,97.5q-4.29,2.89-8.69,5.6c-.56.34-1.12.69-1.68,1q-7.86,4.78-16.09,9a256.38,256.38,0,0,1-234-.67q-8.72-4.5-17-9.67c-.59-.35-1.17-.71-1.75-1.08q-6-3.78-11.77-7.9A257.24,257.24,0,0,1,27.23,371a257,257,0,0,1,87.58-98.58q8.52-5.64,17.51-10.63h0q5.19-2.87,10.53-5.5l1.36-.67a253.76,253.76,0,0,1,69.64-22.17A257.31,257.31,0,0,1,255.31,230H256a255,255,0,0,1,109.85,24.7l1.93.93q6.24,3,12.29,6.39,6.71,3.74,13.16,7.84A256.84,256.84,0,0,1,484.77,371Z"/><path class="cls-3" d="M398,467.37l.83,1.13q-4.29,2.89-8.69,5.6c-.56.34-1.12.69-1.68,1q-7.86,4.78-16.09,9a256.38,256.38,0,0,1-234-.67q-8.72-4.5-17-9.67c-.59-.35-1.17-.71-1.75-1.08q-6-3.78-11.77-7.9l.07-.09c.39-.5.78-1,1.18-1.49l1.2-1.48,1.22-1.47q3.07-3.66,6.41-7.15L119,452l.47-.48c.38-.38.75-.76,1.14-1.14L122,449c.93-.9,1.88-1.8,2.84-2.68q4.62-4.26,9.7-8.22a160.43,160.43,0,0,1,18-12.14q6.16-3.57,12.9-6.79c.36-.17.76-.35,1.21-.52l.36-.15c.35-.13.71-.28,1.1-.41s.64-.24,1-.35l1.34-.44,1.77-.57,2.11-.63c2-.6,4.25-1.22,6.59-1.88l2.75-.76c3.14-.88,6.43-1.8,9.63-2.76,8.71-2.59,16.9-5.47,20.9-8.54a8.46,8.46,0,0,0,1.4-1.3c7.31-8.45,3.94-23.6,3.94-34.57,0-2.53,0-4.77-.08-6.8h0c-.56-22.79-3.18-15.78,16.06-22.23a32.4,32.4,0,0,1,4.85-.78h0c13.4-1.5,48.08-3,52.11.78,3.72,3.49,3.6,11.48,2.6,20.44h0c-1.33,12-4.24,25.75-1.56,32.62a29,29,0,0,0,7.08,10.87c7.91,7.5,19.3,9,32.06,14.82l.88.39c.78.37,1.57.74,2.34,1.13a4.49,4.49,0,0,1,.44.21q5.56,2.69,10.76,5.61,5.69,3.19,10.9,6.65,6.39,4.2,12.12,8.79,5,4,9.55,8.26,1.55,1.44,3,2.91l1.39,1.38q3.81,3.84,7.28,7.87c.51.59,1,1.18,1.51,1.78s1.16,1.39,1.72,2.09,1,1.23,1.48,1.85C396.7,465.72,397.33,466.54,398,467.37Z"/><path class="cls-4" d="M398,467.37l.83,1.13q-4.29,2.89-8.69,5.6c-.56.34-1.12.69-1.68,1q-7.86,4.78-16.09,9a256.38,256.38,0,0,1-234-.67q-8.72-4.5-17-9.67c-.59-.35-1.17-.71-1.75-1.08q-6-3.78-11.77-7.9l.07-.09c.39-.5.78-1,1.18-1.49l1.2-1.48,1.22-1.47q3.07-3.66,6.41-7.15L119,452l.47-.48c.38-.38.75-.76,1.14-1.14L122,449c.93-.9,1.88-1.8,2.84-2.68,3.93,1.64,8.39,3.42,13.33,5.27,6.91,2.59,14.75,5.31,23.37,7.95l.19.06a377.65,377.65,0,0,0,60.38,13.34l1.08.15a299.82,299.82,0,0,0,61.62,1.88l.77-.05a237.49,237.49,0,0,0,60.07-12.5,2,2,0,0,0,.29-.11,214.22,214.22,0,0,0,24.67-10.47q4.54-2.26,9-4.79,1.55,1.44,3,2.91l1.39,1.38q3.81,3.84,7.28,7.87c.51.59,1,1.18,1.51,1.78s1.16,1.39,1.72,2.09,1,1.23,1.48,1.85C396.7,465.72,397.33,466.54,398,467.37Z"/><path class="cls-5" d="M398,467.37l.83,1.13q-4.29,2.89-8.69,5.6c-.56.34-1.12.69-1.68,1q-7.86,4.78-16.09,9a31.25,31.25,0,0,1-25.92-19.58,29.93,29.93,0,0,1,.48,5.39,31.25,31.25,0,0,1-61.4,8.2,31.25,31.25,0,0,1-62.4-2.49c0-.86,0-1.71.1-2.55a299.82,299.82,0,0,0,61.62,1.88l.77-.05a237.49,237.49,0,0,0,60.07-12.5,2,2,0,0,0,.29-.11,214.22,214.22,0,0,0,24.67-10.47q4.54-2.26,9-4.79,1.55,1.44,3,2.91l1.39,1.38q3.81,3.84,7.28,7.87c.51.59,1,1.18,1.51,1.78s1.16,1.39,1.72,2.09,1,1.23,1.48,1.85C396.7,465.72,397.33,466.54,398,467.37Z"/><path class="cls-5" d="M222.11,472.91a31.24,31.24,0,0,1-62.34-3,29.93,29.93,0,0,1,.48-5.39,31.34,31.34,0,0,1-21.88,18.91q-8.72-4.5-17-9.67c-.59-.35-1.17-.71-1.75-1.08q-6-3.78-11.77-7.9l.07-.09c.39-.5.78-1,1.18-1.49l1.2-1.48,1.22-1.47q3.07-3.66,6.41-7.15L119,452l.47-.48c.38-.38.75-.76,1.14-1.14L122,449c.93-.9,1.88-1.8,2.84-2.68,3.93,1.64,8.39,3.42,13.33,5.27,6.91,2.59,14.75,5.31,23.37,7.95l.19.06A377.65,377.65,0,0,0,222.11,472.91Z"/><path class="cls-6" d="M469.26,344.34c-2.24,18.73-7.85,39.65-18.32,62.74,0,0-6.21,10.35-11.5,27.46a256.44,256.44,0,0,1-40.65,34q-4.29,2.89-8.69,5.6c-.56.34-1.12.69-1.68,1a240.12,240.12,0,0,1-17.81-23.3A187.59,187.59,0,0,1,358,430c-13.75-28.09-20-60.81-7.13-95.22a234.49,234.49,0,0,0,9.56-32.09,203.21,203.21,0,0,0,4-26.47c.33-4.06.64-8.2.91-12.3.18-2.79.35-5.56.48-8.26,0-.32,0-.63.05-.93.19-4,.32-7.81.37-11.37.11-8.14-.21-14.84-1.23-18.55l1.56-1.72.58-.64-.77-.07-9.46-.82-30.82-2.7L305.44,217,251,212.26,255.31,230l.91,3.73a409.88,409.88,0,0,1-42.36-.27q-7.14-.45-13.74-1.12c-5.13-.51-10-1.13-14.68-1.82-1.63-.24-3.22-.49-4.79-.75a243,243,0,0,1-37.13-9c-1.81-.6-3.54-1.21-5.19-1.81l4.44,4.9.85.94c-1.49,5.45-1.48,17.39-.8,30.85,0,.22,0,.44,0,.67.13,2.54.28,5.14.45,7.76.27,4,.57,8.13.9,12.13q.82,9.92,2.64,19.67a.06.06,0,0,0,0,0,228.17,228.17,0,0,0,10.91,38.85c12.28,32.77,7.17,64-5.22,91.18a183.57,183.57,0,0,1-14.38,25.63,235.26,235.26,0,0,1-16.82,22.19c-.59-.35-1.17-.71-1.75-1.08q-6-3.78-11.77-7.9a256,256,0,0,1-40.46-35.71,128.75,128.75,0,0,0-9.69-22c-9.67-21.32-15.19-40.8-17.75-58.41C28.22,268,78.71,226.56,78.71,226.56a83.64,83.64,0,0,0,14.88-14.07A53.4,53.4,0,0,0,104,193.18c-1.14-2.1-2.16-4.17-3.08-6.2h0c-22.13-48.94,16-79.58,16-79.58C135.49,27.26,208,39.47,209,39.65a.42.42,0,0,0,.12,0c5-2.24,178-78.38,188.8,97.13,0,0,13.74,25.7,11.77,50A47.57,47.57,0,0,1,407,199.64a58.33,58.33,0,0,0,8.37,13.24,83.67,83.67,0,0,0,14.56,13.68S478.6,266.56,469.26,344.34Z"/><rect class="cls-7" x="82.26" y="196.36" width="64.03" height="26.34" rx="13.17" transform="translate(123.93 -28.94) rotate(30.93)"/><rect class="cls-7" x="363.3" y="196.36" width="64.03" height="26.34" rx="13.17" transform="translate(842.11 186.1) rotate(149.07)"/><path class="cls-3" d="M382,156.21v85.53c0,63.82-50.78,84.25-87.8,116.71a57,57,0,0,1-75.91,0c-37-32.46-87.8-52.89-87.8-116.71V156.21c0-2.9.09-5.78.29-8.62,4-58.76,49.16-105.43,105-107.83,1.51-.08,3-.11,4.56-.11h31.85c59.29,0,107.6,49.86,109.74,112.22C382,153.31,382,154.76,382,156.21Z"/><path class="cls-8" d="M180.65,241.75V156.21C180.65,95.12,224.92,45,281.3,40.06c-3-.28-6.08-.41-9.17-.41H240.29c-60.66,0-109.83,52.19-109.83,116.56v42.34a25.17,25.17,0,1,0,0,50.33h.24c3.65,58.25,52,78.37,87.56,109.57a56.79,56.79,0,0,0,63,8.6,58.61,58.61,0,0,1-12.86-8.6C231.42,326,180.65,305.56,180.65,241.75Z"/><circle class="cls-3" cx="381.97" cy="223.72" r="25.17"/><path class="cls-9" d="M164.28,182.48s31.73-17.67,59.12,0"/><path class="cls-9" d="M286.51,182.48s31.72-17.67,59.11,0"/><rect class="cls-8" x="238.67" y="248.88" width="36.56" height="13.86" rx="6.35"/><path class="cls-10" d="M131.18,213.71a10,10,0,0,0,0,20Z"/><path class="cls-8" d="M382,233.73a10,10,0,0,0,0-20Z"/><ellipse class="cls-11" cx="193.42" cy="220.68" rx="10.51" ry="15.14"/><ellipse class="cls-11" cx="315.64" cy="220.68" rx="10.51" ry="15.14"/><path class="cls-9" d="M174.3,209.53s18.16-11.47,38.24,0"/><path class="cls-9" d="M296.53,209.53s18.16-11.47,38.23,0"/><path class="cls-12" d="M257,287.43c-18.1-2.94-33.86,8.81-33.86,8.81,0,9.35,15.16,18.43,33.86,18.43h0c18.7,0,33.86-9.08,33.86-18.43C290.81,296.24,275.05,284.49,257,287.43Z"/><path class="cls-13" d="M281,297h-41a6.07,6.07,0,0,1,2.84-3.5A51.11,51.11,0,0,1,264.69,287a35.79,35.79,0,0,0-7.74.42c-18.09-2.94-33.86,8.81-33.86,8.81,0,9.34,15.16,18.43,33.86,18.43a57.2,57.2,0,0,0,7.76-.53c-10.87-1.5-19.73-6-23.77-11.48a6.22,6.22,0,0,1-.9-1.85h41a1.89,1.89,0,1,0,0-3.77Z"/><path class="cls-6" d="M385.54,155v43.54s-64.47-68.37-57.39-122.33c0,0-86.19,83.68-200.52,88.94h-.74V155c0-3,.09-5.94.3-8.87,4.16-60.42,50.55-108.42,108-110.89,1.55-.09,3.13-.11,4.69-.11h32.75c61,0,110.66,51.28,112.86,115.41C385.52,152,385.54,153.51,385.54,155Z"/><path class="cls-14" d="M347.79,53.56c.8,9.18-.12,22.48-9.49,32.5a2.34,2.34,0,0,0,1.86,4c6.21-.43,15.32-1.72,20.35-5.49a2.36,2.36,0,0,1,3.64,1c1.26,3.29,2.83,8.62,2.16,13.71a2.35,2.35,0,0,0,4.17,1.73c4.49-5.49,8.27-15.29,2.67-31.64a2.36,2.36,0,0,0-4.12-.62l-.87,1.18a2.34,2.34,0,0,1-3.82-.05L352.06,52A2.35,2.35,0,0,0,347.79,53.56Z"/><path class="cls-15" d="M129.4,243l3.51,10.78a2.64,2.64,0,0,0,2.52,1.83h11.33a2.65,2.65,0,0,1,1.56,4.79l-9.17,6.66a2.63,2.63,0,0,0-1,3l3.5,10.78a2.65,2.65,0,0,1-4.08,3l-9.17-6.66a2.63,2.63,0,0,0-3.11,0l-9.17,6.66a2.64,2.64,0,0,1-4.07-3l3.5-10.78a2.65,2.65,0,0,0-1-3l-9.17-6.66a2.65,2.65,0,0,1,1.55-4.79h11.34a2.65,2.65,0,0,0,2.52-1.83l3.5-10.78A2.64,2.64,0,0,1,129.4,243Z"/><path class="cls-15" d="M384.49,243,388,253.8a2.65,2.65,0,0,0,2.52,1.83h11.34a2.65,2.65,0,0,1,1.55,4.79l-9.17,6.66a2.65,2.65,0,0,0-1,3l3.5,10.78a2.64,2.64,0,0,1-4.07,3l-9.17-6.66a2.63,2.63,0,0,0-3.11,0l-9.18,6.66a2.65,2.65,0,0,1-4.07-3l3.5-10.78a2.63,2.63,0,0,0-1-3l-9.17-6.66a2.65,2.65,0,0,1,1.56-4.79h11.33A2.64,2.64,0,0,0,376,253.8l3.5-10.78A2.65,2.65,0,0,1,384.49,243Z"/></g></svg>