<svg xmlns="http://www.w3.org/2000/svg" viewBox="0 0 512 512"><defs><style>.cls-1{fill:#00b564;}.cls-2{fill:#009b51;}.cls-3{fill:#27273d;}.cls-4{fill:#c97655;}.cls-5{fill:#b2674d;}.cls-6{fill:none;stroke:#27273d;stroke-linecap:round;stroke-miterlimit:10;stroke-width:7px;}.cls-7{fill:#a05a47;}.cls-8{fill:#fff;}.cls-9{fill:#db1b1b;}.cls-10{fill:#3e436d;}.cls-11{fill:#f55b4b;}.cls-12{fill:#f6c752;}.cls-13{fill:#db4f45;}.cls-14{fill:#32314b;}</style></defs><title>Avatar Users2</title><g id="BULINE"><circle class="cls-1" cx="256" cy="256" r="256"/></g><g id="Icons"><path class="cls-2" d="M484.77,371a256.94,256.94,0,0,1-88.64,99.25c-1,.65-2,1.29-3,1.92L391,473.55l-.88.55A254.18,254.18,0,0,1,348,495q-3.72,1.44-7.5,2.75-8.08,2.83-16.41,5.13A256,256,0,0,1,256,512c-1.41,0-2.82,0-4.22,0l-1.13,0q-13-.27-25.67-1.81l-2.34-.29q-8.5-1.11-16.83-2.78a252.61,252.61,0,0,1-34.53-9.43q-8.22-2.88-16.17-6.3a253.83,253.83,0,0,1-34.42-18l-1.09-.68-2.17-1.39h0c-1-.65-2.07-1.33-3.1-2,0,0,0,0,0,0q-2-1.34-4-2.71A257.09,257.09,0,0,1,27.23,371a256.78,256.78,0,0,1,58.87-76.5q5.06-4.49,10.35-8.71,5-4,10.29-7.78,4.45-3.22,9.05-6.23,9.87-6.48,20.35-12.05l.94-.49c1-.52,1.95-1,2.94-1.53l.88-.44.38-.19,2.1-1a253.76,253.76,0,0,1,37.15-14.74h0c1.33-.41,2.68-.81,4-1.2l2.28-.65.89-.26,3.15-.84q8.52-2.23,17.27-3.89l3.26-.59a255.27,255.27,0,0,1,36-3.73h0c2.84-.09,5.7-.14,8.56-.14q4.83,0,9.61.18h0a256.69,256.69,0,0,1,35.23,3.74q8.94,1.58,17.65,3.76,4.06,1,8.08,2.17l2.42.71c1.26.37,2.51.76,3.77,1.15q11,3.47,21.59,7.87,3.42,1.42,6.78,2.94,3.86,1.74,7.65,3.61c.22.1.45.21.67.33l.75.37c1.53.76,3.06,1.54,4.57,2.34s2.87,1.52,4.29,2.3q5.1,2.8,10.06,5.83Q393.62,270,398,273q9.34,6.23,18.08,13.25,4.9,3.93,9.61,8.11A256.6,256.6,0,0,1,484.77,371Z"/><rect class="cls-3" x="106.74" y="181.26" width="282.39" height="256.64"/><path class="cls-4" d="M396.13,470.25c-1,.65-2,1.29-3,1.92L391,473.55l-.88.55A254.18,254.18,0,0,1,348,495q-3.72,1.44-7.5,2.75-8.08,2.83-16.41,5.13A256,256,0,0,1,256,512c-1.41,0-2.82,0-4.22,0l-1.13,0q-13-.27-25.67-1.81l-2.34-.29q-8.5-1.11-16.83-2.78a252.61,252.61,0,0,1-34.53-9.43q-8.22-2.88-16.17-6.3a253.83,253.83,0,0,1-34.42-18l-1.09-.68-2.17-1.39h0c-1-.65-2.07-1.33-3.1-2,0,0,0,0,0,0q-2-1.34-4-2.71,1.37-2.28,2.82-4.51a141.56,141.56,0,0,1,19.67-24.1h0a138.55,138.55,0,0,1,19.77-16.16,154.62,154.62,0,0,1,20.51-11.68,28.53,28.53,0,0,1,2.81-1.13c.79-.28,1.67-.57,2.62-.87,2.94-.93,6.52-1.94,10.37-3,6.56-1.83,13.83-3.87,19.66-6.06,4.81-1.8,8.65-3.71,10.37-5.69,6.66-7.72,3.57-21.56,3.57-31.59,0-1.34,0-2.62,0-3.8v-.3c-.37-23.37-3.5-16.35,14.63-22.43a13.65,13.65,0,0,1,2.06-.41h0c9.78-1.46,46-3.27,50,.41,3.64,3.41,3.25,11.54,2.16,20.42h0c0,.12,0,.22,0,.34-1.29,10.44-3.47,21.83-1.17,27.7,3.1,8,8,12.07,14,15a87.69,87.69,0,0,0,8.56,3.42c2.91,1,6,2.08,9.16,3.35q2.4.93,4.84,2.06a6.45,6.45,0,0,1,.59.29q3.47,1.62,6.77,3.35l.33.18a160.31,160.31,0,0,1,23.3,14.75q1.77,1.35,3.5,2.76c3.58,2.9,7,5.9,10.15,9.06h0a.83.83,0,0,1,.17.16,146.52,146.52,0,0,1,23.19,29.66Q395.41,469,396.13,470.25Z"/><path class="cls-4" d="M370.44,171.82V250c0,58.3-46.4,77-80.23,106.62a52,52,0,0,1-69.34,0c-33.82-29.66-80.23-48.32-80.23-106.62V171.82c0-.25,0-.52,0-.78.27-40.79,22.16-76.12,54.11-93.74,1-.58,28.17-11.27,42.06-11.86,1.38-.08,2.77-.11,4.16-.11h29.1a96.51,96.51,0,0,1,63.8,24.3,98.29,98.29,0,0,1,7.68,7.47,109.19,109.19,0,0,1,28.72,68.78h0C370.39,167.86,370.44,169.83,370.44,171.82Z"/><path class="cls-5" d="M186.86,250V171.82c0-55.8,40.45-101.6,92-106.1-2.77-.27-5.56-.38-8.39-.38H241.35C185.93,65.34,141,113,141,171.82v38.69a23,23,0,1,0,0,46l.22,0c3.33,53.22,47.46,71.61,80,100.11a51.88,51.88,0,0,0,57.6,7.86,53.38,53.38,0,0,1-11.75-7.86C233.24,327,186.86,308.27,186.86,250Z"/><circle class="cls-4" cx="370.79" cy="233.5" r="22.99"/><path class="cls-6" d="M171.91,201.92s29-16.14,54,0"/><path class="cls-6" d="M283.57,201.92s29-16.14,54,0"/><ellipse class="cls-3" cx="310.19" cy="230.73" rx="9.61" ry="13.83"/><rect class="cls-5" x="238.84" y="256.5" width="33.4" height="12.66" rx="5.81"/><path class="cls-6" d="M292.73,220.54s16.59-10.48,34.93,0"/><ellipse class="cls-3" cx="198.91" cy="230.73" rx="9.61" ry="13.83"/><path class="cls-6" d="M181.45,220.54s16.59-10.48,34.93,0"/><path class="cls-7" d="M141.66,224.36a9.15,9.15,0,0,0,0,18.29Z"/><path class="cls-5" d="M370.79,242.65a9.15,9.15,0,0,0,0-18.29Z"/><path class="cls-8" d="M231.74,294.54c0,12.57,11.11,24.79,24.82,24.79h0c13.7,0,22.92-12.22,22.92-24.79Z"/><path class="cls-9" d="M280.36,294.54a28.45,28.45,0,0,1-7.27,18.65,23.69,23.69,0,0,1-17.55,8.37c-13.71,0-24.82-13.31-24.82-27h1.45c3.43,10.17,12.6,18.41,23.37,18.41,6.85,0,13.06-3.33,17.55-8.38a29.17,29.17,0,0,0,5.83-10Z"/><path class="cls-9" d="M255.54,288.08c-13.26-2.15-24.81,6.46-24.81,6.46h49.63S268.81,285.93,255.54,288.08Z"/><circle class="cls-9" cx="255.54" cy="181.26" r="9.01"/><path class="cls-10" d="M315.21,50.32C316.32,63,315,81.38,302.1,95.22a3.24,3.24,0,0,0,2.56,5.48c8.59-.6,21.17-2.38,28.12-7.58a3.25,3.25,0,0,1,5,1.35c1.75,4.53,3.91,11.91,3,18.94a3.24,3.24,0,0,0,5.76,2.38c6.21-7.59,11.43-21.12,3.69-43.71a3.25,3.25,0,0,0-5.69-.85l-1.19,1.63a3.25,3.25,0,0,1-5.29-.08l-17-24.57A3.24,3.24,0,0,0,315.21,50.32Z"/><path class="cls-11" d="M396.13,470.25c-1,.65-2,1.29-3,1.92L391,473.55l-.88.55A254.18,254.18,0,0,1,348,495q-3.72,1.44-7.5,2.75-8.08,2.83-16.41,5.13A256,256,0,0,1,256,512c-1.41,0-2.82,0-4.22,0l-1.13,0q-13-.27-25.67-1.81l-2.34-.29q-8.5-1.11-16.83-2.78a252.61,252.61,0,0,1-34.53-9.43q-8.22-2.88-16.17-6.3a253.83,253.83,0,0,1-34.42-18l-1.09-.68-2.17-1.39h0c-1-.65-2.07-1.33-3.1-2,0,0,0,0,0,0q-2-1.34-4-2.71,1.37-2.28,2.82-4.51a141.56,141.56,0,0,1,19.67-24.1h0a138.55,138.55,0,0,1,19.77-16.16,154.62,154.62,0,0,1,20.51-11.68,28.53,28.53,0,0,1,2.81-1.13c.79-.28,1.67-.57,2.62-.87,2.94-.93,6.52-1.94,10.37-3-.12,6.3,1,18.18,8.58,32.82a0,0,0,0,1,0,0c6.36,12.21,17.27,26.34,35.8,40.72.46.36.92.72,1.38,1.06l1.42,1.08c1.2.9,2.43,1.8,3.71,2.7.73.53,1.47,1,2.22,1.58l3.16,2.13q4.8,3.19,10.18,6.4a193.69,193.69,0,0,0,34.75-25.83,116.79,116.79,0,0,0,21.36-26.69c.63-1.07,1.19-2.12,1.72-3.15a0,0,0,0,1,0,0c7.47-14.36,8.68-26.06,8.61-32.45q2.4.93,4.84,2.06a6.45,6.45,0,0,1,.59.29q3.47,1.62,6.77,3.35l.33.18a160.31,160.31,0,0,1,23.3,14.75q1.77,1.35,3.5,2.76c3.58,2.9,7,5.9,10.15,9.06h0a.83.83,0,0,1,.17.16,146.52,146.52,0,0,1,23.19,29.66Q395.41,469,396.13,470.25Z"/><path class="cls-12" d="M373.4,431.09c-.58,2.25-1.2,4.51-1.88,6.81h0a1.42,1.42,0,0,1,0,.16C366.23,455.92,358,475.25,348,495q-3.72,1.44-7.5,2.75-8.08,2.83-16.41,5.13A256,256,0,0,1,256,512c-1.41,0-2.82,0-4.22,0l-1.13,0q-13-.27-25.67-1.81l-2.34-.29c.47-.43.93-.87,1.4-1.32q4.49-4.29,8.78-8.58c1.41-1.42,2.83-2.85,4.21-4.27.91-.92,1.8-1.85,2.68-2.77,1.87-1.91,3.68-3.83,5.47-5.73a620.25,620.25,0,0,0,41.53-49.27h0c10.84-14.33,18.74-26,23.27-33a9.94,9.94,0,0,1,2.66-2.78,10.17,10.17,0,0,1,9.7-1.12l14.71,6,23.78,9.63h0l4.64,1.88,1.84.75A10.16,10.16,0,0,1,373.4,431.09Z"/><path class="cls-13" d="M245.18,487.18c-1.79,1.9-3.6,3.82-5.47,5.73-.88.92-1.77,1.85-2.68,2.77-1.39,1.43-2.8,2.85-4.21,4.27q-4.29,4.29-8.78,8.58c-.47.45-.93.89-1.4,1.32q-8.5-1.11-16.83-2.78c9.89-9.51,19.07-19.1,27.48-28.44.46.36.92.72,1.38,1.06l1.42,1.08c1.2.9,2.43,1.8,3.71,2.7.73.53,1.47,1,2.22,1.58Z"/><path class="cls-9" d="M365.49,418.45c-1.43,3.5-2.87,7-4.35,10.39-1.29,3.05-2.62,6.07-3.95,9.06h0q-8.85,19.88-18.44,38.23h0q-7.17,13.77-14.63,26.68A256,256,0,0,1,256,512c-1.41,0-2.82,0-4.22,0,14-15.32,26.9-30.35,38.33-44.22,7.86-9.54,15-18.53,21.36-26.69l2.47-3.15h0c8.31-10.77,15.11-19.91,20.06-26.75q1.67-2.28,3.05-4.21l23.78,9.63h0Z"/><path class="cls-14" d="M404.2,454.81c-3.62,4.47-6.78,8.77-9.54,12.92q-2,3-3.68,5.82l-.88.55A254.18,254.18,0,0,1,348,495q-3.72,1.44-7.5,2.75a66.69,66.69,0,0,1-1.78-21.55h0A71.15,71.15,0,0,1,348,446.29q2.43-4.23,4.46-8.39c2-4,3.67-7.94,5.15-11.82,1.23-3.21,2.29-6.39,3.21-9.51,13.43-45.31-3-79.89-3-79.89-.47-.69-.91-1.37-1.35-2.05a55.62,55.62,0,0,1-7.94-19.37,45.21,45.21,0,0,1-.73-6.27h0c0-.37,0-.72,0-1.09-.46-22.12,16.07-36.32,16.07-36.32q2.89-2.73,5.26-5.35a70.17,70.17,0,0,0,5.66-7.05c.84-1.21,1.6-2.39,2.27-3.55.24-.39.46-.78.66-1.16h0c11.17-20.17.53-34.78-7.28-42-.73-.68-1.44-1.29-2.1-1.83a38.42,38.42,0,0,0-4.48-3.23,62.84,62.84,0,0,1-23.26-26.15,73.18,73.18,0,0,1-6.67-24.89,53,53,0,0,0-12.77-30.69C292.83,93.82,255.9,122,255.9,122s-28.34-21.61-54.4-5.57a48.76,48.76,0,0,0-10.86,9.26,53,53,0,0,0-12.77,30.69,73,73,0,0,1-6.68,24.89,62.81,62.81,0,0,1-23.25,26.15,43.54,43.54,0,0,0-7.3,5.74c-7.71,7.42-17.37,21.74-6.58,41.27q.31.59.69,1.2h0c.69,1.19,1.47,2.39,2.33,3.62a68,68,0,0,0,4.71,6c.15.18.3.35.48.54h0c1.68,1.89,3.57,3.83,5.66,5.8,0,0,17.15,14.73,16,37.55v0a1.41,1.41,0,0,0,0,.2l0,.4a45.72,45.72,0,0,1-.69,5.52,55.62,55.62,0,0,1-7.94,19.37c-.44.68-.88,1.36-1.35,2.05,0,0-17.7,37.24-1.36,85.06a136.83,136.83,0,0,0,6.72,16.16q2,4.16,4.46,8.39a69.51,69.51,0,0,1,7.51,51.35q-8.22-2.88-16.17-6.3a253.83,253.83,0,0,1-34.42-18q-3.27-5.48-7.55-11.34-2.56-3.52-5.54-7.2S58.67,404,80.13,318a193.35,193.35,0,0,0,6-23.48c3.3-16.88,6-40.61,1.76-63.53,0,0-24-65.87,36.9-116,0,0,15.59-76.93,83.76-81.33,0,0,32.77-26.29,47.34-8,14.58-18.27,47.42,8,47.42,8C371.45,38,387,115,387,115c60.94,50.16,36.9,116,36.9,116-4.18,22.83-1.56,46.47,1.72,63.34a194.14,194.14,0,0,0,6,23.67C453.13,404,404.2,454.81,404.2,454.81Z"/><path class="cls-12" d="M163.87,309.28v0a.54.54,0,0,0,.09-.12v0a36.32,36.32,0,0,0,4.95-18.32,36.38,36.38,0,0,0-25.54-34.75c-.74-.24-1.5-.45-2.26-.63l-.35-.08a34.33,34.33,0,0,0-6.71-.92c-.51,0-1,0-1.53,0s-.73,0-1.09,0a36.37,36.37,0,0,0-35,31.39,37.37,37.37,0,0,0-.34,5,36.27,36.27,0,0,0,7.45,22.06,8.9,8.9,0,0,0-3.47,4.46,9,9,0,0,0,1.78,9l-.08.06a5.47,5.47,0,0,0-2.29,2.84,5.56,5.56,0,0,0,1,5.53A4.34,4.34,0,0,0,98,337.35a4.3,4.3,0,0,0,8.11,2.88,4.24,4.24,0,0,0-.37-3.62,4.56,4.56,0,0,0,1-.29,5.53,5.53,0,0,0,3.27-7.09,9,9,0,0,0,6.93-5.53,35.64,35.64,0,0,0,7,2.48,9,9,0,0,0,4.24,10.73,5.49,5.49,0,0,0-1.27,3.52,5.61,5.61,0,0,0,2.85,4.87,4.24,4.24,0,0,0-1.56,3.28,4.31,4.31,0,0,0,8.61,0,4.21,4.21,0,0,0-1.56-3.28,5.62,5.62,0,0,0,2.84-4.87,5.44,5.44,0,0,0-1.27-3.52,9,9,0,0,0,4.7-7.92,8.67,8.67,0,0,0-.46-2.81,34.94,34.94,0,0,0,6.48-2.24,9,9,0,0,0,6.81,5.29,5.49,5.49,0,0,0,0,3.75,5.15,5.15,0,0,0,.93,1.65,5.56,5.56,0,0,0,3.36,2,4.23,4.23,0,0,0-.36,3.62,4.3,4.3,0,0,0,8.11-2.88,4.34,4.34,0,0,0-2.57-2.58,5.59,5.59,0,0,0,1-5.53,5.49,5.49,0,0,0-2.38-2.9,9,9,0,0,0,1.79-9,8.35,8.35,0,0,0-1.06-2.06h0v0a9.33,9.33,0,0,0-2-2.08,33.67,33.67,0,0,0,2.48-3.63Zm-31.34-2.55a20.47,20.47,0,1,1,0-40.93,20.21,20.21,0,0,1,9.81,2.51l.39.22h0a20.45,20.45,0,0,1,9.1,24.38s0,0,0,0h0v0l-.13.37h0A20.45,20.45,0,0,1,132.53,306.73Z"/><path class="cls-12" d="M411.26,334.77a5.63,5.63,0,0,0,1.05-5.53,5.92,5.92,0,0,0-.28-.64,5.46,5.46,0,0,0-2.1-2.26,9,9,0,0,0,1.78-9,8.86,8.86,0,0,0-3-4.17,36.42,36.42,0,0,0-19.54-57.59,35.9,35.9,0,0,0-8.73-1.17h-.47c-.74,0-1.47,0-2.21.08h0a35.73,35.73,0,0,0-7.06,1.12l-.36.1q-.77.19-1.5.45l-.64.21h0A36.36,36.36,0,0,0,345,301a35,35,0,0,0,2.8,6.9l.39.71.13.24a38.92,38.92,0,0,0,2.67,4,8.76,8.76,0,0,0-2.41,2.37v0h0a9,9,0,0,0,.72,11.08,5.58,5.58,0,0,0-1.31,8.43,4.29,4.29,0,1,0,5.54,5.46,4.24,4.24,0,0,0-.37-3.62,5.56,5.56,0,0,0,3.36-2,5,5,0,0,0,.94-1.65,5.55,5.55,0,0,0,0-3.75,9,9,0,0,0,6.92-5.53,36,36,0,0,0,7,2.48,8.67,8.67,0,0,0-.46,2.81,9,9,0,0,0,4.7,7.92,5.49,5.49,0,0,0-1.27,3.52,5.62,5.62,0,0,0,2.84,4.87,4.21,4.21,0,0,0-1.56,3.28,4.31,4.31,0,0,0,8.61,0,4.24,4.24,0,0,0-1.56-3.28,5.61,5.61,0,0,0,2.85-4.87,5.44,5.44,0,0,0-1.27-3.52A9,9,0,0,0,389,329a8.66,8.66,0,0,0-.45-2.81c.21-.05.42-.1.63-.17a33.56,33.56,0,0,0,5.85-2.07,9,9,0,0,0,6.8,5.29,5.49,5.49,0,0,0,0,3.75,5.58,5.58,0,0,0,4.3,3.63,4.29,4.29,0,1,0,5.18-1.84Zm-22.13-30.23a20.44,20.44,0,0,1-28.77-12.32c0-.14-.09-.29-.12-.43a20.23,20.23,0,0,1-.76-5.53,20.46,20.46,0,0,1,9.06-17h0l.4-.27a20.47,20.47,0,1,1,20.18,35.55Z"/></g></svg>