<svg xmlns="http://www.w3.org/2000/svg" viewBox="0 0 512 512"><defs><style>.cls-1{fill:#a65c3b;}.cls-2{fill:#8c4a30;}.cls-3{fill:#bc1919;}.cls-4{fill:#db1b1b;}.cls-5{fill:#fcc8bc;}.cls-6{fill:#fab3a7;}.cls-10,.cls-7{fill:none;stroke-linecap:round;stroke-miterlimit:10;stroke-width:7px;}.cls-7{stroke:#27273d;}.cls-8{fill:#f58d89;}.cls-9{fill:#27273d;}.cls-10{stroke:#f58d89;}.cls-11{fill:#e55e5e;}.cls-12{fill:#fff;}.cls-13{fill:#32314b;}</style></defs><title>Avatar Users2</title><g id="BULINE"><circle class="cls-1" cx="256" cy="256" r="256"/></g><g id="Icons"><path class="cls-2" d="M484.77,371a257.08,257.08,0,0,1-87,98.2c-.77.51-1.54,1-2.32,1.51q-2.65,1.74-5.34,3.39a253.37,253.37,0,0,1-36.52,18.63q-10.31,4.27-21.05,7.62c-1.43.46-2.87.89-4.32,1.31a253.78,253.78,0,0,1-41.2,8.48c-3.26.39-6.55.73-9.85,1h-.08Q266.65,512,256,512q-12.37,0-24.47-1.16l-.89-.08a254.21,254.21,0,0,1-49.83-10c-1.06-.32-2.12-.65-3.17-1Q166,496.07,155,491.28a254.84,254.84,0,0,1-35.36-18.61q-2.88-1.82-5.7-3.71l-.44-.3A257,257,0,0,1,27.23,371,257.15,257.15,0,0,1,128.17,264.16l.75-.43,1.35-.77,0,0q6.75-3.81,13.76-7.23a254.08,254.08,0,0,1,33.35-13.42l2-.62c1.49-.47,3-.92,4.49-1.36s3.29-.95,4.95-1.4c1.24-.34,2.48-.66,3.72-1,2.07-.53,4.16-1,6.25-1.51,4-.91,8.05-1.74,12.13-2.46,1.41-.25,2.83-.49,4.25-.72l1.94-.31c6.83-1,13.74-1.81,20.73-2.3q9-.63,18.17-.63,11.12,0,22,.94a253.65,253.65,0,0,1,27.91,3.93l1.67.34q6.23,1.26,12.33,2.83,4.85,1.25,9.62,2.68a255.27,255.27,0,0,1,37.3,14.45q7,3.34,13.68,7.11c.49.26,1,.53,1.45.81A257.11,257.11,0,0,1,484.77,371Z"/><path class="cls-3" d="M186.79,341.18c-15.25,29.4-35.91,51.78-50.12,65.07a8.59,8.59,0,0,1-14.39-7.46c2.67-19.28,9.07-49.06,24.31-78.46C172.18,271,213,241.4,213,241.4S212.38,291.82,186.79,341.18Z"/><path class="cls-4" d="M148.13,334.86c-23.44,23.4-49.91,38.48-67.48,46.84A8.59,8.59,0,0,1,69.2,370.23c8.39-17.56,23.5-44,46.93-67.41,39.34-39.28,87.23-55.1,87.23-55.1S187.46,295.58,148.13,334.86Z"/><path class="cls-5" d="M395.44,470.71q-2.65,1.74-5.34,3.39a253.37,253.37,0,0,1-36.52,18.63q-10.31,4.27-21.05,7.62c-1.43.46-2.87.89-4.32,1.31a253.78,253.78,0,0,1-41.2,8.48c-3.26.39-6.55.73-9.85,1h-.08Q266.65,512,256,512q-12.37,0-24.47-1.16l-.89-.08a254.21,254.21,0,0,1-49.83-10c-1.06-.32-2.12-.65-3.17-1Q166,496.07,155,491.28a254.84,254.84,0,0,1-35.36-18.61q-2.88-1.82-5.7-3.71a149.88,149.88,0,0,1,30.78-28.75,162.24,162.24,0,0,1,20-12L167,427l1.91-.93a56.19,56.19,0,0,1,7.06-2.52c4.91-1.49,11.24-3.16,17.52-5l2.62-.77c9.83-2.93,19.09-6.2,22.14-9.75a14.05,14.05,0,0,0,1.48-2c5.19-8.54,2.36-22,2.36-32,0-.78,0-1.55,0-2.27,0-1.82,0-3.48-.08-5v0c-.58-21.68-2.93-15,15.81-21.28a46.1,46.1,0,0,1,6.49-1h0c14.18-1.39,45.74-2.59,49.54,1,2.87,2.67,3.41,8.07,3,14.49v0c-.16,3-.53,6.22-1,9.5-1.39,10.77-3.41,22.16-1,28.19a29.68,29.68,0,0,0,4.57,8.09c3.72,4.65,8.5,7.36,14,9.6,4.25,1.74,8.94,3.2,13.9,5.08,1.31.5,2.62,1,4,1.59,1,.4,1.94.83,2.91,1.28,3.08,1.42,6.05,2.92,8.95,4.45.93.48,1.85,1,2.75,1.48a168.31,168.31,0,0,1,18.66,11.84A155.47,155.47,0,0,1,395.44,470.71Z"/><path class="cls-5" d="M381.74,159.7v86c0,64.14-51,84.69-88.26,117.3a57.22,57.22,0,0,1-76.28,0c-37.23-32.61-88.28-53.16-88.28-117.3v-86c0-39.45,18.38-74.36,46.56-95.58a105.49,105.49,0,0,1,63.85-21.58h32A105.51,105.51,0,0,1,335.2,64.12C363.37,85.34,381.74,120.25,381.74,159.7Z"/><path class="cls-6" d="M179.37,245.69v-86c0-61.4,44.51-111.79,101.19-116.75-3.05-.29-6.12-.42-9.23-.42h-32c-61,0-110.4,52.47-110.4,117.17v42.56a25.3,25.3,0,0,0,0,50.6l.24,0c3.67,58.56,52.22,78.79,88,110.14,18.13,15.9,42.85,18.8,63.38,8.65A59,59,0,0,1,267.63,363C230.41,330.38,179.37,309.82,179.37,245.69Z"/><circle class="cls-5" cx="381.74" cy="227.56" r="25.3"/><path class="cls-7" d="M162.93,181.73s31.89-17.77,59.42,0"/><path class="cls-7" d="M285.79,181.73s31.89-17.77,59.42,0"/><rect class="cls-6" x="238.15" y="248.7" width="36.75" height="13.93" rx="6.39"/><path class="cls-8" d="M129.65,217.5a10.06,10.06,0,0,0,0,20.12Z"/><path class="cls-6" d="M381.75,237.62a10.06,10.06,0,0,0,0-20.12Z"/><ellipse class="cls-9" cx="192.22" cy="224.51" rx="10.57" ry="15.21"/><ellipse class="cls-9" cx="315.08" cy="224.51" rx="10.57" ry="15.21"/><path class="cls-7" d="M173,213.3s18.26-11.53,38.43,0"/><path class="cls-7" d="M295.86,213.3s18.25-11.53,38.43,0"/><line class="cls-10" x1="238.85" y1="288.42" x2="274.19" y2="288.42"/><line class="cls-10" x1="243.51" y1="302.28" x2="269.54" y2="302.28"/><path class="cls-4" d="M391.81,161.14H119.59A135.09,135.09,0,0,1,254.73,26h1.94c4.17,0,8.3.19,12.36.57a134.21,134.21,0,0,1,62.08,21.77,135.6,135.6,0,0,1,21.11,17.24c1.19,1.2,2.37,2.42,3.51,3.66a132.15,132.15,0,0,1,9.85,11.91,134.08,134.08,0,0,1,25.74,68.66C391.65,153.56,391.81,157.33,391.81,161.14Z"/><polygon class="cls-3" points="154.34 161.14 128.93 202.26 119.59 161.14 154.34 161.14"/><polygon class="cls-3" points="356.45 161.14 381.86 202.26 391.2 161.14 356.45 161.14"/><path class="cls-11" d="M305.87,35.24,180,161.14H134.46L269,26.57A133.65,133.65,0,0,1,305.87,35.24Z"/><path class="cls-11" d="M355.73,69.24l-91.88,91.9H218.32L331.11,48.34a135.6,135.6,0,0,1,21.11,17.24C353.41,66.78,354.59,68,355.73,69.24Z"/><path class="cls-11" d="M192.05,48.34a37.73,37.73,0,0,1-48.6,36.12,135.29,135.29,0,0,1,48-42.76A37.44,37.44,0,0,1,192.05,48.34Z"/><path class="cls-11" d="M391.32,149.81a37.73,37.73,0,0,1-25.74-68.66A134.08,134.08,0,0,1,391.32,149.81Z"/><path class="cls-9" d="M325.65,310l-4.42-3.16L264,265.8a12.75,12.75,0,0,0-14.87,0l-45.5,32.59h0l-5.91,4.24-4.16,3L187.39,310a16.41,16.41,0,0,0-5.85,19.13,79.39,79.39,0,0,0,4.23,9.32h0c.39.74.81,1.5,1.24,2.26h0a70.93,70.93,0,0,0,35.1,31.08c9.38,3.83,20.72,6.22,34.41,6.22,16.21,0,29.15-3.36,39.43-8.51,17.48-8.74,27.35-22.63,32.78-34h0s0,0,0,0c1.09-2.26,2-4.4,2.75-6.39A16.41,16.41,0,0,0,325.65,310Zm-105.14,1.42,9.19-10.28,11.39-12.72h0l8.17-9.14a9.73,9.73,0,0,1,14.51,0l8.16,9.14h0l11.75,13.13,8.84,9.87a5.78,5.78,0,0,1,.21,7.44l-.68.86a5.77,5.77,0,0,1-8.39.71c-6.19-5.82-16.83-8.27-22.78-9.24a28.46,28.46,0,0,0-8.74,0c-6,1-16.59,3.42-22.79,9.24a5.75,5.75,0,0,1-8.38-.71l-.69-.86A5.77,5.77,0,0,1,220.51,311.43Z"/><path class="cls-9" d="M144.06,177.78v87.36a7.57,7.57,0,0,1-7.57,7.57h0a7.57,7.57,0,0,1-7.57-7.57V202.26Z"/><path class="cls-9" d="M366.82,177.78v87.36a7.57,7.57,0,0,0,7.57,7.57h0a7.56,7.56,0,0,0,7.56-7.57V202.26Z"/><path class="cls-9" d="M227.7,503.45l2.94,7.31a254.21,254.21,0,0,1-49.83-10c-1.06-.32-2.12-.65-3.17-1Q166,496.07,155,491.28a254.84,254.84,0,0,1-35.36-18.61q-2.88-1.82-5.7-3.71a149.88,149.88,0,0,1,30.78-28.75,162.24,162.24,0,0,1,20-12L167,427l1.91-.93a56.19,56.19,0,0,1,7.06-2.52c4.91-1.49,11.24-3.16,17.52-5L213,467Z"/><path class="cls-9" d="M395.44,470.71q-2.65,1.74-5.34,3.39a253.37,253.37,0,0,1-36.52,18.63q-10.31,4.27-21.05,7.62c-1.43.46-2.87.89-4.32,1.31a253.78,253.78,0,0,1-41.2,8.48l18.86-39.92,21.53-49.73c1.31.5,2.62,1,4,1.59,1,.4,1.94.83,2.91,1.28,3.08,1.42,6.05,2.92,8.95,4.45.93.48,1.85,1,2.75,1.48a168.31,168.31,0,0,1,18.66,11.84A155.47,155.47,0,0,1,395.44,470.71Z"/><path class="cls-12" d="M294,467l-16.84,44.14h-.08Q266.65,512,256,512q-12.37,0-24.47-1.16l-.89-.08-2.94-7.31L213,467Z"/><path class="cls-13" d="M231.53,510.84l-.89-.08a254.21,254.21,0,0,1-49.83-10l.84-2.6-4,1.6Q166,496.07,155,491.28c-2-16.6-.6-43.4,21-67.71a102.4,102.4,0,0,1,11.06-10.63,5.1,5.1,0,0,1,8,2.11l1.06,2.78L214.85,467Z"/><path class="cls-13" d="M353.58,492.73q-10.31,4.27-21.05,7.62l-5.45-2.18,1.13,3.49a253.78,253.78,0,0,1-41.2,8.48c-3.26.39-6.55.73-9.85,1h-.08L293.88,467l19.62-51.59.14-.36a5.09,5.09,0,0,1,8-2.11,101.94,101.94,0,0,1,9.7,9.14C355,447.49,355.85,475.94,353.58,492.73Z"/></g></svg>