<svg xmlns="http://www.w3.org/2000/svg" viewBox="0 0 512 512"><defs><style>.cls-1{fill:#27273d;}.cls-2{fill:#363651;}.cls-3{fill:#fcc8bc;}.cls-4{fill:#fab3a7;}.cls-5{fill:none;stroke:#27273d;stroke-linecap:round;stroke-miterlimit:10;stroke-width:7px;}.cls-6{fill:#f58d89;}.cls-7{fill:#d2efff;}.cls-8{fill:#fff;}.cls-9{fill:#d54545;}.cls-10{fill:#c11e1e;}.cls-11{fill:#db1b1b;}.cls-12{fill:#f6c752;}.cls-13{fill:#ffdd92;}.cls-14{fill:#dbad49;}</style></defs><title>Avatar Users2</title><g id="BULINE"><circle class="cls-1" cx="256" cy="256" r="256"/></g><g id="Icons"><path class="cls-2" d="M484.77,371a257,257,0,0,1-94,102.69l-.66.41q-6.23,3.84-12.67,7.31a250.78,250.78,0,0,1-27.75,12.89,255.62,255.62,0,0,1-214.39-12.51q-7.24-3.87-14.21-8.21c-.5-.29-1-.6-1.48-.91A257.16,257.16,0,0,1,27.23,371a257.26,257.26,0,0,1,88.2-99q7.23-4.77,14.8-9,4.11-2.33,8.31-4.5l.69-.35q9.39-4.83,19.21-8.88L159,249c3.51-1.43,7.05-2.8,10.64-4.08h0q6.27-2.25,12.7-4.18l3.79-1.1q7.64-2.16,15.45-3.84l1.72-.37c2.56-.54,5.13-1,7.71-1.49,1.24-.22,2.47-.43,3.71-.63a256.73,256.73,0,0,1,27.93-3Q249.31,230,256,230t13.21.33a256.55,256.55,0,0,1,28.07,3l.77.12q3.88.65,7.73,1.41,8.13,1.59,16.06,3.71c2.66.71,5.3,1.45,7.92,2.24q5.07,1.53,10.05,3.26c1.22.42,2.44.85,3.65,1.29q6.89,2.5,13.59,5.39l.24.1,1.09.48q9.62,4.2,18.81,9.15,4.81,2.6,9.5,5.38,6.62,3.93,13,8.25A257,257,0,0,1,484.77,371Z"/><path class="cls-3" d="M377.43,481.41a250.78,250.78,0,0,1-27.75,12.89,255.62,255.62,0,0,1-214.39-12.51q1.2-1.19,2.43-2.34h0c2.32-2.2,4.76-4.32,7.28-6.38q4.5-3.69,9.44-7.1a158.61,158.61,0,0,1,21.87-12.57c8.42-4,40.49-9.95,46.57-17,6.77-7.84,3.62-21.92,3.62-32.09,0-2.58,0-4.86-.09-6.87h0c-.53-20.48-2.74-14.15,14.93-20.09a41.32,41.32,0,0,1,6.15-.9h0c13.4-1.32,43.15-2.45,46.75.9,2.69,2.53,3.22,7.62,2.86,13.7-.68,12.11-4.8,28.15-1.91,35.57,6.57,16.79,20.7,16.56,37.15,24.21a171.89,171.89,0,0,1,27,15.56h0q4.11,2.89,7.91,6c3.11,2.51,6.06,5.1,8.89,7.81h0Z"/><path class="cls-3" d="M377.19,202v81.16c0,60.54-48.19,79.94-83.32,110.73a54,54,0,0,1-72,0c-35.13-30.79-83.32-50.19-83.32-110.73V202c0-61.08,46.66-110.59,104.22-110.59H273C330.53,91.36,377.19,140.87,377.19,202Z"/><path class="cls-4" d="M186.17,283.11V202c0-58,42-105.52,95.5-110.2-2.87-.28-5.77-.4-8.71-.4h-30.2c-57.56,0-104.21,49.52-104.21,110.6v40.17a23.88,23.88,0,0,0,0,47.76h.23c3.46,55.27,49.29,74.37,83.07,104A53.87,53.87,0,0,0,281.67,402a55.22,55.22,0,0,1-12.2-8.16C234.34,363.06,186.17,343.66,186.17,283.11Z"/><circle class="cls-3" cx="377.19" cy="266" r="23.88"/><path class="cls-5" d="M170.64,221.43s30.1-16.77,56.09,0"/><path class="cls-5" d="M286.61,221.43s30.1-16.77,56.09,0"/><rect class="cls-4" x="239.61" y="289.88" width="34.69" height="13.15" rx="6.03"/><path class="cls-6" d="M139.23,256.51a9.5,9.5,0,1,0,0,19Z"/><path class="cls-4" d="M377.19,275.5a9.5,9.5,0,1,0,0-19Z"/><path class="cls-7" d="M236.07,253.9v18.46a20.58,20.58,0,0,1-20.59,20.58H179a20.6,20.6,0,0,1-20.59-20.58V253.9A20.59,20.59,0,0,1,179,233.31h36.45a20.24,20.24,0,0,1,6.64,1.1A20.59,20.59,0,0,1,236.07,253.9Z"/><path class="cls-8" d="M202.54,233.31l-21.92,59.63H179a20.47,20.47,0,0,1-13.87-5.38l20-54.25Z"/><path class="cls-8" d="M222.12,234.41l-21.5,58.53H189.35l21.93-59.63h4.2A20.24,20.24,0,0,1,222.12,234.41Z"/><path class="cls-7" d="M357.3,253.9v18.46a20.59,20.59,0,0,1-20.59,20.58H300.26a20.62,20.62,0,0,1-20.6-20.58V253.9a20.6,20.6,0,0,1,20.6-20.59h36.45a20.28,20.28,0,0,1,6.64,1.1A20.6,20.6,0,0,1,357.3,253.9Z"/><path class="cls-8" d="M323.77,233.31l-21.92,59.63h-1.59a20.47,20.47,0,0,1-13.87-5.38l19.95-54.25Z"/><path class="cls-8" d="M343.35,234.41l-21.51,58.53H310.58l21.93-59.63h4.2A20.28,20.28,0,0,1,343.35,234.41Z"/><rect class="cls-5" x="158.44" y="233.31" width="77.63" height="57.31" rx="12.21"/><rect class="cls-5" x="279.67" y="233.31" width="77.63" height="57.31" rx="12.21"/><line class="cls-5" x1="236.07" y1="245.51" x2="279.67" y2="245.51"/><path class="cls-9" d="M256.73,324.71c-17.75-2.88-33.2,8.65-33.2,8.65,0,9.17,14.86,18.07,33.2,18.07h0c18.34,0,33.21-8.9,33.21-18.07C289.94,333.36,274.48,321.83,256.73,324.71Z"/><path class="cls-10" d="M280.36,334.15H240.17a6,6,0,0,1,2.8-3.44,50.08,50.08,0,0,1,21.36-6.4,35.63,35.63,0,0,0-7.59.4c-17.75-2.87-33.21,8.65-33.21,8.65,0,9.16,14.86,18.07,33.21,18.07a56.6,56.6,0,0,0,7.6-.51C253.68,349.44,245,345,241,339.65a6.19,6.19,0,0,1-.88-1.81h40.21a1.85,1.85,0,1,0,0-3.69Z"/><ellipse class="cls-1" cx="198.29" cy="263.12" rx="9.98" ry="14.36"/><ellipse class="cls-1" cx="314.26" cy="263.12" rx="9.98" ry="14.36"/><path class="cls-5" d="M180.15,252.54s17.23-10.88,36.28,0"/><path class="cls-5" d="M296.12,252.54s17.23-10.88,36.28,0"/><path class="cls-11" d="M377.43,481.41a250.78,250.78,0,0,1-27.75,12.89,255.62,255.62,0,0,1-214.39-12.51q1.2-1.19,2.43-2.34h0c2.32-2.2,4.76-4.32,7.28-6.38l70.75,29.84,70.62-.88,66.92-22,14-7.62c3.11,2.51,6.06,5.1,8.89,7.81h0Z"/><path class="cls-8" d="M376.17,480.2a241.9,241.9,0,0,1-26.49,14.1,256.92,256.92,0,0,1-177.19,3.76,242.69,242.69,0,0,1-34.76-18.61c2.32-2.2,4.76-4.32,7.28-6.38q4.5-3.69,9.44-7.1c31.79,17.09,110.2,47.65,204.91.42h0q4.11,2.89,7.91,6C370.39,474.9,373.34,477.49,376.17,480.2Z"/><circle class="cls-8" cx="138.55" cy="289.88" r="14.36"/><circle class="cls-8" cx="377.19" cy="289.88" r="14.36"/><path class="cls-12" d="M382.51,157c-4.65-21.08-20-60.68-70.26-77.72a56.14,56.14,0,0,0,.6-8.15,55.33,55.33,0,1,0-110.65,0,57,57,0,0,0,.55,7.78C151.62,95.79,136.09,135.81,131.4,157a65,65,0,0,0-1,22l7.8,63c19-7.32,33.23-45.08,38.91-62.49a9.3,9.3,0,0,1,11.56-6c44.55,13.35,90.09,13.43,136.62-.11a9.29,9.29,0,0,1,11.47,6c5.66,17.37,19.94,55.25,38.94,62.58l7.79-63A65,65,0,0,0,382.51,157Z"/><path class="cls-13" d="M324.51,100.35c1.13,12.89-.17,31.56-13.33,45.62a3.3,3.3,0,0,0,2.61,5.57c8.72-.61,21.51-2.42,28.57-7.71a3.31,3.31,0,0,1,5.11,1.37c1.78,4.61,4,12.11,3,19.25a3.3,3.3,0,0,0,5.86,2.42c6.31-7.71,11.61-21.46,3.74-44.41a3.29,3.29,0,0,0-5.77-.87l-1.22,1.66a3.3,3.3,0,0,1-5.37-.08l-17.24-25A3.29,3.29,0,0,0,324.51,100.35Z"/><path class="cls-14" d="M283.15,71.17c0,.43,0,.86,0,1.29a200,200,0,0,0-23.29-1.29h-1.13a203.18,203.18,0,0,0-22.18,1.16c0-.39,0-.77,0-1.16a23.34,23.34,0,0,1,46.67,0Z"/></g></svg>