<svg xmlns="http://www.w3.org/2000/svg" viewBox="0 0 512 512"><defs><style>.cls-1{fill:#f7bb38;}.cls-2{fill:#dba231;}.cls-3{fill:#27273d;}.cls-4{fill:#9e4830;}.cls-5{fill:#843c2a;}.cls-6{fill:none;stroke:#27273d;stroke-linecap:round;stroke-miterlimit:10;stroke-width:7px;}.cls-7{fill:#6d3125;}.cls-8{fill:#fff;}.cls-9{fill:#db1b1b;}.cls-10{fill:#32314b;}.cls-11{fill:#f6c752;}.cls-12{fill:#b0d46c;}</style></defs><title>Avatar Users2</title><g id="BULINE"><circle class="cls-1" cx="256" cy="256" r="256"/></g><g id="Icons"><path class="cls-2" d="M484.77,371A257.06,257.06,0,0,1,390.1,474.1c-.7.43-1.4.86-2.11,1.27q-8.7,5.25-17.85,9.81a252.94,252.94,0,0,1-57.59,20.54,255.9,255.9,0,0,1-173.18-21.78q-9.59-4.92-18.69-10.6l-1.08-.67A257.16,257.16,0,0,1,27.23,371,256.87,256.87,0,0,1,135.47,260.1c1-.55,2-1.08,3.05-1.61q4.6-2.39,9.32-4.58,2.17-1,4.37-2,10.92-4.84,22.37-8.69h0q3.09-1,6.21-2l2.49-.75c2.48-.74,5-1.43,7.49-2.1q7.59-2,15.34-3.51l2.45-.47a258.33,258.33,0,0,1,94.63,0q8.28,1.54,16.36,3.61,5,1.28,9.91,2.75,3.51,1,7,2.2,11.7,3.85,22.87,8.8l3.38,1.54.41.19q4.68,2.15,9.25,4.49c.95.49,1.9,1,2.84,1.48a251,251,0,0,1,24,14.37A257.22,257.22,0,0,1,484.77,371Z"/><path class="cls-3" d="M72.83,209.21c0,10.08-12.28,21-10.76,30.66,1.56,9.92,16.63,16.53,19.66,25.87,3.09,9.51-5.2,23.71-.71,32.49s20.9,10.48,26.72,18.48,2.35,24.11,9.36,31.12,23.08,3.51,31.12,9.36,9.61,22.19,18.48,26.72,23-3.8,32.49-.71c9.34,3,15.95,18.1,25.87,19.66,9.65,1.52,20.58-10.76,30.66-10.76s21,12.28,30.67,10.76c9.91-1.56,16.52-16.63,25.87-19.66,9.5-3.09,23.7,5.2,32.48.71s10.49-20.9,18.48-26.72,24.11-2.35,31.12-9.36,3.51-23.08,9.36-31.12,22.2-9.61,26.73-18.48-3.81-23-.72-32.49c3-9.34,18.1-16,19.66-25.87,1.52-9.65-10.76-20.58-10.76-30.66s12.28-21,10.76-30.67c-1.56-9.91-16.63-16.52-19.66-25.87s5.2-23.7.72-32.48S409.52,109.7,403.7,101.7s-2.35-24.1-9.36-31.11-23.08-3.51-31.12-9.36S353.61,39,344.74,34.5s-23,3.8-32.48.72c-9.35-3-16-18.11-25.87-19.66-9.66-1.52-20.58,10.75-30.67,10.75s-21-12.27-30.66-10.75c-9.92,1.55-16.53,16.62-25.87,19.66-9.51,3.08-23.71-5.2-32.49-.72s-10.49,20.91-18.48,26.73-24.11,2.35-31.12,9.36-3.51,23.08-9.36,31.12S85.55,111.32,81,120.19s3.8,23,.71,32.48-18.1,16-19.66,25.87C60.55,188.2,72.83,199.12,72.83,209.21Z"/><path class="cls-4" d="M370.14,485.18a252.94,252.94,0,0,1-57.59,20.54,255.9,255.9,0,0,1-173.18-21.78,150.61,150.61,0,0,1,30-20l2.21-1.1c.6-.31,1.21-.59,1.81-.88,8.46-4,40.67-10,46.79-17.07,6.79-7.88,3.63-22,3.63-32.24,0-2.58,0-4.87-.08-6.89v0c0-1.16-.08-2.22-.11-3.23h0c-.63-16.66-1.66-11.3,15.11-16.95a41.32,41.32,0,0,1,6.15-.9h0c13.45-1.32,43.37-2.46,47,.9,2.55,2.39,3.16,7.06,2.93,12.69h0c0,.35,0,.69,0,1.06h0c-.68,12.17-4.83,28.28-1.92,35.74,6.59,16.86,20.79,16.64,37.32,24.31,2.91,1.36,5.75,2.76,8.49,4.22.88.46,1.75.94,2.6,1.41A158.94,158.94,0,0,1,370.14,485.18Z"/><path class="cls-4" d="M375.22,209.37v81.55c0,60.81-48.41,80.3-83.7,111.23a54.28,54.28,0,0,1-72.34,0c-35.3-30.93-83.71-50.42-83.71-111.23V209.37c0-61.35,46.88-111.1,104.7-111.1h30.36C328.35,98.27,375.22,148,375.22,209.37Z"/><path class="cls-5" d="M183.31,290.92V209.38c0-58.23,42.21-106,95.95-110.71-2.88-.28-5.79-.4-8.74-.4H240.17c-57.83,0-104.69,49.75-104.69,111.11v40.36a24,24,0,1,0,0,48h.23c3.48,55.52,49.52,74.7,83.46,104.44a54.13,54.13,0,0,0,60.09,8.2,56.36,56.36,0,0,1-12.26-8.2C231.71,371.23,183.31,351.74,183.31,290.92Z"/><circle class="cls-4" cx="375.22" cy="273.73" r="23.99"/><path class="cls-6" d="M167.72,240.78s30.24-16.85,56.35,0"/><ellipse class="cls-3" cx="195.49" cy="270.84" rx="10.02" ry="14.43"/><path class="cls-6" d="M284.22,240.78s30.24-16.85,56.35,0"/><ellipse class="cls-3" cx="312" cy="270.84" rx="10.02" ry="14.43"/><rect class="cls-5" x="238.21" y="297.72" width="34.85" height="13.21" rx="6.06"/><path class="cls-6" d="M177.27,260.2s17.31-10.93,36.45,0"/><path class="cls-6" d="M293.77,260.2s17.32-10.93,36.45,0"/><path class="cls-7" d="M136.16,264.19a9.54,9.54,0,1,0,0,19.08Z"/><path class="cls-5" d="M375.22,283.27a9.54,9.54,0,0,0,0-19.08Z"/><path class="cls-8" d="M226,334.75c0,15.67,13.84,30.89,30.92,30.89h0c17.08,0,28.57-15.22,28.57-30.89Z"/><path class="cls-9" d="M286.57,334.75A35.52,35.52,0,0,1,277.51,358c-5.6,6.28-13.34,10.42-21.87,10.42-17.09,0-30.94-16.59-30.94-33.67h1.8c4.28,12.68,15.71,22.94,29.14,22.94,8.53,0,16.27-4.14,21.87-10.44a36.35,36.35,0,0,0,7.26-12.5Z"/><path class="cls-9" d="M255.64,326.7c-16.54-2.68-30.93,8.05-30.93,8.05h61.85S272.17,324,255.64,326.7Z"/><path class="cls-3" d="M383.39,208.44v9c-2.84,2.78-5.8,5-9.21,5.58-8.75,1.38-18.66-9.74-27.8-9.74s-19,11.12-27.8,9.74c-9-1.4-15-15.06-23.44-17.81-8.62-2.81-21.5,4.7-29.46.64s-9.5-18.95-16.74-24.23c-3.6-2.61-8.95-3.16-14.23-3.82-6,1.93-14.32,1.13-19,4.55-6,4.4-7.26,16.76-13.95,20.19s-17.37-2.86-24.56-.53-12.06,13.67-19.54,14.85c-7.3,1.15-15.56-8.13-23.18-8.13a16.49,16.49,0,0,0-7.16,2.07v-2.32c0-65.54,50.08-118.67,111.84-118.67h32.43C333.33,89.77,383.39,142.9,383.39,208.44Z"/><path class="cls-10" d="M327.86,93.37c1.14,12.95-.17,31.7-13.38,45.83a3.31,3.31,0,0,0,2.62,5.59c8.76-.61,21.61-2.43,28.7-7.74a3.33,3.33,0,0,1,5.14,1.38c1.78,4.63,4,12.16,3,19.33a3.31,3.31,0,0,0,5.88,2.44c6.34-7.75,11.67-21.56,3.77-44.62a3.33,3.33,0,0,0-5.81-.88l-1.22,1.67a3.31,3.31,0,0,1-5.4-.08L333.89,91.21A3.31,3.31,0,0,0,327.86,93.37Z"/><path class="cls-11" d="M135.47,286.15a39.81,39.81,0,0,0-8.85-1,40.33,40.33,0,0,0-11.27,1.6h0a41.2,41.2,0,0,0-24.6,19.5h0A41.08,41.08,0,0,0,158.63,352v0h0a40.72,40.72,0,0,0,9.05-24.77c0-.31,0-.63,0-1A41.15,41.15,0,0,0,135.47,286.15Zm14.75,55.07s0,0,0,0a28.06,28.06,0,0,1-16,11.94h0a28.09,28.09,0,0,1-7.55,1,28,28,0,1,1,9.22-54.33h0a28,28,0,0,1,18.7,26.37,28.33,28.33,0,0,1-.42,4.82,27.66,27.66,0,0,1-3.93,10.12A0,0,0,0,0,150.22,341.22Z"/><path class="cls-11" d="M419.58,306.84h0a41.28,41.28,0,0,0-24.33-19.89h0a40.1,40.1,0,0,0-11.86-1.77,41.14,41.14,0,0,0-41.08,41.1c0,.14,0,.26,0,.4a41.12,41.12,0,0,0,17.9,33.51h0a41.07,41.07,0,0,0,59.36-53.35Zm-18.22,40.82a28,28,0,0,1-25.07,5.65h0a28,28,0,0,1-16.14-11.55,27.61,27.61,0,0,1-4.38-11.35,27.94,27.94,0,0,1,19.12-30.76,27.95,27.95,0,0,1,26.49,48Z"/><path class="cls-12" d="M169.41,464l29.38,41.61a254,254,0,0,1-59.42-21.64A150.61,150.61,0,0,1,169.41,464Z"/><path class="cls-12" d="M370.14,485.18a252.94,252.94,0,0,1-57.59,20.54L341.28,465A158.94,158.94,0,0,1,370.14,485.18Z"/></g></svg>