<svg xmlns="http://www.w3.org/2000/svg" viewBox="0 0 512 512"><defs><style>.cls-1{fill:#fc715a;}.cls-2{fill:#e26150;}.cls-3{fill:#f6c752;}.cls-4{fill:#f7bb38;}.cls-5{fill:#fcc8bc;}.cls-6{fill:#fab3a7;}.cls-7{fill:none;stroke:#27273d;stroke-linecap:round;stroke-miterlimit:10;stroke-width:7px;}.cls-8{fill:#f58d89;}.cls-9{fill:#27273d;}.cls-10{fill:#d54545;}.cls-11{fill:#c11e1e;}.cls-12{fill:#41c0e3;}.cls-13{fill:#36abc6;}.cls-14{fill:#f6d372;}.cls-15{fill:#aa60fa;}.cls-16{fill:#00b564;}.cls-17{fill:#049e54;}</style></defs><title>Avatar Users2</title><g id="BULINE"><circle class="cls-1" cx="256" cy="256" r="256"/></g><g id="Icons"><path class="cls-2" d="M484.77,371a255.83,255.83,0,0,1-24.25,39q-5.83,7.74-12.24,15c-1.82,2.07-3.67,4.12-5.58,6.13a256.21,256.21,0,0,1-52.6,43c-1,.63-2.05,1.25-3.08,1.86q-5.32,3.19-10.83,6.12a252.07,252.07,0,0,1-33,14.69c-1.08.4-2.15.78-3.24,1.15-2.68.94-5.39,1.82-8.12,2.66q-11.75,3.66-24,6.17A255.49,255.49,0,0,1,119.6,472.67l-1.1-.71a256.77,256.77,0,0,1-50.79-42.53q-2.35-2.55-4.64-5.17-6.76-7.74-12.91-16A256.72,256.72,0,0,1,27.23,371a254.49,254.49,0,0,1,17.11-29c.49-.73,1-1.46,1.5-2.18a257.16,257.16,0,0,1,68.43-67c1.93-1.3,3.88-2.56,5.86-3.8l.38-.24.89-.55c3.31-2.06,6.67-4,10.07-5.94a255.12,255.12,0,0,1,49.38-21.06c.77-.24,1.55-.48,2.33-.7q9.54-2.83,19.37-4.92a258.49,258.49,0,0,1,102.38-.92q9.54,1.85,18.81,4.38A255,255,0,0,1,379,261.41q3.66,2,7.25,4.13c1.24.74,2.48,1.49,3.71,2.25a257.24,257.24,0,0,1,76.32,72.12c.29.42.59.84.88,1.27A256,256,0,0,1,484.77,371Z"/><path class="cls-3" d="M433.48,347.49s21.76,24.06,27,62.49q-5.83,7.74-12.24,15l-5.85-4.68s.33,4,.27,10.81a256.21,256.21,0,0,1-52.6,43c-1,.63-2.05,1.25-3.08,1.86q-5.32,3.19-10.83,6.12a252.07,252.07,0,0,1-33,14.69c-1.08.4-2.15.78-3.24,1.15-2.68.94-5.39,1.82-8.12,2.66q-11.75,3.66-24,6.17A255.49,255.49,0,0,1,119.6,472.67l-1.1-.71a256.77,256.77,0,0,1-50.79-42.53c0-5.79.28-9.11.28-9.11l-4.92,3.94q-6.76-7.74-12.91-16C55.84,370.82,77,347.49,77,347.49c-15.25,5.38-27.55-1.74-32.61-5.5a27.18,27.18,0,0,1-2.5-2.07,32.77,32.77,0,0,0,4-.11c26.69-2.26,31-36,31.11-36.76h0c-5.74-36.33,9.85-72.75,19.34-90.75L103,174.6a152.41,152.41,0,1,1,304.82,0l6.32,37.69c9.37,17.78,24.71,53.54,19.55,89.42-.06.45-.13.89-.2,1.33,0,0,4.27,35.89,32.76,36.87.76,0,1.54,0,2.34,0,0,0-.51.5-1.46,1.26C462.89,344.58,449.9,353.28,433.48,347.49Z"/><path class="cls-4" d="M395.81,349.48s-8-10.65-20.74-14.68c0,0,24.5,65.27,4.71,122.76l-3.59-4.42-8.66-10.66s-1.72,4.13-4.93,11.12c-4.15,9-10.79,22.77-19.45,38.51-1,1.91-2.13,3.84-3.24,5.81-2.68.94-5.39,1.82-8.12,2.66q-11.75,3.66-24,6.17a257.54,257.54,0,0,1-141.34-10.84c-10.74-19.18-18.65-35.85-22.91-45.27-2.34-5.18-3.58-8.16-3.58-8.16l-12.24,15.08c-19.79-57.49,4.7-122.76,4.7-122.76-12.77,4-20.73,14.68-20.73,14.68-2.24-16.16-.23-36.64,3.7-57.44.23-1.26.48-2.53.73-3.8,1.15-5.75,2.43-11.51,3.8-17.19.18-.72.35-1.44.53-2.16l0-.13.21-.86c1.33-5.35,2.72-10.61,4.15-15.71,1.56-5.58,3.15-11,4.72-16.1.63-2.06,1.26-4.08,1.88-6,1.27-4,2.51-7.82,3.7-11.36,5.39-16.14,9.54-26.69,9.54-26.69l34.19-13.29,2-.76,69.8-27.12v-2.42l3.1,1.21,3.11-1.21v2.42L357,189.73l5.85,2.27s2.31,5.87,5.72,15.55c1.42,4,3,8.73,4.75,13.94C375.09,227,377,233,379,239.41a0,0,0,0,0,0,0c1.44,4.8,2.9,9.83,4.32,15,1,3.63,2,7.34,2.93,11.1.27,1,.53,2.1.79,3.16,0,.09.05.19.07.29,1.91,7.74,3.66,15.65,5.13,23.51C396.07,313.14,398,333.44,395.81,349.48Z"/><path class="cls-5" d="M387,476q-5.32,3.19-10.83,6.12a252.07,252.07,0,0,1-33,14.69c-1.08.4-2.15.78-3.24,1.15-2.68.94-5.39,1.82-8.12,2.66q-11.75,3.66-24,6.17A255.49,255.49,0,0,1,119.6,472.67l-1.1-.71a148,148,0,0,1,17-15.44q3.9-3,8.08-5.88a168.48,168.48,0,0,1,22.33-12.75c.36-.17.75-.34,1.2-.51l.35-.15c.34-.13.7-.27,1.08-.4s.63-.24,1-.34l1.31-.44,1.75-.56,2.07-.62c2-.59,4.19-1.21,6.48-1.85l2.71-.75c3.1-.86,6.32-1.77,9.47-2.71,8.58-2.55,16.64-5.39,20.57-8.41a9.1,9.1,0,0,0,1.38-1.28c7.19-8.31,3.87-23.22,3.87-34,0-2.49,0-4.69-.08-6.69v0c-.55-22.42-3.12-15.53,15.81-21.87a33.57,33.57,0,0,1,4.77-.77h0c13.18-1.47,47.3-2.94,51.27.77,3.66,3.43,3.54,11.29,2.56,20.11-1.31,11.83-4.18,25.35-1.54,32.11a28.78,28.78,0,0,0,7,10.7c7.79,7.37,19,8.9,31.54,14.58l.87.38.49.24c.61.28,1.22.57,1.82.88a3.42,3.42,0,0,1,.43.21q4.69,2.25,9.11,4.71c.5.25,1,.52,1.47.8a171.67,171.67,0,0,1,18,11.6h0c1.6,1.19,3.16,2.38,4.68,3.6q4.67,3.72,8.91,7.66A154.86,154.86,0,0,1,387,476Z"/><path class="cls-5" d="M379,179.16v84.17c0,62.79-50,82.9-86.4,114.84a56.1,56.1,0,0,1-74.7,0c-36.42-31.94-86.39-52.05-86.39-114.84V179.16c0-2.84.09-5.68.29-8.47,4-57.82,48.37-103.75,103.3-106.11,1.48-.08,3-.11,4.49-.11h31.33c58.34,0,105.88,49.07,108,110.43C378.93,176.32,379,177.73,379,179.16Z"/><path class="cls-6" d="M180.85,263.34V179.16c0-60.1,43.57-109.43,99-114.28-3-.28-6-.41-9-.41H239.55c-59.7,0-108.08,51.36-108.08,114.69v41.67a24.76,24.76,0,0,0,0,49.52h.24c3.59,57.32,51.11,77.12,86.15,107.82a55.89,55.89,0,0,0,62,8.46,58.06,58.06,0,0,1-12.66-8.46C230.81,346.24,180.85,326.12,180.85,263.34Z"/><circle class="cls-5" cx="378.95" cy="245.59" r="24.76"/><path class="cls-7" d="M164.75,205s31.22-17.39,58.17,0"/><path class="cls-7" d="M285,205s31.21-17.39,58.17,0"/><rect class="cls-6" x="237.95" y="270.35" width="35.98" height="13.64" rx="6.25"/><path class="cls-8" d="M132.18,235.74a9.85,9.85,0,0,0,0,19.7Z"/><path class="cls-6" d="M379,255.44a9.85,9.85,0,1,0,0-19.7Z"/><ellipse class="cls-9" cx="193.42" cy="242.61" rx="10.35" ry="14.89"/><ellipse class="cls-9" cx="313.69" cy="242.61" rx="10.35" ry="14.89"/><path class="cls-7" d="M174.61,231.63s17.87-11.29,37.62,0"/><path class="cls-7" d="M294.88,231.63s17.87-11.29,37.62,0"/><path class="cls-10" d="M255.93,308.28c-17.8-2.89-33.31,8.67-33.31,8.67,0,9.2,14.91,18.14,33.31,18.14h0c18.4,0,33.32-8.94,33.32-18.14C289.25,317,273.74,305.39,255.93,308.28Z"/><path class="cls-11" d="M279.64,317.74H239.32a6.06,6.06,0,0,1,2.8-3.44,50.35,50.35,0,0,1,21.43-6.43,36.54,36.54,0,0,0-7.61.41c-17.8-2.88-33.32,8.67-33.32,8.67,0,9.2,14.92,18.14,33.32,18.14a57,57,0,0,0,7.63-.52c-10.7-1.48-19.42-5.95-23.39-11.3a5.78,5.78,0,0,1-.88-1.82h40.34a1.86,1.86,0,0,0,0-3.71Z"/><path class="cls-3" d="M368.44,101.16,343.19,79.08l-10.31-2.75a11.44,11.44,0,0,0-.38-2.3l-20-9.84-67.47-7.66-56.87,7.94L152.3,93.06l-30,54.37V205l9.14,15.81c19.36-9.33,80.76-77.67,80.76-77.67l4,16.85c50.75-16.41,65.31-53.6,65.31-53.6L285,126.53c15.28-7.44,25.74-14.74,32.89-21.43C327,130,350,187.7,379,220.83l9.85-23.54V153.66Z"/><circle class="cls-12" cx="124.3" cy="281.86" r="13.52" transform="translate(-61.43 36.1) rotate(-13.28)"/><circle class="cls-12" cx="124.3" cy="304.29" r="8.91"/><circle class="cls-12" cx="124.3" cy="320.42" r="7.22"/><path class="cls-13" d="M126.19,295.24a13.14,13.14,0,0,1-1.89.13,13.52,13.52,0,1,1,0-27,13.14,13.14,0,0,1,1.89.13,13.52,13.52,0,0,0,0,26.77Z"/><path class="cls-13" d="M126.19,313a8.29,8.29,0,0,1-1.89.21,8.92,8.92,0,0,1,0-17.84,7.77,7.77,0,0,1,1.89.21,8.91,8.91,0,0,0,0,17.42Z"/><path class="cls-13" d="M126.19,327.38a6.9,6.9,0,0,1-1.89.26,7.22,7.22,0,1,1,0-14.43,6.9,6.9,0,0,1,1.89.26,7.2,7.2,0,0,0,0,13.91Z"/><circle class="cls-12" cx="383.88" cy="281.86" r="13.52" transform="translate(-54.49 95.74) rotate(-13.28)"/><circle class="cls-12" cx="383.88" cy="304.29" r="8.91"/><circle class="cls-12" cx="383.88" cy="320.42" r="7.22"/><path class="cls-13" d="M385.77,295.24a12.94,12.94,0,0,1-1.89.13,13.52,13.52,0,1,1,0-27,12.94,12.94,0,0,1,1.89.13,13.52,13.52,0,0,0,0,26.77Z"/><path class="cls-13" d="M385.77,313a8.29,8.29,0,0,1-1.89.21,8.92,8.92,0,0,1,0-17.84,7.77,7.77,0,0,1,1.89.21,8.91,8.91,0,0,0,0,17.42Z"/><path class="cls-13" d="M385.77,327.38a6.9,6.9,0,0,1-1.89.26,7.22,7.22,0,1,1,0-14.43,6.9,6.9,0,0,1,1.89.26,7.2,7.2,0,0,0,0,13.91Z"/><path class="cls-14" d="M321.35,54.9c1,11.24-.15,27.51-11.61,39.76A2.87,2.87,0,0,0,312,99.51c7.6-.53,18.74-2.11,24.89-6.71A2.88,2.88,0,0,1,341.37,94c1.55,4,3.46,10.55,2.63,16.77a2.87,2.87,0,0,0,5.11,2.11c5.5-6.71,10.12-18.7,3.26-38.7a2.87,2.87,0,0,0-5-.76l-1.06,1.45a2.88,2.88,0,0,1-4.68-.07L326.58,53A2.87,2.87,0,0,0,321.35,54.9Z"/><path class="cls-15" d="M183.82,432.27c26.8,19,71.8,48.64,124,74.48A255.49,255.49,0,0,1,119.6,472.67l-1.1-.71a148,148,0,0,1,17-15.44q3.9-3,8.08-5.88a168.48,168.48,0,0,1,22.33-12.75c.36-.17.75-.34,1.2-.51l.35-.15c.34-.13.7-.27,1.08-.4s.63-.24,1-.34l1.31-.44,1.75-.56,2.07-.62c2-.59,4.19-1.21,6.48-1.85Z"/><path class="cls-16" d="M376.19,434.21v47.87a252.07,252.07,0,0,1-33,14.69c-1.08.4-2.15.78-3.24,1.15-2.68.94-5.39,1.82-8.12,2.66V434.21a13.66,13.66,0,0,1,13.65-13.66h17.09A13.67,13.67,0,0,1,376.19,434.21Z"/><path class="cls-17" d="M356.82,420.55a13.67,13.67,0,0,0-13.67,13.66v62.56c-1.08.4-2.15.78-3.24,1.15-2.68.94-5.39,1.82-8.12,2.66V434.21a13.66,13.66,0,0,1,13.65-13.66Z"/></g></svg>