<svg xmlns="http://www.w3.org/2000/svg" viewBox="0 0 512 512"><defs><style>.cls-1{fill:#cd88f8;}.cls-2{fill:#af6fdd;}.cls-3{fill:#27273d;}.cls-4{fill:#fcc8bc;}.cls-5{fill:#fab3a7;}.cls-6{fill:none;stroke:#27273d;stroke-linecap:round;stroke-miterlimit:10;stroke-width:7px;}.cls-7{fill:#f58d89;}.cls-8{fill:#d54545;}.cls-9{fill:#c11e1e;}.cls-10{fill:#3e436d;}.cls-11{fill:#f7bb38;}.cls-12{fill:#fff;}.cls-13{fill:#ddd;}</style></defs><title>Avatar Users2</title><g id="BULINE"><circle class="cls-1" cx="256" cy="256" r="256"/></g><g id="Icons"><path class="cls-2" d="M484.77,371a257,257,0,0,1-93.35,102.27l-1.32.83q-4.73,2.91-9.58,5.61-7.53,4.21-15.37,7.9A252.94,252.94,0,0,1,319,504.18a258.09,258.09,0,0,1-105.59,4.29q-9.93-1.67-19.57-4.07a251.82,251.82,0,0,1-37-12.34q-3.23-1.35-6.39-2.78a252.58,252.58,0,0,1-28.8-15.35c-.68-.41-1.36-.83-2-1.26l-1.33-.85A257.14,257.14,0,0,1,27.23,371,257,257,0,0,1,129.48,263.4l2.33-1.3q4.11-2.3,8.3-4.42a254.47,254.47,0,0,1,42-16.88L185,240l.08,0h0q10.09-2.91,20.52-5,5-1,10.07-1.81,9.11-1.44,18.41-2.23h0q6.51-.56,13.1-.78,4.38-.15,8.81-.15,11.29,0,22.34,1a255.3,255.3,0,0,1,29.09,4.2q10.44,2.13,20.54,5.09l.32.09a253.18,253.18,0,0,1,37.1,14.14q4,1.92,8,4,4.61,2.37,9.09,4.94c.65.36,1.31.74,2,1.12A257.11,257.11,0,0,1,484.77,371Z"/><path class="cls-3" d="M340.89,408.25c-54.18,34.48-109.3,33.37-165.27,0-52.22,0-92.61-53.19-86.08-113.38L106,143.22c7.37-67.91,57.08-118.85,116-118.85h72.54c58.93,0,108.64,50.94,116,118.85L427,294.87C433.5,355.06,393.11,408.25,340.89,408.25Z"/><path class="cls-4" d="M391.42,473.27l-1.32.83q-4.73,2.91-9.58,5.61-7.53,4.21-15.37,7.9A252.94,252.94,0,0,1,319,504.18a258.09,258.09,0,0,1-105.59,4.29q-9.93-1.67-19.57-4.07a251.82,251.82,0,0,1-37-12.34q-3.23-1.35-6.39-2.78a252.58,252.58,0,0,1-28.8-15.35q4.34-4.85,9.16-9.38,3.71-3.49,7.73-6.77,4.77-3.91,10-7.52l.18-.13a169.66,169.66,0,0,1,23-13.21c2.75-1.3,7.86-2.8,13.81-4.47,2.86-.8,5.91-1.63,9-2.51,5.56-1.59,11.19-3.29,15.92-5.09h0c4.94-1.89,8.88-3.87,10.67-6a15.82,15.82,0,0,0,2.66-4.4C227.32,406,225,394,225,384.86c0-2.73,0-5.15-.1-7.28h0c-.56-21.72-2.91-15,15.84-21.31a43.37,43.37,0,0,1,6.51-.95h0c14.21-1.4,45.77-2.6,49.59.95,2.86,2.68,3.41,8.07,3,14.52h0c-.73,12.85-5.1,29.86-2,37.73a32.75,32.75,0,0,0,3,6,27.51,27.51,0,0,0,10.1,9.16c7.26,4,16.3,5.92,26.13,10.47l.12.06q2.13,1,4.21,2a178.1,178.1,0,0,1,24.43,14.49c2.91,2,5.7,4.16,8.4,6.35,2.41,1.95,4.73,3.94,7,6,.84.76,1.66,1.52,2.46,2.29Q387.73,469.2,391.42,473.27Z"/><path class="cls-4" d="M384.75,170.24v86.08c0,64.21-51.1,84.78-88.36,117.43a57.32,57.32,0,0,1-76.37,0c-37.26-32.65-88.36-53.22-88.36-117.43V170.24C131.66,105.47,181.14,53,242.18,53h32.05C335.27,53,384.75,105.47,384.75,170.24Z"/><path class="cls-5" d="M182.16,256.32V170.24c0-61.47,44.56-111.91,101.29-116.87-3-.29-6.12-.42-9.23-.42h-32c-61.05,0-110.53,52.52-110.53,117.29v42.61a25.33,25.33,0,0,0,0,50.65h.25c3.67,58.61,52.27,78.87,88.1,110.25,18.15,15.92,42.9,18.82,63.44,8.66a58.78,58.78,0,0,1-12.94-8.66C233.25,341.11,182.16,320.53,182.16,256.32Z"/><circle class="cls-4" cx="384.75" cy="238.18" r="25.32"/><path class="cls-6" d="M165.7,190.9s31.92-17.78,59.49,0"/><path class="cls-6" d="M288.69,190.9s31.92-17.78,59.49,0"/><rect class="cls-5" x="238.85" y="263.5" width="36.79" height="13.95" rx="6.39"/><path class="cls-7" d="M132.39,228.1a10.08,10.08,0,1,0,0,20.15Z"/><path class="cls-5" d="M384.75,248.25a10.08,10.08,0,1,0,0-20.15Z"/><ellipse class="cls-3" cx="195.02" cy="235.12" rx="10.58" ry="15.23"/><ellipse class="cls-3" cx="318.01" cy="235.12" rx="10.58" ry="15.23"/><path class="cls-6" d="M175.78,223.9s18.28-11.54,38.48,0"/><path class="cls-6" d="M298.77,223.9s18.28-11.54,38.48,0"/><path class="cls-8" d="M257.24,304.66c-18.82-3.06-35.22,9.17-35.22,9.17,0,9.72,15.77,19.17,35.22,19.17h0c19.45,0,35.22-9.45,35.22-19.17C292.46,313.83,276.07,301.6,257.24,304.66Z"/><path class="cls-9" d="M282.3,314.66H239.68a6.38,6.38,0,0,1,3-3.64c4.83-2.67,13.1-6.36,22.66-6.8a38,38,0,0,0-8.05.44c-18.82-3.05-35.23,9.17-35.23,9.17,0,9.71,15.77,19.17,35.23,19.17a58.39,58.39,0,0,0,8.06-.56c-11.31-1.56-20.52-6.28-24.72-11.94a6.46,6.46,0,0,1-.94-1.92H282.3a2,2,0,0,0,0-3.92Z"/><path class="cls-3" d="M328.59,96.52s-11.07,32.15-63.28,50.19V105.77s-6.09,35.85-69.87,55V129.36s-13.41,34-63.78,67.3L122.31,183l5-77.23,38.53-49.48,48.38-12.95h70l44.33,3.84L365.73,85s27.67,37.17,29.1,75.79C394.83,160.81,355.28,142.08,328.59,96.52Z"/><path class="cls-10" d="M339.07,51.68c.81,9.28-.12,22.72-9.59,32.85a2.37,2.37,0,0,0,1.87,4c6.28-.44,15.49-1.75,20.57-5.55a2.38,2.38,0,0,1,3.68,1c1.28,3.32,2.86,8.71,2.18,13.85A2.38,2.38,0,0,0,362,99.58c4.54-5.55,8.36-15.46,2.7-32a2.38,2.38,0,0,0-4.16-.63l-.88,1.2a2.37,2.37,0,0,1-3.86-.06l-12.42-18A2.37,2.37,0,0,0,339.07,51.68Z"/><path class="cls-11" d="M193.86,504.4a251.82,251.82,0,0,1-37-12.34q-3.23-1.35-6.39-2.78c-.26-16.16-1-29.42-1.68-38.15,0-.35-.05-.67-.05-1a15.5,15.5,0,0,1,10-14.6l12.55-4.81a15.49,15.49,0,0,1,14.33,1.73,15.84,15.84,0,0,1,4.19,4.32c1.21,1.86,2.51,3.64,3.87,5.36h0a92.29,92.29,0,0,0,19.65,18.09c20.34,14.2,43.83,20.88,52.12,22.92,8.29-2,31.76-8.72,52.09-22.91h0a93.57,93.57,0,0,0,19-17.26l0,0a71.27,71.27,0,0,0,4.54-6.19,5.58,5.58,0,0,1,.39-.56,15.46,15.46,0,0,1,18.13-5.49l12.54,4.81a15.48,15.48,0,0,1,9.91,15.6c-.25,3.34-.51,7.34-.78,11.92-.27,4.93-.52,10.52-.7,16.66q-7.53,4.21-15.37,7.9A252.94,252.94,0,0,1,319,504.18a258.09,258.09,0,0,1-105.59,4.29Q203.5,506.81,193.86,504.4Z"/><path class="cls-12" d="M337.09,434.13c-.12,2.5-.31,5.49-.62,8.85-1.46,16.31-5.64,41.26-17.45,61.2a258.09,258.09,0,0,1-105.59,4.29c-12-14-21-34.9-19.84-66.34.15-3.9.45-8,.93-12.19.14-1.35.31-2.72.5-4.11a56.36,56.36,0,0,1,3.75-5.61c5.51-7.31,16.11-17.81,25-5.72a97.26,97.26,0,0,0,12.67,17.22c12.89,13.84,33.93,26.71,55.12-1.88a106.76,106.76,0,0,0,9.29-15.34s19-8.07,29.74-.14c3.12,2.29,5.55,5.92,6.65,11.47C337.25,425.83,337.32,428.94,337.09,434.13Z"/><path class="cls-13" d="M235.08,448.66s29.2,36.5,56.14,0c0,0,22.95-6.71,26.51,5.66,0,0,1.8,55-52.4,55,0,0-61.26-3.73-51.21-55C214.12,454.32,225.84,440.05,235.08,448.66Z"/></g></svg>