<svg xmlns="http://www.w3.org/2000/svg" viewBox="0 0 512 512"><defs><style>.cls-1{fill:#4acc97;}.cls-2{fill:#43b584;}.cls-3{fill:#fcc8bc;}.cls-4{fill:#fab3a7;}.cls-5{fill:none;stroke:#27273d;stroke-linecap:round;stroke-miterlimit:10;stroke-width:7px;}.cls-6{fill:#27273d;}.cls-7{fill:#f58d89;}.cls-8{fill:#fff;}.cls-9{fill:#a65c3b;}.cls-10{fill:#9e4830;}.cls-11{fill:#ba6949;}.cls-12{fill:#f6c752;}.cls-13{fill:#3e436d;}.cls-14{fill:#32314b;}</style></defs><title>Avatar Users2</title><g id="BULINE"><circle class="cls-1" cx="256" cy="256" r="256"/></g><g id="Icons"><path class="cls-2" d="M484.77,371a257.15,257.15,0,0,1-87.49,98.52c-1.76,1.16-3.52,2.3-5.31,3.41-.62.4-1.24.78-1.87,1.17a254.35,254.35,0,0,1-72.42,30.41,251.45,251.45,0,0,1-27.74,5.25l-.63.09q-3.74.48-7.5.86-2.94.3-5.89.52c-1.35.11-2.7.2-4.05.29Q264,512,256,512q-6.12,0-12.16-.28c-1.9-.09-3.78-.2-5.66-.33-1.61-.11-3.2-.24-4.8-.38q-4.66-.4-9.28-1a254.29,254.29,0,0,1-104.5-37.35c-1.35-.85-2.7-1.72-4-2.59s-2.71-1.81-4-2.73A257.13,257.13,0,0,1,27.23,371a257.24,257.24,0,0,1,100-106.29c1.52-.88,3.06-1.76,4.6-2.61a254.26,254.26,0,0,1,48.92-20.86h0l.88-.26a252.08,252.08,0,0,1,29.3-7c.44-.09.89-.16,1.33-.24Q223,231.87,234,230.94t22-.94q12.5,0,24.68,1.18,12.57,1.2,24.76,3.6,10.47,2,20.63,4.94c2.61.73,5.19,1.51,7.76,2.33a253.21,253.21,0,0,1,25.77,9.79q11.29,5,22,11c1.17.66,2.34,1.33,3.5,2A257.07,257.07,0,0,1,484.77,371Z"/><path class="cls-3" d="M392,472.93c-.62.4-1.24.78-1.87,1.17a254.35,254.35,0,0,1-72.42,30.41,251.45,251.45,0,0,1-27.74,5.25l-.63.09q-3.74.48-7.5.86-2.94.3-5.89.52c-1.35.11-2.7.2-4.05.29Q264,512,256,512q-6.12,0-12.16-.28c-1.9-.09-3.78-.2-5.66-.33-1.61-.11-3.2-.24-4.8-.38q-4.66-.4-9.28-1a254.29,254.29,0,0,1-104.5-37.35c-1.35-.85-2.7-1.72-4-2.59,13.32-15,30-27.89,51.06-37.89.83-.39,1.85-.79,3.05-1.22.88-.31,1.82-.62,2.86-1,4-1.26,9.18-2.66,14.56-4.18h0c6.22-1.74,12.72-3.64,18.11-5.66,5.22-1.95,9.4-4,11.28-6.18,4.93-5.72,4.94-14.53,4.46-23v0c-.24-4-.58-7.86-.58-11.32,0-1.59,0-3.07,0-4.46-.4-25.42-3.8-17.8,15.92-24.41a14.35,14.35,0,0,1,2.24-.45c10.63-1.57,50.09-3.56,54.4.45,4,3.74,3.53,12.77,2.31,22.58h0c-1,8.08-2.5,16.67-2.36,23.26v.08a20,20,0,0,0,1.08,6.8c3.38,8.68,8.67,13.13,15.21,16.3,5.19,2.54,11.18,4.27,17.64,6.75h0c2.25.85,4.54,1.79,6.9,2.88.22.1.42.19.63.31,2.64,1.23,5.23,2.52,7.73,3.84C362.8,444.42,379.06,457.72,392,472.93Z"/><path class="cls-3" d="M381.71,173v85c0,63.43-50.48,83.74-87.28,116A56.62,56.62,0,0,1,219,374c-36.8-32.25-87.28-52.56-87.28-116V173c0-.28,0-.57,0-.85.29-44.38,24.1-82.81,58.87-102,1.12-.63,2.27-1.23,3.41-1.8a103.3,103.3,0,0,1,42.35-11.1c1.5-.08,3-.11,4.52-.11h31.66a105,105,0,0,1,69.4,26.43,110.4,110.4,0,0,1,8.36,8.13,118.78,118.78,0,0,1,31.24,74.82v0C381.65,168.71,381.71,170.85,381.71,173Z"/><path class="cls-4" d="M181.6,258.05V173c0-60.71,44-110.53,100-115.43-3-.29-6-.42-9.12-.42H240.88c-60.29,0-109.16,51.88-109.16,115.85v42.09a25,25,0,0,0,0,50l.24,0C135.59,323,183.59,343,219,374c17.93,15.72,42.37,18.59,62.66,8.55A58.49,58.49,0,0,1,268.86,374C232.06,341.79,181.6,321.46,181.6,258.05Z"/><circle class="cls-3" cx="381.7" cy="240.12" r="25.01"/><path class="cls-5" d="M165.34,205.77s31.53-17.57,58.75,0"/><path class="cls-5" d="M286.82,205.77s31.53-17.57,58.75,0"/><ellipse class="cls-6" cx="315.78" cy="237.11" rx="10.45" ry="15.04"/><rect class="cls-4" x="238.18" y="265.14" width="36.34" height="13.78" rx="6.32"/><path class="cls-5" d="M175.29,235.24s18.06-11.4,38,0"/><path class="cls-5" d="M296.77,226s18.06-11.4,38,0"/><path class="cls-7" d="M132.43,230.17a10,10,0,0,0,0,19.9Z"/><path class="cls-4" d="M381.7,250.07a10,10,0,0,0,0-19.9Z"/><path class="cls-8" d="M227.34,302.08a2.46,2.46,0,0,0-2.45,2.66c1.34,16.46,14.91,31.71,31.46,31.71h0c16.55,0,30.13-15.25,31.47-31.71a2.47,2.47,0,0,0-2.45-2.66Z"/><path class="cls-9" d="M396.22,130,382,215.11l-12.72-69.82C358,133.59,329.6,117.22,262.62,128c-2,.32-4.08.67-6.16,1-29.11-5.24-51.3-5.51-68.16-3.18-23.5,3.25-36.64,11.57-43.72,18.53l-12.85,70.69-14.25-85c-2.66-15.9,2.07-32.4,13.18-43.33a40.31,40.31,0,0,1,5-4.18c-4-10.68-6-24.75-3.94-43.31,0,0,23.59,21.47,43.59,26.22,0,0-5-27.22,29.44-46.2L210.23,32S245.71.81,312,31.53c0,0,29.33,12.73,46.63,44.68,11.26.22,19.62,5.38,25.7,11.89C394.55,99,398.77,114.82,396.22,130Z"/><path class="cls-10" d="M262.62,128c-2,.32-4.08.67-6.16,1-29.11-5.24-51.3-5.51-68.16-3.18-15.55-6.44-37.22-21.43-42-55.59,0,0,14.95,16.8,48.44,26.61,0,0-4.31-14.62,10-33.22,0,0,4,22.71,19.35,31.12,0,0,5.52-14,18.12-14.71C242.21,80.1,242.48,108,262.62,128Z"/><path class="cls-11" d="M302.23,40.84c1.21,13.8-.18,33.79-14.26,48.85a3.53,3.53,0,0,0,2.79,6c9.34-.66,23-2.6,30.59-8.26a3.54,3.54,0,0,1,5.47,1.47c1.9,4.94,4.25,13,3.24,20.61a3.53,3.53,0,0,0,6.27,2.59c6.76-8.25,12.43-23,4-47.55a3.53,3.53,0,0,0-6.18-.93l-1.31,1.78a3.53,3.53,0,0,1-5.75-.09L308.65,38.54A3.53,3.53,0,0,0,302.23,40.84Z"/><path class="cls-12" d="M289.31,464.36v45.49q-3.74.48-7.5.86-2.94.3-5.89.52c-1.35.11-2.7.2-4.05.29Q264,512,256,512q-6.12,0-12.16-.28c-1.9-.09-3.78-.2-5.66-.33-1.61-.11-3.2-.24-4.8-.38q-4.66-.4-9.28-1V464.36a62.36,62.36,0,0,0,14.08,4.7,84.51,84.51,0,0,0,37.74-.39A94.52,94.52,0,0,0,289.31,464.36Z"/><path class="cls-13" d="M238.18,464.33v47.06c-1.61-.11-3.2-.24-4.8-.38q-4.66-.4-9.28-1a254.29,254.29,0,0,1-104.5-37.35c-1.35-.85-2.7-1.72-4-2.59,13.32-15,30-27.89,51.06-37.89.83-.39,1.85-.79,3.05-1.22.88-.31,1.82-.62,2.86-1,4-1.26,9.18-2.66,14.56-4.18h0c6.22-1.74,12.72-3.64,18.11-5.66l19.66,29.21v0l11.23,10.27A6.29,6.29,0,0,1,238.18,464.33Z"/><path class="cls-13" d="M392,472.93c-.62.4-1.24.78-1.87,1.17a254.35,254.35,0,0,1-72.42,30.41,251.45,251.45,0,0,1-27.74,5.25l-.63.09q-3.74.48-7.5.86-2.94.3-5.89.52v-46.9a6.32,6.32,0,0,1,2.06-4.65l11.23-10.27.1-.15h0l19.82-29.45c5.19,2.54,11.18,4.27,17.64,6.75h0c2.25.85,4.54,1.79,6.9,2.88.22.1.42.19.63.31,2.64,1.23,5.23,2.52,7.73,3.84C362.8,444.42,379.06,457.72,392,472.93Z"/><path class="cls-14" d="M220.79,388.43,189.5,416.35a8.7,8.7,0,0,0-.09,12.93c5.27,4.76,15.52,11.58,35.47,20.13Z"/><path class="cls-14" d="M293.4,388.43l31.28,27.92a8.7,8.7,0,0,1,.09,12.93c-5.27,4.76-15.52,11.58-35.47,20.13Z"/></g></svg>