<svg xmlns="http://www.w3.org/2000/svg" viewBox="0 0 512 512"><defs><style>.cls-1{fill:#7cc8fb;}.cls-2{fill:#6cb7e0;}.cls-3{fill:#a65c3b;}.cls-4{fill:#9e4830;}.cls-5{fill:none;stroke:#27273d;stroke-linecap:round;stroke-miterlimit:10;stroke-width:7px;}.cls-6{fill:#27273d;}.cls-7{fill:#8c3f2d;}.cls-8{fill:#fff;}.cls-9{fill:#32314b;}.cls-10{fill:#3e436d;}</style></defs><title>Avatar Users2</title><g id="BULINE"><circle class="cls-1" cx="256" cy="256" r="256"/></g><g id="Icons"><path class="cls-2" d="M484.77,371a257,257,0,0,1-78.91,92.56q-3.25,2.35-6.59,4.61-2.82,1.92-5.69,3.75c-1.15.73-2.31,1.46-3.48,2.18q-8.91,5.49-18.28,10.26a256,256,0,0,1-230.22.71q-11.34-5.67-22-12.39h0q-3.87-2.44-7.65-5c-.64-.43-1.27-.87-1.9-1.32A256.9,256.9,0,0,1,27.23,371a257.09,257.09,0,0,1,99.36-105.93l0,0a253.81,253.81,0,0,1,51.92-23.12l2-.64c1.66-.52,3.33-1,5-1.49l.79-.23q4.17-1.17,8.4-2.21c2.14-.53,4.29-1,6.45-1.49q8.16-1.78,16.51-3,9-1.35,18.18-2.06,9.94-.78,20.1-.78,9.79,0,19.41.72a255,255,0,0,1,36.83,5.48c1.9.43,3.79.87,5.67,1.34q4.59,1.14,9.12,2.44l.4.12q2.52.74,5,1.51A256.52,256.52,0,0,1,484.77,371Z"/><path class="cls-3" d="M393.58,471.92c-1.15.73-2.31,1.46-3.48,2.18q-8.91,5.49-18.28,10.26a256,256,0,0,1-230.22.71q-11.34-5.67-22-12.39a161.71,161.71,0,0,1,38.29-28.95c3.12-1.72,6.36-3.38,9.69-5,9.38-4.46,45.1-11.1,51.87-18.94,7.55-8.73,4-24.41,4-35.75,0-.88,0-1.73,0-2.54h0c0-1.84,0-3.53-.08-5.08v0c-.6-22.82-3.07-15.78,16.63-22.38a44.37,44.37,0,0,1,6.82-1h0c14.92-1.47,48.09-2.72,52.1,1,3,2.81,3.58,8.48,3.19,15.25h0c-.13,2.33-.37,4.77-.67,7.27v0c-1.45,12.06-4.13,25.49-1.46,32.33,7.31,18.7,23.05,18.45,41.38,27q9,4.2,17.06,8.93A169.93,169.93,0,0,1,393.58,471.92Z"/><path class="cls-3" d="M391.35,158.65v90.41c0,67.45-53.68,89.06-92.82,123.36a60.2,60.2,0,0,1-80.22,0c-39.14-34.3-92.82-55.91-92.82-123.36V158.65c0-68,52-123.2,116.1-123.2h33.66C339.37,35.45,391.35,90.61,391.35,158.65Z"/><path class="cls-4" d="M178.54,249.07V158.65c0-64.57,46.81-117.55,106.4-122.77-3.2-.3-6.43-.43-9.7-.43H241.59c-64.12,0-116.09,55.16-116.09,123.2v44.76a26.6,26.6,0,1,0,0,53.2h.26c3.85,61.56,54.9,82.84,92.54,115.81,19.06,16.72,45.06,19.76,66.64,9.09a62.12,62.12,0,0,1-13.6-9.09C232.21,338.13,178.54,316.51,178.54,249.07Z"/><circle class="cls-3" cx="391.34" cy="230.01" r="26.6"/><path class="cls-5" d="M161.25,193.47s33.53-18.68,62.49,0"/><ellipse class="cls-6" cx="192.05" cy="226.8" rx="11.11" ry="16"/><path class="cls-5" d="M290.44,193.47s33.53-18.68,62.49,0"/><ellipse class="cls-6" cx="321.24" cy="226.8" rx="11.11" ry="16"/><rect class="cls-4" x="237.33" y="256.61" width="38.65" height="14.65" rx="6.72"/><path class="cls-5" d="M171.84,215s19.2-12.12,40.42,0"/><path class="cls-5" d="M301,215s19.2-12.12,40.42,0"/><path class="cls-7" d="M126.26,219.43a10.58,10.58,0,0,0,0,21.16Z"/><path class="cls-4" d="M391.35,240.59a10.58,10.58,0,0,0,0-21.16Z"/><path class="cls-8" d="M226.46,294.58a2.57,2.57,0,0,0-2.55,2.77c1.39,17.13,15.52,33,32.74,33h0c17.22,0,31.35-15.87,32.74-33a2.57,2.57,0,0,0-2.55-2.77Z"/><path class="cls-9" d="M253.85,349.46c-58.8,15.23-124-68.09-124-68.09,8.24,53.86,67.51,88.39,102.29,104.25a61.35,61.35,0,0,0,50.65.12c35.18-15.81,95.43-50.38,103.69-104.37,0,0-66.63,83.32-125.49,68.09A14.27,14.27,0,0,0,253.85,349.46Z"/><path class="cls-9" d="M395.87,114.5c-1.35-29.15-32.17-54.66-32.17-54.66-32.59-32.59-74-35.8-93.75-35.2q-11.54.36-23.06,0c-19.78-.6-61.16,2.61-93.75,35.2,0,0-30.82,25.51-32.17,54.66,0,0-3.38,72.91,5.29,126.09l6.65-51.31a45.45,45.45,0,0,1,6.62-18.4l25.27-40.1a23.93,23.93,0,0,1,20.25-11.18H331.79A23.93,23.93,0,0,1,352,130.78l25.27,40.1a45.31,45.31,0,0,1,6.62,18.4l6.65,51.31C399.25,187.41,395.87,114.5,395.87,114.5Z"/><path class="cls-10" d="M342.19,60.79c1,10.94-.14,26.78-11.3,38.71a2.79,2.79,0,0,0,2.21,4.72c7.4-.52,18.25-2,24.24-6.54a2.81,2.81,0,0,1,4.34,1.17c1.51,3.91,3.37,10.27,2.57,16.33a2.79,2.79,0,0,0,5,2c5.35-6.54,9.85-18.21,3.18-37.68a2.81,2.81,0,0,0-4.91-.74l-1,1.41a2.8,2.8,0,0,1-4.56-.07L347.28,59A2.79,2.79,0,0,0,342.19,60.79Z"/><path class="cls-8" d="M191,503.67a254.84,254.84,0,0,1-49.41-18.6q-11.34-5.67-22-12.39h0q-3.87-2.44-7.65-5c-.64-.43-1.27-.87-1.9-1.32a10.92,10.92,0,0,1,4.38-6.87l27.18-19.65a11,11,0,0,1,16.29,3.92,10.69,10.69,0,0,1,1,2.92A101,101,0,0,0,191,503.67Z"/><path class="cls-8" d="M405.86,463.56q-3.25,2.35-6.59,4.61-2.82,1.92-5.69,3.75c-1.15.73-2.31,1.46-3.48,2.18q-8.91,5.49-18.28,10.26a253.87,253.87,0,0,1-43.91,17.39,100.9,100.9,0,0,0,30-55.1,9.77,9.77,0,0,1,.51-1.82,11,11,0,0,1,16.77-5l27.18,19.65A10.93,10.93,0,0,1,405.86,463.56Z"/></g></svg>