<svg xmlns="http://www.w3.org/2000/svg" viewBox="0 0 512 512"><defs><style>.cls-1{fill:#cd88f8;}.cls-2{fill:#af6fdd;}.cls-3{fill:#873d2b;}.cls-4{fill:#f58d89;}.cls-5{fill:#dd7f7f;}.cls-6{fill:none;stroke:#27273d;stroke-linecap:round;stroke-miterlimit:10;stroke-width:7px;}.cls-7{fill:#27273d;}.cls-8{fill:#cc7979;}.cls-9{fill:#d54545;}.cls-10{fill:#c11e1e;}.cls-11{fill:#9e4830;}.cls-12{fill:#a65c3b;}.cls-13{fill:#f47373;}.cls-14{fill:#f6c752;}.cls-15{fill:#db1b1b;}.cls-16{fill:#f6d372;}</style></defs><title>Avatar Users2</title><g id="BULINE"><circle class="cls-1" cx="256" cy="256" r="256"/></g><g id="Icons"><path class="cls-2" d="M484.77,371a256.17,256.17,0,0,1-52.11,70.25Q425.15,448.45,417,455a254.5,254.5,0,0,1-22.52,16.32l-.28.18q-2.06,1.33-4.14,2.61a254.24,254.24,0,0,1-27.51,14.71q-4.47,2.06-9,3.93A253.68,253.68,0,0,1,295.34,509q-7.93,1.23-16,2Q267.8,512,256,512t-23.6-1.07q-8-.74-15.93-2a253.37,253.37,0,0,1-58.29-16.32q-4.49-1.84-8.88-3.88a254.21,254.21,0,0,1-29.7-16.09l-1.17-.75c-.87-.56-1.74-1.12-2.6-1.69a250.77,250.77,0,0,1-21.16-15.47q-8.73-7.06-16.8-14.91A257,257,0,0,1,27.23,371a257.51,257.51,0,0,1,83.1-95.54c4.2-2.91,8.49-5.71,12.87-8.36.61-.38,1.23-.76,1.85-1.12q6.47-3.87,13.17-7.34l0,0c.67-.36,1.35-.7,2-1.05a257.19,257.19,0,0,1,24-10.67q8-3.07,16.25-5.61h0c1.47-.45,2.94-.89,4.42-1.32,1.23-.35,2.47-.7,3.72-1q8.76-2.4,17.78-4.15,2.67-.54,5.37-1a254.71,254.71,0,0,1,25.68-3.14h0q6.38-.45,12.84-.59c1.86,0,3.72-.06,5.59-.06q11.72,0,23.18,1t22.76,3.07q9.24,1.68,18.24,4,7.13,1.83,14.08,4.06,7.71,2.48,15.2,5.42c2.61,1,5.19,2.09,7.75,3.19q7.28,3.14,14.31,6.7l.5.25,1.49.77q5.69,2.94,11.19,6.15c1.55.91,3.1,1.83,4.63,2.77q7.92,4.85,15.46,10.24a257.34,257.34,0,0,1,80,93.33Z"/><path class="cls-3" d="M455.17,416.84a253.76,253.76,0,0,1-22.51,24.41Q425.15,448.45,417,455a254.5,254.5,0,0,1-22.52,16.32l-.28.18q-2.06,1.33-4.14,2.61a254.24,254.24,0,0,1-27.51,14.71q-4.47,2.06-9,3.93A253.68,253.68,0,0,1,295.34,509q-7.93,1.23-16,2Q267.8,512,256,512t-23.6-1.07q-8-.74-15.93-2a253.37,253.37,0,0,1-58.29-16.32q-4.49-1.84-8.88-3.88a254.21,254.21,0,0,1-29.7-16.09l-1.17-.75c-.87-.56-1.74-1.12-2.6-1.69a250.77,250.77,0,0,1-21.16-15.47q-8.73-7.06-16.8-14.91a254.91,254.91,0,0,1-21.59-23.7,149.85,149.85,0,0,1,14.89-16.07c-16.26-43.46.59-83.14,12.26-103.15a114.06,114.06,0,0,1,9.11-13.63C80,214.22,110.92,178.67,110.92,178.67c-4.35-34,15.24-78.58,15.24-78.58C160,14.62,240.81,21.63,254.24,23.43l.67.09.53.08c8.65-1.33,94.19-12.12,129.3,76.49,0,0,19.58,44.59,15.24,78.58,0,0,30.88,35.55,18.36,104.63a108.59,108.59,0,0,1,7.83,11.46C437.81,314,456.59,355,439.73,400.08A151.11,151.11,0,0,1,455.17,416.84Z"/><path class="cls-4" d="M394.24,471.49q-2.06,1.33-4.14,2.61a254.24,254.24,0,0,1-27.51,14.71q-4.47,2.06-9,3.93A253.68,253.68,0,0,1,295.34,509q-7.93,1.23-16,2Q267.8,512,256,512t-23.6-1.07q-8-.74-15.93-2a253.37,253.37,0,0,1-58.29-16.32q-4.49-1.84-8.88-3.88a254.21,254.21,0,0,1-29.7-16.09l-1.17-.75c-.87-.56-1.74-1.12-2.6-1.69a140.56,140.56,0,0,1,33.56-35.51h0c1.06-.81,2.14-1.58,3.24-2.36a154.4,154.4,0,0,1,18.68-11.21l2.18-1.08,1.77-.87c8.33-4,40-9.84,46-16.79,6.69-7.75,3.59-21.66,3.59-31.72,0-2.55,0-4.8-.1-6.79h0c-.53-20.24-2.72-14,14.76-19.85a40.54,40.54,0,0,1,6.07-.89c13.24-1.31,42.66-2.42,46.21.89,2.67,2.5,3.18,7.52,2.84,13.53h0c-.68,12-4.76,27.82-1.89,35.15,6.48,16.59,20.44,16.37,36.7,23.92q4.31,2,8.36,4.15c.86.46,1.72.92,2.56,1.39a159.07,159.07,0,0,1,17.41,11c.95.68,1.86,1.37,2.78,2.07A145,145,0,0,1,394.24,471.49Z"/><path class="cls-4" d="M373.79,170.7v80.21c0,59.83-47.62,79-82.34,109.42a53.37,53.37,0,0,1-71.16,0c-34.73-30.42-82.35-49.59-82.35-109.42V170.7c0-60.36,46.12-109.3,103-109.3H270.8C327.68,61.4,373.79,110.34,373.79,170.7Z"/><path class="cls-5" d="M185,250.91V170.7c0-57.28,41.51-104.28,94.38-108.91-2.84-.27-5.7-.39-8.6-.39H240.94c-56.89,0-103,48.94-103,109.3v39.7a23.6,23.6,0,1,0,0,47.2h.23c3.42,54.62,48.71,73.49,82.09,102.74a53.26,53.26,0,0,0,59.12,8.07,55.26,55.26,0,0,1-12.06-8.07C232.61,329.92,185,310.74,185,250.91Z"/><circle class="cls-4" cx="373.79" cy="234" r="23.6"/><path class="cls-6" d="M169.66,201.59s29.75-16.57,55.44,0"/><ellipse class="cls-7" cx="196.98" cy="231.16" rx="9.86" ry="14.19"/><path class="cls-6" d="M284.27,201.59s29.75-16.57,55.44,0"/><ellipse class="cls-7" cx="311.59" cy="231.16" rx="9.86" ry="14.19"/><rect class="cls-5" x="239.01" y="257.6" width="34.28" height="13" rx="5.96"/><path class="cls-6" d="M179.06,220.7s17-10.76,35.85,0"/><path class="cls-6" d="M293.67,220.7s17-10.76,35.85,0"/><path class="cls-8" d="M138.62,224.62a9.39,9.39,0,1,0,0,18.77Z"/><path class="cls-5" d="M373.79,243.39a9.39,9.39,0,0,0,0-18.77Z"/><path class="cls-9" d="M256.15,286.85c-17.54-2.84-32.82,8.55-32.82,8.55,0,9.06,14.69,17.86,32.82,17.86h0c18.12,0,32.82-8.8,32.82-17.86C289,295.4,273.69,284,256.15,286.85Z"/><path class="cls-10" d="M279.5,296.17H239.79a6,6,0,0,1,2.75-3.39,49.6,49.6,0,0,1,21.12-6.33,34.89,34.89,0,0,0-7.51.4c-17.53-2.84-32.82,8.55-32.82,8.55,0,9.05,14.7,17.86,32.82,17.86a57.06,57.06,0,0,0,7.52-.51c-10.54-1.46-19.13-5.86-23-11.13a5.93,5.93,0,0,1-.87-1.79H279.5a1.83,1.83,0,0,0,0-3.66Z"/><path class="cls-11" d="M455.17,416.84a253.76,253.76,0,0,1-22.51,24.41c-15.29-23.78-36.22-39.06-36.22-39.06C355.7,372.45,378,297.24,378,297.24h0a177.68,177.68,0,0,0,6.69-32.57c.23-2.18.42-4.32.55-6.43.08-1.25.15-2.49.19-3.72a134.94,134.94,0,0,0-5-43.17,123.52,123.52,0,0,0-6.61-17.7c-9-19.4-19.83-29.36-19.83-29.36a226.15,226.15,0,0,1-23.54-13.65v.1c-37.07,1.62-58.59-18.12-68.65-31.11a8.9,8.9,0,0,0-14.07,0,79.24,79.24,0,0,1-61,31.14c-1.12,0-2.26.06-3.41.06q-2.1,0-4.26-.09a227.14,227.14,0,0,1-23.39,13.55s-9.23,8.48-17.72,25c0,0,0,0,0,0a123.87,123.87,0,0,0-9,22.86,135.13,135.13,0,0,0-4.86,41q.13,4.83.62,9.93c.1,1,.2,1.95.31,2.94a177.85,177.85,0,0,0,6.49,31l.06.21s22.33,75.21-18.42,105a163.46,163.46,0,0,0-35.31,37.66,254.91,254.91,0,0,1-21.59-23.7,149.85,149.85,0,0,1,14.89-16.07c-16.26-43.46.59-83.14,12.26-103.15a114.06,114.06,0,0,1,9.11-13.63C80,214.22,110.92,178.67,110.92,178.67c-4.35-34,15.24-78.58,15.24-78.58C160,14.62,240.81,21.63,254.24,23.43l.67.09.53.08c8.65-1.33,94.19-12.12,129.3,76.49,0,0,19.58,44.59,15.24,78.58,0,0,30.88,35.55,18.36,104.63a108.59,108.59,0,0,1,7.83,11.46C437.81,314,456.59,355,439.73,400.08A151.11,151.11,0,0,1,455.17,416.84Z"/><path class="cls-12" d="M327.2,61.24C328.32,74,327,92.43,314,106.33a3.25,3.25,0,0,0,2.57,5.5c8.62-.6,21.26-2.39,28.24-7.62a3.27,3.27,0,0,1,5,1.36c1.76,4.56,3.93,12,3,19a3.26,3.26,0,0,0,5.79,2.39c6.24-7.62,11.47-21.21,3.7-43.89a3.26,3.26,0,0,0-5.71-.86l-1.2,1.64a3.25,3.25,0,0,1-5.31-.08l-17-24.67A3.26,3.26,0,0,0,327.2,61.24Z"/><ellipse class="cls-13" cx="196.87" cy="270.6" rx="22.62" ry="13.99"/><ellipse class="cls-13" cx="311.99" cy="270.6" rx="22.62" ry="13.99"/><path class="cls-14" d="M119.84,283.15a14.09,14.09,0,1,0,28.17,0c0-7.78-6.3-30.52-14.08-30.52S119.84,275.37,119.84,283.15Z"/><path class="cls-14" d="M364.4,283.15a14.09,14.09,0,1,0,28.17,0c0-7.78-6.31-30.52-14.09-30.52S364.4,275.37,364.4,283.15Z"/><path class="cls-15" d="M394.24,471.49q-2.06,1.33-4.14,2.61a254.24,254.24,0,0,1-27.51,14.71q-4.47,2.06-9,3.93A253.68,253.68,0,0,1,295.34,509q-7.93,1.23-16,2Q267.8,512,256,512t-23.6-1.07q-8-.74-15.93-2a253.37,253.37,0,0,1-58.29-16.32q-4.49-1.84-8.88-3.88a254.21,254.21,0,0,1-29.7-16.09l-1.17-.75c-.87-.56-1.74-1.12-2.6-1.69a140.56,140.56,0,0,1,33.56-35.51h0c1.06-.81,2.14-1.58,3.24-2.36,1.52,1.41,3.41,3.08,5.63,4.93,26.46,21.95,101.36,69.43,193.81.36h0c1.9-1.42,3.81-2.88,5.72-4.41.95.68,1.86,1.37,2.78,2.07A145,145,0,0,1,394.24,471.49Z"/><path class="cls-16" d="M417,455a254.5,254.5,0,0,1-22.52,16.32l-.28.18q-2.06,1.33-4.14,2.61a254.24,254.24,0,0,1-27.51,14.71c-2.48-.9-5.06-1.95-7.74-3.18a40.68,40.68,0,0,1-1.29,7.11A253.68,253.68,0,0,1,295.34,509q-4.15-2-8.68-4.61a40.71,40.71,0,0,1-7.34,6.57Q267.8,512,256,512t-23.6-1.07a40.73,40.73,0,0,1-7.3-6.55q-4.51,2.6-8.63,4.58a253.37,253.37,0,0,1-58.29-16.32,40.64,40.64,0,0,1-1.27-7c-2.64,1.21-5.17,2.25-7.61,3.13a254.21,254.21,0,0,1-29.7-16.09l-1.17-.75c-.87-.56-1.74-1.12-2.6-1.69a250.77,250.77,0,0,1-21.16-15.47,24.43,24.43,0,0,1,5.57-9.29c17.48-18.25,40.72-13.37,49.16-10.75,2.06.64,3.24,1.14,3.24,1.14l5.63,1.43,48.28,12.26a200.44,200.44,0,0,0,98.66,0l46.87-11.9h0l7-1.78s.52-.22,1.47-.56c6.27-2.21,31.36-9.39,50.19,9.43A25.38,25.38,0,0,1,417,455Z"/></g></svg>