<svg xmlns="http://www.w3.org/2000/svg" viewBox="0 0 512 512"><defs><style>.cls-1{fill:#fc715a;}.cls-2{fill:#e26150;}.cls-3{fill:#32314b;}.cls-4{fill:#7f45db;}.cls-5{fill:#fab3a7;}.cls-6{fill:#f58d89;}.cls-7{fill:none;stroke:#27273d;stroke-linecap:round;stroke-miterlimit:10;stroke-width:7px;}.cls-8{fill:#27273d;}.cls-9{fill:#dd8080;}.cls-10{fill:#fff;}.cls-11{fill:#db1b1b;}.cls-12{fill:#934cf5;}.cls-13{fill:#aa60fa;}.cls-14{fill:#6b40bf;}.cls-15{fill:#cd88f8;}</style></defs><title>Avatar Users2</title><g id="BULINE"><circle class="cls-1" cx="256" cy="256" r="256"/></g><g id="Icons"><path class="cls-2" d="M484.77,371a256.93,256.93,0,0,1-89.16,99.6q-2.73,1.78-5.51,3.5-2.62,1.62-5.3,3.17a253.8,253.8,0,0,1-70.28,28,255.95,255.95,0,0,1-188.85-28.9c-2-1.2-4.07-2.44-6.07-3.7l-.37-.24A257.39,257.39,0,0,1,27.23,371a257.4,257.4,0,0,1,91.51-101.13q5.39-3.42,10.94-6.59,5.2-3,10.55-5.67a252.59,252.59,0,0,1,39.94-16.2l2.44-.74h0l.07,0q9.45-2.83,19.21-4.93,5.91-1.28,11.92-2.27,10.63-1.77,21.57-2.64l1-.08.47,0q1.53-.12,3.06-.21,8-.5,16.12-.5t16.12.5q4.38.27,8.7.69l.77.07.83.09c8.44.87,16.77,2.14,24.94,3.8q9.51,1.93,18.76,4.57,3.81,1.08,7.57,2.28a251.38,251.38,0,0,1,24,9h0q8.54,3.69,16.74,8,4.18,2.19,8.27,4.52c3.64,2.07,7.22,4.24,10.74,6.48q10.66,6.79,20.59,14.6A257.1,257.1,0,0,1,484.77,371Z"/><path class="cls-3" d="M384.8,477.27a253.8,253.8,0,0,1-70.28,28,255.95,255.95,0,0,1-188.85-28.9,157.27,157.27,0,0,1,42.16-29.72c.62-.32,1.26-.63,1.9-.93A82.14,82.14,0,0,1,180.9,442c13.62-3.9,33.44-8.78,38.21-14.3a11.78,11.78,0,0,0,1-1.39c5.77-8.5,2.79-22.41,2.79-32.63,0-2.73,0-5.14-.1-7.27h0c-.57-21.72-2.92-15,15.83-21.31a44.09,44.09,0,0,1,6.49-1h0c14.2-1.4,45.75-2.59,49.57,1,2.87,2.68,3.41,8.08,3,14.52v0c-.74,12.84-5.11,29.83-2,37.7,7,17.79,21.93,17.56,39.38,25.66,2.88,1.34,5.67,2.73,8.41,4.17h0c.18.08.36.18.54.28Q352,451.6,359,456.23A158.34,158.34,0,0,1,384.8,477.27Z"/><path class="cls-4" d="M428.58,445.08a256.7,256.7,0,0,1-33,25.52q-2.73,1.78-5.51,3.5-2.62,1.62-5.3,3.17a253.8,253.8,0,0,1-70.28,28,255.95,255.95,0,0,1-188.85-28.9c-2-1.2-4.07-2.44-6.07-3.7l-.37-.24A255.58,255.58,0,0,1,79.91,441.8c8.19-44.53,13.47-96.69,15.7-155.32,1.36-35.79,1.58-74,.63-114.33A159.42,159.42,0,0,1,255.43,21.31h1.1A159.42,159.42,0,0,1,415.74,172.58c-1.64,39.27-2.28,76.77-1.73,112C415,345.71,419.49,400,428.58,445.08Z"/><path class="cls-5" d="M382.68,179.15v86c0,64.18-51.08,84.75-88.33,117.39a57.3,57.3,0,0,1-76.34,0c-37.24-32.64-88.33-53.21-88.33-117.39v-86c0-64.76,49.47-117.25,110.48-117.25h32C333.21,61.9,382.68,114.39,382.68,179.15Z"/><path class="cls-6" d="M180.17,265.19V179.14c0-61.44,44.54-111.86,101.25-116.83-3-.28-6.12-.41-9.23-.41h-32c-61,0-110.48,52.5-110.48,117.24v42.6a25.32,25.32,0,1,0,0,50.63h.24C133.6,331,182.18,351.19,218,382.57c18.14,15.91,42.88,18.81,63.42,8.65a59,59,0,0,1-12.94-8.65C231.24,349.94,180.17,329.38,180.17,265.19Z"/><circle class="cls-5" cx="382.68" cy="247.05" r="25.32"/><path class="cls-7" d="M163.71,212.28s31.91-17.77,59.47,0"/><ellipse class="cls-8" cx="193.02" cy="244" rx="10.58" ry="15.22"/><path class="cls-7" d="M286.65,212.28s31.92-17.77,59.47,0"/><ellipse class="cls-8" cx="315.96" cy="244" rx="10.58" ry="15.22"/><rect class="cls-6" x="238.1" y="272.37" width="36.78" height="13.94" rx="6.39"/><path class="cls-7" d="M173.79,232.78s18.27-11.54,38.46,0"/><path class="cls-7" d="M296.73,232.78s18.27-11.54,38.46,0"/><path class="cls-9" d="M130.41,237a10.07,10.07,0,1,0,0,20.14Z"/><path class="cls-6" d="M382.68,257.12a10.07,10.07,0,0,0,0-20.14Z"/><path class="cls-10" d="M225.19,311.45c0,16.54,14.61,32.6,32.63,32.6h0c18,0,30.15-16.06,30.15-32.6Z"/><path class="cls-11" d="M289.13,311.45A37.42,37.42,0,0,1,279.56,336c-5.9,6.63-14.07,11-23.07,11-18,0-32.65-17.5-32.65-35.53h1.9c4.52,13.38,16.58,24.21,30.75,24.21,9,0,17.17-4.38,23.07-11a38,38,0,0,0,7.67-13.19Z"/><path class="cls-11" d="M256.49,303c-17.45-2.83-32.64,8.5-32.64,8.5h65.27S273.93,300.12,256.49,303Z"/><path class="cls-12" d="M363,123.05C317,133.22,214.88,161,125.37,221.74c0,0-28.05-162.75,129.61-175.69,0,0,76.55-3.6,118.11,48.07A18,18,0,0,1,363,123.05Z"/><path class="cls-13" d="M149.21,123.05c46,10.17,148.07,37.94,237.57,98.69,0,0,28.05-162.75-129.6-175.69,0,0-76.55-3.6-118.11,48.07A18,18,0,0,0,149.21,123.05Z"/><path class="cls-14" d="M143.77,371.24C161,393,202,430.93,285.15,444.32a4.7,4.7,0,0,1,0,9.29c-45.94,7.09-133.94,8.68-149.66-78.56A4.71,4.71,0,0,1,143.77,371.24Z"/><path class="cls-14" d="M298.58,415.31c15.2-5,43.82-19.59,67.58-61.86a2.71,2.71,0,0,1,5,1.85c-5.3,26.23-21.93,74.09-72.19,65.25A2.71,2.71,0,0,1,298.58,415.31Z"/><path class="cls-14" d="M364.2,437.91a119,119,0,0,1-5.2,18.32c-9.28,24.71-25.52,40-44.48,49a258.11,258.11,0,0,1-105.42,2.44,4.53,4.53,0,0,1,4-3.74c68-9.47,108.32-35.8,130.5-56.81h0A147.9,147.9,0,0,0,356,433.92,4.71,4.71,0,0,1,364.2,437.91Z"/><path class="cls-15" d="M313.13,80.68c1.2,13.67-.18,33.46-14.13,48.37a3.5,3.5,0,0,0,2.77,5.9c9.24-.65,22.8-2.57,30.29-8.17a3.51,3.51,0,0,1,5.42,1.45c1.88,4.89,4.21,12.83,3.2,20.41a3.49,3.49,0,0,0,6.21,2.56c6.69-8.17,12.31-22.75,4-47.08a3.5,3.5,0,0,0-6.13-.92L343.45,105a3.49,3.49,0,0,1-5.69-.09L319.48,78.4A3.49,3.49,0,0,0,313.13,80.68Z"/></g></svg>