<svg xmlns="http://www.w3.org/2000/svg" viewBox="0 0 512 512"><defs><style>.cls-1{fill:#27273d;}.cls-2{fill:#363651;}.cls-3{fill:#9e4830;}.cls-4{fill:#893927;}.cls-5{fill:#fab3a7;}.cls-6{fill:#f58d89;}.cls-7{fill:none;stroke:#27273d;stroke-linecap:round;stroke-miterlimit:10;stroke-width:7px;}.cls-8{fill:#dd8080;}.cls-9{fill:#fff;}.cls-10{fill:#db1b1b;}.cls-11{fill:#a65c3b;}.cls-12{fill:#b76444;}.cls-13{fill:#fc4581;}.cls-14{fill:#e0dedf;}</style></defs><title>Avatar Users2</title><g id="BULINE"><circle class="cls-1" cx="256" cy="256" r="256"/></g><g id="Icons"><path class="cls-2" d="M484.77,371a256.9,256.9,0,0,1-85.44,97.13q-4.54,3.09-9.23,6-2.89,1.78-5.84,3.49-10.2,5.93-21,10.91A252.76,252.76,0,0,1,339.72,498a257.11,257.11,0,0,1-168.58-.4c-1.35-.47-2.69-1-4-1.45a254.76,254.76,0,0,1-41.39-19.72c-.76-.45-1.52-.9-2.27-1.36-1.29-.79-2.58-1.58-3.86-2.39a257.23,257.23,0,0,1-81.71-82.59q-5.6-9.07-10.44-18.64l-.22-.43a256.7,256.7,0,0,1,52.35-70.5q8.4-8,17.5-15.2a254.52,254.52,0,0,1,21.06-15q6.15-3.94,12.54-7.54,4.31-2.43,8.73-4.69a254.32,254.32,0,0,1,27.15-12q4.71-1.76,9.5-3.33l.56-.18c1.33-.44,2.66-.86,4-1.27l2.88-.86c.65-.2,1.29-.39,1.94-.57q5.06-1.46,10.19-2.69l.44-.1q2.61-.63,5.24-1.21,4.94-1.07,9.95-1.95,2.93-.53,5.87-1,11.73-1.78,23.77-2.49,7.5-.44,15.1-.44a259,259,0,0,1,26.42,1.35l2.7.29.64.07.83.1q5.7.67,11.31,1.61,4.77.78,9.48,1.74,8.64,1.76,17.05,4.1c4.41,1.21,8.77,2.55,13.08,4q9.39,3.15,18.44,7a254.56,254.56,0,0,1,25,12.26q6.49,3.63,12.76,7.64A257.2,257.2,0,0,1,484.77,371Z"/><path class="cls-3" d="M222.63,131.55A88.72,88.72,0,0,0,47.12,105.84s-19.56,49,21.57,139.27A118.44,118.44,0,0,1,79.17,306c-2.49,24.79-13.45,52.45-47.57,63-9.11,2.81-9.34,15.73-.36,18.92C83.11,406.29,181.37,413.29,176.63,199A88.54,88.54,0,0,0,222.63,131.55Z"/><path class="cls-4" d="M223.19,131.55a88.63,88.63,0,0,1-46,67.41c4,182.31-66.46,204.47-119.54,195.7,44.07-8.43,86.54-53,83.39-195.7A88.7,88.7,0,0,0,118.25,34.28c-.43-.1-.84-.18-1.26-.26a88.74,88.74,0,0,1,106.2,97.53Z"/><path class="cls-5" d="M384.26,477.59q-10.2,5.93-21,10.91A252.76,252.76,0,0,1,339.72,498a257.11,257.11,0,0,1-168.58-.4c-1.35-.47-2.69-1-4-1.45a254.76,254.76,0,0,1-41.39-19.72c.39-.41.8-.82,1.22-1.24.58-.57,1.16-1.14,1.75-1.7s1.19-1.14,1.81-1.7c.46-.44.94-.88,1.42-1.3s1.12-1,1.68-1.49,1.26-1.09,1.89-1.61c1.59-1.36,3.23-2.69,4.9-4,.53-.43,1.08-.84,1.63-1.25l1.59-1.2c.69-.49,1.38-1,2.07-1.48l.24-.18c.68-.48,1.36-.94,2.06-1.41,1-.7,2-1.4,3.11-2.07.82-.55,1.67-1.08,2.52-1.6s1.61-1,2.42-1.47,1.4-.84,2.1-1.24l1.78-1,2.37-1.31c2-1.08,4-2.14,6.12-3.15.62-.32,1.25-.62,1.88-.92,8.84-4.2,42.46-10.44,48.84-17.82,7.1-8.22,3.8-23,3.8-33.65,0-2.71,0-5.09-.09-7.21-.57-21.48-2.9-14.84,15.65-21.07a42.55,42.55,0,0,1,6.45-.95c14.05-1.38,45.26-2.56,49,.95,2.83,2.65,3.38,8,3,14.36-.72,12.71-5.05,29.53-2,37.31,6.88,17.6,21.69,17.36,38.95,25.38q4.57,2.11,8.86,4.4c2.05,1.08,4.05,2.18,6,3.32.8.45,1.59.92,2.38,1.4,2.82,1.67,5.55,3.42,8.19,5.2.52.36,1,.7,1.53,1.06s1.1.75,1.64,1.15c1.31.93,2.62,1.88,3.89,2.85,1,.76,2,1.51,2.95,2.29,1.14.89,2.25,1.81,3.35,2.75.59.48,1.16,1,1.74,1.48,1.43,1.22,2.83,2.48,4.19,3.76.57.52,1.15,1.07,1.71,1.62.19.17.38.37.58.56.56.53,1.12,1.1,1.68,1.67S383.72,477,384.26,477.59Z"/><path class="cls-5" d="M380.93,181.43v85.11c0,63.48-50.53,83.82-87.37,116.11a56.67,56.67,0,0,1-75.51,0c-36.84-32.29-87.37-52.63-87.37-116.11V181.43c0-64.05,48.93-116,109.28-116h31.69C332,65.46,380.93,117.38,380.93,181.43Z"/><path class="cls-6" d="M180.62,266.54V181.43c0-60.78,44-110.65,100.15-115.56-3-.28-6-.41-9.13-.41H240c-60.36,0-109.28,51.93-109.28,116v42.13a25,25,0,0,0,0,50.08h.24c3.63,57.95,51.68,78,87.11,109,18,15.74,42.41,18.61,62.73,8.56a58.07,58.07,0,0,1-12.8-8.56C231.14,350.37,180.62,330,180.62,266.54Z"/><circle class="cls-5" cx="380.93" cy="248.6" r="25.04"/><path class="cls-7" d="M164.34,214.21s31.56-17.59,58.82,0"/><ellipse class="cls-1" cx="193.33" cy="245.58" rx="10.46" ry="15.06"/><path class="cls-7" d="M286,214.21s31.56-17.59,58.82,0"/><ellipse class="cls-1" cx="314.94" cy="245.58" rx="10.46" ry="15.06"/><rect class="cls-6" x="237.92" y="273.64" width="36.38" height="13.79" rx="6.32"/><path class="cls-7" d="M174.31,234.49s18.07-11.42,38,0"/><path class="cls-7" d="M295.92,234.49s18.07-11.42,38,0"/><path class="cls-8" d="M131.4,238.64a10,10,0,0,0,0,19.92Z"/><path class="cls-6" d="M380.93,258.56a10,10,0,0,0,0-19.92Z"/><path class="cls-9" d="M225.15,312.3c0,16.35,14.45,32.24,32.28,32.24h0c17.83,0,29.82-15.89,29.82-32.24Z"/><path class="cls-10" d="M288.39,312.3a37,37,0,0,1-9.45,24.26c-5.84,6.56-13.92,10.88-22.83,10.88-17.83,0-32.29-17.31-32.29-35.14h1.88c4.46,13.23,16.4,23.94,30.41,23.94,8.91,0,17-4.32,22.83-10.89a37.94,37.94,0,0,0,7.57-13.05Z"/><path class="cls-10" d="M256.11,303.89c-17.26-2.8-32.28,8.41-32.28,8.41h64.56S273.36,301.09,256.11,303.89Z"/><path class="cls-11" d="M220,57.79c-26,4.12-57,12.71-60,30.41-82.34,20.34-29.29,135.36-29.29,135.36C165.24,208.4,190,159,199.48,137.14c19.44,12.27,55.14,60.81,125.92,46.4,0,0,19.37,27.44,55.53,40,0,0,34-115.87-74.36-157.35C279,55.66,249.09,53.19,220,57.79Z"/><path class="cls-12" d="M320.69,97.84c1.19,13.52-.18,33.1-14,47.85a3.45,3.45,0,0,0,2.74,5.83c9.14-.64,22.55-2.54,30-8.08a3.47,3.47,0,0,1,5.36,1.44c1.86,4.83,4.16,12.69,3.17,20.18a3.45,3.45,0,0,0,6.14,2.54c6.62-8.08,12.18-22.5,3.93-46.57a3.46,3.46,0,0,0-6.06-.91l-1.27,1.74a3.47,3.47,0,0,1-5.64-.09L327,95.59A3.45,3.45,0,0,0,320.69,97.84Z"/><path class="cls-13" d="M165.86,467.29a88.93,88.93,0,0,0,5.28,30.3c-1.35-.47-2.69-1-4-1.45a254.76,254.76,0,0,1-41.39-19.72c.39-.41.8-.82,1.22-1.24.58-.57,1.16-1.14,1.75-1.7s1.19-1.14,1.81-1.7c.46-.44.94-.88,1.42-1.3s1.12-1,1.68-1.49,1.26-1.09,1.89-1.61c1.59-1.36,3.23-2.69,4.9-4,.53-.43,1.08-.84,1.63-1.25l1.59-1.2c.69-.49,1.38-1,2.07-1.48l.24-.18c.68-.48,1.36-.94,2.06-1.41,1-.7,2-1.4,3.11-2.07.82-.55,1.67-1.08,2.52-1.6s1.61-1,2.42-1.47,1.4-.84,2.1-1.24l1.78-1,2.37-1.31c2-1.08,4-2.14,6.12-3.15A89.29,89.29,0,0,0,165.86,467.29Z"/><path class="cls-13" d="M384.26,477.59q-10.2,5.93-21,10.91A252.76,252.76,0,0,1,339.72,498a89.81,89.81,0,0,0,3.06-51.18c2.05,1.08,4.05,2.18,6,3.32.8.45,1.59.92,2.38,1.4,2.82,1.67,5.55,3.42,8.19,5.2.52.36,1,.7,1.53,1.06s1.1.75,1.64,1.15c1.31.93,2.62,1.88,3.89,2.85,1,.76,2,1.51,2.95,2.29,1.14.89,2.25,1.81,3.35,2.75.59.48,1.16,1,1.74,1.48,1.43,1.22,2.83,2.48,4.19,3.76.57.52,1.15,1.07,1.71,1.62.19.17.38.37.58.56.56.53,1.12,1.1,1.68,1.67S383.72,477,384.26,477.59Z"/><rect class="cls-9" x="110.57" y="125.09" width="283.53" height="67.59" rx="12"/><rect class="cls-14" x="125.19" y="137.25" width="20.13" height="46.06" rx="10.06"/><rect class="cls-14" x="158.76" y="137.25" width="20.13" height="46.06" rx="10.06"/><rect class="cls-14" x="192.32" y="137.25" width="20.13" height="46.06" rx="10.06"/><rect class="cls-14" x="225.88" y="137.25" width="20.13" height="46.06" rx="10.06"/><rect class="cls-14" x="259.44" y="137.25" width="20.13" height="46.06" rx="10.06"/><rect class="cls-14" x="293.01" y="137.25" width="20.13" height="46.06" rx="10.06"/><rect class="cls-14" x="326.57" y="137.25" width="20.13" height="46.06" rx="10.06"/><rect class="cls-14" x="360.13" y="137.25" width="20.13" height="46.06" rx="10.06"/></g></svg>