<svg xmlns="http://www.w3.org/2000/svg" viewBox="0 0 512 512"><defs><style>.cls-1{fill:#db1b1b;}.cls-2{fill:#c11a1a;}.cls-3{fill:#f6d372;}.cls-4{fill:#d6b156;}.cls-5{fill:#fcc8bc;}.cls-6{fill:#b0d46c;}.cls-7{fill:#fab3a7;}.cls-16,.cls-8{fill:none;stroke-linecap:round;stroke-miterlimit:10;}.cls-8{stroke:#27273d;stroke-width:7px;}.cls-9{fill:#f58d89;}.cls-10{fill:#fff;}.cls-11{fill:#27273d;}.cls-12{fill:#32314b;}.cls-13{fill:#f7dd9c;}.cls-14{fill:#ddc58e;}.cls-15{fill:#3586cb;}.cls-16{stroke:#f6d372;stroke-width:5px;}.cls-17{fill:#f9eed9;}</style></defs><title>Avatar Users2</title><g id="BULINE"><circle class="cls-1" cx="256" cy="256" r="256"/></g><g id="Icons"><path class="cls-2" d="M484.77,371a256.93,256.93,0,0,1-92.25,101.58c-.8.52-1.61,1-2.42,1.52-2.46,1.51-4.94,3-7.45,4.42A253.47,253.47,0,0,1,350.37,494l-2.29.89a253.19,253.19,0,0,1-28.44,9.1,256.15,256.15,0,0,1-150.79-7.25c-1.34-.49-2.67-1-4-1.49a254,254,0,0,1-37.49-17.9q-3.93-2.29-7.76-4.71c-1.07-.68-2.14-1.36-3.2-2.05A257.28,257.28,0,0,1,27.23,371a257.2,257.2,0,0,1,88.87-99.43q6.95-4.54,14.21-8.64,10.59-6,21.8-11a252.72,252.72,0,0,1,26.71-10.13h0c.52-.16,1-.33,1.57-.48,1.22-.39,2.44-.75,3.67-1.11q7.77-2.28,15.75-4.06,4-.9,8-1.65c.26-.06.52-.11.79-.15l1.31-.25q11.57-2.1,23.47-3.15,11.19-1,22.63-1,11.26,0,22.29,1,11.9,1,23.46,3.12l1,.18c2.11.39,4.22.8,6.31,1.25q7.37,1.55,14.58,3.52,4.49,1.23,8.91,2.61a250.2,250.2,0,0,1,23.65,8.72c1,.42,2,.87,3.06,1.32q11.33,5,22,11,7.36,4.14,14.4,8.74A257,257,0,0,1,484.77,371Z"/><ellipse class="cls-3" cx="255.06" cy="170.94" rx="217.53" ry="91.95"/><ellipse class="cls-4" cx="255.06" cy="168.74" rx="178.53" ry="67.97"/><path class="cls-5" d="M382.65,478.52A253.47,253.47,0,0,1,350.37,494l-2.29.89a253.19,253.19,0,0,1-28.44,9.1,256.15,256.15,0,0,1-150.79-7.25c-1.34-.49-2.67-1-4-1.49a254,254,0,0,1-37.49-17.9A150.15,150.15,0,0,1,146,462,164.42,164.42,0,0,1,165.84,450l2.33-1.15.67-.33h0c.4-.21.79-.4,1.2-.59,4.49-2.14,15.33-4.79,25.77-7.86h0c10.21-3,20.06-6.36,23.21-10a13.07,13.07,0,0,0,1.45-2c5.16-8.48,2.36-21.85,2.36-31.73,0-2.71,0-5.1-.1-7.22v0c-.56-21.52-2.9-14.87,15.7-21.12a43,43,0,0,1,6.46-1h0c14.09-1.39,45.39-2.57,49.18,1,2.83,2.66,3.38,8,3,14.39v0c-.72,12.74-5.07,29.61-2,37.41a30,30,0,0,0,4.54,8c5.33,6.64,12.77,9.27,21.43,12.31h0c4.13,1.45,8.52,3,13.08,5.11,3.06,1.41,6,2.89,8.89,4.41.92.48,1.83,1,2.73,1.48l2.3,1.28h0a168.41,168.41,0,0,1,16.22,10.46A155.2,155.2,0,0,1,382.65,478.52Z"/><path class="cls-6" d="M382.65,478.52A253.47,253.47,0,0,1,350.37,494l-2.29.89a253.19,253.19,0,0,1-28.44,9.1,256.15,256.15,0,0,1-150.79-7.25c-1.34-.49-2.67-1-4-1.49a254,254,0,0,1-37.49-17.9A150.15,150.15,0,0,1,146,462,164.42,164.42,0,0,1,165.84,450l2.33-1.15.67-.33h0c.4-.21.79-.4,1.2-.59,4.49-2.14,15.33-4.79,25.77-7.86h0c10.21-3,20.06-6.36,23.21-10a13.07,13.07,0,0,0,1.45-2,62.12,62.12,0,0,0,74,3.23l5.15-3.46c5.33,6.64,12.77,9.27,21.43,12.31h0c4.13,1.45,8.52,3,13.08,5.11,3.06,1.41,6,2.89,8.89,4.41.92.48,1.83,1,2.73,1.48l2.3,1.28h0a168.41,168.41,0,0,1,16.22,10.46A155.2,155.2,0,0,1,382.65,478.52Z"/><path class="cls-5" d="M381.3,183.5v85.37c0,63.66-50.68,84.07-87.62,116.44a56.81,56.81,0,0,1-75.73,0c-37-32.37-87.64-52.78-87.64-116.44V183.5c0-39.16,18.25-73.82,46.22-94.89a104.82,104.82,0,0,1,63.39-21.42H271.7a104.85,104.85,0,0,1,63.4,21.42C363.05,109.68,381.3,144.34,381.3,183.5Z"/><path class="cls-7" d="M180.4,268.87V183.5c0-60.95,44.18-111,100.44-115.9-3-.28-6.06-.41-9.15-.41H239.92c-60.54,0-109.6,52.08-109.6,116.31v42.26a25.12,25.12,0,1,0,0,50.23l.24,0c3.64,58.13,51.84,78.21,87.37,109.34,18,15.78,42.54,18.66,62.91,8.59A58.39,58.39,0,0,1,268,385.31C231.07,353,180.4,332.54,180.4,268.87Z"/><circle class="cls-5" cx="381.3" cy="250.87" r="25.11"/><path class="cls-8" d="M164.07,205.37s31.66-17.63,59,0"/><path class="cls-8" d="M286,205.37s31.66-17.63,59,0"/><rect class="cls-7" x="237.87" y="275.99" width="36.49" height="13.83" rx="6.34"/><path class="cls-9" d="M131,240.88a10,10,0,1,0,0,20Z"/><path class="cls-7" d="M381.3,260.86a10,10,0,1,0,0-20Z"/><path class="cls-10" d="M227.61,309.92a2.42,2.42,0,0,0-2.41,2.61c1.32,16.17,14.65,31.15,30.91,31.15h0c16.26,0,29.59-15,30.91-31.15a2.42,2.42,0,0,0-2.41-2.61Z"/><ellipse class="cls-11" cx="193.15" cy="247.84" rx="10.49" ry="15.1"/><ellipse class="cls-11" cx="315.11" cy="247.84" rx="10.49" ry="15.1"/><path class="cls-8" d="M174.07,236.72s18.12-11.45,38.15,0"/><path class="cls-8" d="M296,236.72s18.12-11.45,38.15,0"/><path class="cls-12" d="M256.29,52.39h-.2C97,55.24,118.19,177.16,118.19,177.16l12.13,48.6c43.64-125.59,121.31-81.67,125.77-79v.12l.1-.06.1.06v-.12c4.46-2.65,82.12-46.57,125.77,79l12.13-48.6S415.37,55.24,256.29,52.39Z"/><path class="cls-13" d="M225.9,13.85h58.33a96,96,0,0,1,96,96v.5a0,0,0,0,1,0,0H129.85a0,0,0,0,1,0,0v-.5A96,96,0,0,1,225.9,13.85Z"/><path class="cls-14" d="M259.11,13.86a96,96,0,0,0-96.05,96v.5H128v-.5a96,96,0,0,1,96-96Z"/><path class="cls-3" d="M472.6,170.94a43.94,43.94,0,0,1-7.19,23.51C440.85,155.06,356,126,255.06,126S69.27,155.06,44.71,194.45a44,44,0,0,1-7.18-23.51c0-50.79,97.39-92,217.53-92S472.6,120.15,472.6,170.94Z"/><path class="cls-15" d="M197.28,446.37v58.86a255.87,255.87,0,0,1-28.43-8.46v-50.4a14.22,14.22,0,1,1,28.43,0Z"/><path class="cls-15" d="M348.08,446.37v48.55a253.19,253.19,0,0,1-28.44,9.1V446.37a14.22,14.22,0,1,1,28.44,0Z"/><path class="cls-16" d="M268.37,320.92s103.41,32.27,165.22,78.86"/><ellipse class="cls-3" cx="406.41" cy="395.42" rx="6.54" ry="13.33"/><ellipse class="cls-3" cx="422.93" cy="404.37" rx="6.54" ry="13.33"/><ellipse class="cls-3" cx="436.94" cy="387.56" rx="13.33" ry="6.54" transform="translate(-125.55 230.31) rotate(-25.95)"/><ellipse class="cls-3" cx="421.67" cy="376.63" rx="13.33" ry="6.54" transform="translate(-122.3 222.53) rotate(-25.95)"/><ellipse class="cls-3" cx="443.93" cy="407.12" rx="6.54" ry="13.33" transform="translate(-153.01 487.6) rotate(-50.2)"/><path class="cls-17" d="M316.83,30.12c.78,8.94-.12,21.89-9.24,31.65a2.28,2.28,0,0,0,1.81,3.86c6.05-.42,14.92-1.68,19.82-5.35a2.29,2.29,0,0,1,3.54,1c1.24,3.19,2.76,8.39,2.1,13.35a2.29,2.29,0,0,0,4.07,1.68c4.37-5.35,8.05-14.89,2.6-30.81a2.29,2.29,0,0,0-4-.61L336.67,46A2.28,2.28,0,0,1,333,46L321,28.63A2.28,2.28,0,0,0,316.83,30.12Z"/></g></svg>