<svg xmlns="http://www.w3.org/2000/svg" viewBox="0 0 512 512"><defs><style>.cls-1{fill:#00b564;}.cls-2{fill:#009b51;}.cls-3{fill:#db1b1b;}.cls-4{fill:#b51c1c;}.cls-5{fill:#fcc8bc;}.cls-6{fill:#fab3a7;}.cls-7{fill:none;stroke:#27273d;stroke-linecap:round;stroke-miterlimit:10;stroke-width:7px;}.cls-8{fill:#f58d89;}.cls-9{fill:#27273d;}.cls-10{fill:#d54545;}.cls-11{fill:#c11e1e;}.cls-12{fill:#cd88f8;}</style></defs><title>Avatar Users2</title><g id="BULINE"><circle class="cls-1" cx="256" cy="256" r="256"/></g><g id="Icons"><path class="cls-2" d="M484.77,371A257.42,257.42,0,0,1,393.3,472.09l-1.63,1-1.57,1q-9.74,6-20,11.14a252.42,252.42,0,0,1-31.57,13.17A255.85,255.85,0,0,1,145.57,487a251.44,251.44,0,0,1-23.72-12.95c-.75-.45-1.5-.92-2.25-1.39-1-.62-1.95-1.24-2.92-1.88A257.33,257.33,0,0,1,27.23,371a256.88,256.88,0,0,1,65.85-82.47,254,254,0,0,1,35.56-24.65c.9-.54,1.81-1.05,2.72-1.56s2.07-1.14,3.11-1.7q5.47-3,11.1-5.65a254.93,254.93,0,0,1,27.53-11.26q3.89-1.33,7.83-2.53h0l3-.89,2.42-.7q10.06-2.85,20.46-4.86,2.49-.49,5-.93a258.52,258.52,0,0,1,95,1.25q10.37,2.08,20.42,5c1.33.39,2.66.78,4,1.19q3.45,1,6.86,2.21,11.91,4,23.26,9.18,4.39,2,8.7,4.12,4.79,2.38,9.45,5c1,.54,2,1.09,2.94,1.66.66.36,1.31.74,2,1.13A256.83,256.83,0,0,1,484.77,371Z"/><path class="cls-3" d="M433.32,440.62a256.08,256.08,0,0,1-40,31.47l-1.63,1-1.57,1q-9.74,6-20,11.14a252.42,252.42,0,0,1-31.57,13.17A255.85,255.85,0,0,1,145.57,487a251.44,251.44,0,0,1-23.72-12.95c-.75-.45-1.5-.92-2.25-1.39-1-.62-1.95-1.24-2.92-1.88a256,256,0,0,1-35-27.29l11.36-155,5.7-77.81c7.69-104.78,59.55-183.36,121-183.36h75.67c61.47,0,113.33,78.58,121,183.36l5.92,80.71Z"/><path class="cls-4" d="M370.06,100.84v384.4a252.42,252.42,0,0,1-31.57,13.17A255.85,255.85,0,0,1,145.57,487V122.3s0,0,0,0V100.84Z"/><path class="cls-5" d="M391.67,473.12l-1.57,1q-9.74,6-20,11.14a252.42,252.42,0,0,1-31.57,13.17A255.85,255.85,0,0,1,145.57,487a251.44,251.44,0,0,1-23.72-12.95A143.91,143.91,0,0,1,132,463.2c.52-.5,1-1,1.57-1.5q3.63-3.42,7.57-6.64c1.45-1.18,2.91-2.33,4.42-3.45h0c1.75-1.34,3.55-2.63,5.38-3.91a163.87,163.87,0,0,1,22.75-13.07c8.76-4.17,42.11-10.36,48.44-17.68a15.67,15.67,0,0,0,2.61-4.31c3.47-8.35,1.16-20.15,1.16-29.06,0-2.68,0-5-.1-7.13h0c-.56-21.31-2.86-14.72,15.52-20.9a42.23,42.23,0,0,1,6.38-.94c13.92-1.37,44.9-2.54,48.64.94,2.81,2.62,3.35,7.92,3,14.24-.7,12.6-5,29.28-2,37a31.77,31.77,0,0,0,3,5.86C308,424.29,321.06,425,336,431.94a178.07,178.07,0,0,1,28.08,16.19c2.07,1.44,4.06,2.92,6,4.44.75.59,1.5,1.19,2.23,1.79q4.86,3.92,9.26,8.12c.74.71,1.48,1.43,2.2,2.15C386.53,467.38,389.16,470.21,391.67,473.12Z"/><path class="cls-5" d="M382.59,173.13v84.4c0,63-50.11,83.13-86.64,115.15a56.2,56.2,0,0,1-74.88,0c-36.54-32-86.65-52.19-86.65-115.15v-84.4c0-63.52,48.52-115,108.38-115h31.42C334.07,58.12,382.59,109.61,382.59,173.13Z"/><path class="cls-6" d="M183.94,257.53V173.12c0-60.27,43.69-109.73,99.32-114.6-3-.28-6-.41-9.05-.41H242.8c-59.86,0-108.37,51.5-108.37,115v41.79a24.83,24.83,0,1,0,0,49.66h.24c3.6,57.47,51.25,77.33,86.38,108.11,17.8,15.6,42.07,18.45,62.21,8.49a58.39,58.39,0,0,1-12.69-8.49C234,340.66,183.94,320.49,183.94,257.53Z"/><circle class="cls-5" cx="382.59" cy="239.74" r="24.83"/><path class="cls-7" d="M167.8,193.39s31.3-17.44,58.33,0"/><path class="cls-7" d="M288.4,193.39s31.3-17.44,58.33,0"/><rect class="cls-6" x="239.52" y="264.57" width="36.08" height="13.68" rx="6.27"/><path class="cls-8" d="M135.14,229.86a9.88,9.88,0,1,0,0,19.75Z"/><path class="cls-6" d="M382.59,249.61a9.88,9.88,0,1,0,0-19.75Z"/><ellipse class="cls-9" cx="196.55" cy="236.74" rx="10.38" ry="14.93"/><ellipse class="cls-9" cx="317.15" cy="236.74" rx="10.38" ry="14.93"/><path class="cls-7" d="M177.68,225.74s17.93-11.32,37.73,0"/><path class="cls-7" d="M298.28,225.74s17.92-11.32,37.73,0"/><path class="cls-10" d="M257.56,304.93c-18.46-3-34.53,9-34.53,9,0,9.53,15.46,18.79,34.53,18.79h0c19.07,0,34.53-9.26,34.53-18.79C292.09,313.92,276,301.93,257.56,304.93Z"/><path class="cls-11" d="M282.13,314.73H240.34a6.29,6.29,0,0,1,2.91-3.57,52.11,52.11,0,0,1,22.21-6.66,36.51,36.51,0,0,0-7.89.43c-18.46-3-34.54,9-34.54,9,0,9.52,15.46,18.79,34.54,18.79a57.8,57.8,0,0,0,7.91-.54c-11.09-1.53-20.13-6.16-24.24-11.71a6,6,0,0,1-.92-1.88h41.81a1.93,1.93,0,1,0,0-3.85Z"/><path class="cls-3" d="M327.52,100.84s-10.85,31.52-62,49.21V109.91s-6,35.15-68.51,54V133s-13.14,33.33-62.54,66l-9.16-13.39,4.94-75.73L168,61.39l47.43-12.7h68.65l43.46,3.77,36.42,37.1s27.13,36.45,28.53,74.32C392.47,163.88,353.7,145.51,327.52,100.84Z"/><path class="cls-12" d="M145.58,475.35a218.19,218.19,0,0,0,42.5,27.54,254.8,254.8,0,0,1-66.23-28.83A143.91,143.91,0,0,1,132,463.2c3.36,3.28,7.91,7.49,13.56,12.14Z"/><path class="cls-12" d="M391.67,473.12l-1.57,1q-9.74,6-20,11.14a252.42,252.42,0,0,1-31.57,13.17,225.87,225.87,0,0,0,31.57-21.81q6.82-5.55,13.69-12C386.53,467.38,389.16,470.21,391.67,473.12Z"/><path class="cls-12" d="M260.33,49.42v-.05c-.61,0-1.21,0-1.82,0s-1.21,0-1.83,0v.05c-107.1,2.25-130.85,102.9-130.85,102.9,59.69-64.19,116.22-64.59,130.85-63.45v.41s.64-.11,1.83-.24c1.19.13,1.82.24,1.82.24v-.41c14.63-1.14,71.16-.74,130.86,63.45C391.19,152.32,367.43,51.67,260.33,49.42Z"/><circle class="cls-8" cx="196.55" cy="271.41" r="5.4"/><circle class="cls-8" cx="196.55" cy="299.04" r="5.4"/><circle class="cls-8" cx="177.68" cy="283.65" r="5.4"/><circle class="cls-8" cx="215.41" cy="283.65" r="5.4"/><circle class="cls-8" cx="317.56" cy="271.41" r="5.4"/><circle class="cls-8" cx="317.56" cy="299.04" r="5.4"/><circle class="cls-8" cx="298.7" cy="283.65" r="5.4"/><circle class="cls-8" cx="336.43" cy="283.65" r="5.4"/></g></svg>