<svg xmlns="http://www.w3.org/2000/svg" viewBox="0 0 512 512"><defs><style>.cls-1{fill:#fc4581;}.cls-2{fill:#e03b77;}.cls-3{fill:#fab3a7;}.cls-4{fill:#f58d89;}.cls-5{fill:none;stroke:#27273d;stroke-linecap:round;stroke-miterlimit:10;stroke-width:7px;}.cls-6{fill:#e08585;}.cls-7{fill:#27273d;}.cls-8{fill:#fff;}.cls-9{fill:#32314b;}.cls-10{fill:#3e436d;}.cls-11{fill:#fcc8bc;}</style></defs><title>Avatar Users2</title><g id="BULINE"><circle class="cls-1" cx="256" cy="256" r="256"/></g><g id="Icons"><path class="cls-2" d="M484.77,371a257,257,0,0,1-85.54,97.2q-4.32,2.93-8.75,5.66l-.38.24a256.17,256.17,0,0,1-268.61-.26l-1.89-1.17q-3.85-2.43-7.62-5A257.09,257.09,0,0,1,27.23,371a257.14,257.14,0,0,1,95.52-103.64l0,0a254.56,254.56,0,0,1,53.06-24.55c2.13-.71,4.28-1.38,6.44-2,1.21-.36,2.41-.72,3.62-1.06h0q6.77-1.92,13.67-3.47,8.76-2,17.73-3.34,8.33-1.26,16.83-2Q245,230,256,230q10.78,0,21.36.88a254.25,254.25,0,0,1,34.28,5.19q8,1.77,15.84,4c.55.16,1.11.32,1.66.5A254.3,254.3,0,0,1,391.93,269,257,257,0,0,1,484.77,371Z"/><path class="cls-3" d="M390.48,473.86l-.38.24a256.17,256.17,0,0,1-268.61-.26c2.42-2.27,4.94-4.43,7.53-6.56,3.4-2.8,7-5.47,10.72-8.06a181.5,181.5,0,0,1,24.91-14.31c7-3.32,28.2-7.81,41.92-13.1,5.13-2,9.21-4.07,11.1-6.25a17.47,17.47,0,0,0,2.86-4.72c3.78-9.15,1.25-22.06,1.25-31.81,0-2.3,0-4.39-.07-6.29v0c0-.5,0-1,0-1.49v0c0-.47,0-.93,0-1.37-.66-21.65-2.67-14.87,17-21.49a45.42,45.42,0,0,1,7-1c.76-.07,1.57-.16,2.42-.23,4.72-.4,10.69-.77,16.87-1h0c15-.57,31.18-.31,33.92,2.26,3.08,2.87,3.66,8.66,3.26,15.58-.77,13.8-5.46,32.05-2.17,40.49a34.67,34.67,0,0,0,3.26,6.42,28.1,28.1,0,0,0,1.8,2.45c8.52,10.45,22,11.61,37.22,18.69A194.35,194.35,0,0,1,373,459.69q4.69,3.29,9,6.82C384.94,468.89,387.77,471.33,390.48,473.86Z"/><path class="cls-3" d="M393.28,158.71v92.37c0,68.91-54.85,91-94.84,126a61.49,61.49,0,0,1-82,0c-40-35-94.83-57.12-94.83-126V158.71c0-69.53,53.11-125.88,118.62-125.88h34.39C340.17,32.83,393.28,89.18,393.28,158.71Z"/><path class="cls-4" d="M175.85,251.08V158.7c0-66,47.82-120.1,108.71-125.43-3.27-.31-6.57-.45-9.91-.45H240.27c-65.52,0-118.62,56.37-118.62,125.88v45.73a27.18,27.18,0,0,0,0,54.36l.27,0c3.94,62.91,56.1,84.65,94.55,118.33,19.48,17.08,46,20.19,68.09,9.29a62.9,62.9,0,0,1-13.89-9.29C230.69,342.08,175.85,320,175.85,251.08Z"/><circle class="cls-3" cx="393.27" cy="231.61" r="27.18"/><path class="cls-5" d="M158.18,180.88s34.26-19.09,63.85,0"/><path class="cls-5" d="M290.18,180.88s34.26-19.09,63.84,0"/><rect class="cls-4" x="236.69" y="258.79" width="39.49" height="14.97" rx="6.86"/><path class="cls-6" d="M122.43,220.8a10.81,10.81,0,0,0,0,21.62Z"/><path class="cls-4" d="M393.28,242.42a10.81,10.81,0,1,0,0-21.62Z"/><ellipse class="cls-7" cx="189.65" cy="228.33" rx="11.36" ry="16.35"/><ellipse class="cls-7" cx="321.65" cy="228.33" rx="11.36" ry="16.35"/><path class="cls-5" d="M169,216.29s19.62-12.39,41.3,0"/><path class="cls-5" d="M301,216.29s19.61-12.39,41.29,0"/><path class="cls-8" d="M225,302.43a2.62,2.62,0,0,0-2.6,2.82c1.42,17.5,15.85,33.72,33.45,33.72h0c17.59,0,32-16.22,33.45-33.72a2.62,2.62,0,0,0-2.61-2.82Z"/><path class="cls-9" d="M293.73,380.57l-33.44-28.46a5,5,0,0,0-6.44,0l-33.06,28.44a47,47,0,0,0,36.27,28.28.62.62,0,0,0,.2,0,.56.56,0,0,0,.2,0A47,47,0,0,0,293.73,380.57Z"/><path class="cls-10" d="M390.48,473.86l-.38.24a256.17,256.17,0,0,1-268.61-.26c2.42-2.27,4.94-4.43,7.53-6.56,3.4-2.8,7-5.47,10.72-8.06a181.5,181.5,0,0,1,24.91-14.31c7-3.32,28.2-7.81,41.92-13.1v23.78l40,33a14.53,14.53,0,0,0,18.53,0l40-33v-32.3c8.52,10.45,22,11.61,37.22,18.69A194.35,194.35,0,0,1,373,459.69q4.69,3.29,9,6.82C384.94,468.89,387.77,471.33,390.48,473.86Z"/><path class="cls-11" d="M318.6,71.32c1.29,14.67-.19,35.93-15.16,51.93a3.75,3.75,0,0,0,3,6.34c9.92-.7,24.48-2.76,32.51-8.78a3.77,3.77,0,0,1,5.82,1.57c2,5.24,4.52,13.77,3.45,21.9a3.75,3.75,0,0,0,6.66,2.76c7.19-8.78,13.22-24.43,4.27-50.55a3.76,3.76,0,0,0-6.58-1l-1.38,1.89A3.76,3.76,0,0,1,345,97.3L325.42,68.88A3.75,3.75,0,0,0,318.6,71.32Z"/></g></svg>