<svg xmlns="http://www.w3.org/2000/svg" viewBox="0 0 512 512"><defs><style>.cls-1{fill:#db1b1b;}.cls-2{fill:#c11a1a;}.cls-3{fill:#00b564;}.cls-4{fill:#009b51;}.cls-5{fill:#0dd676;}.cls-6{fill:#e88032;}.cls-7{fill:#fcc8bc;}.cls-8{fill:#fab3a7;}.cls-9{fill:#f9a195;}.cls-10{fill:#27273d;}.cls-11,.cls-12,.cls-14{fill:none;stroke-linecap:round;stroke-miterlimit:10;stroke-width:7px;}.cls-11{stroke:#27273d;}.cls-12{stroke:#e59e95;}.cls-13{fill:#a65c3b;}.cls-14{stroke:#a65c3b;}</style></defs><title>Avatar Users2</title><g id="BULINE"><circle class="cls-1" cx="256" cy="256" r="256"/></g><g id="Icons"><path class="cls-2" d="M484.77,371a256.79,256.79,0,0,1-81.89,94.68c-2,1.41-4,2.78-6,4.13q-3.33,2.19-6.74,4.29a256.25,256.25,0,0,1-254.86,7.67c-.37-.2-.74-.39-1.1-.6q-7.42-4-14.54-8.5-4-2.52-7.87-5.17c-1-.67-1.94-1.34-2.9-2A257.09,257.09,0,0,1,27.23,371,257.1,257.1,0,0,1,127.06,264.8h0A254.12,254.12,0,0,1,178.34,242q4.51-1.44,9.09-2.7h0q6.22-1.72,12.56-3.14,9.49-2.12,19.24-3.52a258.48,258.48,0,0,1,93.43,3.68q6.21,1.39,12.29,3.11c1.55.43,3.1.88,4.64,1.34a254.13,254.13,0,0,1,58.27,25.81A257,257,0,0,1,484.77,371Z"/><path class="cls-3" d="M396.84,469.81q-3.33,2.19-6.74,4.29a256.25,256.25,0,0,1-254.86,7.67c-.37-.2-.74-.39-1.1-.6q-7.42-4-14.54-8.5-4-2.52-7.87-5.17,2.05-2.21,4.22-4.33c1.29-1.28,2.59-2.53,3.94-3.77a170.15,170.15,0,0,1,42.66-28.53,32.18,32.18,0,0,1,3.22-1.28l1-.35c.65-.2,1.33-.44,2-.66,2.58-.8,5.6-1.67,8.84-2.57l.78-.22,2.28-.64c3-.84,6.17-1.71,9.29-2.64,2-.58,4-1.17,5.9-1.78h0c2.6-.81,5.08-1.67,7.38-2.53,1-.34,1.88-.7,2.75-1.09a4.27,4.27,0,0,0,.43-.18c4-1.67,7.16-3.44,8.74-5.25a20.07,20.07,0,0,0,4.23-9.51c1.6-8.44-.14-18.68-.14-26.77,0-1.68,0-3.23,0-4.7h0c0-1.17,0-2.28-.07-3.33-.63-22.82-3-15.75,16.88-22.43a17,17,0,0,1,2.36-.47h0c2.42-.36,6.27-.74,10.87-1.08h0c3.63-.26,7.71-.49,11.9-.66,5.75-.23,11.74-.34,17.08-.25l1.73,0c1.84,0,3.57.13,5.18.24l.8.05c.27,0,.53,0,.78.06s.5,0,.74.07l1.15.11c3.61.39,6.19,1,7.15,1.89,4.05,3.79,3.76,12.63,2.61,22.43-.06.46-.11.94-.18,1.42v0c-.39,3.12-.84,6.33-1.26,9.46h0c-1.19,8.92-2.06,17.34-.1,22.33a29.41,29.41,0,0,0,11.47,14.62c.92.61,1.87,1.16,2.84,1.68.56.32,1.16.61,1.75.9,1,.47,2,.91,3,1.33,2.13.91,4.37,1.73,6.7,2.55,3.4,1.21,7,2.42,10.71,3.9l2.9,1.2c.88.38,1.77.78,2.64,1.18l.68.33c2.57,1.19,5.07,2.45,7.52,3.72l.63.33a177.85,177.85,0,0,1,39.9,28.08Q392.46,465,396.84,469.81Z"/><path class="cls-4" d="M288.68,343c-9.3.52-16.95,1.3-18.74,1.89-.36.13-.7.24-1,.33-13.46,4.38-16.09,2.33-16.27,9,0,.26,0,.54,0,.83,0,2.65.27,6.5.43,12.23.06,2.35.11,5,.11,8,0,.72,0,1.45,0,2.2.07,2.21.22,4.54.38,6.94v0c.61,9.36,1.18,19.53-3.81,26.24-.22.3-.46.59-.7.88-1.57,1.81-4.68,3.55-8.65,5.21h0l-.5.21c-.87.39-1.79.75-2.75,1.09-1.35.51-2.76,1-4.23,1.49h0c-2.87,1-5.94,1.92-9,2.81s-6.26,1.8-9.29,2.64l-2.28.64-.79.22c-2.86.8-5.57,1.58-7.94,2.3h0l-.87.26c-.7.22-1.38.46-2,.66l-1,.35a32.18,32.18,0,0,0-3.22,1.28,170.15,170.15,0,0,0-42.66,28.53c-1.35,1.24-2.65,2.49-3.94,3.77a162.38,162.38,0,0,0-15.71,18q-7.42-4-14.54-8.5-4-2.52-7.87-5.17,2.05-2.21,4.22-4.33c1.29-1.28,2.59-2.53,3.94-3.77a170.15,170.15,0,0,1,42.66-28.53,32.18,32.18,0,0,1,3.22-1.28l1-.35c.65-.2,1.33-.44,2-.66,2.58-.8,5.6-1.67,8.84-2.57l.78-.22,2.28-.64c3-.84,6.17-1.71,9.29-2.64,2-.58,4-1.17,5.9-1.78h0c2.6-.81,5.08-1.67,7.38-2.53,1-.34,1.88-.7,2.75-1.09a4.27,4.27,0,0,0,.43-.18c4-1.67,7.16-3.44,8.74-5.25a20.07,20.07,0,0,0,4.23-9.51c1.6-8.44-.14-18.68-.14-26.77,0-1.68,0-3.23,0-4.7h0c0-1.17,0-2.28-.07-3.33-.63-22.82-3-15.75,16.88-22.43a17,17,0,0,1,2.36-.47h0c2.42-.36,6.27-.74,10.87-1.08h0c3.63-.26,7.71-.49,11.9-.66,5.75-.23,11.74-.34,17.08-.25l1.73,0c1.84,0,3.57.13,5.18.24l.8.05c.27,0,.53,0,.78.06s.5,0,.74.07Z"/><rect class="cls-5" x="195.04" y="367.36" width="121.23" height="61.73" rx="12.93"/><rect class="cls-4" x="205.08" y="376.54" width="14.33" height="43.37" rx="7.16"/><rect class="cls-4" x="227.43" y="376.54" width="14.33" height="43.37" rx="7.16"/><rect class="cls-4" x="249.78" y="376.54" width="14.33" height="43.37" rx="7.16"/><rect class="cls-4" x="272.14" y="376.54" width="14.33" height="43.37" rx="7.16"/><rect class="cls-4" x="294.49" y="376.54" width="14.33" height="43.37" rx="7.16"/><path class="cls-6" d="M281.17,355.32c-7.92-.69-16.1-1.05-24.48-1.05s-16.55.36-24.46,1.05c6.66-8.11,15.17-13,24.46-13S274.5,347.21,281.17,355.32Z"/><path class="cls-7" d="M389.56,157.32v89.75c0,3.24-.13,6.37-.37,9.41-4.76,59.63-54.79,80.61-91.75,113a59.76,59.76,0,0,1-79.63,0c-37.35-32.74-88.06-53.82-91.88-114.92q-.24-3.65-.24-7.5V157.32c0-.3,0-.61,0-.91C126,109.58,151.15,69,187.84,48.77c1.18-.66,32.35-12.93,48.3-13.61,1.58-.1,3.17-.13,4.78-.13h33.41a110.78,110.78,0,0,1,73.26,27.91,114.8,114.8,0,0,1,8.83,8.56,125.4,125.4,0,0,1,33,79v0Q389.56,153.89,389.56,157.32Z"/><path class="cls-8" d="M178.34,247.06V157.32c0-64.08,46.45-116.67,105.6-121.85-3.17-.3-6.38-.43-9.63-.43H240.92c-63.65,0-115.23,54.75-115.23,122.28v44.42a26.41,26.41,0,0,0,0,52.81l.26,0c3.82,61.11,54.5,82.23,91.85,115,18.92,16.6,44.72,19.62,66.14,9a61.42,61.42,0,0,1-13.49-9C231.61,335.46,178.34,314,178.34,247.06Z"/><circle class="cls-7" cx="389.55" cy="228.15" r="26.4"/><rect class="cls-8" x="237.61" y="254.55" width="38.36" height="14.54" rx="6.67"/><path class="cls-9" d="M126.45,217.64a10.51,10.51,0,1,0,0,21Z"/><path class="cls-8" d="M389.56,238.65a10.51,10.51,0,0,0,0-21Z"/><ellipse class="cls-10" cx="192.19" cy="224.96" rx="11.03" ry="15.88"/><path class="cls-11" d="M172.13,213.26s19.05-12,40.11,0"/><ellipse class="cls-10" cx="320.41" cy="224.96" rx="11.03" ry="15.88"/><path class="cls-11" d="M300.36,213.26s19.05-12,40.11,0"/><line class="cls-12" x1="239.17" y1="311.44" x2="274.4" y2="311.44"/><line class="cls-12" x1="243.81" y1="325.26" x2="269.76" y2="325.26"/><path class="cls-13" d="M138.47,89h2.22a24,24,0,0,1,24,24v43.75a48.72,48.72,0,0,1-48.72,48.72h0a0,0,0,0,1,0,0V111.48A22.53,22.53,0,0,1,138.47,89Z"/><path class="cls-13" d="M347.92,89h0a48.72,48.72,0,0,1,48.72,48.72v43.75a24,24,0,0,1-24,24h-2.22a22.53,22.53,0,0,1-22.53-22.53V89a0,0,0,0,1,0,0Z" transform="translate(744.56 294.35) rotate(-180)"/><path class="cls-11" d="M161.18,178.11s33.28-18.54,62,0"/><path class="cls-11" d="M289.4,178.11s33.28-18.54,62,0"/><path class="cls-13" d="M238.68,269.09h36.22a27.84,27.84,0,0,1,27.84,27.84v0a0,0,0,0,1,0,0H210.84a0,0,0,0,1,0,0v0A27.84,27.84,0,0,1,238.68,269.09Z"/><path class="cls-14" d="M259.13,23.41A37.43,37.43,0,0,0,221.7,60.85"/><path class="cls-14" d="M293.39,67.88a37.43,37.43,0,0,0-52.92,1.52"/><path class="cls-14" d="M309.55,118.11a37.43,37.43,0,0,0-44.79-28.22"/></g></svg>