<svg xmlns="http://www.w3.org/2000/svg" viewBox="0 0 512 512"><defs><style>.cls-1{fill:#f7bb38;}.cls-2{fill:#dba231;}.cls-3{fill:#db1b1b;}.cls-4{fill:#b51a1a;}.cls-5{fill:#f9dcd7;}.cls-6{fill:#fcc8bc;}.cls-7{fill:none;stroke:#27273d;stroke-linecap:round;stroke-miterlimit:10;stroke-width:7px;}.cls-8{fill:#e5b2aa;}.cls-9{fill:#27273d;}.cls-10{fill:#fff;}.cls-11{fill:#e84343;}.cls-12{fill:#3586cb;}</style></defs><title>Avatar Users2</title><g id="BULINE"><circle class="cls-1" cx="256" cy="256" r="256"/></g><g id="Icons"><path class="cls-2" d="M484.77,371a257.08,257.08,0,0,1-81.39,94.34c-1.13.8-2.28,1.6-3.43,2.37-.8.56-1.61,1.1-2.42,1.64q-3.67,2.43-7.43,4.75c-1.24.76-2.48,1.51-3.73,2.25-3.05,1.81-6.15,3.57-9.29,5.25q-7,3.75-14.18,7.07-10.75,4.95-22,8.91c-1.16.41-2.31.81-3.48,1.2q-2.75.93-5.53,1.78-8,2.47-16.2,4.44a252.63,252.63,0,0,1-26.12,4.82,259.26,259.26,0,0,1-67.1,0,254.84,254.84,0,0,1-27.12-5.06q-10-2.43-19.68-5.64l-1-.34c-.74-.24-1.48-.49-2.22-.76a256.24,256.24,0,0,1-30.23-12.66c-2-1-3.9-2-5.82-3-3.25-1.71-6.44-3.5-9.6-5.35-2.41-1.41-4.79-2.85-7.14-4.34q-5.35-3.37-10.53-7l-1.56-1.11-.45-.32A257,257,0,0,1,27.23,371,257.15,257.15,0,0,1,136.34,259.63l.65-.34h0q2-1.08,4.1-2.11,10.88-5.48,22.34-9.93,9.33-3.62,19-6.51l1.37-.4q6.69-2,13.53-3.58l1.47-.34a.16.16,0,0,0,.09,0c2.49-.54,5-1.08,7.51-1.58s4.84-.92,7.27-1.32q10-1.66,20.2-2.53l1-.09,1.65-.13Q246.16,230,256,230q10.28,0,20.35.8l1.84.15.79.07a255.1,255.1,0,0,1,26.59,3.78c1.46.28,2.91.58,4.36.9h0c1.58.33,3.14.69,4.7,1.05h0c5.27,1.24,10.45,2.64,15.59,4.19q10,3,19.73,6.86,10.42,4.13,20.38,9.11,2.68,1.33,5.32,2.74c.47.24.93.49,1.4.75A256.84,256.84,0,0,1,484.77,371Z"/><path class="cls-3" d="M403.38,172.86V465.34c-1.13.8-2.28,1.6-3.43,2.37-.8.56-1.61,1.1-2.42,1.64q-3.67,2.43-7.43,4.75c-1.24.76-2.48,1.51-3.73,2.25-3.05,1.81-6.15,3.57-9.29,5.25q-7,3.75-14.18,7.07-10.75,4.95-22,8.91c-1.16.41-2.31.81-3.48,1.2q-2.75.93-5.53,1.78-8,2.47-16.2,4.44a252.63,252.63,0,0,1-26.12,4.82h-67.1a254.84,254.84,0,0,1-27.12-5.06q-10-2.43-19.68-5.64l-1-.34c-.74-.24-1.48-.49-2.22-.76a256.24,256.24,0,0,1-30.23-12.66c-2-1-3.9-2-5.82-3-3.25-1.71-6.44-3.5-9.6-5.35-2.41-1.41-4.79-2.85-7.14-4.34q-5.35-3.37-10.53-7l-1.56-1.11V172.86c0-87.32,66.23-158.11,147.93-158.11S403.38,85.54,403.38,172.86Z"/><path class="cls-4" d="M377.08,234.8V481.6q-7,3.75-14.18,7.07-10.75,4.95-22,8.91c-1.16.41-2.31.81-3.48,1.2H174.61c-.74-.24-1.48-.49-2.22-.76a256.24,256.24,0,0,1-30.23-12.66c-2-1-3.9-2-5.82-3V234.8Z"/><path class="cls-5" d="M400,467.71c-.8.56-1.61,1.1-2.42,1.64q-3.67,2.43-7.43,4.75c-1.24.76-2.48,1.51-3.73,2.25-3.05,1.81-6.15,3.57-9.29,5.25q-7,3.75-14.18,7.07-10.75,4.95-22,8.91c-1.16.41-2.31.81-3.48,1.2q-2.75.93-5.53,1.78-8,2.47-16.2,4.44a252.63,252.63,0,0,1-26.12,4.82,259.26,259.26,0,0,1-67.1,0,254.84,254.84,0,0,1-27.12-5.06q-10-2.43-19.68-5.64l-1-.34c-.74-.24-1.48-.49-2.22-.76a256.24,256.24,0,0,1-30.23-12.66c-2-1-3.9-2-5.82-3-3.25-1.71-6.44-3.5-9.6-5.35-2.41-1.41-4.79-2.85-7.14-4.34q-5.35-3.37-10.53-7l-1.56-1.11-.45-.32.45-.68a150.09,150.09,0,0,1,19.23-23.31c1.17-1.18,2.37-2.32,3.6-3.46,1.93-1.78,3.94-3.53,6-5.22a157.45,157.45,0,0,1,33-20.87,27.88,27.88,0,0,1,2.94-1.18c.29-.1.6-.2.91-.32.58-.18,1.2-.4,1.84-.61,2.54-.78,5.56-1.65,8.82-2.55l2.07-.58c6.91-1.92,14.54-4.05,20.68-6.35.86-.32,1.7-.65,2.5-1,3.85-1.57,6.89-3.25,8.38-5,7-8.1,3.75-22.65,3.75-33.19,0-1.54,0-3,0-4.3h0c-.39-24.55-3.67-17.18,15.38-23.57a13.36,13.36,0,0,1,2.15-.42h0c10.26-1.53,48.37-3.45,52.52.42,3.88,3.63,3.41,12.35,2.24,21.81h0c-1.36,11-3.67,22.93-1.24,29.1a27,27,0,0,0,13.07,14.93c.53.29,1.07.56,1.6.81,5.44,2.65,11.79,4.41,18.65,7.13.87.35,1.77.72,2.65,1.1s1.62.71,2.42,1.07a5.81,5.81,0,0,1,.61.31c2.36,1.08,4.65,2.23,6.88,3.39h0c2,1.05,4,2.12,5.94,3.23.81.45,1.61.91,2.41,1.39q2.34,1.35,4.58,2.78,1.23.76,2.43,1.56c.8.51,1.6,1,2.39,1.59s1.56,1.07,2.33,1.61c2.37,1.66,4.65,3.37,6.87,5.11q1.71,1.35,3.36,2.72l.74.63c.47.39.92.78,1.37,1.18,1.6,1.38,3.15,2.77,4.67,4.21.6.56,1.19,1.13,1.78,1.71h0c3.28,3.18,6.37,6.45,9.29,9.85A154,154,0,0,1,400,467.71Z"/><path class="cls-5" d="M377.08,160.39V242.5c0,61.25-48.75,80.86-84.29,112a54.7,54.7,0,0,1-72.86,0c-35.53-31.16-84.28-50.77-84.28-112V160.39c0-.27,0-.55,0-.83.28-42.85,23.28-80,56.85-98.49,1.09-.6,29.6-11.83,44.2-12.45,1.44-.09,2.91-.11,4.37-.11h30.57a101.33,101.33,0,0,1,67,25.52,104.86,104.86,0,0,1,8.08,7.85,114.73,114.73,0,0,1,30.16,72.26h0C377,156.22,377.08,158.29,377.08,160.39Z"/><path class="cls-6" d="M183.82,242.5V160.39c0-58.63,42.51-106.75,96.62-111.48-2.9-.28-5.83-.4-8.81-.4H241.08c-58.23,0-105.43,50.1-105.43,111.88V201a24.16,24.16,0,0,0,0,48.32h.24c3.5,55.91,49.86,75.23,84,105.17a54.49,54.49,0,0,0,60.51,8.25,56.12,56.12,0,0,1-12.34-8.25C232.56,323.37,183.82,303.75,183.82,242.5Z"/><circle class="cls-5" cx="377.07" cy="225.19" r="24.16"/><path class="cls-7" d="M168.12,187s30.45-17,56.74,0"/><path class="cls-7" d="M285.44,187s30.45-17,56.74,0"/><rect class="cls-6" x="238.32" y="249.35" width="35.1" height="13.3" rx="6.1"/><path class="cls-8" d="M136.34,215.58a9.61,9.61,0,0,0,0,19.22Z"/><path class="cls-6" d="M377.07,234.8a9.61,9.61,0,1,0,0-19.22Z"/><ellipse class="cls-9" cx="196.49" cy="222.28" rx="10.09" ry="14.53"/><path class="cls-7" d="M178.14,211.57s17.43-11,36.7,0"/><ellipse class="cls-9" cx="313.81" cy="222.28" rx="10.09" ry="14.53"/><path class="cls-7" d="M295.46,211.57s17.43-11,36.7,0"/><path class="cls-10" d="M228,288.23c0,15,13.23,29.52,29.55,29.52h0c16.32,0,27.3-14.55,27.3-29.52Z"/><path class="cls-3" d="M285.92,288.23a33.86,33.86,0,0,1-8.66,22.21c-5.34,6-12.74,10-20.9,10-16.32,0-29.56-15.85-29.56-32.17h1.72c4.09,12.11,15,21.92,27.84,21.92,8.16,0,15.56-4,20.9-10a34.4,34.4,0,0,0,6.94-11.94Z"/><path class="cls-3" d="M256.36,280.53c-15.8-2.56-29.55,7.7-29.55,7.7h59.11S272.16,278,256.36,280.53Z"/><path class="cls-3" d="M368.83,77l-55-44.68H256.44l-78.3,16.21-51.4,56.71v87.24l8.91,8.57c37.59-3.27,73.94-24.74,102.45-47.24A47.92,47.92,0,0,1,232.28,172c20.65-14.33,38.2-46.92,38.2-46.92h0a141.79,141.79,0,0,0,13.94-15.69,2.49,2.49,0,0,1,4.41,2c-3.92,17.93-15.42,34.86-15.42,34.86,26.51-14.67,35.63-34.67,38.76-47a13,13,0,0,1,16.49-9c28.61,8.93,31.18,41.18,31.33,50,0,2.39.13,4.78.32,7.16C363.56,189,377.07,201,377.07,201L386.68,187V133.87Z"/><path class="cls-11" d="M333.58,49.17c.77,8.77-.12,21.47-9.06,31A2.24,2.24,0,0,0,326.29,84c5.93-.42,14.63-1.65,19.43-5.24a2.25,2.25,0,0,1,3.48.93c1.21,3.14,2.7,8.23,2.06,13.09a2.24,2.24,0,0,0,4,1.65c4.29-5.25,7.9-14.6,2.55-30.21a2.24,2.24,0,0,0-3.93-.59L353,64.75a2.24,2.24,0,0,1-3.65-.06l-11.72-17A2.24,2.24,0,0,0,333.58,49.17Z"/><path class="cls-12" d="M142.16,485.36c-2-1-3.9-2-5.82-3-3.25-1.71-6.44-3.5-9.6-5.35-2.41-1.41-4.79-2.85-7.14-4.34q-5.35-3.37-10.53-7l-1.56-1.11-.45-.32.45-.68a150.09,150.09,0,0,1,19.23-23.31c1.17-1.18,2.37-2.32,3.6-3.46l6,24.67Z"/><path class="cls-12" d="M400,467.71c-.8.56-1.61,1.1-2.42,1.64q-3.67,2.43-7.43,4.75c-1.24.76-2.48,1.51-3.73,2.25-3.05,1.81-6.15,3.57-9.29,5.25q-7,3.75-14.18,7.07l12.39-50.95c.6.56,1.19,1.13,1.78,1.71h0c3.28,3.18,6.37,6.45,9.29,9.85A154,154,0,0,1,400,467.71Z"/><path class="cls-10" d="M386.37,449.29v27.06c-3.05,1.81-6.15,3.57-9.29,5.25q-7,3.75-14.18,7.07-10.75,4.95-22,8.91c-1.16.41-2.31.81-3.48,1.2q-2.75.93-5.53,1.78-8,2.47-16.2,4.44a252.63,252.63,0,0,1-26.12,4.82,259.26,259.26,0,0,1-67.1,0,254.84,254.84,0,0,1-27.12-5.06q-10-2.43-19.68-5.64l-1-.34c-.74-.24-1.48-.49-2.22-.76a256.24,256.24,0,0,1-30.23-12.66c-2-1-3.9-2-5.82-3-3.25-1.71-6.44-3.5-9.6-5.35V440.23c1.17-1.18,2.37-2.32,3.6-3.46,1.93-1.78,3.94-3.53,6-5.22a157.45,157.45,0,0,1,33-20.87,27.88,27.88,0,0,1,2.94-1.18c.29-.1.6-.2.91-.32A79.65,79.65,0,0,0,194.16,431,106.12,106.12,0,0,0,319,431a81.16,81.16,0,0,0,19.24-19.28h0c2,1.05,4,2.12,5.94,3.23.81.45,1.61.91,2.41,1.39q2.34,1.35,4.58,2.78,1.23.76,2.43,1.56c.8.51,1.6,1,2.39,1.59s1.56,1.07,2.33,1.61c2.37,1.66,4.65,3.37,6.87,5.11q1.71,1.35,3.36,2.72l.74.63c.47.39.92.78,1.37,1.18,1.6,1.38,3.15,2.77,4.67,4.21.6.56,1.19,1.13,1.78,1.71h0C380.36,442.62,383.45,445.89,386.37,449.29Z"/><path class="cls-3" d="M315.66,505a252.63,252.63,0,0,1-26.12,4.82,259.26,259.26,0,0,1-67.1,0,254.84,254.84,0,0,1-27.12-5.06,30.75,30.75,0,0,1,3.25-6,30.07,30.07,0,0,1,3.51-4.2,30.72,30.72,0,0,1,43.45,0l4.2,4.2,5.71,5.71,5.71-5.71,4.2-4.2a30.73,30.73,0,0,1,43.46,0A30.87,30.87,0,0,1,315.66,505Z"/></g></svg>