<svg xmlns="http://www.w3.org/2000/svg" viewBox="0 0 512 512"><defs><style>.cls-1{fill:#db1b1b;}.cls-2{fill:#c11a1a;}.cls-3{fill:#fff;}.cls-4{fill:#fcc8bc;}.cls-5{fill:#fab3a7;}.cls-12,.cls-6,.cls-9{fill:none;stroke-linecap:round;stroke-miterlimit:10;stroke-width:7px;}.cls-6{stroke:#fff;}.cls-7{fill:#f58d89;}.cls-8{fill:#e0dfde;}.cls-9{stroke:#f58d89;}.cls-10{fill:#bbe4f9;}.cls-11{fill:#e1f2f9;}.cls-12{stroke:#27273d;}.cls-13{fill:#27273d;}.cls-14{fill:#c5e8fc;}.cls-15{fill:#a65c3b;}</style></defs><title>Avatar Users2</title><g id="BULINE"><circle class="cls-1" cx="256" cy="256" r="256"/></g><g id="Icons"><path class="cls-2" d="M484.77,371a257.08,257.08,0,0,1-84.43,96.45l-.88.6q-4.6,3.12-9.36,6.05l-.37.23a256.21,256.21,0,0,1-261,3.83q-4.64-2.64-9.14-5.49-5.16-3.26-10.16-6.77l-.87-.6A257.06,257.06,0,0,1,27.23,371a257.11,257.11,0,0,1,107.6-110.57l.61-.33h0q4.88-2.61,9.86-5c2.08-1,4.19-2,6.31-2.93q7.49-3.34,15.21-6.21h0c.82-.32,1.64-.62,2.47-.91q6.84-2.46,13.85-4.54,3.08-.91,6.17-1.75,8.64-2.32,17.51-4,11.27-2.19,22.86-3.37a258.79,258.79,0,0,1,54.4.19h0q10.49,1.14,20.7,3.12,5.69,1.09,11.27,2.45,5.39,1.28,10.66,2.8,10,2.88,19.73,6.56,7.59,2.85,14.94,6.19,4.54,2.06,9,4.28,4.28,2.13,8.46,4.43c.85.46,1.7.94,2.55,1.42A257.12,257.12,0,0,1,484.77,371Z"/><circle class="cls-3" cx="256.73" cy="161.42" r="138.86"/><path class="cls-4" d="M399.46,468.05q-4.6,3.12-9.36,6.05l-.37.23a256.21,256.21,0,0,1-261,3.83q-4.64-2.64-9.14-5.49-5.16-3.26-10.16-6.77l-.87-.6a149.19,149.19,0,0,1,19.89-22.39c1.8-1.67,3.66-3.29,5.57-4.88q1.93-1.62,3.94-3.18a162.69,162.69,0,0,1,30.3-18.55l.34-.16c.26-.12.54-.23.85-.35l.35-.15,1.07-.4c.32-.12.63-.24,1-.34l1.31-.44,1.74-.56,2.07-.61c1.94-.58,4.05-1.17,6.27-1.79l.19-.06,1.33-.37,1.36-.37c.81-.22,1.64-.46,2.46-.7,2.31-.64,4.67-1.32,7-2,8.54-2.54,16.57-5.36,20.5-8.37a8.92,8.92,0,0,0,.71-.6,8.34,8.34,0,0,0,.66-.68,16.91,16.91,0,0,0,3.33-6.23,38.24,38.24,0,0,0,1.28-11.7c-.07-4.65-.56-9.41-.71-13.67,0-.78,0-1.55,0-2.29,0-2.48,0-4.68-.08-6.67h0c-.23-9.22-.8-13.46-.05-15.71s2.68-2.5,7.44-3.67c2.16-.53,4.9-1.25,8.36-2.41a33.07,33.07,0,0,1,4.76-.77h0c11.71-1.3,40-2.61,48.8-.26a5.66,5.66,0,0,1,2.28,1c1.56,1.46,2.43,3.74,2.85,6.55a56.56,56.56,0,0,1-.3,13.49c-.47,4.19-1.13,8.6-1.67,12.84a85.31,85.31,0,0,0-.92,13,19.38,19.38,0,0,0,1.06,6.15,33.25,33.25,0,0,0,1.81,3.93,27.31,27.31,0,0,0,5.14,6.73l.69.63c6.32,5.58,14.78,7.66,24.31,11.25,1.9.71,3.83,1.48,5.8,2.37l.62.28c.29.11.58.24.87.37l.27.13c.68.33,1.36.65,2,1a3.42,3.42,0,0,1,.43.21l.33.16c3.52,1.7,6.91,3.48,10.21,5.33,1,.54,1.92,1.09,2.87,1.65a167,167,0,0,1,19.7,13.49q4.9,3.92,9.37,8.1t8.54,8.62A154.82,154.82,0,0,1,399.46,468.05Z"/><path class="cls-4" d="M380.55,158.51v83.86c0,62.56-49.79,82.6-86.08,114.42a55.88,55.88,0,0,1-74.42,0C183.75,325,134,304.93,134,242.37V158.51q0-4.26.28-8.45c4-57.61,48.2-103.37,102.93-105.72,1.48-.08,3-.1,4.47-.1h31.22c58.13,0,105.5,48.88,107.59,110C380.53,155.67,380.55,157.09,380.55,158.51Z"/><path class="cls-5" d="M183.17,242.38V158.51c0-59.89,43.41-109,98.68-113.87-3-.28-6-.41-9-.41H241.65C182.17,44.23,134,95.4,134,158.51V200a24.68,24.68,0,1,0,0,49.35h.24c3.57,57.11,50.93,76.84,85.83,107.42,17.69,15.51,41.8,18.33,61.81,8.43a57.21,57.21,0,0,1-12.6-8.43C233,325,183.17,304.93,183.17,242.38Z"/><circle class="cls-4" cx="380.55" cy="224.7" r="24.67"/><path class="cls-6" d="M167.13,184.27s31.1-17.33,58,0"/><path class="cls-6" d="M287,184.27s31.1-17.33,58,0"/><rect class="cls-5" x="238.96" y="249.37" width="35.85" height="13.59" rx="6.23"/><path class="cls-7" d="M134.67,214.88a9.82,9.82,0,0,0,0,19.63Z"/><path class="cls-5" d="M380.55,234.51a9.82,9.82,0,1,0,0-19.63Z"/><path class="cls-3" d="M382.65,220h0c-.09-1.65-.21-3.31-.34-5q-.4-5.35-1-10.92s.08,4.19-.48,10.76c-.07.8-.15,1.63-.24,2.5-.28,2.81-.68,6-1.24,9.32v0a129.11,129.11,0,0,1-5.47,21.72c-1,2.84-2.14,5.69-3.44,8.49-6.08,13.22-15.59,25.45-30.43,31.83a24.4,24.4,0,0,1-23.21-2.09,22.8,22.8,0,0,1-3-2.39c-7.31-6.84-22.81-15.37-55.17-17.19v0l-.3,0-.28,0v0c-32.37,1.82-47.88,10.36-55.19,17.19a23.58,23.58,0,0,1-4.34,3.22,22.75,22.75,0,0,1-3.3,1.59,24.49,24.49,0,0,1-18.59-.33c-15.51-6.67-25.2-19.74-31.25-33.66a113.11,113.11,0,0,1-6.52-20.33,143.55,143.55,0,0,1-3.53-30.65q-.63,5.48-1,10.77c-.11,1.35-.21,2.69-.28,4-.15,2.3-.27,4.58-.34,6.82-.12,3-.17,5.85-.17,8.7,0,5.13.12,10.1.42,14.94.23,3.78.55,7.46,1,11.07,8.33,74.39,52.7,113.1,85.93,131.67a155.2,155.2,0,0,0,33,14,15.89,15.89,0,0,0,8.49,0,156.29,156.29,0,0,0,33.42-14.18c33-18.43,76.73-56.52,85.77-129.16q.82-6.57,1.25-13.51c.29-4.89.44-9.91.42-15.09Q383.07,227.28,382.65,220ZM217.59,281.29a3.09,3.09,0,0,1,3.08-3.35h73.18a3.09,3.09,0,0,1,3.08,3.35,44.76,44.76,0,0,1-3.58,14.11c-6.34,14.6-20.11,25.87-36.08,25.87h0c-15.85,0-29.55-11.11-35.94-25.55A44.54,44.54,0,0,1,217.59,281.29Z"/><path class="cls-8" d="M170.1,326c6.41,10.78,30.67,47.77,70,63.68a2.41,2.41,0,0,0,2.39-4.13c-16.6-13.23-45.95-39.86-53-67.59-2.75-10.77-18.41-10.58-20.59.32l-.09.51A10.52,10.52,0,0,0,170.1,326Z"/><path class="cls-8" d="M208.92,321.59c3,6.72,14.55,29.94,36.34,41.93a1.42,1.42,0,0,0,1.69-2.24c-8.76-8.85-24-26.39-26.2-43-.86-6.47-10-7.44-12-1.24a1.4,1.4,0,0,0-.09.29A6.16,6.16,0,0,0,208.92,321.59Z"/><path class="cls-8" d="M347.08,326c-6.42,10.78-30.68,47.77-70,63.68a2.41,2.41,0,0,1-2.39-4.13c16.6-13.23,45.95-39.86,53-67.59,2.75-10.77,18.41-10.58,20.59.32l.09.51A10.52,10.52,0,0,1,347.08,326Z"/><path class="cls-8" d="M308.25,321.59c-3,6.72-14.55,29.94-36.34,41.93a1.41,1.41,0,0,1-1.68-2.24c8.75-8.85,24-26.39,26.19-43,.86-6.47,10-7.44,12-1.24l.09.29A6.22,6.22,0,0,1,308.25,321.59Z"/><line class="cls-9" x1="240.21" y1="290.26" x2="273.56" y2="290.26"/><line class="cls-9" x1="244.6" y1="303.33" x2="269.17" y2="303.33"/><ellipse class="cls-3" cx="257.26" cy="62.18" rx="85.81" ry="48.47"/><ellipse class="cls-3" cx="380.55" cy="141.6" rx="27.79" ry="49.19"/><ellipse class="cls-3" cx="133.45" cy="141.6" rx="27.79" ry="49.19"/><path class="cls-10" d="M231,221.72A36.65,36.65,0,0,1,175.15,253a37.72,37.72,0,0,1-7.56-6.17A36.58,36.58,0,0,1,158.41,229a37.16,37.16,0,0,1-.72-7.29,36.64,36.64,0,0,1,36.65-36.64,37.06,37.06,0,0,1,7.28.72,36.64,36.64,0,0,1,23.95,16.73,36.17,36.17,0,0,1,4.09,9.37A36.6,36.6,0,0,1,231,221.72Z"/><path class="cls-11" d="M219.4,195l-51.81,51.81A36.58,36.58,0,0,1,158.41,229l43.21-43.21A36.64,36.64,0,0,1,219.4,195Z"/><path class="cls-11" d="M229.66,211.9,184.53,257a36.42,36.42,0,0,1-9.38-4.09l50.42-50.42A36.17,36.17,0,0,1,229.66,211.9Z"/><circle class="cls-12" cx="194.34" cy="221.72" r="36.65"/><path class="cls-10" d="M356.08,221.72A36.65,36.65,0,0,1,300.24,253a37.38,37.38,0,0,1-7.55-6.17A36.5,36.5,0,0,1,283.51,229a37.16,37.16,0,0,1-.73-7.29,36.65,36.65,0,0,1,36.66-36.64,37.06,37.06,0,0,1,7.28.72,36.56,36.56,0,0,1,23.94,16.73,35.83,35.83,0,0,1,4.09,9.37A36.6,36.6,0,0,1,356.08,221.72Z"/><path class="cls-11" d="M344.5,195l-51.81,51.81A36.5,36.5,0,0,1,283.51,229l43.21-43.21A36.69,36.69,0,0,1,344.5,195Z"/><path class="cls-11" d="M354.75,211.9,309.62,257a36.73,36.73,0,0,1-9.38-4.09l50.42-50.42A35.83,35.83,0,0,1,354.75,211.9Z"/><circle class="cls-12" cx="319.44" cy="221.72" r="36.65"/><path class="cls-12" d="M231,221.72s20.32-17.19,51.8,0"/><ellipse class="cls-13" cx="195.69" cy="221.72" rx="10.31" ry="14.84"/><ellipse class="cls-13" cx="315.52" cy="221.72" rx="10.31" ry="14.84"/><path class="cls-12" d="M177,210.79s17.81-11.25,37.49,0"/><path class="cls-12" d="M296.78,210.79s17.81-11.25,37.49,0"/><path class="cls-14" d="M256,512a254.74,254.74,0,0,1-127.26-33.84q-4.64-2.64-9.14-5.49-5.16-3.26-10.16-6.77c.1-.15.21-.29.32-.44.31-.46.64-.91,1-1.35.57-.79,1.16-1.56,1.76-2.33s1.27-1.65,1.93-2.46c.15-.18.3-.36.45-.56.66-.8,1.31-1.6,2-2.38s1.52-1.77,2.29-2.64,1.4-1.57,2.1-2.34c.2-.2.38-.4.55-.59l1.57-1.65.94-1c.7-.7,1.39-1.4,2.1-2.09l1.71-1.65c.56-.53,1.12-1.06,1.69-1.58s1.21-1.11,1.83-1.66,1.48-1.31,2.23-1.94c.47-.41.95-.81,1.43-1.21l1.54-1.27c2-1.64,4.06-3.22,6.18-4.76l1.53-1.1c1-.76,2.11-1.49,3.2-2.22l1.44-1c.69-.46,1.41-.93,2.12-1.37s1.44-.92,2.17-1.36c1.45-.89,2.94-1.77,4.44-2.63,1.78-1,3.6-2,5.44-3a1.69,1.69,0,0,0,.27-.13c1.71-.9,3.45-1.76,5.21-2.61l.74-.35c.35-.17.73-.33,1.17-.51h0a2.83,2.83,0,0,1,.35-.15c.34-.13.69-.27,1.07-.4s.63-.24,1-.34l1.31-.44,1.74-.56,2.06-.61c2-.59,4.18-1.21,6.46-1.85h0c3.88-1.07,8.06-2.22,12.12-3.44l22.25,22.18,21.08,21,12.45-4.32,5.7-2,.52-.19h0l.6-.21h0l.83.66,7.66,6,32.08-14.3,10.29-4.59L331.69,418h0l4.42-3,.55-.37a3.42,3.42,0,0,1,.43.21q5.44,2.63,10.54,5.49c.56.31,1.12.63,1.67,1,.75.41,1.49.85,2.23,1.29l2.64,1.61c.93.57,1.84,1.15,2.74,1.74l1.64,1.07.52.35c.63.41,1.24.83,1.85,1.25,1.67,1.15,3.32,2.33,4.93,3.52.47.34.94.69,1.41,1.07.63.47,1.27.95,1.9,1.45.92.73,1.85,1.46,2.75,2.21s1.82,1.5,2.7,2.26,1.93,1.68,2.89,2.55c.68.6,1.35,1.22,2,1.85.2.17.38.34.58.53.73.7,1.46,1.39,2.17,2.09,1.48,1.43,2.9,2.91,4.3,4.39h0c.32.34.64.67.92,1,.54.57,1.06,1.15,1.57,1.72.17.17.32.34.46.51.55.62,1.1,1.24,1.64,1.87l.78.92c1.3,1.53,2.55,3.07,3.78,4.64,1.37,1.74,2.69,3.52,4,5.31l.61.87-.88.6q-4.6,3.12-9.36,6.05l-.37.23A254.78,254.78,0,0,1,256,512Z"/><path class="cls-3" d="M208.77,396.42,188,406.3a5.75,5.75,0,0,0-2.91,7.24L213.72,489a6.29,6.29,0,0,0,10.93,1.54L259,444.5s-33.17-36.45-43.73-47A5.75,5.75,0,0,0,208.77,396.42Z"/><path class="cls-3" d="M303.22,397.54c-10.56,10.51-43.73,47-43.73,47l34.38,46.07A6.29,6.29,0,0,0,304.8,489l28.6-75.49a5.75,5.75,0,0,0-2.91-7.24l-20.74-9.88A5.75,5.75,0,0,0,303.22,397.54Z"/><path class="cls-15" d="M256,512a254.74,254.74,0,0,1-127.26-33.84l5.13-38.89v0L134,438l.85-6.39a6.33,6.33,0,0,1,2.93-4.56l21.75-13.56a6.33,6.33,0,0,1,9.05,2.62,4,4,0,0,1,.23.51,5.45,5.45,0,0,1,.37,1.48c2.5,20.23,13.07,65.18,57.68,82.85a88.77,88.77,0,0,0,65.2,0C334,484.37,345.87,443.66,349.21,422c0-.23.08-.46.11-.68.17-1.14.32-2.21.45-3.23a6.34,6.34,0,0,1,9.65-4.61l21.75,13.56a6.33,6.33,0,0,1,2.93,4.56l2.5,19h0l.22,1.64,2.91,22.08A254.78,254.78,0,0,1,256,512Z"/></g></svg>