<svg xmlns="http://www.w3.org/2000/svg" viewBox="0 0 512 512"><defs><style>.cls-1{fill:#4acc97;}.cls-2{fill:#43b584;}.cls-3{fill:#a65c3b;}.cls-4{fill:#9e4830;}.cls-5{fill:none;stroke:#27273d;stroke-linecap:round;stroke-miterlimit:10;stroke-width:7px;}.cls-6{fill:#823625;}.cls-7{fill:#27273d;}.cls-8{fill:#fff;}.cls-9{fill:#32314b;}.cls-10{fill:#3e436d;}</style></defs><title>Avatar Users2</title><g id="BULINE"><circle class="cls-1" cx="256" cy="256" r="256"/></g><g id="Icons"><path class="cls-2" d="M484.77,371a257,257,0,0,1-79.49,93c-3.2,2.31-6.47,4.55-9.78,6.69-1.06.7-2.13,1.38-3.2,2.05-.73.47-1.46.93-2.2,1.38q-1.8,1.11-3.63,2.19a251.52,251.52,0,0,1-29.32,14.93A255.82,255.82,0,0,1,127,477.14l-1-.58q-3.22-1.89-6.39-3.89-2-1.29-4-2.61-4.41-2.9-8.68-6A256.94,256.94,0,0,1,27.23,371a257.1,257.1,0,0,1,92.88-102q5.34-3.36,10.88-6.46a254.55,254.55,0,0,1,49.33-21.18h0l1.56-.47c.82-.25,1.64-.5,2.46-.73q9.72-2.83,19.77-4.91c2.3-.47,4.62-.92,6.94-1.33q10.27-1.81,20.82-2.8,3.28-.31,6.6-.54Q247.17,230,256,230t17.51.59l1.66.12a253.47,253.47,0,0,1,34.23,4.88q10.13,2.13,20,5.08l.69.2a255.44,255.44,0,0,1,56,24.58q3.94,2.32,7.78,4.79A257.06,257.06,0,0,1,484.77,371Z"/><path class="cls-3" d="M386.47,476.29a251.52,251.52,0,0,1-29.32,14.93A255.82,255.82,0,0,1,127,477.14c.51-.52,1-1,1.56-1.55s1.07-1,1.61-1.53q3.74-3.53,7.79-6.83c3.2-2.63,6.57-5.14,10.08-7.58q4.81-3.31,10-6.36,6.36-3.75,13.35-7.08c9-4.27,43.28-10.64,49.78-18.16a16.07,16.07,0,0,0,2.69-4.43C227.4,415,225,402.91,225,393.75c0-2.75-.05-5.18-.1-7.33h0c-.57-21.9-2.94-15.13,15.95-21.48a43.5,43.5,0,0,1,6.56-1c14.31-1.42,46.15-2.62,50,1,2.9,2.7,3.44,8.14,3.06,14.65h0c-.72,12.94-5.13,30.07-2,38a33.61,33.61,0,0,0,3.06,6c7.85,12,21.3,12.71,36.64,19.84a187.11,187.11,0,0,1,23.79,13.19c1.73,1.11,3.42,2.28,5.07,3.45,2.94,2.06,5.75,4.19,8.46,6.4,3.33,2.69,6.49,5.47,9.51,8.35C385.49,475.33,386,475.81,386.47,476.29Z"/><path class="cls-3" d="M386.06,177.47v86.74c0,64.71-51.5,85.44-89.05,118.35a57.77,57.77,0,0,1-77,0c-37.55-32.91-89-53.64-89-118.35V177.47c0-65.28,49.87-118.2,111.39-118.2h32.29C336.19,59.27,386.06,112.19,386.06,177.47Z"/><path class="cls-4" d="M181.89,264.22V177.46c0-61.94,44.9-112.78,102.08-117.78-3.07-.29-6.17-.42-9.31-.42H242.38C180.86,59.26,131,112.19,131,177.46v42.95a25.52,25.52,0,0,0,0,51h.24c3.7,59.07,52.68,79.48,88.79,111.11,18.29,16,43.23,19,63.94,8.72a59.36,59.36,0,0,1-13.05-8.72C233.38,349.66,181.89,328.92,181.89,264.22Z"/><circle class="cls-3" cx="386.05" cy="245.93" r="25.52"/><path class="cls-5" d="M165.3,198.29s32.17-17.92,59.95,0"/><path class="cls-5" d="M289.25,198.29s32.17-17.92,59.95,0"/><rect class="cls-4" x="239.02" y="271.45" width="37.08" height="14.06" rx="6.44"/><path class="cls-6" d="M131.73,235.78a10.15,10.15,0,0,0,0,20.3Z"/><path class="cls-4" d="M386.06,256.08a10.15,10.15,0,0,0,0-20.3Z"/><ellipse class="cls-7" cx="194.85" cy="242.85" rx="10.66" ry="15.35"/><ellipse class="cls-7" cx="318.79" cy="242.85" rx="10.66" ry="15.35"/><path class="cls-5" d="M175.46,231.54s18.42-11.63,38.77,0"/><path class="cls-5" d="M299.41,231.54s18.41-11.63,38.77,0"/><path class="cls-8" d="M228,312.43a2.47,2.47,0,0,0-2.45,2.65c1.34,16.44,14.89,31.66,31.41,31.66h0c16.52,0,30.08-15.22,31.41-31.66a2.45,2.45,0,0,0-2.44-2.65Z"/><path class="cls-9" d="M257.31,25.11h-.68c-74.54.21-118.77,35.36-141.13,61a53.36,53.36,0,0,0-10.71,51.09L131,220.41c29.66-112.13,117.11-79.93,125.63-76.5v.28l.34-.14.34.14v-.28c8.53-3.43,96-35.63,125.64,76.5l26.2-83.2a53.33,53.33,0,0,0-10.71-51.09C376.08,60.47,331.85,25.32,257.31,25.11Z"/><path class="cls-7" d="M274.84,26c-63,5.54-101.53,36.79-121.89,60.15a53.28,53.28,0,0,0-10.71,51.08l10.22,32.46c-9.27,12.21-17.34,28.68-23.17,50.74l-26.21-83.2A53.29,53.29,0,0,1,113.8,86.13c22.35-25.65,66.58-60.8,141.13-61v0h.67v0Q265.58,25.14,274.84,26Z"/><path class="cls-8" d="M159.57,458.56a243.75,243.75,0,0,0,5.4,36.77,254.88,254.88,0,0,1-38-18.19l-.9.9-.06-1.48c-.15-3.64-.34-7.37-.59-11.19a12.7,12.7,0,0,1,6.3-11.81l8.81-5.12A12.72,12.72,0,0,1,158,453.29,12.56,12.56,0,0,1,159.57,458.56Z"/><path class="cls-8" d="M395.82,465.37c-.12,1.78-.22,3.55-.32,5.3-1.06.7-2.13,1.38-3.2,2.05-.73.47-1.46.93-2.2,1.38q-1.8,1.11-3.63,2.19a251.52,251.52,0,0,1-29.32,14.93,247.13,247.13,0,0,0,4.51-32.66,11.71,11.71,0,0,1,.28-1.91,12.71,12.71,0,0,1,18.76-8.21l8.82,5.12A12.73,12.73,0,0,1,395.82,465.37Z"/><path class="cls-10" d="M347,68.88c1.21,13.77-.18,33.73-14.24,48.76a3.53,3.53,0,0,0,2.79,6c9.32-.66,23-2.59,30.53-8.24a3.54,3.54,0,0,1,5.47,1.47c1.9,4.92,4.24,12.93,3.23,20.57a3.52,3.52,0,0,0,6.26,2.59c6.75-8.24,12.41-22.94,4-47.47a3.53,3.53,0,0,0-6.18-.93l-1.3,1.77a3.53,3.53,0,0,1-5.74-.08L353.42,66.58A3.52,3.52,0,0,0,347,68.88Z"/></g></svg>