<svg xmlns="http://www.w3.org/2000/svg" viewBox="0 0 512 512"><defs><style>.cls-1{fill:#fc4581;}.cls-2{fill:#e03b77;}.cls-3{fill:#fcc8bc;}.cls-4{fill:#3586cb;}.cls-5{fill:#fab3a7;}.cls-6{fill:none;stroke:#27273d;stroke-linecap:round;stroke-miterlimit:10;stroke-width:7px;}.cls-7{fill:#f58d89;}.cls-8{fill:#fff;}.cls-9{fill:#a65c3b;}.cls-10{fill:#9e4830;}.cls-11{fill:#bbe4f9;}.cls-12{fill:#e1f2f9;}.cls-13{fill:#db1b1b;}.cls-14{fill:#27273d;}.cls-15{fill:#b76444;}</style></defs><title>Avatar Users2</title><g id="BULINE"><circle class="cls-1" cx="256" cy="256" r="256"/></g><g id="Icons"><path class="cls-2" d="M484.77,371a257,257,0,0,1-89,99.53c-1.85,1.22-3.73,2.41-5.62,3.57-1.05.65-2.1,1.29-3.16,1.91a256.22,256.22,0,0,1-263.38-.89c-1.33-.81-2.65-1.62-4-2.45l-.3-.19A257.24,257.24,0,0,1,27.23,371,257.1,257.1,0,0,1,121.82,268q5-3.07,10.12-5.92A252.14,252.14,0,0,1,156.79,250h0A246.78,246.78,0,0,1,181.54,241c.45-.15.91-.28,1.37-.42h0l.94-.27q5.23-1.55,10.57-2.87h0q4.45-1.09,9-2,4.18-.88,8.41-1.61c.76-.14,1.51-.27,2.27-.39q6.67-1.11,13.46-1.86l.29,0h0c3-.32,6-.6,9-.82q9.51-.71,19.2-.71,12.69,0,25.06,1.21l1.26.13q7.35.75,14.58,1.92c3,.48,6,1,9,1.61q6.75,1.32,13.37,3c2,.49,3.93,1,5.88,1.56q2.44.69,4.88,1.42l3.46,1.07q3.38,1.06,6.71,2.24,6.74,2.34,13.3,5c.88.36,1.76.72,2.63,1.1a254.9,254.9,0,0,1,24.34,11.91q5,2.81,9.89,5.81A257.2,257.2,0,0,1,484.77,371Z"/><path class="cls-3" d="M386.94,476a256.22,256.22,0,0,1-263.38-.89,148.3,148.3,0,0,1,23.88-20.87,161.9,161.9,0,0,1,19.68-11.81l2.31-1.14c.61-.32,1.24-.62,1.86-.92,5.25-2.49,19.31-5.71,31.11-9.47q3.15-1,6-2h0c4.53-1.67,8.32-3.45,10.47-5.3a7.81,7.81,0,0,0,.92-.88,14.17,14.17,0,0,0,1.44-2c2.3-3.77,3-8.5,3.07-13.48h0c.1-6.1-.74-12.53-.74-17.93,0-2.68,0-5-.1-7.14h0c-.55-21.33-2.87-14.74,15.55-20.92a40.9,40.9,0,0,1,6.39-.94c13.94-1.38,45-2.55,48.71.94,2.8,2.62,3.35,7.92,3,14.25h0c-.48,8.61-2.64,19.13-3,27.4-.17,3.84.06,7.19,1,9.64a29.56,29.56,0,0,0,4.5,8h0a25.64,25.64,0,0,0,5,4.75h0a36.12,36.12,0,0,0,6.72,3.8h0c6.51,2.93,14.21,4.86,22.45,8.69q4.53,2.1,8.8,4.37c.91.48,1.81,1,2.7,1.46a167,167,0,0,1,18.35,11.64A153,153,0,0,1,386.94,476Z"/><path class="cls-4" d="M386.94,476a256.22,256.22,0,0,1-263.38-.89,148.3,148.3,0,0,1,23.88-20.87,161.9,161.9,0,0,1,19.68-11.81l2.31-1.14c.61-.32,1.24-.62,1.86-.92,5.25-2.49,19.31-5.71,31.11-9.47q3.15-1,6-2h0c4.53-1.67,8.32-3.45,10.47-5.3a7.81,7.81,0,0,0,.92-.88,14.17,14.17,0,0,0,1.44-2l27.38,22.25,4.24,3.43h0l3.82,3.1,3.84-2.59,4.69-3.17h0l23.7-16,.05,0,10.6-7.18h0a25.64,25.64,0,0,0,5,4.75h0a36.12,36.12,0,0,0,6.72,3.8h0c6.51,2.93,14.21,4.86,22.45,8.69q4.53,2.1,8.8,4.37c.91.48,1.81,1,2.7,1.46a167,167,0,0,1,18.35,11.64A153,153,0,0,1,386.94,476Z"/><path class="cls-3" d="M380.46,178.53v84.52c0,63-50.17,83.25-86.76,115.31a56.26,56.26,0,0,1-75,0c-36.6-32.06-86.78-52.27-86.78-115.31V178.53c0-38.77,18.07-73.09,45.77-93.95a103.71,103.71,0,0,1,62.76-21.22H272a103.71,103.71,0,0,1,62.76,21.22C362.4,105.44,380.46,139.76,380.46,178.53Z"/><path class="cls-5" d="M181.54,263.06V178.53c0-60.35,43.75-109.88,99.46-114.76-3-.28-6-.41-9.07-.41H240.48C180.53,63.36,132,114.93,132,178.53v41.84a24.87,24.87,0,0,0,0,49.73h.24c3.61,57.56,51.33,77.44,86.51,108.26a56.1,56.1,0,0,0,62.3,8.5,57.61,57.61,0,0,1-12.71-8.5C231.71,346.31,181.54,326.1,181.54,263.06Z"/><circle class="cls-3" cx="380.46" cy="245.24" r="24.87"/><path class="cls-6" d="M165.37,200.18s31.35-17.46,58.42,0"/><path class="cls-6" d="M286.14,200.18s31.35-17.46,58.41,0"/><rect class="cls-5" x="238.44" y="270.1" width="36.13" height="13.7" rx="6.28"/><path class="cls-7" d="M132.66,235.35a9.89,9.89,0,0,0,0,19.78Z"/><path class="cls-5" d="M380.47,255.13a9.89,9.89,0,0,0,0-19.78Z"/><path class="cls-8" d="M228.28,303.7a2.39,2.39,0,0,0-2.38,2.58c1.3,16,14.51,30.85,30.61,30.85h0c16.09,0,29.3-14.84,30.6-30.85a2.39,2.39,0,0,0-2.38-2.58Z"/><path class="cls-9" d="M319.49,128.87c-16.54,16-56.84,45.07-130.54,43.58,0,0-45.19,6.6-57,47.92l-9.18-66.31S99.71,36.89,255,38.94a47.34,47.34,0,0,0-15.84-7.12,3,3,0,0,1-.45-5.74c6.76-2.67,17.25-4.48,29.91,1.28a28.71,28.71,0,0,0-4-8.75,3,3,0,0,1,3.52-4.56A64.54,64.54,0,0,1,296,33.49s11.31-5.7,22.15-6.32A3,3,0,0,1,320,32.75c-3.17,2-5.75,4.41-4.69,6.87,0,0,58.18,13.67,72.12,85.19a148.41,148.41,0,0,1,.25,53.9l-7.26,41.66s-37.16-40.13-49.21-88.19A7.06,7.06,0,0,0,319.49,128.87Z"/><path class="cls-10" d="M306.15,38.94c-155.31-2-132.26,115.12-132.26,115.12l2.91,21.08c-14.1,4.64-38.28,16.61-46.45,45.23l-9.19-66.31S98.1,36.89,253.41,38.94a47.35,47.35,0,0,0-15.83-7.13,3,3,0,0,1-.45-5.72c6.76-2.69,17.25-4.48,29.91,1.27a28.71,28.71,0,0,0-4-8.75A3,3,0,0,1,266.52,14a66,66,0,0,1,21.93,13.17,57.87,57.87,0,0,1,5.41,5.61c.19.22.37.43.56.67l.56-.28A46.31,46.31,0,0,1,306.15,38.94Z"/><path class="cls-10" d="M293.86,32.82c-1.13-.37-2.31-.72-3.54-1a3.05,3.05,0,0,1-1.87-4.6A57.87,57.87,0,0,1,293.86,32.82Z"/><path class="cls-11" d="M229.12,241.15a36.73,36.73,0,0,1-46.52,35.36,36.15,36.15,0,0,1-9.39-4.09,37.21,37.21,0,0,1-7.57-6.18,36.62,36.62,0,0,1-9.19-17.79,37.34,37.34,0,0,1-.73-7.3,36.7,36.7,0,0,1,36.71-36.69,37.24,37.24,0,0,1,7.29.72,36.77,36.77,0,0,1,17.8,9.18,37.21,37.21,0,0,1,6.18,7.57,36.15,36.15,0,0,1,4.09,9.39A36.62,36.62,0,0,1,229.12,241.15Z"/><path class="cls-12" d="M217.52,214.36l-51.88,51.88a36.62,36.62,0,0,1-9.19-17.79l43.27-43.27A36.77,36.77,0,0,1,217.52,214.36Z"/><path class="cls-12" d="M227.79,231.32,182.6,276.51a36.15,36.15,0,0,1-9.39-4.09l50.49-50.49A36.15,36.15,0,0,1,227.79,231.32Z"/><circle class="cls-6" cx="192.43" cy="241.15" r="36.7"/><path class="cls-11" d="M354.39,241.15a36.73,36.73,0,0,1-46.53,35.36,36.3,36.3,0,0,1-9.39-4.09,37.16,37.16,0,0,1-7.56-6.18,36.64,36.64,0,0,1-9.2-17.79,37.34,37.34,0,0,1-.72-7.3,36.69,36.69,0,0,1,36.7-36.69,37.24,37.24,0,0,1,7.29.72,36.72,36.72,0,0,1,17.8,9.18,37.21,37.21,0,0,1,6.18,7.57,36.15,36.15,0,0,1,4.09,9.39A36.62,36.62,0,0,1,354.39,241.15Z"/><path class="cls-12" d="M342.78,214.36l-51.87,51.88a36.64,36.64,0,0,1-9.2-17.79L325,205.18A36.72,36.72,0,0,1,342.78,214.36Z"/><path class="cls-12" d="M353.05,231.32l-45.19,45.19a36.3,36.3,0,0,1-9.39-4.09L349,221.93A36.15,36.15,0,0,1,353.05,231.32Z"/><circle class="cls-6" cx="317.69" cy="241.15" r="36.7"/><path class="cls-6" d="M229.12,241.15s20.35-17.22,51.87,0"/><path class="cls-8" d="M216.05,403.21l-16.62,7.92a4.6,4.6,0,0,0-2.33,5.79L220,477.42a5,5,0,0,0,8.76,1.23l27.55-36.91s-26.58-29.21-35-37.64A4.6,4.6,0,0,0,216.05,403.21Z"/><path class="cls-8" d="M291.73,404.1c-8.46,8.43-35,37.64-35,37.64l27.55,36.91a5,5,0,0,0,8.76-1.23l22.91-60.5a4.6,4.6,0,0,0-2.33-5.79L297,403.21A4.6,4.6,0,0,0,291.73,404.1Z"/><path class="cls-13" d="M266.89,445.05a15.53,15.53,0,0,0-21-.16L216.25,421.5a4.85,4.85,0,0,0-7.85,3.81v62.31a4.85,4.85,0,0,0,7.85,3.81L245.91,468a15.5,15.5,0,0,0,21-.16l29.87,23.55a4.85,4.85,0,0,0,7.85-3.81V425.31a4.85,4.85,0,0,0-7.85-3.81Z"/><ellipse class="cls-14" cx="194.16" cy="242.24" rx="10.39" ry="14.95"/><ellipse class="cls-14" cx="314.93" cy="242.24" rx="10.39" ry="14.95"/><path class="cls-6" d="M175.27,231.22s17.95-11.33,37.78,0"/><path class="cls-6" d="M296,231.22s17.94-11.33,37.78,0"/><path class="cls-15" d="M320.64,55.86c1.18,13.42-.17,32.86-13.87,47.51a3.43,3.43,0,0,0,2.72,5.79c9.08-.63,22.4-2.52,29.75-8a3.44,3.44,0,0,1,5.32,1.43c1.85,4.8,4.14,12.6,3.15,20a3.43,3.43,0,0,0,6.1,2.52c6.57-8,12.09-22.35,3.9-46.25a3.43,3.43,0,0,0-6-.9l-1.27,1.72a3.43,3.43,0,0,1-5.59-.08l-17.95-26A3.43,3.43,0,0,0,320.64,55.86Z"/></g></svg>