<svg xmlns="http://www.w3.org/2000/svg" viewBox="0 0 512 512"><defs><style>.cls-1{fill:#27273d;}.cls-2{fill:#363651;}.cls-3{fill:#a65c3b;}.cls-4{fill:#fcdbd6;}.cls-5{fill:#fcc8bc;}.cls-6{fill:none;stroke:#27273d;stroke-linecap:round;stroke-miterlimit:10;stroke-width:7px;}.cls-7{fill:#fab3a7;}.cls-8{fill:#fff;}.cls-9{fill:#7cc8fb;}.cls-10{fill:#41c0e3;}.cls-11{fill:#9bb75e;}.cls-12{fill:#b0d46c;}.cls-13{fill:#b7694b;}</style></defs><title>Avatar Users2</title><g id="BULINE"><circle class="cls-1" cx="256" cy="256" r="256"/></g><g id="Icons"><path class="cls-2" d="M484.77,371A256.83,256.83,0,0,1,407,462.75q-6.3,4.62-12.89,8.83l-.94.61-1.63,1-1.41.88c-.49.3-1,.61-1.49.9a252.36,252.36,0,0,1-26.17,13.89q-3.49,1.59-7,3.08-5.88,2.49-11.93,4.67c-1.42.53-2.86,1-4.3,1.53a250.56,250.56,0,0,1-32,8.7,254.82,254.82,0,0,1-38.27,4.81l-.37,0q-3,.15-6.12.22h0q-3.18.07-6.37.08-3.65,0-7.26-.1h0c-1.86,0-3.72-.13-5.58-.22l-.56,0A254.6,254.6,0,0,1,206,507.11a251.49,251.49,0,0,1-31.9-8.5c-.32-.11-.64-.21-1-.33q-11.35-3.87-22.2-8.77a254.42,254.42,0,0,1-27.84-14.68c-1.18-.71-2.34-1.43-3.5-2.16l-1-.64-2-1.3q-6.31-4.11-12.37-8.58a257.1,257.1,0,0,1-77-91.14,257.07,257.07,0,0,1,79.07-92.69q8.58-6.21,17.68-11.69,4.3-2.61,8.73-5a253.87,253.87,0,0,1,34.67-15.84h0q6.5-2.4,13.15-4.45h0c.6-.19,1.2-.37,1.81-.54s1.48-.45,2.23-.66q9.93-2.9,20.18-5h0c2.22-.45,4.45-.88,6.69-1.27a258.61,258.61,0,0,1,94.77,1.07q10.22,2,20.11,4.86c1.71.48,3.41,1,5.1,1.51q8.43,2.59,16.62,5.76,5,1.92,9.87,4.05a252.19,252.19,0,0,1,23.63,11.75q3.68,2.07,7.28,4.26,5.45,3.31,10.71,6.88c.64.44,1.28.87,1.91,1.32,3.53,2.43,7,5,10.38,7.56A257.07,257.07,0,0,1,484.77,371Z"/><path class="cls-3" d="M405.68,158.87l-144.17-13v-.29l-1.64.15-1.64-.15v.29l-144.18,13s-42.55,57-25.87,95.36l13.25-17.34s-1.75,38.52,12.62,57.41l5.34-24s13.94,69.47,33.57,83.68l7.12-9.34s16.43,28.46,36.06,41.22l10.79-13,51.3,42.67v2.72l1.64-1.36,1.64,1.36v-2.72l51.29-42.67,10.79,13c19.63-12.76,36.06-41.22,36.06-41.22l7.13,9.34c19.62-14.21,33.56-83.68,33.56-83.68l5.34,24c14.38-18.89,12.62-57.41,12.62-57.41l13.25,17.34C448.23,215.87,405.68,158.87,405.68,158.87Z"/><path class="cls-4" d="M388.61,475a252.36,252.36,0,0,1-26.17,13.89q-3.49,1.59-7,3.08-5.88,2.49-11.93,4.67c-1.42.53-2.86,1-4.3,1.53a250.56,250.56,0,0,1-32,8.7,254.82,254.82,0,0,1-38.27,4.81l-.37,0q-3,.15-6.12.22h0q-3.18.07-6.37.08-3.65,0-7.26-.1h0c-1.86,0-3.72-.13-5.58-.22l-.56,0A254.6,254.6,0,0,1,206,507.11a251.49,251.49,0,0,1-31.9-8.5c-.32-.11-.64-.21-1-.33q-11.35-3.87-22.2-8.77a254.42,254.42,0,0,1-27.84-14.68q3.42-3.81,7.17-7.43c.52-.5,1-1,1.57-1.5,2-1.92,4.13-3.78,6.32-5.6l1.28-1.06c3.12-2.56,6.41-5,9.84-7.39,1.81-1.25,3.67-2.47,5.56-3.67a170.2,170.2,0,0,1,17.25-9.45c3.17-1.51,9.55-3.27,16.71-5.26,6.83-1.91,14.36-4,20.49-6.27h0l1.2-.45c4.71-1.82,8.44-3.74,10.16-5.73a15.56,15.56,0,0,0,2.62-4.33A31,31,0,0,0,225.19,405v0a.52.52,0,0,0,0-.18h0c0-5.9-.77-12.07-.77-17.25v-.17c0-2.62,0-4.93-.09-7h0c0-1.78-.11-3.35-.17-4.76-.64-15.59-1.17-10.5,15.74-16.19a41.32,41.32,0,0,1,6.4-.94h0c14-1.38,45-2.56,48.76.94,2.45,2.28,3.17,6.56,3.09,11.77,0,.82,0,1.65-.1,2.51-.22,3.91-.77,8.19-1.36,12.49h0c-1.13,8.37-2.35,16.74-1.27,22.31a13.13,13.13,0,0,0,.64,2.29c.29.74.6,1.44.92,2.12h0a27.67,27.67,0,0,0,2.06,3.75,22.32,22.32,0,0,0,1.65,2.24c4.09,5,9.44,7.71,15.61,10.06h0c1.45.56,2.91,1.07,4.44,1.62l4.37,1.54c3.09,1.12,6.33,2.36,9.66,3.9A181.6,181.6,0,0,1,358,448.88c1.71,1.11,3.37,2.24,5,3.4,2.87,2,5.61,4.1,8.26,6.25,1.1.9,2.19,1.8,3.27,2.73,2.06,1.76,4.07,3.56,6,5.42.75.71,1.49,1.43,2.21,2.15Q385.78,471.86,388.61,475Z"/><path class="cls-4" d="M381.58,176.49v84.65c0,63.13-50.26,83.36-86.89,115.47a56.33,56.33,0,0,1-75.1,0C183,344.5,132.7,324.27,132.7,261.14V176.49c0-63.7,48.66-115.34,108.68-115.34H272.9C332.92,61.15,381.58,112.79,381.58,176.49Z"/><path class="cls-5" d="M182.36,261.14V176.49c0-60.45,43.81-110,99.6-114.93-3-.29-6-.41-9.08-.41h-31.5c-60,0-108.68,51.64-108.68,115.34v41.9a24.91,24.91,0,1,0,0,49.81l.24,0c3.61,57.64,51.4,77.56,86.64,108.43A56.18,56.18,0,0,0,282,385.12a58.3,58.3,0,0,1-12.72-8.51C232.6,344.51,182.36,324.28,182.36,261.14Z"/><circle class="cls-4" cx="381.58" cy="243.29" r="24.9"/><path class="cls-6" d="M166.17,196.81s31.39-17.49,58.5,0"/><path class="cls-6" d="M287.11,196.81s31.4-17.49,58.5,0"/><rect class="cls-5" x="238.1" y="268.2" width="36.18" height="13.72" rx="6.29"/><path class="cls-7" d="M133.41,233.39a9.91,9.91,0,1,0,0,19.81Z"/><path class="cls-5" d="M381.58,253.2a9.91,9.91,0,1,0,0-19.81Z"/><ellipse class="cls-1" cx="195" cy="240.29" rx="10.41" ry="14.98"/><ellipse class="cls-1" cx="315.95" cy="240.29" rx="10.41" ry="14.98"/><path class="cls-6" d="M176.08,229.25s18-11.35,37.84,0"/><path class="cls-6" d="M297,229.25s18-11.35,37.84,0"/><path class="cls-3" d="M398.35,91.39c-16.59-28.25-56.17-73.66-138.17-70.18C178.18,17.73,138.6,63.14,122,91.39a74.42,74.42,0,0,0-10.2,37.73v23.41a75,75,0,0,0,5.55,28.29l9.54,23.37,6.51,49c-.19-44.61,22-67.8,30-74.67a26,26,0,0,1,4.91-3.32c51.12-26.62,75.91-52.12,85.66-64.09a6.3,6.3,0,0,1,9.79,0c9.75,12,34.54,37.47,85.66,64.09a26,26,0,0,1,4.91,3.32c7.95,6.87,30.16,30.06,30,74.67l5.22-39.33L403,180.82a74.79,74.79,0,0,0,5.56-28.29V129.12A74.52,74.52,0,0,0,398.35,91.39Z"/><path class="cls-8" d="M228.87,308.29a2.4,2.4,0,0,0-2.38,2.59c1.3,16,14.53,30.9,30.65,30.9h0c16.12,0,29.34-14.86,30.65-30.9a2.4,2.4,0,0,0-2.39-2.59Z"/><path class="cls-9" d="M203.59,363.7s-19.92,27.44,10.33,42.94c0,0-28.88,17.32,19.33,32.78,0,0,50.94,16.38,79.13,0,0,0,28.57-21.73,3.57-40.76,0,0,23.68-26.36-10.41-31C305.54,367.66,248.53,399.86,203.59,363.7Z"/><path class="cls-10" d="M224.67,404.57s43.1,17.91,80.87,0C305.54,404.57,276.12,445.54,224.67,404.57Z"/><path class="cls-11" d="M174.09,498.61c-.32-.11-.64-.21-1-.33q-11.35-3.87-22.2-8.77a254.42,254.42,0,0,1-27.84-14.68c-1.18-.71-2.34-1.43-3.5-2.16l-1-.64c6.37-7,12.32-12.73,17.4-17.31a168,168,0,0,1,16.29-13.24l2.55,6.7L165.09,475Z"/><path class="cls-11" d="M394.08,471.58l-.94.61-1.63,1-1.41.88c-.49.3-1,.61-1.49.9a252.36,252.36,0,0,1-26.17,13.89q-3.49,1.59-7,3.08-5.88,2.49-11.93,4.67c-1.42.53-2.86,1-4.3,1.53l7.08-18.57h0l5.46-14.3L358,448.88l.83-2.17h0l2-5.22a168,168,0,0,1,16.29,13.24C382.07,459.21,387.87,464.83,394.08,471.58Z"/><path class="cls-8" d="M354.6,465.29l-6.07,17.12-5,14.23c-1.42.53-2.86,1-4.3,1.53a250.56,250.56,0,0,1-32,8.7,254.82,254.82,0,0,1-38.27,4.81l-.37,0q-3,.15-6.12.22h0q-3.18.07-6.37.08-3.65,0-7.26-.1h0c-1.86,0-3.72-.13-5.58-.22l-.56,0A254.6,254.6,0,0,1,206,507.11a251.49,251.49,0,0,1-31.9-8.5c-.32-.11-.64-.21-1-.33l-8-23.27-3.37-9.72Z"/><path class="cls-12" d="M196.6,465.29,206,507.11a251.49,251.49,0,0,1-31.9-8.5c-.32-.11-.64-.21-1-.33q-11.35-3.87-22.2-8.77L138.16,460.3l-1.37-3.12a12.81,12.81,0,0,1-.79-2.46A13.13,13.13,0,0,1,141.48,441a88.31,88.31,0,0,1,33.64-13.84,13.21,13.21,0,0,1,13.68,6.33,12.37,12.37,0,0,1,1.49,3.76Z"/><path class="cls-12" d="M377.1,454.72a12.81,12.81,0,0,1-.79,2.46l-.7,1.6h0l-1.08,2.47-12.08,27.63q-3.49,1.59-7,3.08-5.88,2.49-11.93,4.67c-1.42.53-2.86,1-4.3,1.53a250.56,250.56,0,0,1-32,8.7l9.34-41.58,2.68-11.91h0l3.63-16.14a13,13,0,0,1,2.36-5.09l.58-.71A13.26,13.26,0,0,1,338,427.14,88.19,88.19,0,0,1,371.61,441,13.17,13.17,0,0,1,377.1,454.72Z"/><path class="cls-9" d="M391.51,473.22l-1.41.88c-.49.3-1,.61-1.49.9a252.36,252.36,0,0,1-26.17,13.89q-3.49,1.59-7,3.08c-2.18-3.33-4.49-6.51-6.88-9.56-.75-1-1.5-1.89-2.27-2.81h0a164.27,164.27,0,0,0-13.32-14.3c-4.64-4.43-9.29-8.4-13.76-11.91C314,449.28,309,445.8,304.61,443a153,153,0,0,0-16.81-9.67L316.34,429h0c1.61.35,3.2.73,4.78,1.14h0c1.55.41,3.08.84,4.6,1.31a136,136,0,0,1,33.07,15.27,169.39,169.39,0,0,1,16.79,12.08A205,205,0,0,1,391.51,473.22Z"/><path class="cls-13" d="M332.42,61.43c1.18,13.44-.18,32.92-13.9,47.59a3.44,3.44,0,0,0,2.73,5.8c9.09-.64,22.43-2.53,29.79-8a3.45,3.45,0,0,1,5.33,1.43c1.85,4.81,4.14,12.62,3.16,20.07a3.44,3.44,0,0,0,6.11,2.53c6.58-8,12.1-22.38,3.9-46.32a3.44,3.44,0,0,0-6-.91l-1.27,1.73a3.43,3.43,0,0,1-5.6-.08l-18-26A3.43,3.43,0,0,0,332.42,61.43Z"/></g></svg>