<svg xmlns="http://www.w3.org/2000/svg" viewBox="0 0 512 512"><defs><style>.cls-1{fill:#fc715a;}.cls-2{fill:#e26150;}.cls-3{fill:#32314b;}.cls-4{fill:#27273d;}.cls-5{fill:#f9dcd7;}.cls-6{fill:#fcc8bc;}.cls-18,.cls-7{fill:none;stroke-miterlimit:10;}.cls-7{stroke:#27273d;stroke-linecap:round;stroke-width:7px;}.cls-8{fill:#e5b2aa;}.cls-9{fill:#d54545;}.cls-10{fill:#c11e1e;}.cls-11{fill:#3e436d;}.cls-12{fill:#fff;}.cls-13{fill:#d33d73;}.cls-14{fill:#fc4581;}.cls-15{fill:#b7396c;}.cls-16{fill:#bbe4f9;}.cls-17{fill:#e1f2f9;}.cls-18{stroke:#fff;stroke-width:5px;}</style></defs><title>Avatar Users2</title><g id="BULINE"><circle class="cls-1" cx="256" cy="256" r="256"/></g><g id="Icons"><path class="cls-2" d="M484.77,371a257,257,0,0,1-82.84,95.36l-.42.29q-5.6,3.87-11.41,7.45a254.23,254.23,0,0,1-40,20q-8.34,3.32-17,6l-2.7.84q-7.44,2.26-15.08,4.07c-3,.72-6,1.37-9,2q-7.47,1.5-15.09,2.55A258.72,258.72,0,0,1,256,512q-10.26,0-20.32-.79a254.51,254.51,0,0,1-29.31-4q-10-2-19.75-4.71-7.68-2.14-15.14-4.77a255,255,0,0,1-51.88-25q-6.25-3.94-12.26-8.25l-1.85-1.34A257,257,0,0,1,27.23,371a257.17,257.17,0,0,1,81.51-94.44A254.39,254.39,0,0,1,135,260.34c.18-.11.36-.2.54-.29,1.72-.93,3.46-1.83,5.2-2.71a254,254,0,0,1,25.08-11q4.39-1.65,8.88-3.16h0c1.49-.5,3-1,4.49-1.46l3.36-1c1.34-.4,2.69-.79,4-1.17h0l.76-.21q4.77-1.32,9.61-2.46,10.46-2.47,21.23-4.07,3.62-.54,7.28-1c1.72-.2,3.44-.39,5.16-.56Q243.18,230,256,230q10.59,0,21,.85,3,.24,5.88.55l1.44.16q5.31.57,10.55,1.38c3.76.56,7.5,1.22,11.21,1.95q5.34,1.05,10.59,2.33,4.51,1.09,9,2.35l2.4.69c2.64.77,5.26,1.59,7.86,2.44q4.31,1.41,8.52,3a253.17,253.17,0,0,1,30.22,13.41c.87.45,1.73.91,2.59,1.37A257.14,257.14,0,0,1,484.77,371Z"/><path class="cls-3" d="M347.52,390.77H165.86a60.3,60.3,0,0,1-60.19-64l11.69-190.93A118.75,118.75,0,0,1,236,22.48h41.4A118.75,118.75,0,0,1,396,135.86l11.69,190.93A60.3,60.3,0,0,1,347.52,390.77Z"/><rect class="cls-4" x="165.86" y="172.38" width="178.53" height="218.39"/><path class="cls-5" d="M401.93,466.36l-.42.29q-5.6,3.87-11.41,7.45a254.23,254.23,0,0,1-40,20q-8.34,3.32-17,6l-2.7.84q-7.44,2.26-15.08,4.07c-3,.72-6,1.37-9,2q-7.47,1.5-15.09,2.55A258.72,258.72,0,0,1,256,512q-10.26,0-20.32-.79a254.51,254.51,0,0,1-29.31-4q-10-2-19.75-4.71-7.68-2.14-15.14-4.77a255,255,0,0,1-51.88-25q-6.25-3.94-12.26-8.25l-1.85-1.34c14.7-21.48,34.71-39.56,62.3-52.67a30.89,30.89,0,0,1,3-1.2c.85-.31,1.79-.62,2.81-.95,2.6-.81,5.69-1.7,9-2.61l2.13-.59c2-.54,4-1.11,6-1.69v0h0c5.26-1.48,10.56-3.1,15.08-4.79.88-.34,1.75-.66,2.56-1,3.94-1.62,7-3.32,8.57-5.09a14.64,14.64,0,0,0,1.25-1.68c5.48-8.5,2.57-22.16,2.57-32.22,0-1.41,0-2.72,0-3.95,0-.16,0-.31,0-.46h0c-.4-25.08-3.75-17.56,15.72-24.07a16.14,16.14,0,0,1,2.23-.44c10.47-1.56,49.43-3.53,53.67.44,3.87,3.62,3.49,12.28,2.34,21.74,0,.19-.05.37-.07.56-1.38,11.2-3.73,23.42-1.27,29.74a29.87,29.87,0,0,0,5.07,8.67,28.34,28.34,0,0,0,8.3,6.58l1.65.84A121.87,121.87,0,0,0,321,403.07h0l.86.31c1.81.65,3.67,1.33,5.57,2.08.9.36,1.82.72,2.72,1.11s1.64.72,2.48,1.11c.21.09.42.2.62.31,2.61,1.22,5.16,2.48,7.63,3.79C368.26,426.07,387.73,444.68,401.93,466.36Z"/><path class="cls-5" d="M379.48,154.65v83.9c0,62.59-49.82,82.63-86.13,114.46a55.86,55.86,0,0,1-74.44,0c-36.31-31.83-86.13-51.87-86.13-114.46v-83.9c0-.27,0-.56,0-.84.29-43.79,23.79-81.72,58.1-100.64,1.1-.62,30.24-12.09,45.16-12.73,1.48-.08,3-.11,4.46-.11h31.24a103.57,103.57,0,0,1,68.49,26.08,107.42,107.42,0,0,1,8.25,8,117.22,117.22,0,0,1,30.82,73.84h0C379.42,150.4,379.48,152.51,379.48,154.65Z"/><path class="cls-6" d="M182.57,238.55v-83.9c0-59.91,43.43-109.07,98.73-113.91-3-.28-6-.41-9-.41H241.08c-59.51,0-107.73,51.19-107.73,114.32v41.53a24.69,24.69,0,0,0,0,49.37h.24c3.58,57.13,50.95,76.87,85.87,107.46a55.69,55.69,0,0,0,61.84,8.44A57.38,57.38,0,0,1,268.68,353C232.37,321.19,182.57,301.14,182.57,238.55Z"/><circle class="cls-5" cx="380.03" cy="220.87" r="24.68"/><path class="cls-7" d="M166.52,181.8s31.12-17.34,58,0"/><path class="cls-7" d="M286.4,181.8s31.12-17.34,58,0"/><rect class="cls-6" x="238.2" y="245.55" width="35.86" height="13.59" rx="6.23"/><path class="cls-8" d="M134.05,211.05a9.82,9.82,0,0,0,0,19.64Z"/><path class="cls-6" d="M380,230.69a9.82,9.82,0,1,0,0-19.64Z"/><path class="cls-9" d="M256.13,284.6c-18.75-3-35.08,9.13-35.08,9.13,0,9.69,15.7,19.1,35.08,19.1h0c19.38,0,35.08-9.41,35.08-19.1C291.21,293.73,274.88,281.56,256.13,284.6Z"/><path class="cls-10" d="M281.09,294.56H238.64a6.32,6.32,0,0,1,3-3.62,52.87,52.87,0,0,1,22.57-6.77,37.68,37.68,0,0,0-8,.43c-18.75-3-35.09,9.13-35.09,9.13,0,9.68,15.71,19.1,35.09,19.1a59.57,59.57,0,0,0,8-.55c-11.27-1.55-20.45-6.26-24.63-11.9a6.27,6.27,0,0,1-.93-1.91h42.48a2,2,0,1,0,0-3.91Z"/><path class="cls-3" d="M159.85,151.65h45.49a10.76,10.76,0,0,0,10.58-8.77l6-31.66a1.31,1.31,0,0,1,2.6.25V140a10.77,10.77,0,0,0,10.76,10.77h31a10.77,10.77,0,0,0,10.24-7.44L285,117.2a1.31,1.31,0,0,1,2.51.08l6.6,25.39a10.78,10.78,0,0,0,10.42,8.06h44.72a10.23,10.23,0,0,1,9,5.33L380,196.18l9.82-25.64V142.77a69.41,69.41,0,0,0-11.25-37.88L362,79.31l-34.68-29.6a57.09,57.09,0,0,0-28.25-13L249.71,29a57.19,57.19,0,0,0-22.71,1l-36.45,9.16L167.23,52a69.43,69.43,0,0,0-33.87,43.75l-9.58,37.63a69.49,69.49,0,0,0,1.63,39.68l7.94,23.09,17.18-38.48A10.21,10.21,0,0,1,159.85,151.65Z"/><path class="cls-11" d="M320.36,55.54c1.2,13.62-.18,33.35-14.07,48.21a3.48,3.48,0,0,0,2.75,5.88c9.22-.65,22.73-2.56,30.19-8.15a3.5,3.5,0,0,1,5.4,1.45c1.88,4.87,4.2,12.79,3.2,20.34a3.48,3.48,0,0,0,6.18,2.56c6.67-8.15,12.27-22.68,4-46.93a3.49,3.49,0,0,0-6.1-.92l-1.29,1.76a3.48,3.48,0,0,1-5.67-.09L326.7,53.27A3.48,3.48,0,0,0,320.36,55.54Z"/><path class="cls-12" d="M401.93,466.36l-.42.29q-5.6,3.87-11.41,7.45a254.23,254.23,0,0,1-40,20q-8.34,3.32-17,6l-2.7.84q-7.44,2.26-15.08,4.07c-3,.72-6,1.37-9,2q-7.47,1.5-15.09,2.55A258.72,258.72,0,0,1,256,512q-10.26,0-20.32-.79a254.51,254.51,0,0,1-29.31-4q-10-2-19.75-4.71-7.68-2.14-15.14-4.77a255,255,0,0,1-51.88-25q-6.25-3.94-12.26-8.25l-1.85-1.34c14.7-21.48,34.71-39.56,62.3-52.67a30.89,30.89,0,0,1,3-1.2c.85-.31,1.79-.62,2.81-.95,2.6-.81,5.69-1.7,9-2.61,1.71,1.33,3.81,2.86,6.25,4.5a0,0,0,0,1,0,0,123.51,123.51,0,0,0,23.72,12.34c22.88,8.93,55.47,13.67,94.11-3.28,4.63-2,9.33-4.37,14.12-7.06.34-.18.66-.37,1-.56h0l.8-.46h0l.79-.45c2.22-1.29,4.47-2.66,6.73-4.11.82.35,1.64.72,2.48,1.11.21.09.42.2.62.31,2.61,1.22,5.16,2.48,7.63,3.79C368.26,426.07,387.73,444.68,401.93,466.36Z"/><path class="cls-13" d="M206.37,507.19q-10-2-19.75-4.71-7.68-2.14-15.14-4.77c2.52-24.58,8-53.5,17.41-87.55q.92-3.36,1.9-6.79h0c.3-.34,8.18-9.1,15.57-12.58,3.47-1.63,6.83-2.1,9.24,0a7.18,7.18,0,0,1,1.4,1.68s-3.73,11.6-4.4,30.05a161.36,161.36,0,0,0,23.07,88.71A254.51,254.51,0,0,1,206.37,507.19Z"/><path class="cls-14" d="M350.06,494.15q-8.34,3.32-17,6l-2.7.84q-7.44,2.26-15.08,4.07c-3,.72-6,1.37-9,2q-7.47,1.5-15.09,2.55c11.44-34.23,14.7-68.82,15.52-90.38.5-13.21.08-21.53.06-21.87h0a19,19,0,0,1,3.56-6.57c2.19-2.28,4.28-1.6,6,0,2.48,2.31,4.15,6.57,4.15,6.57,13.52-7.95,12.18,10.34,12.18,10.34C342,440.22,347.37,469,350.06,494.15Z"/><path class="cls-15" d="M194.13,458.35a226.48,226.48,0,0,0,12.24,48.84q-10-2-19.75-4.71a372.8,372.8,0,0,1,2.06-44A2.75,2.75,0,0,1,194.13,458.35Z"/><path class="cls-13" d="M333.1,500.17l-2.7.84-7.13-74.49-1.42-14.92h0l-.35-3.68-.46-4.85-.55-5.73s.54,2.16,1.41,6c.06.26.11.52.18.8l.06.29c.39,1.78.83,3.86,1.32,6.21C327.26,429.29,333.35,464.76,333.1,500.17Z"/><path class="cls-13" d="M315.32,505.08c-3,.72-6,1.37-9,2l14.55-94.89.65-4.24.58-3.74,0-.15s0,.15,0,.44c.09.91.3,3.23.52,6.67.25,3.84.51,9.09.62,15.38C323.63,446.22,322.57,476.15,315.32,505.08Z"/><path class="cls-16" d="M230.14,214.42a35.17,35.17,0,0,1-53.57,30,35.57,35.57,0,0,1-7.24-5.92,35,35,0,0,1-8.81-17,35.79,35.79,0,0,1-.7-7A35.17,35.17,0,0,1,195,179.26a35.69,35.69,0,0,1,7,.7,35.06,35.06,0,0,1,17.05,8.8,35.57,35.57,0,0,1,5.92,7.24,34.62,34.62,0,0,1,3.92,9A35.23,35.23,0,0,1,230.14,214.42Z"/><path class="cls-17" d="M219,188.76l-49.69,49.69a35,35,0,0,1-8.81-17L202,180A35.06,35.06,0,0,1,219,188.76Z"/><path class="cls-17" d="M228.86,205l-43.29,43.29a35,35,0,0,1-9-3.92L224.94,196A34.62,34.62,0,0,1,228.86,205Z"/><circle class="cls-18" cx="194.98" cy="214.42" r="35.15"/><path class="cls-16" d="M350.14,214.42a35.17,35.17,0,0,1-53.57,30,35.57,35.57,0,0,1-7.24-5.92,35,35,0,0,1-8.81-17,35.79,35.79,0,0,1-.7-7A35.16,35.16,0,0,1,315,179.26a35.71,35.71,0,0,1,7,.7,35.11,35.11,0,0,1,17,8.8,35.57,35.57,0,0,1,5.92,7.24,35.15,35.15,0,0,1,5.2,18.42Z"/><path class="cls-17" d="M339,188.76l-49.69,49.69a35,35,0,0,1-8.81-17L322,180A35.11,35.11,0,0,1,339,188.76Z"/><path class="cls-17" d="M348.86,205l-43.29,43.29a34.81,34.81,0,0,1-9-3.92L344.94,196A35,35,0,0,1,348.86,205Z"/><circle class="cls-18" cx="314.98" cy="214.42" r="35.15"/><ellipse class="cls-4" cx="195.51" cy="217.89" rx="10.31" ry="14.84"/><path class="cls-7" d="M176.76,207s17.82-11.25,37.51,0"/><ellipse class="cls-4" cx="314.98" cy="217.89" rx="10.31" ry="14.84"/><path class="cls-7" d="M296.23,207s17.81-11.25,37.5,0"/><path class="cls-18" d="M230.14,214.42s19.49-16.5,49.69,0"/></g></svg>