<svg xmlns="http://www.w3.org/2000/svg" viewBox="0 0 512 512"><defs><style>.cls-1{fill:#a65c3b;}.cls-2{fill:#8c4a30;}.cls-3{fill:#f6c752;}.cls-4{fill:#fcc8bc;}.cls-5{fill:#fab3a7;}.cls-6,.cls-8{fill:none;stroke-linecap:round;stroke-miterlimit:10;stroke-width:7px;}.cls-6{stroke:#e88032;}.cls-7{fill:#27273d;}.cls-8{stroke:#27273d;}.cls-9{fill:#f58d89;}.cls-10{fill:#fff;}.cls-11{fill:#c5e8fc;}.cls-12{fill:#accedd;}.cls-13{fill:#f6d372;}</style></defs><title>Avatar Users2</title><g id="BULINE"><circle class="cls-1" cx="256" cy="256" r="256"/></g><g id="Icons"><path class="cls-2" d="M484.77,371a256.93,256.93,0,0,1-82,94.75c-.95.67-1.91,1.33-2.87,2l-.35.24c-3.11,2.11-6.26,4.14-9.46,6.12A254.47,254.47,0,0,1,282,510.7c-3.3.33-6.63.6-10,.81-.82.05-1.65.1-2.47.13Q262.8,512,256,512q-6,0-11.89-.28l-1.33-.07c-3.75-.17-7.48-.44-11.17-.79l-1.17-.12c-.88-.08-1.75-.17-2.62-.27q-5.37-.59-10.66-1.4l-3.1-.49-.68-.12c-1.17-.19-2.33-.39-3.49-.61-2.14-.39-4.27-.8-6.39-1.25a254.33,254.33,0,0,1-83.9-33.93q-5.37-3.39-10.56-7l-1-.73-.54-.39A256.88,256.88,0,0,1,27.23,371,257.27,257.27,0,0,1,134.9,260.39l.3-.16,2.22-1.17.32-.16a253.14,253.14,0,0,1,45-18.27c.67-.21,1.35-.4,2-.6l1.72-.5h0a253.48,253.48,0,0,1,31.34-6.71q8.7-1.31,17.6-2c6.76-.54,13.61-.81,20.51-.81q11.87,0,23.47,1.07a253.87,253.87,0,0,1,98.77,30l1,.55A257.09,257.09,0,0,1,484.77,371Z"/><path class="cls-3" d="M283.74,25H228.49A107.18,107.18,0,0,0,121.38,135.9L124.44,224H387.79l3.06-88.07A107.17,107.17,0,0,0,283.74,25Z"/><path class="cls-4" d="M399.56,468c-3.11,2.11-6.26,4.14-9.46,6.12A254.47,254.47,0,0,1,282,510.7c-3.3.33-6.63.6-10,.81-.82.05-1.65.1-2.47.13Q262.8,512,256,512q-6,0-11.89-.28l-1.33-.07c-3.75-.17-7.48-.44-11.17-.79l-1.17-.12c-.88-.08-1.75-.17-2.62-.27q-5.37-.59-10.66-1.4l-3.1-.49-.68-.12c-1.17-.19-2.33-.39-3.49-.61-2.14-.39-4.27-.8-6.39-1.25a254.33,254.33,0,0,1-83.9-33.93q-5.37-3.39-10.56-7l-1-.73c14.45-20,33.78-36.8,59.87-49.21.36-.17.75-.33,1.19-.51l.34-.14h0c.34-.13.69-.28,1.07-.41,1.7-.62,3.77-1.26,6.09-1.95l2.09-.61,2.19-.62,1.13-.32,1.07-.29h0l.61-.18.62-.17c3.53-1,7.26-2,10.9-3.11,8.53-2.54,16.58-5.37,20.49-8.38a9.17,9.17,0,0,0,1.39-1.28c7.17-8.28,3.85-23.15,3.85-33.91,0-2.38,0-4.51-.07-6.43a2.18,2.18,0,0,1,0-.25c-.55-22.35-3.1-15.48,15.76-21.81a33.34,33.34,0,0,1,4.76-.77h0c13.14-1.46,47.17-2.93,51.12.77,3.61,3.38,3.53,11.09,2.58,19.77l0,.28c-1.31,11.79-4.16,25.27-1.53,32a28.55,28.55,0,0,0,7,10.67h0c7.75,7.35,18.94,8.87,31.44,14.54l.85.38c.79.36,1.55.73,2.32,1.11.14.07.29.13.43.21,3.64,1.75,7.14,3.59,10.53,5.5C369.28,432.85,386.52,449.2,399.56,468Z"/><path class="cls-4" d="M380,157.74v83.92c0,62.6-49.83,82.65-86.15,114.49a55.89,55.89,0,0,1-74.46,0c-36.32-31.84-86.15-51.89-86.15-114.49V157.74c0-61.57,45.86-111.77,103.29-114.25,1.48-.08,3-.11,4.47-.11h31.24C331.76,43.38,380,94.58,380,157.74Z"/><path class="cls-5" d="M182.79,241.66V157.74c0-59.93,43.44-109.11,98.75-114-3-.28-6-.41-9-.41H241.31c-59.52,0-107.75,51.21-107.75,114.36v41.54a24.69,24.69,0,0,0,0,49.38l.24,0c3.58,57.15,51,76.89,85.89,107.5,17.7,15.51,41.82,18.34,61.85,8.44a58,58,0,0,1-12.62-8.44C232.6,324.32,182.79,304.26,182.79,241.66Z"/><circle class="cls-4" cx="380.3" cy="223.97" r="24.69"/><path class="cls-6" d="M166.74,190.06s31.12-17.34,58,0"/><ellipse class="cls-7" cx="195.33" cy="220.99" rx="10.32" ry="14.85"/><path class="cls-6" d="M286.65,190.06s31.12-17.34,58,0"/><ellipse class="cls-7" cx="315.23" cy="220.99" rx="10.32" ry="14.85"/><rect class="cls-5" x="238.69" y="248.66" width="35.87" height="13.6" rx="6.23"/><path class="cls-8" d="M176.57,210.05s17.82-11.25,37.51,0"/><path class="cls-8" d="M296.48,210.05s17.82-11.25,37.51,0"/><path class="cls-9" d="M134.26,214.15a9.82,9.82,0,0,0,0,19.64Z"/><path class="cls-5" d="M380.3,233.79a9.82,9.82,0,0,0,0-19.64Z"/><path class="cls-10" d="M228,287.35a2.43,2.43,0,0,0-2.42,2.62c1.32,16.25,14.72,31.3,31.06,31.3h0c16.33,0,29.73-15,31.06-31.3a2.43,2.43,0,0,0-2.42-2.62Z"/><path class="cls-3" d="M373.07,95.05,335.66,52,256.48,31.64v-.19l-.36.09-.36-.09v.19L176.57,52,139.16,95.05l-14.72,66.36,9.12,37.87s22.52-14.4,27-46.79a60.38,60.38,0,0,1,8.62-24.35c11.89-18.61,37.37-44.76,77.49-18a17.79,17.79,0,0,0,19.66,0c40.12-26.76,65.3-.49,77,18.13a59.91,59.91,0,0,1,8.37,24c4.37,32.61,27,47.09,27,47.09l9.11-37.87Z"/><path class="cls-11" d="M399.56,468c-3.11,2.11-6.26,4.14-9.46,6.12A254.47,254.47,0,0,1,282,510.7c-3.3.33-6.63.6-10,.81-.82.05-1.65.1-2.47.13Q262.8,512,256,512q-6,0-11.89-.28l-1.33-.07c-3.75-.17-7.48-.44-11.17-.79l-1.17-.12c-.88-.08-1.75-.17-2.62-.27q-5.37-.59-10.66-1.4l-3.1-.49-.68-.12c-1.17-.19-2.33-.39-3.49-.61-2.14-.39-4.27-.8-6.39-1.25a254.33,254.33,0,0,1-83.9-33.93q-5.37-3.39-10.56-7l-1-.73c14.45-20,33.78-36.8,59.87-49.21.36-.17.75-.33,1.19-.51l.34-.14h0c.34-.13.69-.28,1.07-.41,1.7-.62,3.77-1.26,6.09-1.95l2.09-.61,2.19-.62,1.13-.32,1.07-.29h0l.61-.18.62-.17c3.53-1,7.26-2,10.9-3.11l43.34,43.23L251,446.29h0l6.22-2.16h0l.6-.21h0l8.49,6.69,42.4-18.9,21.36-14.29h0l5-3.33c.14.07.29.13.43.21,3.64,1.75,7.14,3.59,10.53,5.5C369.28,432.85,386.52,449.2,399.56,468Z"/><path class="cls-12" d="M257.86,453.88,235.94,483.6l-18.78,25.47-3.1-.49-.68-.12c-1.17-.19-2.33-.39-3.49-.61-2.14-.39-4.27-.8-6.39-1.25l-33.71-90.05a5.87,5.87,0,0,1-.38-1.51h0c.34-.13.7-.27,1.08-.4,1.7-.62,3.77-1.26,6.09-1.95l2.09-.61,2.19-.62,1.13-.32,1.08-.3.61-.17.62-.17c3.53-1,7.26-2,10.9-3.11l43.34,43.22L251,446.29l2.53,2.8.21.23h0Z"/><path class="cls-7" d="M267,490.86l2.55,20.78Q262.8,512,256,512q-6,0-11.89-.28l-1.33-.07,3.51-21.48-10.35-6.57-5.54-3.51.2-.27,23.15-30.49h0l4.1-5.4,27,36.17Z"/><path class="cls-13" d="M312.18,39.8C313.37,53.42,312,73.15,298.1,88a3.48,3.48,0,0,0,2.76,5.88c9.21-.65,22.73-2.56,30.19-8.14a3.49,3.49,0,0,1,5.4,1.45c1.88,4.87,4.2,12.79,3.2,20.33a3.48,3.48,0,0,0,6.19,2.56c6.67-8.14,12.27-22.68,4-46.93a3.49,3.49,0,0,0-6.11-.92L342.41,64a3.49,3.49,0,0,1-5.68-.08L318.51,37.52A3.48,3.48,0,0,0,312.18,39.8Z"/><path class="cls-10" d="M207.1,395.81l-20.75,9.88a5.76,5.76,0,0,0-2.91,7.24l28.61,75.55A6.3,6.3,0,0,0,223,490l34.41-46.1s-33.2-36.48-43.76-47A5.75,5.75,0,0,0,207.1,395.81Z"/><path class="cls-10" d="M301.61,396.92c-10.56,10.52-43.76,47-43.76,47L292.26,490a6.3,6.3,0,0,0,10.94-1.54l28.62-75.55a5.76,5.76,0,0,0-2.92-7.24l-20.75-9.88A5.75,5.75,0,0,0,301.61,396.92Z"/><path class="cls-12" d="M246.29,490.17l-3.51,21.48c-3.75-.17-7.48-.44-11.17-.79l-1.17-.12,5.5-27.14Z"/></g></svg>