<svg xmlns="http://www.w3.org/2000/svg" viewBox="0 0 512 512"><defs><style>.cls-1{fill:#f7bb38;}.cls-2{fill:#dba231;}.cls-3{fill:#fff;}.cls-4{fill:#dddcdb;}.cls-5{fill:#fcc8bc;}.cls-6{fill:#fab3a7;}.cls-11,.cls-13,.cls-14,.cls-16,.cls-7{fill:none;stroke-miterlimit:10;}.cls-11,.cls-7{stroke:#fff;}.cls-13,.cls-14,.cls-16,.cls-7{stroke-linecap:round;stroke-width:7px;}.cls-8{fill:#f58d89;}.cls-9{fill:#bbe4f9;}.cls-10{fill:#e1f2f9;}.cls-11{stroke-width:5px;}.cls-12{fill:#27273d;}.cls-13{stroke:#27273d;}.cls-14{stroke:#f58d89;}.cls-15{fill:#934cf5;}.cls-16{stroke:#fab3a7;}</style></defs><title>Avatar Users2</title><g id="BULINE"><circle class="cls-1" cx="256" cy="256" r="256"/></g><g id="Icons"><path class="cls-2" d="M484.77,371A257.06,257.06,0,0,1,390.1,474.1c-.4.24-.79.49-1.19.72q-7.76,4.73-15.85,8.89a256.32,256.32,0,0,1-233.35.39q-7.05-3.59-13.84-7.61-3.16-1.86-6.27-3.82A257.16,257.16,0,0,1,27.23,371,256.77,256.77,0,0,1,80.3,299.82l.34-.32a256.83,256.83,0,0,1,32.19-25.74c.29-.21.59-.4.88-.6a254.32,254.32,0,0,1,24-14.25q2.92-1.53,5.91-3l.39-.19a252.66,252.66,0,0,1,28.91-11.94c.9-.32,1.8-.62,2.7-.92l1.71-.56h0c2.76-.89,5.54-1.74,8.34-2.53q9.09-2.59,18.44-4.52c1.57-.32,3.14-.63,4.71-.92h0l.19,0a258.3,258.3,0,0,1,99,1q7.53,1.55,14.88,3.54,8.25,2.22,16.26,5c1.27.44,2.53.88,3.79,1.34,2.46.88,4.9,1.81,7.32,2.77h0q6.24,2.46,12.32,5.26,6.61,3,13,6.44c.82.43,1.64.87,2.45,1.32s1.8,1,2.69,1.48c1.3.73,2.59,1.46,3.87,2.22q8.82,5.11,17.17,10.93A257.53,257.53,0,0,1,484.77,371Z"/><path class="cls-3" d="M455.69,262.07a54.81,54.81,0,0,0-20.72-43,54.91,54.91,0,0,0-27.76-83.65,60.75,60.75,0,0,0-87.85-70.95,67.21,67.21,0,0,0-123-2.65,60.78,60.78,0,0,0-82.58,73.6A54.91,54.91,0,0,0,86,219.11a54.93,54.93,0,0,0,15.07,94.46,39.37,39.37,0,0,0,51,54.42c-.07,1-.12,2-.12,3.06a43.21,43.21,0,0,0,81.67,19.7,167.51,167.51,0,0,0,53.75,0A43.21,43.21,0,0,0,369,371.05c0-1,0-2.05-.12-3.06a39.37,39.37,0,0,0,51-54.42A55,55,0,0,0,455.69,262.07Z"/><path class="cls-4" d="M218.6,407.75a43.21,43.21,0,0,1-66-36.7c0-1,.05-2,.12-3.06a39.38,39.38,0,0,1-51-54.42A54.94,54.94,0,0,1,86.6,219.11a54.94,54.94,0,0,1,27.77-83.65,60.78,60.78,0,0,1,58-78.79,60.2,60.2,0,0,1,22.83,4.46,60.8,60.8,0,0,0-35.15,74.33,54.9,54.9,0,0,0-27.77,83.65,54.92,54.92,0,0,0,15.08,94.46,39.37,39.37,0,0,0,51,54.42c-.06,1-.12,2-.12,3.06A43.27,43.27,0,0,0,218.6,407.75Z"/><path class="cls-5" d="M373.06,483.71a256.32,256.32,0,0,1-233.35.39c1.47-1.31,3-2.59,4.51-3.86,3-2.48,6.2-4.85,9.51-7.15a160,160,0,0,1,22-12.66c5-2.39,18.29-5.44,29.6-9,7.88-2.49,14.8-5.22,17.32-8.13a15.16,15.16,0,0,0,2.53-4.17c1.75-4.18,2-9.26,1.81-14.38-.16-4.78-.69-9.59-.69-13.77,0-2.61,0-4.88-.08-6.92h0c0-1.05-.07-2-.1-2.93-.62-17.08-1.77-11.63,15.13-17.31a42.41,42.41,0,0,1,6.19-.91c13.49-1.33,43.49-2.46,47.11.91,2.72,2.55,3.24,7.67,2.9,13.78-.1,1.8-.28,3.69-.5,5.63v0c-.87,7.69-2.41,16.09-2.47,22.65v0a20.83,20.83,0,0,0,1,7.53,30.55,30.55,0,0,0,2.89,5.69c4.56,7,11.12,9.89,18.87,12.68,4.82,1.75,10.11,3.44,15.66,6a171.52,171.52,0,0,1,27.2,15.68q4.15,2.91,8,6Q370.67,481.59,373.06,483.71Z"/><path class="cls-5" d="M378.13,207.1v81.77c0,61-48.54,80.53-83.94,111.55a54.43,54.43,0,0,1-72.54,0c-35.4-31-83.94-50.56-83.94-111.55V207.1c0-61.53,47-111.41,105-111.41h30.44C331.12,95.69,378.13,145.57,378.13,207.1Z"/><path class="cls-6" d="M185.69,288.87V207.1c0-58.39,42.32-106.31,96.21-111q-4.33-.4-8.77-.4H242.7c-58,0-105,49.89-105,111.42v40.48a24.06,24.06,0,0,0,0,48.11H138c3.48,55.68,49.65,74.92,83.69,104.73a54.27,54.27,0,0,0,60.26,8.23,56.08,56.08,0,0,1-12.29-8.23C234.22,369.41,185.69,349.87,185.69,288.87Z"/><circle class="cls-5" cx="378.13" cy="271.63" r="24.06"/><path class="cls-7" d="M170.05,226.73s30.32-16.89,56.51,0"/><path class="cls-7" d="M286.88,226.73s30.32-16.89,56.51,0"/><rect class="cls-6" x="239.53" y="295.69" width="34.95" height="13.25" rx="6.07"/><path class="cls-8" d="M138.4,262.07a9.57,9.57,0,1,0,0,19.13Z"/><path class="cls-6" d="M378.13,281.2a9.57,9.57,0,1,0,0-19.13Z"/><path class="cls-9" d="M234.54,268.73a35.9,35.9,0,0,1-45.47,34.56,35.45,35.45,0,0,1-9.17-4,36,36,0,0,1-16.38-23.42,36.47,36.47,0,0,1-.71-7.14,35.87,35.87,0,0,1,35.87-35.86,36.37,36.37,0,0,1,7.13.71A35.94,35.94,0,0,1,229.24,250a35.45,35.45,0,0,1,4,9.17A35.9,35.9,0,0,1,234.54,268.73Z"/><path class="cls-10" d="M223.2,242.56l-50.69,50.69a35.7,35.7,0,0,1-9-17.38l42.29-42.29A35.81,35.81,0,0,1,223.2,242.56Z"/><path class="cls-10" d="M233.24,259.12l-44.17,44.17a35.45,35.45,0,0,1-9.17-4L229.24,250A35.45,35.45,0,0,1,233.24,259.12Z"/><circle class="cls-11" cx="198.68" cy="268.73" r="35.86"/><path class="cls-9" d="M357,268.73a35.9,35.9,0,0,1-45.47,34.56,35.45,35.45,0,0,1-9.17-4,36.09,36.09,0,0,1-7.39-6,35.7,35.7,0,0,1-9-17.38,36.47,36.47,0,0,1-.71-7.14,35.87,35.87,0,0,1,35.87-35.86,36.37,36.37,0,0,1,7.13.71A35.94,35.94,0,0,1,351.66,250a35.45,35.45,0,0,1,4,9.17A35.9,35.9,0,0,1,357,268.73Z"/><path class="cls-10" d="M345.62,242.56l-50.69,50.69a35.7,35.7,0,0,1-9-17.38l42.29-42.29A35.81,35.81,0,0,1,345.62,242.56Z"/><path class="cls-10" d="M355.66,259.12l-44.17,44.17a35.45,35.45,0,0,1-9.17-4L351.66,250A35.45,35.45,0,0,1,355.66,259.12Z"/><circle class="cls-11" cx="321.1" cy="268.73" r="35.86"/><path class="cls-11" d="M234.54,268.73s19.89-16.83,50.7,0"/><ellipse class="cls-12" cx="197.9" cy="268.73" rx="10.05" ry="14.47"/><ellipse class="cls-12" cx="314.73" cy="268.73" rx="10.05" ry="14.47"/><path class="cls-13" d="M179.62,258.07s17.36-11,36.55,0"/><path class="cls-13" d="M296.46,258.07s17.36-11,36.55,0"/><line class="cls-14" x1="241.12" y1="332.15" x2="274.73" y2="332.15"/><line class="cls-14" x1="245.54" y1="345.33" x2="270.3" y2="345.33"/><path class="cls-3" d="M383,173.94a50.89,50.89,0,0,0-42.2-78.24,50.9,50.9,0,0,0-74.95-15.58A50.91,50.91,0,0,0,189,99.34a50.89,50.89,0,0,0-61.85,74.6,33.24,33.24,0,1,0,33.2,22.61A50.94,50.94,0,0,0,216.22,168a50.93,50.93,0,0,0,49.59-6.61,50.64,50.64,0,0,0,29.93,10.25,50.95,50.95,0,0,0,54,24.91A33.23,33.23,0,1,0,383,173.94Z"/><path class="cls-15" d="M373.06,483.71a256.32,256.32,0,0,1-233.35.39c1.47-1.31,3-2.59,4.51-3.86,3-2.48,6.2-4.85,9.51-7.15a160,160,0,0,1,22-12.66c5-2.39,18.29-5.44,29.6-9,7.88-2.49,14.8-5.22,17.32-8.13a15.16,15.16,0,0,0,2.53-4.17h73.22c4.56,7,11.12,9.89,18.87,12.68,4.82,1.75,10.11,3.44,15.66,6a171.52,171.52,0,0,1,27.2,15.68q4.15,2.91,8,6Q370.67,481.59,373.06,483.71Z"/><path class="cls-3" d="M305.6,421.86a17.24,17.24,0,0,0-14.68,8.21,17.24,17.24,0,0,0-29.37,0,17.24,17.24,0,0,0-29.37,0,17.27,17.27,0,1,0,0,18.12,17.24,17.24,0,0,0,29.37,0,17.24,17.24,0,0,0,29.37,0,17.26,17.26,0,1,0,14.68-26.33Z"/><path class="cls-16" d="M226.56,315.23s-26.13,17.63-26.34,42.84"/><path class="cls-16" d="M289.15,315.23s26.13,17.63,26.34,42.84"/></g></svg>