<svg xmlns="http://www.w3.org/2000/svg" viewBox="0 0 512 512"><defs><style>.cls-1{fill:#00b564;}.cls-2{fill:#009b51;}.cls-3{fill:#6d2d1f;}.cls-4{fill:#63261c;}.cls-5{fill:#562118;}.cls-6{fill:#9e4830;}.cls-7{fill:#873d2b;}.cls-8{fill:none;stroke:#27273d;stroke-linecap:round;stroke-miterlimit:10;stroke-width:7px;}.cls-9{fill:#27273d;}.cls-10{fill:#723326;}.cls-11{fill:#fff;}.cls-12{fill:#db1b1b;}.cls-13{fill:#703328;}.cls-14{fill:#7cc8fb;}.cls-15{fill:#41c0e3;}</style></defs><title>Avatar Users2</title><g id="BULINE"><circle class="cls-1" cx="256" cy="256" r="256"/></g><g id="Icons"><path class="cls-2" d="M484.77,371a257,257,0,0,1-87.68,98.63l-.4.27q-3.26,2.14-6.59,4.2a256.19,256.19,0,0,1-270.5-1.43q-2.52-1.59-5-3.25l-1.19-.8A257,257,0,0,1,27.23,371,257.12,257.12,0,0,1,121,268.46q3.44-2.15,6.94-4.17,7.69-4.46,15.72-8.38l.6-.3.85-.41c2.21-1.06,4.43-2.1,6.67-3.1q10.49-4.68,21.47-8.43,5.16-1.77,10.42-3.31h0q2.38-.71,4.79-1.35c2.45-.68,4.92-1.31,7.4-1.91q5.18-1.24,10.42-2.28c1.27-.25,2.54-.49,3.82-.72l1.46-.26q1.62-.28,3.24-.54,5.44-.88,11-1.53c3.38-.41,6.77-.74,10.19-1l.83-.06.69-.06q9.17-.65,18.5-.65t18.62.66l.82.07.7.05q6.18.48,12.28,1.25,7.14.9,14.15,2.2,5.79,1.05,11.48,2.38,7.92,1.83,15.66,4.16,6.18,1.86,12.23,4,9.35,3.33,18.34,7.35,3.62,1.61,7.17,3.34l1.21.58q7.89,3.87,15.46,8.26,3.63,2.1,7.18,4.32A257.18,257.18,0,0,1,484.77,371Z"/><path class="cls-3" d="M391.3,125.91V392.52a24.67,24.67,0,0,1-24.68,24.67H145.68A24.67,24.67,0,0,1,121,392.52V125.91a84.12,84.12,0,0,1,84.17-84.16h102A84.17,84.17,0,0,1,391.3,125.91Z"/><path class="cls-4" d="M243.72,184.77,155,417.19h-9.35A24.67,24.67,0,0,1,121,392.52V125.91a84.18,84.18,0,0,1,63.72-81.65,117.79,117.79,0,0,0,.13,18.24C186,77.35,190,95.61,199.46,116.74,208.48,136.94,222.47,159.77,243.72,184.77Z"/><polygon class="cls-5" points="155.02 287.31 155.02 417.19 358.98 417.19 358.98 285.31 155.02 287.31"/><path class="cls-6" d="M397.09,469.63l-.4.27q-3.26,2.14-6.59,4.2a256.19,256.19,0,0,1-270.5-1.43q-2.52-1.59-5-3.25l-1.19-.8a147.44,147.44,0,0,1,18.86-28.56q1-1.14,2-2.25l1.52-1.68c.12-.14.25-.28.38-.41.61-.66,1.24-1.33,1.86-2s1.33-1.37,2-2q2-2,4.18-4c.62-.57,1.24-1.12,1.88-1.67a4.4,4.4,0,0,1,.39-.35c.62-.54,1.27-1.09,1.91-1.62a4.24,4.24,0,0,1,.52-.43q.9-.77,1.83-1.5c.9-.73,1.81-1.44,2.74-2.14.6-.46,1.22-.92,1.83-1.37s1.35-1,2-1.45h0l.74-.51c.8-.57,1.62-1.13,2.45-1.67a1,1,0,0,1,.15-.11l2.49-1.61c.87-.55,1.74-1.1,2.64-1.63s1.64-1,2.49-1.47c.07,0,.12-.09.2-.13h0c1-.56,1.94-1.1,2.93-1.64s2-1.06,3-1.58c.33-.18.67-.36,1-.52l1-.52,1.11-.55.27-.13,1.39-.68c.46-.22,1-.44,1.6-.67l1.5-.54.51-.18h0c.85-.28,1.78-.58,2.77-.88l1.85-.55,2.4-.69,1.34-.38,1.39-.39c7.95-2.22,17.31-4.76,23.75-7.55h0c3.12-1.35,5.55-2.75,6.81-4.21,6.41-7.4,3.43-20.69,3.43-30.28,0-2.25,0-4.25-.07-6.05,0-.15,0-.29,0-.43v0c-.31-12.07-1.25-14.27,2.15-15.59,2.06-.78,5.67-1.26,12-3.36a39.5,39.5,0,0,1,5.78-.86h0c7-.69,18.74-1.33,28.4-1.22,7.79.09,14.22.67,15.73,2.08,2.47,2.31,3,6.89,2.73,12.39,0,.17,0,.35,0,.52-.64,11.43-4.53,26.57-1.8,33.58a24.92,24.92,0,0,0,8.15,11.19h0c5.67,4.31,13,6.1,21.18,9.25,1.85.71,3.76,1.51,5.71,2.4l2.23,1.07h0l.44.2h0q7.05,3.43,13.39,7.26h0q5.26,3.18,10.07,6.63h0a138.53,138.53,0,0,1,24.24,22.06A147.92,147.92,0,0,1,397.09,469.63Z"/><path class="cls-6" d="M368.15,167.12v76.6c0,57.14-45.48,75.44-78.63,104.51a51,51,0,0,1-68,0c-33.16-29.07-78.64-47.37-78.64-104.51v-76.6c0-56.2,41.86-102,94.28-104.28,1.35-.08,2.72-.1,4.08-.1h28.52C324.11,62.74,368.15,109.47,368.15,167.12Z"/><path class="cls-7" d="M188.48,243.72v-76.6c0-54.7,39.65-99.59,90.14-104-2.71-.26-5.45-.37-8.22-.37H241.89c-54.32,0-98.35,46.74-98.35,104.38V205a22.54,22.54,0,1,0,0,45.07h.21c3.27,52.16,46.52,70.18,78.41,98.12a50.86,50.86,0,0,0,56.46,7.7,52.56,52.56,0,0,1-11.52-7.7C233.94,319.17,188.48,300.86,188.48,243.72Z"/><circle class="cls-6" cx="368.76" cy="227.57" r="22.54"/><path class="cls-8" d="M173.83,196.62s28.4-15.83,52.93,0"/><ellipse class="cls-9" cx="199.92" cy="224.86" rx="9.42" ry="13.55"/><path class="cls-8" d="M283.28,196.62s28.41-15.83,52.94,0"/><ellipse class="cls-9" cx="309.37" cy="224.86" rx="9.42" ry="13.55"/><rect class="cls-7" x="239.16" y="250.11" width="32.74" height="12.41" rx="5.69"/><path class="cls-8" d="M182.8,214.87s16.26-10.27,34.24,0"/><path class="cls-8" d="M292.25,214.87s16.26-10.27,34.24,0"/><path class="cls-10" d="M144.18,218.61a9,9,0,0,0,0,17.93Z"/><path class="cls-7" d="M368.76,236.54a9,9,0,1,0,0-17.93Z"/><path class="cls-11" d="M232.2,290.64c0,12.33,10.89,24.3,24.33,24.3h0c13.43,0,22.46-12,22.46-24.3Z"/><path class="cls-12" d="M279.86,290.64a27.88,27.88,0,0,1-7.13,18.28,23.22,23.22,0,0,1-17.2,8.2c-13.43,0-24.33-13-24.33-26.48h1.42c3.36,10,12.35,18,22.91,18a23.19,23.19,0,0,0,17.2-8.21,28.42,28.42,0,0,0,5.71-9.83Z"/><path class="cls-12" d="M255.53,284.31c-13-2.11-24.32,6.33-24.32,6.33h48.64S268.53,282.2,255.53,284.31Z"/><path class="cls-3" d="M273.35,54.31H242.26c-1.49,0-3,0-4.45.12.09.62.2,1.24.29,1.86l-55.3,6.45-43.1,50.52-9.56,80.14L143.54,205c20-81.95,72.53-101.19,100.21-105.55a8.24,8.24,0,0,1,8.8,4.74,202.46,202.46,0,0,0,16.37,29.17C299,178,342.16,204.33,380.59,205.84V173.23C380.59,107.55,332.57,54.31,273.35,54.31Z"/><path class="cls-4" d="M199.46,116.74C177.34,131.48,155,157.88,143.53,205L130.14,193.4l9.55-80.13,43.1-50.53,2.06-.24C186,77.35,190,95.61,199.46,116.74Z"/><path class="cls-13" d="M324,66c1.09,12.43-.16,30.44-12.85,44a3.18,3.18,0,0,0,2.52,5.36c8.41-.59,20.74-2.33,27.55-7.43a3.19,3.19,0,0,1,4.93,1.32c1.72,4.45,3.84,11.68,2.92,18.57a3.18,3.18,0,0,0,5.65,2.33c6.09-7.43,11.2-20.7,3.62-42.84a3.18,3.18,0,0,0-5.57-.84L351.6,88a3.18,3.18,0,0,1-5.18-.07L329.79,63.88A3.18,3.18,0,0,0,324,66Z"/><circle class="cls-11" cx="139.7" cy="257.89" r="13.39"/><circle class="cls-11" cx="372.37" cy="257.89" r="13.39"/><path class="cls-14" d="M397.09,469.63l-.4.27q-3.26,2.14-6.59,4.2a256.19,256.19,0,0,1-270.5-1.43q-2.52-1.59-5-3.25l-1.19-.8a147.44,147.44,0,0,1,18.86-28.56q1-1.14,2-2.25l1.52-1.68c.12-.14.25-.28.38-.41.61-.66,1.24-1.33,1.86-2s1.33-1.37,2-2c1.36-1.36,2.75-2.67,4.18-4,.62-.57,1.24-1.12,1.88-1.67a4.4,4.4,0,0,1,.39-.35c.62-.54,1.27-1.09,1.91-1.62a4.24,4.24,0,0,1,.52-.43q.9-.77,1.83-1.5c.9-.73,1.81-1.44,2.74-2.14.6-.46,1.22-.92,1.83-1.37s1.35-1,2-1.45h0l.72-.51c.8-.57,1.62-1.13,2.45-1.67a1,1,0,0,1,.15-.11l2.49-1.61c.87-.55,1.74-1.1,2.64-1.63s1.64-1,2.49-1.47c.07,0,.12-.09.2-.13h0c1-.56,1.94-1.1,2.93-1.64s2-1.06,3-1.58c.33-.18.67-.36,1-.52l1-.52,1.11-.55.27-.13,1.39-.68c.46-.22,1-.44,1.6-.67l1.5-.54.51-.18h0c.85-.28,1.78-.58,2.77-.88l1.85-.55,2.4-.69,1.34-.38,1.39-.39,58.21,15.09,4.8,1.25.2-.05h0l1-.28h0l63.91-16.56c1.85.71,3.76,1.51,5.71,2.4l2.23,1.07h0l.44.2h0q7.05,3.43,13.39,7.26h0q5.26,3.18,10.07,6.63h0a138.53,138.53,0,0,1,24.24,22.06A147.92,147.92,0,0,1,397.09,469.63Z"/><path class="cls-15" d="M332.24,404.45c-2.62-1.24-7.61-2.68-13.37-4.29l-58.21,15.09-5,3.69-4.94-3.69-58.21-15.09c-5.76,1.61-10.75,3-13.37,4.29-3.73,1.76-7.3,3.64-10.74,5.61l46.89,56.77a9.69,9.69,0,0,0,15.93-1.37,98.15,98.15,0,0,1,17.15-22.2,10.39,10.39,0,0,1,14.59,0,98.44,98.44,0,0,1,17.15,22.2,9.69,9.69,0,0,0,15.93,1.37L343,410.06C339.54,408.09,336,406.21,332.24,404.45Z"/><path class="cls-11" d="M317.72,389.23a10,10,0,0,0-12.79-2.12l-48.86,29.52-48.85-29.52a10,10,0,0,0-12.79,2.12L182.8,403.06l39.37,50.13a3.51,3.51,0,0,0,6.09-1c5.57-17.21,23.55-31.18,27.81-34.3,4.26,3.12,22.24,17.09,27.82,34.3a3.51,3.51,0,0,0,6.09,1l39.37-50.13Z"/><circle class="cls-11" cx="255.71" cy="494.17" r="8.84"/></g></svg>