<svg xmlns="http://www.w3.org/2000/svg" viewBox="0 0 512 512"><defs><style>.cls-1{fill:#7cc8fb;}.cls-2{fill:#6cb7e0;}.cls-3{fill:#fcdbd6;}.cls-4{fill:#fcc8bc;}.cls-5{fill:none;stroke:#27273d;stroke-linecap:round;stroke-miterlimit:10;stroke-width:7px;}.cls-6{fill:#fab3a7;}.cls-7{fill:#27273d;}.cls-8{fill:#fff;}.cls-9{fill:#f7bb38;}.cls-10{fill:#32314b;}.cls-11{fill:#9e4830;}</style></defs><title>Avatar Users2</title><g id="BULINE"><circle class="cls-1" cx="256" cy="256" r="256"/></g><g id="Icons"><path class="cls-2" d="M484.77,371a257.13,257.13,0,0,1-91,100.82c-1.21.77-2.42,1.53-3.64,2.28q-3.14,1.93-6.33,3.78a255,255,0,0,1-101.25,32.77A261,261,0,0,1,256,512q-9.72,0-19.26-.72a254.28,254.28,0,0,1-107.15-32.63l-1.62-.92q-4.23-2.44-8.37-5.06l-2.28-1.46A257.12,257.12,0,0,1,27.23,371,257.08,257.08,0,0,1,117.08,271q5.78-3.75,11.78-7.19a253.75,253.75,0,0,1,51.21-22.3l.63-.2h0c.7-.21,1.4-.43,2.1-.63q9.3-2.77,18.89-4.84,5-1.09,10-2a258.49,258.49,0,0,1,86.79-.28q5.46.9,10.83,2.05,9.5,2,18.71,4.71c1.46.43,2.92.87,4.37,1.32a255.88,255.88,0,0,1,53.1,23.55q5.28,3.1,10.39,6.45A257.06,257.06,0,0,1,484.77,371Z"/><path class="cls-3" d="M383.77,477.88a255,255,0,0,1-101.25,32.77A261,261,0,0,1,256,512q-9.72,0-19.26-.72a254.28,254.28,0,0,1-107.15-32.63l-1.62-.92c.54-.51,1.07-1,1.62-1.49.93-.86,1.88-1.71,2.84-2.54.2-.16.41-.35.61-.52.91-.78,1.83-1.56,2.77-2.32q4.83-4,10.15-7.63a169.59,169.59,0,0,1,23.53-13.52,97.37,97.37,0,0,1,12.79-4.19c8.49-2.4,19-5.16,26.82-8.18a49.09,49.09,0,0,0,7.23-3.36h0a13.82,13.82,0,0,0,3.25-2.55,16.51,16.51,0,0,0,2.7-4.46c3.59-8.64,1.2-20.85,1.2-30.06,0-2.78-.05-5.22-.1-7.39v0c-.58-22-3-15.21,16.05-21.6a45.25,45.25,0,0,1,6.62-1h0c14.41-1.42,46.43-2.63,50.29,1,2.9,2.72,3.46,8.19,3.08,14.72-.73,13-5.17,30.29-2.06,38.28a32.48,32.48,0,0,0,3.09,6.07,22.05,22.05,0,0,0,1.7,2.3c.38.47.76.91,1.17,1.33.22.27.48.52.71.76s.57.55.86.8l.14.11h0l.16.16.19.16c.28.25.57.49.87.71a5.46,5.46,0,0,0,.55.43,31.42,31.42,0,0,0,4.46,2.82c.58.31,1.17.61,1.76.88s1.32.63,2,.91,1.53.65,2.32,1c.41.15.8.31,1.23.46,1.85.71,3.81,1.4,5.82,2.1.41.14.82.28,1.23.44l1.07.38c.38.12.76.26,1.14.41l1.57.57c.82.31,1.65.62,2.49,1,.66.25,1.33.52,2,.8s1.07.45,1.6.69,1.21.54,1.82.82l.08,0h0a183.62,183.62,0,0,1,28.95,16.7c3,2.07,5.79,4.23,8.52,6.45Q379.54,473.87,383.77,477.88Z"/><path class="cls-3" d="M385.55,179.22v87.31c0,65.11-51.83,86-89.62,119.1a58.13,58.13,0,0,1-77.46,0c-37.78-33.12-89.61-54-89.61-119.1V179.22c0-65.7,50.18-119,112.09-119h32.51C335.37,60.26,385.55,113.52,385.55,179.22Z"/><path class="cls-4" d="M180.07,266.53V179.22c0-62.35,45.2-113.51,102.74-118.54-3.09-.3-6.21-.43-9.37-.43H241c-61.91,0-112.1,53.27-112.1,119v43.22a25.69,25.69,0,0,0,0,51.37h.25c3.73,59.45,53,80,89.36,111.82,18.41,16.15,43.51,19.09,64.35,8.79a60,60,0,0,1-13.13-8.79C231.9,352.52,180.07,331.65,180.07,266.53Z"/><circle class="cls-3" cx="385.55" cy="248.12" r="25.69"/><path class="cls-5" d="M163.38,200.18s32.37-18,60.33,0"/><path class="cls-5" d="M288.12,200.18s32.38-18,60.34,0"/><rect class="cls-4" x="237.57" y="273.81" width="37.32" height="14.15" rx="6.49"/><path class="cls-6" d="M129.59,237.91a10.22,10.22,0,1,0,0,20.43Z"/><path class="cls-4" d="M385.56,258.34a10.22,10.22,0,0,0,0-20.43Z"/><ellipse class="cls-7" cx="193.11" cy="245.03" rx="10.73" ry="15.45"/><ellipse class="cls-7" cx="317.86" cy="245.03" rx="10.73" ry="15.45"/><path class="cls-5" d="M173.6,233.64s18.54-11.71,39,0"/><path class="cls-5" d="M298.35,233.64s18.53-11.71,39,0"/><path class="cls-8" d="M226.49,315.05a2.47,2.47,0,0,0-2.46,2.67c1.34,16.54,15,31.87,31.61,31.87h0c16.63,0,30.27-15.33,31.61-31.87a2.47,2.47,0,0,0-2.46-2.67Z"/><path class="cls-9" d="M383.77,477.88a255,255,0,0,1-101.25,32.77A261,261,0,0,1,256,512q-9.72,0-19.26-.72a254.28,254.28,0,0,1-107.15-32.63l-1.62-.92c.54-.51,1.07-1,1.62-1.49.93-.86,1.88-1.71,2.84-2.54.2-.16.41-.35.61-.52.91-.78,1.83-1.56,2.77-2.32q4.83-4,10.15-7.63a169.59,169.59,0,0,1,23.53-13.52,97.37,97.37,0,0,1,12.79-4.19c8.49-2.4,19-5.16,26.82-8.18V459.8l34.72,18.53c2.51,2.07,8.79,3.11,15.15,3.16h0c.59,0,1.17,0,1.74,0h0c6-.14,11.79-1.18,14.14-3.14l27.29-18.53V429.27c.38.47.76.91,1.17,1.33.22.27.48.52.71.76s.57.55.86.8l.13.13h0a.8.8,0,0,0,.17.15l.19.16c.28.25.57.49.87.71a5.46,5.46,0,0,0,.55.43,31.42,31.42,0,0,0,4.46,2.82c.58.31,1.17.61,1.76.88s1.32.63,2,.91,1.53.65,2.32,1c.41.15.8.31,1.23.46,1.85.71,3.81,1.4,5.82,2.1.41.14.82.28,1.23.44l1.07.38c.38.12.76.26,1.14.41l1.57.57c.82.31,1.65.62,2.49,1,.66.25,1.33.52,2,.8s1.07.45,1.6.69,1.21.54,1.82.82l.08,0h0a183.62,183.62,0,0,1,28.95,16.7c3,2.07,5.79,4.23,8.52,6.45Q379.54,473.87,383.77,477.88Z"/><path class="cls-7" d="M375.36,120.19s2.16-36.11-23.18-59.94l-3.72,14.18s-17.06-38-55.57-43.63l1.39,12s-50.19-21.11-90.43-12l19.86,14.78s-38.37,1.21-60.14,14.68c0,0,10.53,8.42,15.83,15.29-33.11,21.72-55.17,60.59-55.17,104.92l4.63,44.78,19.7-68.05s4.77-46.47,43.6-54.15c13.81-2.73,28,1.17,39.2,9.69a41.41,41.41,0,0,0,23.44,8.84v0h1.4v0a41.4,41.4,0,0,0,23.42-8.84c11.21-8.51,25.39-12.42,39.2-9.69,38.83,7.68,43.6,54.15,43.6,54.15l27.29,72.38.47-11.81v-37.3A128.63,128.63,0,0,0,375.36,120.19Z"/><path class="cls-10" d="M309.71,51.2c.76,8.75-.12,21.41-9,31a2.23,2.23,0,0,0,1.77,3.77c5.91-.41,14.59-1.64,19.38-5.23a2.25,2.25,0,0,1,3.47.93c1.2,3.13,2.69,8.22,2,13.06a2.24,2.24,0,0,0,4,1.65c4.28-5.23,7.87-14.57,2.54-30.14a2.24,2.24,0,0,0-3.92-.59l-.83,1.13a2.23,2.23,0,0,1-3.64-.06l-11.7-16.94A2.23,2.23,0,0,0,309.71,51.2Z"/><path class="cls-11" d="M383.77,477.88a255,255,0,0,1-101.25,32.77A261,261,0,0,1,256,512q-9.72,0-19.26-.72a254.28,254.28,0,0,1-107.15-32.63v-2.41c.93-.86,1.88-1.71,2.84-2.54.2-.16.41-.35.61-.52.91-.78,1.83-1.56,2.77-2.32q4.83-4,10.15-7.63a169.59,169.59,0,0,1,23.53-13.52,97.37,97.37,0,0,1,12.79-4.19c8.49-2.4,19-5.16,26.82-8.18V459.8l34.72,18.53c2.51,2.07,8.79,3.11,15.15,3.16h0c.59,0,1.17,0,1.74,0h0c6-.14,11.79-1.18,14.14-3.14l27.29-18.53V436.56h9.12c.58.31,1.17.61,1.76.88s1.32.63,2,.91,1.53.65,2.32,1c.41.15.8.31,1.23.46,1.85.71,3.81,1.4,5.82,2.1.41.14.82.28,1.23.44l1.07.38c.38.12.76.26,1.14.41l1.57.57c.82.31,1.65.62,2.49,1,.66.25,1.33.52,2,.8s1.07.45,1.6.69,1.21.54,1.82.82l.08,0h0a183.62,183.62,0,0,1,28.95,16.7c3,2.07,5.79,4.23,8.52,6.45Q379.54,473.87,383.77,477.88Z"/><path class="cls-9" d="M259.63,480.61l-.65.88h0l-22.23,29.79a254.11,254.11,0,0,1-31.94-4.41l-22.17-58.52a6,6,0,0,1,3-7.54l21.6-10.29a6,6,0,0,1,6.81,1.17l2.26,2.29h0C229.15,447.13,259.63,480.61,259.63,480.61Z"/><path class="cls-9" d="M337.43,447a5.61,5.61,0,0,1-.34,1.37L315.63,505a256,256,0,0,1-33.11,5.64l-21.78-29.18-.64-.86s28.64-31.46,42.07-45.37c1.06-1.1,2-2.09,2.88-2.95h0l.59-.59a6,6,0,0,1,6.81-1.17l21.6,10.29A6,6,0,0,1,337.43,447Z"/></g></svg>