<svg xmlns="http://www.w3.org/2000/svg" viewBox="0 0 512 512"><defs><style>.cls-1{fill:#a65c3b;}.cls-2{fill:#8c4a30;}.cls-3{fill:#db1b1b;}.cls-4{fill:#fff;}.cls-5{fill:#dddbdb;}.cls-6{fill:#bc1919;}.cls-7{fill:#fcc8bc;}.cls-8{fill:#fab3a7;}.cls-11,.cls-14,.cls-9{fill:none;stroke-linecap:round;stroke-miterlimit:10;stroke-width:7px;}.cls-9{stroke:#f7bb38;}.cls-10{fill:#27273d;}.cls-11{stroke:#27273d;}.cls-12{fill:#f58d89;}.cls-13{fill:#f6c752;}.cls-14{stroke:#f58d89;}.cls-15{fill:#f7bb38;}</style></defs><title>Avatar Users2</title><g id="BULINE"><circle class="cls-1" cx="256" cy="256" r="256"/></g><g id="Icons"><path class="cls-2" d="M484.77,371a257.07,257.07,0,0,1-90.85,100.7q-1.91,1.21-3.82,2.4l-2.29,1.39q-5.69,3.43-11.57,6.56c-1.13.61-2.27,1.2-3.41,1.78-2.75,1.43-5.53,2.79-8.35,4.11l-3.65,1.67q-5.94,2.67-12,5.05-7.64,3-15.51,5.46l-1.2.38q-5.08,1.58-10.25,2.95-5.94,1.57-12,2.87A258,258,0,0,1,278.51,511c-2.38.2-4.76.38-7.15.52-1.13.07-2.27.12-3.41.18q-3.06.13-6.15.2c-.81,0-1.63,0-2.44.05L256,512c-2.54,0-5.08,0-7.6-.12a256.25,256.25,0,0,1-28-2.34q-6-.84-12-2l-.86-.16q-8.46-1.62-16.71-3.79-6.1-1.61-12.08-3.5-4.72-1.5-9.35-3.17-6.08-2.16-12-4.66c-1.32-.55-2.64-1.12-4-1.69q-8.64-3.78-16.93-8.17l-.72-.38c-3.51-1.87-7-3.81-10.38-5.85q-2.91-1.71-5.78-3.53l-2.16-1.38A257.13,257.13,0,0,1,27.23,371a257.07,257.07,0,0,1,95-103.28c3-1.85,6.06-3.64,9.15-5.37a255.12,255.12,0,0,1,44.14-19.44c1.87-.62,3.74-1.21,5.63-1.78h0l.91-.27c.76-.24,1.53-.46,2.29-.68q4-1.17,8-2.19c4.11-1.05,8.26-2,12.45-2.85,2.45-.5,4.91-1,7.38-1.39a258.52,258.52,0,0,1,96.34,1.63q5.34,1.11,10.58,2.44c3.33.84,6.64,1.76,9.92,2.73l3.33,1c1.88.59,3.75,1.19,5.61,1.82q12,4.06,23.51,9.26A250.78,250.78,0,0,1,385.29,265c2.06,1.19,4.1,2.43,6.11,3.68A257.19,257.19,0,0,1,484.77,371Z"/><path class="cls-3" d="M387.81,475.49q-5.69,3.43-11.57,6.56c-1.13.61-2.27,1.2-3.41,1.78-2.75,1.43-5.53,2.79-8.35,4.11l-3.65,1.67q-5.94,2.67-12,5.05-7.64,3-15.51,5.46l-1.2.38q-5.08,1.58-10.25,2.95-5.94,1.57-12,2.87A258,258,0,0,1,278.51,511c-2.38.2-4.76.38-7.15.52-1.13.07-2.27.12-3.41.18q-3.06.13-6.15.2c-.81,0-1.63,0-2.44.05L256,512c-2.54,0-5.08,0-7.6-.12a256.25,256.25,0,0,1-28-2.34q-6-.84-12-2l-.86-.16q-8.46-1.62-16.71-3.79-6.1-1.61-12.08-3.5-4.72-1.5-9.35-3.17-6.08-2.16-12-4.66c-1.32-.55-2.64-1.12-4-1.69q-8.64-3.78-16.93-8.17l-.72-.38c-3.51-1.87-7-3.81-10.38-5.85a145.75,145.75,0,0,1,11.1-10.33c1.6-1.36,3.22-2.67,4.91-4h0a162.9,162.9,0,0,1,30.14-18.41,93.21,93.21,0,0,1,12.05-4h0l7.19-2,5.59-1.59h0l1.13-.34h0c3.44-1,6.84-2.06,10-3.14l1.93-.7h0c5.4-2,9.73-4.11,11.65-6.32a17.81,17.81,0,0,0,3.69-7.46s0,0,0,0c2.05-8.21.18-18.6.18-26.68,0-2.73,0-5.17-.09-7.3v0c-.21-7.87-.64-12-.24-14.4.72-4.23,4.11-2.94,16.12-7a14.2,14.2,0,0,1,1.79-.39h0c1.18-.18,2.79-.37,4.74-.57h0c6.72-.67,17.33-1.28,27.05-1.38,10.89-.09,20.68.45,22.7,2.34,2.88,2.69,3.44,8.11,3.05,14.58v0c-.18,3.33-.61,6.94-1.11,10.59v.07c-.77,5.84-1.67,11.8-1.91,16.92h0c-.22,4.1,0,7.65,1,10.24a28.29,28.29,0,0,0,8.33,11.92A39.11,39.11,0,0,0,317,432.84q2.2.87,4.54,1.71h0c3,1.07,6.13,2.14,9.42,3.4l1.14.44q2.71,1,5.54,2.35c3.88,1.8,7.59,3.68,11.17,5.63a170.72,170.72,0,0,1,25.78,17.13A157.53,157.53,0,0,1,387.81,475.49Z"/><path class="cls-4" d="M333.28,500.12l-1.2.38q-5.08,1.58-10.25,2.95-5.94,1.57-12,2.87A258,258,0,0,1,278.51,511c-2.38.2-4.76.38-7.15.52-1.13.07-2.27.12-3.41.18q-3.06.13-6.15.2c-.81,0-1.63,0-2.44.05L256,512c-2.54,0-5.08,0-7.6-.12a256.25,256.25,0,0,1-28-2.34q-6-.84-12-2l-.86-.16q-8.46-1.62-16.71-3.79-6.1-1.61-12.08-3.5Z"/><path class="cls-5" d="M278.51,387.33V511c-2.38.2-4.76.38-7.15.52-1.13.07-2.27.12-3.41.18q-3.06.13-6.15.2V387.33Z"/><path class="cls-5" d="M207.5,432.42v75q-8.46-1.62-16.71-3.79V437.49l5.59-1.59h0l1.14-.34h0C201,434.56,204.38,433.5,207.5,432.42Z"/><path class="cls-5" d="M136.48,465.87v16.56l-.72-.38c-3.51-1.87-7-3.81-10.38-5.85A145.75,145.75,0,0,1,136.48,465.87Z"/><path class="cls-5" d="M348.79,446.37v48.29q-7.64,3-15.51,5.46l-1.2.38V438.39q2.71,1,5.54,2.35C341.5,442.54,345.21,444.42,348.79,446.37Z"/><path class="cls-6" d="M258.33,492.92l-.11.22-3.66,7-.85,1.61-5.31,10.15a256.25,256.25,0,0,1-28-2.34q-6-.84-12-2l-.86-.16q-8.46-1.62-16.71-3.79-6.1-1.61-12.08-3.5-4.72-1.5-9.35-3.17-6.08-2.16-12-4.66c-1.32-.55-2.64-1.12-4-1.69a135.33,135.33,0,0,1-12-28.69c-.31-1.07-.6-2.11-.86-3.1A17,17,0,0,1,149,439.45l28.66-15.17,3.88-2,14.86,13.67h0l3.49,3.22h0l7.61,7,26.38,24.28,24.34,22.39Z"/><path class="cls-6" d="M375.9,458.81c-.39,1.47-.83,3-1.33,4.69a135.36,135.36,0,0,1-10.09,24.44l-3.65,1.67q-5.94,2.67-12,5.05-7.64,3-15.51,5.46l-1.2.38q-5.08,1.58-10.25,2.95-5.94,1.57-12,2.87A258,258,0,0,1,278.51,511c-2.38.2-4.76.38-7.15.52-1.13.07-2.27.12-3.41.18l-5.34-10.19-.74-1.42-.07-.14-3.58-6.84-.12-.22.12-.11,3.58-3.3,16.71-15.37,14.35-13.21,9.29-8.55,19.37-17.83,13.39-12.32,2.13,1.13,30.41,16.09A17,17,0,0,1,375.9,458.81Z"/><path class="cls-7" d="M385.33,175.85v86.38c0,64.44-51.28,85.08-88.68,117.86a57.51,57.51,0,0,1-76.64,0c-37.39-32.78-88.68-53.42-88.68-117.86V175.85c0-65,49.66-117.71,110.92-117.71h32.16C335.67,58.14,385.33,110.84,385.33,175.85Z"/><path class="cls-8" d="M182,262.24V175.85c0-61.69,44.71-112.31,101.65-117.29-3.06-.29-6.14-.42-9.27-.42H242.25c-61.26,0-110.91,52.71-110.91,117.71v42.76a25.42,25.42,0,1,0,0,50.83h.24C135.27,328.25,184,348.58,220,380.08a57.36,57.36,0,0,0,63.67,8.69,59.22,59.22,0,0,1-13-8.69C233.29,347.32,182,326.67,182,262.24Z"/><circle class="cls-7" cx="385.33" cy="244.03" r="25.42"/><path class="cls-9" d="M165.49,209.12s32-17.85,59.7,0"/><ellipse class="cls-10" cx="194.92" cy="240.96" rx="10.62" ry="15.28"/><path class="cls-9" d="M288.92,209.12s32-17.85,59.71,0"/><ellipse class="cls-10" cx="318.35" cy="240.96" rx="10.62" ry="15.28"/><rect class="cls-8" x="237.94" y="261.09" width="36.92" height="14" rx="6.42"/><path class="cls-11" d="M175.61,229.7s18.34-11.59,38.61,0"/><path class="cls-11" d="M299,229.7s18.34-11.59,38.62,0"/><path class="cls-12" d="M132.06,233.92a10.11,10.11,0,1,0,0,20.21Z"/><path class="cls-8" d="M385.33,254.13a10.11,10.11,0,1,0,0-20.21Z"/><path class="cls-13" d="M254,328.61c-54.22,64-122.39-59.18-122.39-59.18,7.88,51.45,53.55,188,75.13,217.46,14.42,19.68,82,19.92,98.41,0,23.42-28.44,72.32-165.89,80.21-217.47,0,0-75.11,120-124.57,59.17C259.31,326.82,255.46,326.85,254,328.61Z"/><path class="cls-13" d="M389.66,133.66c-1.29-27.85-30.74-52.21-30.74-52.21-31.14-31.14-70.68-34.21-89.57-33.63q-11,.33-22,0c-18.89-.58-58.43,2.49-89.56,33.63,0,0-29.45,24.36-30.74,52.21,0,0-3.23,69.67,5,120.47l6.35-49a43.39,43.39,0,0,1,6.33-17.57l24.14-38.32a22.87,22.87,0,0,1,19.35-10.68h140.2a22.86,22.86,0,0,1,19.35,10.68l24.14,38.32a43.39,43.39,0,0,1,6.33,17.57l6.35,49C392.88,203.33,389.66,133.66,389.66,133.66Z"/><line class="cls-14" x1="238.65" y1="302.15" x2="274.15" y2="302.15"/><line class="cls-14" x1="243.32" y1="316.08" x2="269.48" y2="316.08"/><path class="cls-13" d="M309,277.81a9.05,9.05,0,0,0-12.8,0,18.24,18.24,0,0,1-25.81,0,9.05,9.05,0,0,0-12.8,0,9.26,9.26,0,0,0-1.2,1.48,9.26,9.26,0,0,0-1.2-1.48,9.06,9.06,0,0,0-12.8,0,18.26,18.26,0,0,1-25.81,0,9.05,9.05,0,0,0-12.8,12.8,36.39,36.39,0,0,0,51.41,0,9.26,9.26,0,0,0,1.2-1.48,9.26,9.26,0,0,0,1.2,1.48,36.35,36.35,0,0,0,51.41,0A9.06,9.06,0,0,0,309,277.81Z"/><path class="cls-15" d="M182.72,373.7c6.86,22.91,22.62,61.55,56.67,94.84a2.18,2.18,0,0,1-2.51,3.5c-18.58-9.6-53.41-35.66-58.41-97.54A2.17,2.17,0,0,1,182.72,373.7Z"/><path class="cls-15" d="M330.11,373.7c-6.85,22.91-22.62,61.55-56.67,94.84A2.18,2.18,0,0,0,276,472c18.57-9.6,53.41-35.66,58.41-97.54A2.18,2.18,0,0,0,330.11,373.7Z"/><path class="cls-15" d="M225.56,371.26c.95,13.68,4.26,38,15.5,61.46a2.41,2.41,0,0,1-3.95,2.67c-11.24-12.24-25.88-35.08-16.27-64.66A2.42,2.42,0,0,1,225.56,371.26Z"/><path class="cls-15" d="M291.2,371.26c-.95,13.68-4.26,38-15.5,61.46a2.41,2.41,0,0,0,3.95,2.67c11.25-12.24,25.88-35.08,16.27-64.66A2.42,2.42,0,0,0,291.2,371.26Z"/><path class="cls-15" d="M242.49,361.39c.58,7.6,4.24,30.52,11.64,54.1a4.93,4.93,0,0,0,9.31.22c4.5-11.91,9.25-31.68,11-54.39a4.93,4.93,0,0,0-2.1-4.39c-4.57-3.21-15.49-8.74-27.87.15A4.82,4.82,0,0,0,242.49,361.39Z"/><path class="cls-6" d="M202.43,31.55H315A75.43,75.43,0,0,1,390.39,107v0a0,0,0,0,1,0,0H127a0,0,0,0,1,0,0v0A75.43,75.43,0,0,1,202.43,31.55Z"/><path class="cls-3" d="M388.51,100.11q-129.81-62.65-259.62,0a17.25,17.25,0,0,0-9.7,15.57v73.25a17.32,17.32,0,0,0,25.19,15.46q114.32-59.16,228.64,0a17.32,17.32,0,0,0,25.19-15.46V115.68A17.27,17.27,0,0,0,388.51,100.11Z"/><rect class="cls-6" x="137.84" y="102.8" width="23.31" height="85.64" rx="11.65"/><rect class="cls-6" x="181.52" y="84.93" width="23.31" height="85.64" rx="11.65"/><rect class="cls-6" x="225.2" y="78.43" width="23.31" height="85.64" rx="11.65"/><rect class="cls-6" x="268.88" y="78.43" width="23.31" height="85.64" rx="11.65"/><rect class="cls-6" x="312.56" y="84.93" width="23.31" height="85.64" rx="11.65"/><rect class="cls-6" x="356.24" y="102.8" width="23.31" height="85.64" rx="11.65"/></g></svg>