<svg xmlns="http://www.w3.org/2000/svg" viewBox="0 0 512 512"><defs><style>.cls-1{fill:#27273d;}.cls-2{fill:#363651;}.cls-3{fill:#7f3726;}.cls-4{fill:#fab3a7;}.cls-5{fill:#f58d89;}.cls-6{fill:none;stroke:#27273d;stroke-linecap:round;stroke-miterlimit:10;stroke-width:7px;}.cls-7{fill:#e07e7e;}.cls-8{fill:#d54545;}.cls-9{fill:#c11e1e;}.cls-10{fill:#9e4830;}.cls-11{fill:#a65c3b;}.cls-12{fill:#bc6f50;}.cls-13{fill:#fff;}.cls-14{fill:#db1b1b;}.cls-15{fill:#c11a1a;}</style></defs><title>Avatar Users2</title><g id="BULINE"><circle class="cls-1" cx="256" cy="256" r="256"/></g><g id="Icons"><path class="cls-2" d="M484.77,371a257.11,257.11,0,0,1-80.7,93.85l-2.52,1.77-1.12.77c-1.13.77-2.27,1.54-3.41,2.29-2.28,1.51-4.59,3-6.92,4.42a256.58,256.58,0,0,1-30.68,16.14,253.59,253.59,0,0,1-67.49,19.25c-3.69.53-7.42,1-11.16,1.32a3,3,0,0,1-.42,0q-5.16.5-10.36.78l-2.79.13-2,.08q-4.57.17-9.18.16c-1.74,0-3.48,0-5.21-.05-1,0-2.09-.05-3.13-.09q-.51,0-1,0l-2-.08-.53,0c-1.42-.06-2.85-.14-4.27-.23s-2.84-.19-4.25-.3h-.17l-3-.26c-.31,0-.61-.05-.91-.09q-4-.36-7.89-.87a254.85,254.85,0,0,1-104-37.3q-4.81-3-9.47-6.28l-.21-.15-2.24-1.58-1.14-.82A257,257,0,0,1,27.23,371a257.28,257.28,0,0,1,96.35-104.15c2.3-1.39,4.61-2.74,7-4.06h0q2-1.11,4-2.19h0q5.56-3,11.3-5.76,6-2.87,12.25-5.45l1-.42,1.28-.51h0c1.41-.57,2.82-1.12,4.24-1.67l2.44-.92c1.22-.45,2.44-.9,3.68-1.33h0l1-.36c3-1,6-2,9-2.95h0l1.87-.56q3-.89,5.95-1.7l1-.27q5.52-1.47,11.12-2.7c1.26-.28,2.52-.54,3.78-.8q4.28-.88,8.6-1.6,11.55-2,23.42-2.85h0q6.36-.48,12.8-.65,3.31-.08,6.64-.08a257.66,257.66,0,0,1,26.64,1.37q11.55,1.19,22.78,3.4,2.93.57,5.82,1.21,5.29,1.16,10.51,2.54,1.65.43,3.3.9,5.51,1.54,10.89,3.31c2.63.87,5.25,1.77,7.84,2.72q.9.31,1.8.66l.57.21a0,0,0,0,0,0,0q6.54,2.46,12.92,5.27c2.53,1.12,5.05,2.27,7.53,3.47q2.33,1.11,4.6,2.26c2.28,1.15,4.55,2.34,6.79,3.56q4.08,2.21,8.06,4.57c.91.54,1.83,1.08,2.73,1.64q10.36,6.3,20,13.53c1.44,1.07,2.87,2.15,4.28,3.26A257,257,0,0,1,484.77,371Z"/><path class="cls-3" d="M343.59,244.23s5.89,43.14,33.86,88.29c0,0,13.72,13.16,12.43,40.18a1.52,1.52,0,0,0,3,.28,81.43,81.43,0,0,0,.24-21.08,93.48,93.48,0,0,0-13.8-38.81c-6.45-10.38-15.24-28.49-12.84-47.22Z"/><path class="cls-3" d="M167.36,244.23s-5.88,43.14-33.85,88.29c0,0-13.72,13.16-12.43,40.18a1.52,1.52,0,0,1-3,.28,81.43,81.43,0,0,1-.24-21.08,93.34,93.34,0,0,1,13.8-38.81c6.45-10.38,15.24-28.49,12.84-47.22Z"/><path class="cls-3" d="M393.15,199.53s-2.09,32,11.46,68.62c0,0,8,11.5,3.07,30.79a1.12,1.12,0,0,0,2.13.65,59.82,59.82,0,0,0,3.27-15.16,68.6,68.6,0,0,0-4.26-30c-3.12-8.43-6.81-22.78-2.33-35.93Z"/><path class="cls-3" d="M352.08,401.5c32.52-11.26,22.34-31.63,22.34-31.63-15.27,25.64-26.61,0-26.61,0,26.5-9.4,18.16-25,18.16-25-36.25,32.26-24.48-42.37-24.48-42.37H166.79s11.77,74.63-24.48,42.37c0,0-8.34,15.6,18.16,25,0,0-11.35,25.64-26.61,0,0,0-10.19,20.37,22.34,31.63,0,0-6,25.21-38.47,16.45,0,0,17.77,90.07,138.46,84.52C376.89,508,390.55,418,390.55,418,358.07,426.71,352.08,401.5,352.08,401.5Z"/><path class="cls-4" d="M397,469.68c-2.28,1.51-4.59,3-6.92,4.42a256.58,256.58,0,0,1-30.68,16.14,253.59,253.59,0,0,1-67.49,19.25c-3.69.53-7.42,1-11.16,1.32a3,3,0,0,1-.42,0q-5.16.5-10.36.78l-2.79.13-2,.08q-4.57.17-9.18.16c-1.74,0-3.48,0-5.21-.05-1,0-2.09-.05-3.13-.09q-.51,0-1,0l-2-.08-.53,0c-1.42-.06-2.85-.14-4.27-.23s-2.84-.19-4.25-.3h-.17l-3-.26c-.31,0-.61-.05-.91-.09q-4-.36-7.89-.87a254.85,254.85,0,0,1-104-37.3q-4.81-3-9.47-6.28l-.21-.15a150.32,150.32,0,0,1,14.9-17.14c1.2-1.19,2.41-2.35,3.66-3.5l.17-.15.41-.37a157.39,157.39,0,0,1,39-25.95,31.49,31.49,0,0,1,3-1.19l.92-.32c.59-.19,1.22-.41,1.87-.61s1.55-.48,2.38-.72h0c1.79-.54,3.76-1.1,5.82-1.67l.53-.15.2-.05,2.1-.59c7-1.95,14.74-4.12,21-6.45.88-.32,1.73-.66,2.54-1,3.91-1.6,7-3.29,8.5-5a18,18,0,0,0,3.82-8.28s0,0,0,0v0a35.94,35.94,0,0,0,.71-6.84c.15-6.26-.73-12.9-.73-18.45,0-1.56,0-3,0-4.36v0c-.4-24.89-3.73-17.42,15.59-23.9a14.81,14.81,0,0,1,2.19-.43h0c10.4-1.56,49.06-3.5,53.27.43,3.94,3.68,3.46,12.53,2.27,22.12-1.08,8.69-2.74,18-2.24,24.65a17,17,0,0,0,1,4.88A27.35,27.35,0,0,0,306,406.17c.54.3,1.09.57,1.63.83,5.24,2.56,11.35,4.3,17.94,6.85l1,.37c.89.36,1.8.73,2.69,1.12l2.47,1.09c.2.1.41.19.61.31,2,.93,4,1.91,5.94,2.92l1,.53.6.3a165.49,165.49,0,0,1,37,26.06c.45.42.88.83,1.32,1.27l.44.43q5,4.85,9.47,10Q392.88,463.81,397,469.68Z"/><path class="cls-4" d="M378.7,165.31v83.27c0,62.12-49.44,82-85.48,113.6a55.45,55.45,0,0,1-73.89,0c-36-31.59-85.47-51.48-85.47-113.6V165.31c0-.27,0-.56,0-.83.29-43.46,23.61-81.1,57.66-99.88,1.09-.62,30-12,44.81-12.64,1.47-.08,2.95-.11,4.43-.11h31a102.77,102.77,0,0,1,68,25.89,107.58,107.58,0,0,1,8.19,8A116.36,116.36,0,0,1,378.53,159h0C378.64,161.09,378.7,163.19,378.7,165.31Z"/><path class="cls-5" d="M182.71,248.58V165.31c0-59.46,43.1-108.25,98-113-2.95-.28-5.92-.41-8.94-.41h-31c-59.06,0-106.92,50.81-106.92,113.46v41.22a24.5,24.5,0,0,0,0,49h.24c3.55,56.7,50.57,76.29,85.22,106.65a55.3,55.3,0,0,0,61.38,8.38,57.21,57.21,0,0,1-12.52-8.38C232.14,330.6,182.71,310.7,182.71,248.58Z"/><circle class="cls-4" cx="378.69" cy="231.03" r="24.5"/><path class="cls-6" d="M166.79,192.25s30.88-17.2,57.54,0"/><path class="cls-6" d="M285.76,192.25s30.88-17.2,57.55,0"/><rect class="cls-5" x="237.98" y="255.53" width="35.59" height="13.49" rx="6.19"/><path class="cls-7" d="M134.56,221.29a9.75,9.75,0,0,0,0,19.49Z"/><path class="cls-5" d="M378.69,240.78a9.75,9.75,0,0,0,0-19.49Z"/><ellipse class="cls-1" cx="195.56" cy="228.08" rx="10.24" ry="14.73"/><path class="cls-6" d="M177,217.22s17.68-11.17,37.22,0"/><ellipse class="cls-1" cx="314.54" cy="228.08" rx="10.24" ry="14.73"/><path class="cls-6" d="M295.93,217.22s17.67-11.17,37.22,0"/><path class="cls-8" d="M256.28,289.63c-17.4-2.82-32.55,8.47-32.55,8.47,0,9,14.57,17.72,32.55,17.72h0c18,0,32.54-8.73,32.54-17.72C288.82,298.1,273.67,286.81,256.28,289.63Z"/><path class="cls-9" d="M279.43,298.87H240.05a5.89,5.89,0,0,1,2.73-3.36,49.22,49.22,0,0,1,20.94-6.28,34.89,34.89,0,0,0-7.44.4c-17.39-2.82-32.55,8.47-32.55,8.47,0,9,14.57,17.72,32.55,17.72a56.26,56.26,0,0,0,7.46-.51c-10.46-1.44-19-5.81-22.85-11a6,6,0,0,1-.87-1.77h39.41a1.82,1.82,0,1,0,0-3.63Z"/><path class="cls-10" d="M321.18,116.84s-68.25-18-106.78,19.62V100.81L256.47,74.1h32.35Z"/><path class="cls-10" d="M177.79,221.61c9.37-13.12,17.71-31.44,19.87-56.32l-96.17,77.52s-55.27,79.61,49.76,76.31c0,0-59.94-34.52-5.31-69.2a72.64,72.64,0,0,0,14.91-10c-3.7,18.47-20.73,43.36-20.73,43.36C165.12,268.71,173.43,239.5,177.79,221.61Z"/><path class="cls-11" d="M437.44,206.53s3.41-47.8-24.79-26.43c0,0-13.08-158.29-69.34-124.81-62.17-63.57-142.91-15.89-162.13-3-2.88,1.94-5.81,3.8-8.77,5.62-68.5,42.18-63,148.6-63,148.6C107,191,98.3,191,91.48,193.7a26.35,26.35,0,0,0-12.1,9.83c-16.67,24.72-8.93,36.68.87,42.41A30.59,30.59,0,0,0,106.1,248c63.45-23.06,103.61-100.67,114.58-124.28a78.77,78.77,0,0,1,11.88-18.62c44.23-50.89,88.62,11.74,88.62,11.74s19.24-6.49,25.84,13.24a29.44,29.44,0,0,1,1.43,9.41c0,13.63,3.72,69.54,65.05,91.54C413.5,231,445.13,239,437.44,206.53Z"/><path class="cls-10" d="M359.6,185.44S358.4,229,378.69,278c0,0,11.4,15.22,5.75,41.67a1.52,1.52,0,0,0,2.93.77A81.51,81.51,0,0,0,391,299.72a93.46,93.46,0,0,0-7.33-40.54c-4.68-11.29-10.42-30.58-5-48.68Z"/><path class="cls-12" d="M343.94,63.77c.93,10.66-.14,26.11-11,37.74a2.73,2.73,0,0,0,2.15,4.61c7.22-.51,17.8-2,23.64-6.38a2.74,2.74,0,0,1,4.23,1.14c1.47,3.81,3.29,10,2.5,15.92a2.73,2.73,0,0,0,4.85,2c5.22-6.37,9.61-17.75,3.1-36.74a2.73,2.73,0,0,0-4.78-.72l-1,1.37a2.73,2.73,0,0,1-4.44-.06L348.9,62A2.72,2.72,0,0,0,343.94,63.77Z"/><circle class="cls-13" cx="133.86" cy="259.25" r="12.79"/><circle class="cls-13" cx="378.7" cy="259.25" r="12.79"/><path class="cls-13" d="M290.1,470.52a.72.72,0,0,1,0,.14v0A201.25,201.25,0,0,1,283.49,502c-.81,2.82-1.71,5.75-2.72,8.77a3,3,0,0,1-.42,0q-5.16.5-10.36.78l-2.79.13-2,.08q-4.57.17-9.18.16c-1.74,0-3.48,0-5.21-.05-1,0-2.09-.05-3.13-.09q-.51,0-1,0l-2-.08-.53,0c-1.42-.06-2.85-.14-4.27-.23s-2.84-.19-4.25-.3h-.17l-3-.26c-.31,0-.61-.05-.91-.09-.94-2.82-1.85-5.76-2.7-8.8a193.09,193.09,0,0,1-6.08-31.52Z"/><path class="cls-14" d="M219.84,501.3l3.78,8.67a254.85,254.85,0,0,1-104-37.3q-4.81-3-9.47-6.28l-.21-.15-2.24-1.58-1.14-.82a153.11,153.11,0,0,1,16-18.52c1.22-1.21,2.45-2.39,3.72-3.57l.17-.15.1-.09.37-.33a160.8,160.8,0,0,1,39.66-26.37c.84-.39,1.85-.79,3-1.21.3-.11.62-.21.94-.34.6-.19,1.24-.41,1.91-.61s1.58-.49,2.42-.73c1.67-.5,3.47-1,5.37-1.56h0l.55-.15,1.81,4.26L205,467.14l13.62,31.25,1.16,2.65Z"/><path class="cls-14" d="M400.43,467.39c-1.13.77-2.27,1.54-3.41,2.29-2.28,1.51-4.59,3-6.92,4.42a256.58,256.58,0,0,1-30.68,16.14,253.59,253.59,0,0,1-67.49,19.25l1.91-8.63.07-.32.63-2.82,10.71-48.43,20.31-35.44,2.32-4c.9.36,1.82.75,2.74,1.13s1.67.73,2.5,1.12c.21.1.43.19.63.3l.21.11h0c2,.92,3.92,1.87,5.81,2.86l1.07.54.61.32a168,168,0,0,1,37.69,26.53c.45.41.88.82,1.3,1.24l0,0,.35.35q5.17,5,9.74,10.32A160.5,160.5,0,0,1,400.43,467.39Z"/><path class="cls-15" d="M229.7,502.11q1.32,4.59,2.72,8.82c-.31,0-.61-.05-.91-.09q-4-.36-7.89-.87a254,254,0,0,1-70.81-19.63l17.3-5.29,23.76-7.26-27.08-17.31c-.88-19.24,3.18-33.56,9.43-44.19a59,59,0,0,1,4-5.93c16.21-21.28,41.22-24.24,41.22-24.24q-.39,3.45-.71,6.84v0a.43.43,0,0,0,0,.05,310.88,310.88,0,0,0,2,77.48A259.22,259.22,0,0,0,229.7,502.11Z"/><path class="cls-15" d="M359.42,490.24a253.59,253.59,0,0,1-67.49,19.25c-3.69.53-7.42,1-11.16,1.32a3,3,0,0,1-.42,0q1.41-4.2,2.73-8.78a258.11,258.11,0,0,0,7-31.37v0a.68.68,0,0,0,0-.14c3.76-23.6,5.07-51.77,1.37-84.4l.28,0c2.87.41,27.18,4.51,42.23,26.32a61.47,61.47,0,0,1,4.25,7.18c5.15,10.24,8.32,23.54,7.53,40.82l-27.08,17.31,23,7Z"/></g></svg>