<svg xmlns="http://www.w3.org/2000/svg" viewBox="0 0 512 512"><defs><style>.cls-1{fill:#00b564;}.cls-2{fill:#009b51;}.cls-3{fill:#9e4830;}.cls-4{fill:#d38363;}.cls-5{fill:#bc7258;}.cls-6{fill:none;stroke:#27273d;stroke-linecap:round;stroke-miterlimit:10;stroke-width:7px;}.cls-7{fill:#ad6853;}.cls-8{fill:#27273d;}.cls-9{fill:#fff;}.cls-10{fill:#db1b1b;}.cls-11{fill:#e8e8e8;}.cls-12{fill:#32314b;}.cls-13{fill:#a65c3b;}</style></defs><title>Avatar Users2</title><g id="BULINE"><circle class="cls-1" cx="256" cy="256" r="256"/></g><g id="Icons"><path class="cls-2" d="M484.77,371a257.1,257.1,0,0,1-91,100.79c-1.22.78-2.45,1.55-3.68,2.31s-2.37,1.45-3.57,2.15a256.18,256.18,0,0,1-266.93-3.58l-.83-.53-2.4-1.54A257.21,257.21,0,0,1,27.23,371a257.15,257.15,0,0,1,94.5-103q1.74-1.1,3.51-2.13,5.25-3.13,10.65-6l.35-.18q7.69-4.1,15.71-7.66a252,252,0,0,1,24.93-9.57h0q3.36-1.1,6.76-2.09c1.12-.33,2.24-.66,3.37-1q7.54-2.11,15.29-3.76c2.18-.47,4.38-.91,6.58-1.32l1.49-.27a258.61,258.61,0,0,1,87.69-.6c2.44.4,4.86.83,7.28,1.31q7,1.37,13.85,3.11,10,2.53,19.69,5.85,5.67,1.93,11.22,4.14,8.14,3.21,16,7,3.9,1.86,7.72,3.85l2.79,1.47c2.21,1.19,4.41,2.4,6.58,3.66,2,1.14,4,2.32,6,3.52A257.29,257.29,0,0,1,484.77,371Z"/><path class="cls-3" d="M420,259a35.25,35.25,0,0,0,3.89-65.68,28.28,28.28,0,0,0-7.07-48.67,22,22,0,0,0-15.23-35.54,27.92,27.92,0,0,0,.73-6.38,28.27,28.27,0,0,0-34.57-27.58,22,22,0,0,0-30.15-20.31A29.82,29.82,0,0,0,291,37.67a24.83,24.83,0,0,0-46.1-2,21.94,21.94,0,0,0-21,4.52,29.81,29.81,0,0,0-49.54,14.67,22,22,0,0,0-30.15,20.31,28.27,28.27,0,0,0-34.57,27.58,27.92,27.92,0,0,0,.73,6.38A22,22,0,0,0,95.2,144.65a28.28,28.28,0,0,0-7.07,48.67A35.25,35.25,0,0,0,92,259a35.25,35.25,0,0,0,20.45,64c1,0,2.08-.06,3.1-.14a36,36,0,0,0-.29,4.43,35.25,35.25,0,0,0,52.29,30.87,28.61,28.61,0,0,0-.25,3.73,28.29,28.29,0,0,0,56.41,3.07,163.27,163.27,0,0,0,64.53-.1,28.29,28.29,0,0,0,56.42-3,28.61,28.61,0,0,0-.25-3.73,35.25,35.25,0,0,0,52.29-30.87,36,36,0,0,0-.29-4.43c1,.08,2.06.14,3.1.14A35.25,35.25,0,0,0,420,259Z"/><path class="cls-4" d="M386.53,476.25a256.18,256.18,0,0,1-266.93-3.58l-.83-.53A142.91,142.91,0,0,1,140.1,451.7a157.28,157.28,0,0,1,29.2-17.89c.34-.16.72-.33,1.14-.48l.34-.15c.33-.12.67-.26,1-.38a8.48,8.48,0,0,1,.93-.33l1.26-.42,1.68-.54,2-.59q2.91-.87,6.23-1.78c3.74-1,7.77-2.16,11.7-3.33a134.49,134.49,0,0,0,12.79-4.37h.06a42.08,42.08,0,0,0,4.16-1.94h0a20.56,20.56,0,0,0,2.73-1.73,10,10,0,0,0,1.32-1.23c4.25-4.93,4.67-12.24,4.37-19.57h0c-.18-4.56-.66-9.11-.66-13.09,0-2.39,0-4.5-.06-6.42h0c0-.58,0-1.14-.06-1.68h0c-.6-19.48-2.46-13.39,15.23-19.31a32.28,32.28,0,0,1,4.59-.74c12.66-1.42,45.43-2.82,49.24.74,3.51,3.29,3.4,10.85,2.45,19.3v0a.06.06,0,0,1,0,0h0c-.83,7.38-2.26,15.42-2.47,21.94v0a23.15,23.15,0,0,0,1,8.81,27.64,27.64,0,0,0,6.7,10.27,28.14,28.14,0,0,0,3.08,2.51,33.44,33.44,0,0,0,3.52,2.11l.05,0h0c6.66,3.49,14.8,5.34,23.62,9.35l.83.37c.75.35,1.5.69,2.22,1.06.14.07.29.13.42.21,3.51,1.68,6.88,3.46,10.15,5.29a162.72,162.72,0,0,1,21.76,14.6A148.2,148.2,0,0,1,386.53,476.25Z"/><path class="cls-4" d="M373.86,185.4v80.81c0,60.29-48,79.6-82.95,110.26a53.84,53.84,0,0,1-71.72,0c-35-30.66-82.95-50-82.95-110.26V185.4c0-2.73.09-5.45.28-8.14C140.34,121.75,183,77.65,235.7,75.38c1.43-.07,2.87-.1,4.31-.1h30.08c56,0,101.67,47.11,103.69,106C373.84,182.67,373.86,184,373.86,185.4Z"/><path class="cls-5" d="M183.66,266.22V185.4c0-57.71,41.83-105.07,95.09-109.73-2.85-.27-5.74-.39-8.67-.39H240c-57.32,0-103.77,49.31-103.77,110.12v40a23.78,23.78,0,0,0,0,47.55h.23c3.45,55,49.08,74,82.72,103.51a53.62,53.62,0,0,0,59.56,8.13,55.37,55.37,0,0,1-12.15-8.13C231.63,345.82,183.66,326.5,183.66,266.22Z"/><circle class="cls-4" cx="373.86" cy="249.18" r="23.78"/><path class="cls-6" d="M168.2,210.22s30-16.69,55.85,0"/><path class="cls-6" d="M283.67,210.22s30-16.69,55.85,0"/><rect class="cls-5" x="238.47" y="272.96" width="34.54" height="13.1" rx="6"/><path class="cls-7" d="M136.92,239.73a9.46,9.46,0,0,0,0,18.91Z"/><path class="cls-5" d="M373.86,258.64a9.46,9.46,0,1,0,0-18.91Z"/><ellipse class="cls-8" cx="195.73" cy="246.32" rx="9.93" ry="14.3"/><ellipse class="cls-8" cx="311.2" cy="246.32" rx="9.93" ry="14.3"/><path class="cls-6" d="M177.66,235.78s17.16-10.84,36.13,0"/><path class="cls-6" d="M293.14,235.78s17.16-10.84,36.12,0"/><path class="cls-3" d="M387.76,179.08a18.83,18.83,0,0,0-12.36-17.53,23.52,23.52,0,0,0-18.83-37.66h-.2A35.45,35.45,0,0,0,332.6,94.13a28.28,28.28,0,0,0-52.47-18.78,28.28,28.28,0,0,0-7.11-.91c-.3,0-.6,0-.9,0a28.29,28.29,0,0,0-48.37-11.89c-17-4.12-45.93,8.13-71.73,31.83-31.62,29-46.52,64.27-33.28,78.69a18.27,18.27,0,0,0,8.88,5.17A24.17,24.17,0,1,0,158.2,197.5a18.88,18.88,0,0,0,12.58-10.42,28.29,28.29,0,0,0,42.92-28.6,35.42,35.42,0,0,0,52.83-28.21A28.39,28.39,0,0,0,273,131a28.1,28.1,0,0,0,12.68-3,35.44,35.44,0,0,0,50.75,31.61,23.52,23.52,0,0,0,15.75,11A18.75,18.75,0,0,0,356.06,193a24,24,0,1,0,31.7-13.89Z"/><path class="cls-9" d="M226.5,305.09c0,15.58,13.77,30.72,30.76,30.72h0c17,0,28.41-15.14,28.41-30.72Z"/><path class="cls-10" d="M286.77,305.09a35.27,35.27,0,0,1-9,23.12c-5.56,6.24-13.26,10.36-21.75,10.36-17,0-30.77-16.49-30.77-33.48H227c4.25,12.61,15.62,22.81,29,22.81,8.49,0,16.19-4.12,21.75-10.38A36,36,0,0,0,285,305.09Z"/><path class="cls-10" d="M256,297.08c-16.44-2.67-30.76,8-30.76,8h61.52S272.44,294.41,256,297.08Z"/><path class="cls-9" d="M296.07,396a13.84,13.84,0,0,0-13.39,10.35,13.84,13.84,0,0,0-26.79,0,13.84,13.84,0,0,0-26.67-.42,13.86,13.86,0,1,0,0,7.86,13.84,13.84,0,0,0,26.67-.42,13.84,13.84,0,0,0,26.79,0A13.85,13.85,0,1,0,296.07,396Z"/><path class="cls-11" d="M310,409.82a13.84,13.84,0,0,1-27.24,3.5,13.85,13.85,0,0,1-26.8,0,13.84,13.84,0,0,1-26.67.43,13.85,13.85,0,0,1-27.14-3.93,11.85,11.85,0,0,1,.14-1.89,13.85,13.85,0,0,0,27,2,13.84,13.84,0,0,0,26.67-.43,13.85,13.85,0,0,0,26.8,0,13.83,13.83,0,0,0,27.1-1.61A11.85,11.85,0,0,1,310,409.82Z"/><path class="cls-12" d="M386.53,476.25a256.18,256.18,0,0,1-266.93-3.58l-.83-.53A142.91,142.91,0,0,1,140.1,451.7c30.77,29,115.05,88.42,222.55.66A148.2,148.2,0,0,1,386.53,476.25Z"/><circle class="cls-9" cx="136.24" cy="272.96" r="13.1"/><circle class="cls-9" cx="373.86" cy="272.96" r="13.1"/><path class="cls-13" d="M327.34,84.28c1.09,12.41-.17,30.4-12.84,43.95a3.18,3.18,0,0,0,2.52,5.36c8.4-.59,20.72-2.34,27.52-7.43a3.19,3.19,0,0,1,4.92,1.32c1.71,4.44,3.83,11.66,2.92,18.54a3.17,3.17,0,0,0,5.64,2.34c6.08-7.43,11.18-20.68,3.61-42.79a3.18,3.18,0,0,0-5.57-.83l-1.17,1.59a3.19,3.19,0,0,1-5.18-.07L333.11,82.2A3.17,3.17,0,0,0,327.34,84.28Z"/></g></svg>