<svg xmlns="http://www.w3.org/2000/svg" viewBox="0 0 512 512"><defs><style>.cls-1{fill:#fc4581;}.cls-2{fill:#e03b77;}.cls-3{fill:#fcc8bc;}.cls-4{fill:#fab3a7;}.cls-5{fill:none;stroke:#27273d;stroke-linecap:round;stroke-miterlimit:10;stroke-width:7px;}.cls-6{fill:#f58d89;}.cls-7{fill:#27273d;}.cls-8{fill:#a65c3b;}.cls-9{fill:#fff;}.cls-10{fill:#366fca;}.cls-11{fill:#f9d8d2;}.cls-12{fill:#9e4830;}</style></defs><title>Avatar Users2</title><g id="BULINE"><circle class="cls-1" cx="256" cy="256" r="256"/></g><g id="Icons"><path class="cls-2" d="M484.77,371a257,257,0,0,1-88.48,99.16c-2,1.34-4.11,2.66-6.19,3.94a256.19,256.19,0,0,1-270.5-1.43q-5.71-3.6-11.22-7.5A257,257,0,0,1,27.23,371a257.08,257.08,0,0,1,99.13-105.8l.81-.48,0,0c3.53-2.06,7.13-4,10.77-5.94A254.57,254.57,0,0,1,256,230a257,257,0,0,1,56.07,6.16c1.44.32,2.87.65,4.29,1a254.06,254.06,0,0,1,57.25,21.4q4.49,2.32,8.85,4.81l2.67,1.54A257.22,257.22,0,0,1,484.77,371Z"/><path class="cls-3" d="M396.29,470.16c-2,1.34-4.11,2.66-6.19,3.94a256.19,256.19,0,0,1-270.5-1.43q-5.71-3.6-11.22-7.5A155,155,0,0,1,119.32,454q4.75-4.4,10-8.47a171.12,171.12,0,0,1,31.85-19.5c.37-.18.78-.36,1.25-.54l.37-.15c.35-.13.73-.29,1.12-.42s.66-.25,1-.36.88-.3,1.38-.45l1.82-.6,2.18-.64c2-.61,4.26-1.22,6.59-1.88a1.52,1.52,0,0,1,.2-.06l2.83-.78,2.58-.73c2.43-.67,4.91-1.39,7.34-2.12,9-2.66,17.41-5.63,21.54-8.79a9,9,0,0,0,1.44-1.35,17.78,17.78,0,0,0,3.5-6.56,40,40,0,0,0,1.35-12.27c-.08-4.89-.59-9.89-.75-14.38,0-.82,0-1.62,0-2.4,0-2.62,0-4.93-.09-7h0c-.23-9.67-.83-14.13-.06-16.5s2.81-2.64,7.83-3.87c2.27-.56,5.15-1.31,8.78-2.53a34.4,34.4,0,0,1,5-.81h0c12.31-1.37,42.06-2.75,51.29-.27a5.87,5.87,0,0,1,2.39,1.08c1.64,1.54,2.56,3.93,3,6.89.58,3.94.28,8.89-.31,14.17-.49,4.41-1.18,9-1.75,13.5a89.09,89.09,0,0,0-1,13.65,20.08,20.08,0,0,0,1.11,6.47,34.31,34.31,0,0,0,1.91,4.13,27.77,27.77,0,0,0,5.39,7.07c6.72,6.38,15.88,8.58,26.27,12.5,2,.74,4,1.55,6.09,2.48l.66.29.91.4c.81.39,1.62.77,2.42,1.17a4.71,4.71,0,0,1,.45.22q5.73,2.76,11.08,5.77A177.62,177.62,0,0,1,372,446.29c3.44,2.73,6.73,5.58,9.85,8.51A158.63,158.63,0,0,1,396.29,470.16Z"/><path class="cls-3" d="M384.26,155.15v88.13c0,65.75-52.33,86.81-90.47,120.25a58.73,58.73,0,0,1-78.22,0C177.43,330.09,125.1,309,125.1,243.28V155.15c0-3,.1-6,.31-8.88,4.16-60.54,50.64-108.64,108.17-111.11,1.55-.08,3.13-.11,4.7-.11h32.8c61.1,0,110.88,51.38,113.08,115.63C384.23,152.17,384.26,153.65,384.26,155.15Z"/><path class="cls-4" d="M176.81,243.29V155.15c0-62.94,45.63-114.59,103.72-119.67-3.12-.3-6.27-.43-9.46-.43h-32.8c-62.5,0-113.16,53.78-113.16,120.1v43.63a25.93,25.93,0,1,0,0,51.86h.25c3.76,60,53.52,80.75,90.21,112.89,18.58,16.3,43.92,19.27,65,8.87a60.31,60.31,0,0,1-13.25-8.87C229.13,330.1,176.81,309,176.81,243.29Z"/><circle class="cls-3" cx="384.25" cy="224.71" r="25.93"/><path class="cls-5" d="M160,182.22s32.68-18.21,60.91,0"/><path class="cls-5" d="M285.89,182.22s32.69-18.21,60.91,0"/><rect class="cls-4" x="236.6" y="250.64" width="37.67" height="14.28" rx="6.55"/><path class="cls-6" d="M125.85,214.39a10.32,10.32,0,1,0,0,20.63Z"/><path class="cls-4" d="M384.26,235a10.32,10.32,0,0,0,0-20.63Z"/><ellipse class="cls-7" cx="189.98" cy="221.58" rx="10.83" ry="15.59"/><ellipse class="cls-7" cx="315.91" cy="221.58" rx="10.83" ry="15.59"/><path class="cls-5" d="M170.28,210.09s18.71-11.82,39.4,0"/><path class="cls-5" d="M296.21,210.09s18.72-11.82,39.4,0"/><path class="cls-8" d="M386.1,214.56q-.42-5.64-1.09-11.48s.08,4.41-.51,11.31q-.11,1.22-.24,2.55a143.41,143.41,0,0,1-7.06,32.72c-1.05,3-2.24,6-3.59,8.9-6.4,13.91-16.4,26.77-32,33.48A25.62,25.62,0,0,1,314,287.33c-7.68-7.19-24-16.16-58-18.07v0l-.31,0-.31,0v0c-34,1.91-50.31,10.88-58,18.07a25.15,25.15,0,0,1-8,5.06,25.77,25.77,0,0,1-19.53-.35c-15.52-6.67-25.5-19.44-31.9-33.27-12-26-11.5-55.69-11.5-55.69q-.66,5.76-1.08,11.32c-.11,1.45-.21,2.88-.3,4.31q-.52,8.34-.53,16.23,0,8.07.44,15.7c.3,5,.76,9.86,1.35,14.57,9.59,76.26,55.47,116.17,90,135.43A163.46,163.46,0,0,0,251,415.38a16.68,16.68,0,0,0,8.92,0A164.6,164.6,0,0,0,295,400.47c34.64-19.37,80.56-59.35,90.1-135.56q.89-7,1.34-14.37.46-7.71.44-15.86Q386.9,225,386.1,214.56ZM216.23,280.67h76.9a3.24,3.24,0,0,1,3.24,3.51c-1.77,21.82-19.76,42-41.68,42h0c-21.92,0-39.91-20.2-41.68-42A3.24,3.24,0,0,1,216.23,280.67Z"/><path class="cls-9" d="M226.21,283.62a2.4,2.4,0,0,0-2.4,2.6c1.31,16.16,14.63,31.12,30.87,31.12h0c16.24,0,29.56-15,30.87-31.12a2.4,2.4,0,0,0-2.4-2.6Z"/><path class="cls-10" d="M396.29,470.16c-2,1.34-4.11,2.66-6.19,3.94a256.19,256.19,0,0,1-270.5-1.43q-5.71-3.6-11.22-7.5A155,155,0,0,1,119.32,454q4.75-4.4,10-8.47a171.12,171.12,0,0,1,31.85-19.5c.37-.18.78-.36,1.25-.54l.37-.15c.35-.13.73-.29,1.12-.42s.66-.25,1-.36.88-.3,1.38-.45l1.82-.6,2.18-.64c2-.61,4.26-1.22,6.59-1.88l68.61,76.5a13.44,13.44,0,0,0,20,0l67.26-75,.66.29.91.4c.81.39,1.62.77,2.42,1.17a4.71,4.71,0,0,1,.45.22q5.73,2.76,11.08,5.77A177.62,177.62,0,0,1,372,446.29c3.44,2.73,6.73,5.58,9.85,8.51A158.63,158.63,0,0,1,396.29,470.16Z"/><path class="cls-11" d="M303.06,55.93c1.18,13.54-.18,33.16-14,47.93a3.47,3.47,0,0,0,2.74,5.85c9.16-.65,22.6-2.55,30-8.1a3.47,3.47,0,0,1,5.37,1.44c1.87,4.85,4.18,12.72,3.18,20.22a3.47,3.47,0,0,0,6.16,2.55c6.63-8.1,12.2-22.55,3.93-46.66a3.47,3.47,0,0,0-6.07-.92L333.11,80a3.48,3.48,0,0,1-5.65-.09L309.35,53.67A3.46,3.46,0,0,0,303.06,55.93Z"/><path class="cls-12" d="M163.07,331.19c6.75,11.33,32.24,50.2,73.55,66.92a2.54,2.54,0,0,0,2.52-4.35c-17.45-13.9-48.3-41.88-55.73-71-2.88-11.33-19.34-11.13-21.63.33,0,.18-.07.36-.1.54A11.1,11.1,0,0,0,163.07,331.19Z"/><path class="cls-12" d="M203.88,326.54c3.14,7.06,15.29,31.47,38.19,44.07a1.49,1.49,0,0,0,1.77-2.36c-9.2-9.3-25.23-27.74-27.53-45.22-.9-6.8-10.5-7.82-12.63-1.31l-.09.31A6.44,6.44,0,0,0,203.88,326.54Z"/><path class="cls-12" d="M349.07,331.19c-6.74,11.33-32.24,50.2-73.55,66.92a2.54,2.54,0,0,1-2.51-4.35c17.45-13.9,48.29-41.88,55.72-71,2.89-11.33,19.35-11.13,21.64.33,0,.18.07.36.1.54A11.05,11.05,0,0,1,349.07,331.19Z"/><path class="cls-12" d="M308.27,326.54c-3.14,7.06-15.3,31.47-38.2,44.07a1.49,1.49,0,0,1-1.76-2.36c9.2-9.3,25.22-27.74,27.53-45.22.9-6.8,10.5-7.82,12.62-1.31a2.81,2.81,0,0,1,.1.31A6.49,6.49,0,0,1,308.27,326.54Z"/></g></svg>