<svg xmlns="http://www.w3.org/2000/svg" viewBox="0 0 512 512"><defs><style>.cls-1{fill:#7cc8fb;}.cls-2{fill:#6cb7e0;}.cls-3{fill:#27273d;}.cls-4{fill:#fcc8bc;}.cls-5{fill:#fab3a7;}.cls-6,.cls-8{fill:none;stroke-linecap:round;stroke-miterlimit:10;stroke-width:7px;}.cls-6{stroke:#27273d;}.cls-7{fill:#f58d89;}.cls-8{stroke:#f58d89;}.cls-9{fill:#9e4830;}.cls-10{fill:#4f4f74;}.cls-11{fill:#32314b;}.cls-12{fill:#606087;}.cls-13{fill:#fff;}</style></defs><title>Avatar Users2</title><g id="BULINE"><circle class="cls-1" cx="256" cy="256" r="256"/></g><g id="Icons"><path class="cls-2" d="M484.77,371a257,257,0,0,1-90.72,100.61c-1.12.73-2.24,1.43-3.38,2.14l-.57.35a254.36,254.36,0,0,1-72.5,30.43c-3.12.78-6.27,1.49-9.45,2.15a258.33,258.33,0,0,1-108.1-.81c-3.17-.71-6.32-1.47-9.45-2.3a254.34,254.34,0,0,1-69.82-30.17l-1.18-.73-1.95-1.25A257.08,257.08,0,0,1,27.23,371,257.29,257.29,0,0,1,128,264.23l0,0q2.87-1.65,5.78-3.24l.05,0q6.38-3.48,13-6.59l1.34-.63q11.19-5.21,22.94-9.34,4.88-1.71,9.86-3.23h0l1.9-.58,2.37-.7.52-.15q9.73-2.78,19.78-4.77c2.15-.43,4.32-.83,6.49-1.21a258.63,258.63,0,0,1,92.86.93q10.31,2,20.3,4.8l3.56,1c1.28.38,2.57.77,3.85,1.17q8.44,2.64,16.63,5.85,4.31,1.69,8.54,3.53,5.12,2.22,10.12,4.66,6.07,3,12,6.22,2.28,1.26,4.53,2.57l1.53.9c1.28.76,2.56,1.53,3.82,2.3a257.42,257.42,0,0,1,95,103.29Z"/><ellipse class="cls-3" cx="261.81" cy="267.08" rx="128" ry="163.39"/><path class="cls-4" d="M390.67,473.75l-.57.35a254.36,254.36,0,0,1-72.5,30.43c-3.12.78-6.27,1.49-9.45,2.15a258.33,258.33,0,0,1-108.1-.81c-3.17-.71-6.32-1.47-9.45-2.3a254.34,254.34,0,0,1-69.82-30.17,146,146,0,0,1,28.38-26.06,161.75,161.75,0,0,1,19.5-11.7l2.28-1.13,1.85-.91a32.13,32.13,0,0,1,3.22-1.26h0c3.86-1.33,9.45-2.84,15.4-4.52h0l5.82-1.64h0l2.1-.64h0a110.3,110.3,0,0,0,16.38-5.94h0a16.57,16.57,0,0,0,5.06-3.5,3.1,3.1,0,0,0,.27-.34h0a11.43,11.43,0,0,0,1.15-1.63c5.06-8.31,2.31-21.43,2.31-31.12,0-2.66,0-5-.1-7.08h0c-.55-21.14-2.84-14.6,15.4-20.73a42.1,42.1,0,0,1,6.33-.93c13.81-1.36,44.54-2.53,48.25.93,2.78,2.6,3.32,7.85,3,14.12h0c-.7,12.49-5,29-2,36.7a32.68,32.68,0,0,0,2.31,4.78,26,26,0,0,0,2.14,3.1A26.67,26.67,0,0,0,307,420h0c7.28,4.41,16.6,6.22,26.77,10.95,1.55.71,3.07,1.45,4.59,2.2s2.76,1.41,4.13,2.13c.9.47,1.79,1,2.67,1.44a167.83,167.83,0,0,1,18.18,11.53A150.73,150.73,0,0,1,390.67,473.75Z"/><path class="cls-3" d="M390.67,473.75l-.57.35a254.36,254.36,0,0,1-72.5,30.43c-3.12.78-6.27,1.49-9.45,2.15a258.33,258.33,0,0,1-108.1-.81c-3.17-.71-6.32-1.47-9.45-2.3a254.34,254.34,0,0,1-69.82-30.17,146,146,0,0,1,28.38-26.06,161.75,161.75,0,0,1,19.5-11.7l2.28-1.13,1.85-.91a32.13,32.13,0,0,1,3.22-1.26h0c3.86-1.33,9.45-2.84,15.4-4.52h0l5.82-1.64h0l2.1-.64h0a110.3,110.3,0,0,0,16.38-5.94h0a16.57,16.57,0,0,0,5.06-3.5,3.1,3.1,0,0,0,.27-.34h0a11.43,11.43,0,0,0,1.15-1.63,61,61,0,0,0,68,6h0c1.54-.85,3.07-1.77,4.56-2.79l5-3.41A26.67,26.67,0,0,0,307,420h0c7.28,4.41,16.6,6.22,26.77,10.95,1.55.71,3.07,1.45,4.59,2.2s2.76,1.41,4.13,2.13c.9.47,1.79,1,2.67,1.44a167.83,167.83,0,0,1,18.18,11.53A150.73,150.73,0,0,1,390.67,473.75Z"/><path class="cls-4" d="M380,174.21v83.73c0,62.45-49.71,82.46-85.94,114.22a55.73,55.73,0,0,1-74.29,0c-36.25-31.76-86-51.77-86-114.22V174.21c0-38.42,17.9-72.41,45.34-93.08a102.74,102.74,0,0,1,62.17-21H272.5a102.79,102.79,0,0,1,62.18,21C362.1,101.8,380,135.79,380,174.21Z"/><path class="cls-5" d="M182.94,257.94V174.21c0-59.79,43.34-108.86,98.53-113.69-3-.28-6-.4-9-.4H241.33c-59.39,0-107.51,51.08-107.51,114.09v41.44a24.64,24.64,0,0,0,0,49.27h.24c3.57,57,50.84,76.71,85.69,107.25a55.6,55.6,0,0,0,61.72,8.42,57.58,57.58,0,0,1-12.59-8.42C232.64,340.41,182.94,320.4,182.94,257.94Z"/><circle class="cls-4" cx="380" cy="240.29" r="24.63"/><path class="cls-6" d="M166.93,195.66s31-17.3,57.86,0"/><path class="cls-6" d="M286.56,195.66s31.05-17.3,57.87,0"/><rect class="cls-5" x="239.31" y="264.92" width="35.79" height="13.57" rx="6.22"/><path class="cls-7" d="M134.52,230.49a9.8,9.8,0,0,0,0,19.6Z"/><path class="cls-5" d="M380,250.09a9.8,9.8,0,1,0,0-19.6Z"/><ellipse class="cls-3" cx="195.45" cy="237.32" rx="10.29" ry="14.81"/><ellipse class="cls-3" cx="315.08" cy="237.32" rx="10.29" ry="14.81"/><path class="cls-6" d="M176.73,226.4s17.78-11.23,37.43,0"/><path class="cls-6" d="M296.37,226.4s17.78-11.23,37.42,0"/><line class="cls-8" x1="240" y1="303.6" x2="274.41" y2="303.6"/><line class="cls-8" x1="244.53" y1="317.1" x2="269.88" y2="317.1"/><path class="cls-9" d="M312.87,129.86s.17,18.31-31.4,25.95V138.27s-14.93,14.39-46.88,12.6l4.72-15.75s-25.05,20.24-43.45,20.69l3.64-33.29S289.93,80.06,312.87,129.86Z"/><path class="cls-10" d="M421.58,206.91l-1-1a122.38,122.38,0,0,1-34.16-73.94l-.22-2.38a115.5,115.5,0,0,0-115-104.65H243.34a115.5,115.5,0,0,0-115,104.65l-.27,2.85a121.81,121.81,0,0,1-34.16,73.93c-.18.2-.37.39-.56.58C53.63,247.14,51.13,311.53,88,354.4c6.62,7.7,13.88,17.05,22.36,26.94a209.85,209.85,0,0,0,119,69.08l27.87,5.47s-113-107-110.65-214.61a127.51,127.51,0,0,1,69.27-110.35q41.58-21.32,83.18,0a127.5,127.5,0,0,1,69.26,110.35c2.36,107.64-110.65,214.61-110.65,214.61l25.55-4.63a211.06,211.06,0,0,0,130.33-79.9c4.68-6.15,9.06-11.91,13.4-17C463.81,311.53,461.31,247.14,421.58,206.91Z"/><path class="cls-11" d="M257.26,455.89l-27.87-5.46a210,210,0,0,1-119-69.09c-8.49-9.9-15.74-19.24-22.36-26.94-36.86-42.87-34.36-107.26,5.37-147.49l.57-.57a122.11,122.11,0,0,0,34.16-74l.27-2.84a115.48,115.48,0,0,1,115-104.66h27.86c1.36,0,2.73,0,4.08.08A115.5,115.5,0,0,0,164.34,129.55l-.27,2.84a121.93,121.93,0,0,1-34.15,74l-.57.57C89.62,247.14,87.12,311.53,124,354.4c6.62,7.7,13.88,17,22.37,26.94a209.34,209.34,0,0,0,101.3,64.81C253.62,452.44,257.26,455.89,257.26,455.89Z"/><path class="cls-12" d="M320.74,60c1.17,13.3-.17,32.56-13.74,47.07a3.4,3.4,0,0,0,2.69,5.74c9-.63,22.19-2.5,29.47-8a3.41,3.41,0,0,1,5.27,1.41c1.84,4.76,4.1,12.49,3.13,19.86a3.4,3.4,0,0,0,6,2.5c6.51-8,12-22.15,3.86-45.82a3.4,3.4,0,0,0-5.95-.9l-1.26,1.71a3.39,3.39,0,0,1-5.54-.08L326.93,57.73A3.4,3.4,0,0,0,320.74,60Z"/><path class="cls-13" d="M200.05,430.47v75.4c-3.17-.71-6.32-1.47-9.45-2.3v-73.1a4.72,4.72,0,0,1,6.67-4.31A4.72,4.72,0,0,1,200.05,430.47Z"/><path class="cls-13" d="M317.6,430.47v74.06c-3.12.78-6.27,1.49-9.45,2.15V430.47a4.73,4.73,0,1,1,9.45,0Z"/></g></svg>