<svg xmlns="http://www.w3.org/2000/svg" viewBox="0 0 512 512"><defs><style>.cls-1{fill:#db1b1b;}.cls-2{fill:#c11a1a;}.cls-3{fill:#a65c3b;}.cls-4{fill:#9e4830;}.cls-5{fill:none;stroke:#27273d;stroke-linecap:round;stroke-miterlimit:10;stroke-width:7px;}.cls-6{fill:#27273d;}.cls-7{fill:#893d2b;}.cls-8{fill:#fff;}.cls-9{fill:#f6d372;}.cls-10{fill:#f6c752;}.cls-11{fill:#f7db94;}.cls-12{fill:#7cc8fb;}.cls-13{fill:#a0daf9;}</style></defs><title>Avatar Users2</title><g id="BULINE"><circle class="cls-1" cx="256" cy="256.05" r="256"/></g><g id="Icons"><path class="cls-2" d="M484.77,371a256.82,256.82,0,0,1-85,96.82c-.29.21-.59.41-.89.61q-4.33,2.93-8.79,5.67a254.52,254.52,0,0,1-107.87,36.57,259.75,259.75,0,0,1-52.7,0,254.46,254.46,0,0,1-109.93-38q-3.9-2.46-7.71-5.06c-1.38-.94-2.74-1.89-4.1-2.87A257.06,257.06,0,0,1,27.23,371,257.16,257.16,0,0,1,135.81,259.92a.09.09,0,0,1,.06,0,253.67,253.67,0,0,1,47.22-19.35h0l.19-.05q5.38-1.6,10.86-3c2.06-.51,4.14-1,6.22-1.46q7.05-1.56,14.23-2.73,10.66-1.74,21.63-2.58Q246,230,256,230q12.81,0,25.32,1.24a254.1,254.1,0,0,1,27.91,4.31q3.87.81,7.68,1.74,8.25,2,16.27,4.55A256.32,256.32,0,0,1,484.77,371Z"/><path class="cls-3" d="M399.78,467.82c-.29.21-.59.41-.89.61q-4.33,2.93-8.79,5.67a254.52,254.52,0,0,1-107.87,36.57,259.75,259.75,0,0,1-52.7,0,254.46,254.46,0,0,1-109.93-38q-3.9-2.46-7.71-5.06c-1.38-.94-2.74-1.89-4.1-2.87,14.48-20.74,34.08-38.21,60.88-50.95a46.92,46.92,0,0,1,5.78-2.13c12.89-4,37.61-9.46,43-15.67,7.08-8.21,3.79-22.95,3.79-33.6,0-1.56,0-3,0-4.37v-.08c-.4-24.77-3.69-17.34,15.58-23.79a13.4,13.4,0,0,1,2.18-.43h0c10.41-1.55,49-3.5,53.2.43,3.91,3.67,3.44,12.51,2.24,22.09a.5.5,0,0,1,0,.12c-1.36,11.09-3.67,23.13-1.23,29.37,6.86,17.59,21.66,17.34,38.9,25.37.21.09.41.18.62.29C363.19,425.69,384.49,445,399.78,467.82Z"/><path class="cls-3" d="M379.14,160.29v83.16c0,62-49.38,81.9-85.37,113.46a55.39,55.39,0,0,1-73.79,0c-36-31.56-85.37-51.42-85.37-113.46V160.29c0-.28,0-.56,0-.84.29-43.4,23.58-81,57.58-99.75,1.1-.62,2.22-1.21,3.34-1.77A100.93,100.93,0,0,1,237,47.08c1.47-.08,2.95-.11,4.43-.11h31a102.7,102.7,0,0,1,67.89,25.85,105.51,105.51,0,0,1,8.17,8A116.19,116.19,0,0,1,379,154h0C379.09,156.07,379.14,158.17,379.14,160.29Z"/><path class="cls-4" d="M183.3,243.45V160.29c0-59.38,43-108.12,97.86-112.91-2.94-.28-5.91-.41-8.92-.41h-31c-59,0-106.78,50.74-106.78,113.32v41.16a24.47,24.47,0,0,0,0,48.94h.24c3.55,56.62,50.5,76.19,85.12,106.51a55.2,55.2,0,0,0,61.29,8.37,56.46,56.46,0,0,1-12.5-8.37C232.66,325.36,183.3,305.48,183.3,243.45Z"/><circle class="cls-3" cx="379.02" cy="225.92" r="24.47"/><path class="cls-5" d="M167.4,192.32s30.84-17.18,57.47,0"/><ellipse class="cls-6" cx="195.72" cy="222.97" rx="10.22" ry="14.71"/><path class="cls-5" d="M286.22,192.32s30.84-17.18,57.47,0"/><ellipse class="cls-6" cx="314.55" cy="222.97" rx="10.22" ry="14.71"/><rect class="cls-4" x="239.11" y="250.39" width="35.55" height="13.48" rx="6.18"/><path class="cls-5" d="M177.14,212.13s17.65-11.15,37.17,0"/><path class="cls-5" d="M296,212.13s17.66-11.15,37.17,0"/><path class="cls-7" d="M135.21,216.19a9.73,9.73,0,1,0,0,19.46Z"/><path class="cls-4" d="M379,235.65a9.73,9.73,0,1,0,0-19.46Z"/><path class="cls-8" d="M228.5,283.44a2.41,2.41,0,0,0-2.4,2.6c1.31,16.1,14.59,31,30.78,31h0c16.19,0,29.46-14.92,30.77-31a2.4,2.4,0,0,0-2.39-2.6Z"/><path class="cls-9" d="M388.76,136.78s2.71,55.62-9.73,79.41c0,0-3.75-58.48-20.77-75.23-27.47,1.67-65.25-1.66-95.8-25.21,0,0-1.55,13.93,25.26,38.59,0,0-33,3.66-62.86-40.15-49.75,11.2-72,66.94-79.63,92.45a17.91,17.91,0,0,1-17.14,12.78H128c-7-58.23-2.5-103.67-2.5-103.67,18.12-82.77,65.14-72.6,81-66.53,5.18-10.76,17.84-21.55,46.41-26.4,0,0,60.28-35.17,109.6,11.19H333.14s62.21,10.73,62.21,101.15C395.35,135.16,393,135.86,388.76,136.78Z"/><path class="cls-10" d="M395.35,135.16s-91.11-8-132.89-19.41c0,0,32,31,95.8,25.21Z"/><path class="cls-10" d="M224.86,114.19c-49.75,11.2-72,66.94-79.63,92.45a17.91,17.91,0,0,1-17.14,12.78H128c-7-58.23-2.5-103.67-2.5-103.67,18.12-82.77,65.14-72.6,81-66.53C206.46,49.22,174.55,87.05,224.86,114.19Z"/><path class="cls-11" d="M319.88,43.76c1.19,13.5-.18,33.05-13.95,47.78a3.45,3.45,0,0,0,2.73,5.83c9.14-.64,22.53-2.54,29.92-8.07a3.46,3.46,0,0,1,5.35,1.44c1.86,4.82,4.16,12.67,3.17,20.15a3.45,3.45,0,0,0,6.14,2.54c6.6-8.08,12.15-22.48,3.92-46.51a3.46,3.46,0,0,0-6.05-.91l-1.27,1.73a3.46,3.46,0,0,1-5.63-.08l-18-26.15A3.45,3.45,0,0,0,319.88,43.76Z"/><path class="cls-12" d="M399.78,467.82c-.29.21-.59.41-.89.61q-4.33,2.93-8.79,5.67a254.52,254.52,0,0,1-107.87,36.57,259.75,259.75,0,0,1-52.7,0,254.46,254.46,0,0,1-109.93-38q-3.9-2.46-7.71-5.06c-1.38-.94-2.74-1.89-4.1-2.87,14.48-20.74,34.08-38.21,60.88-50.95a46.92,46.92,0,0,1,5.78-2.13s74.71,55.93,157.62,0l.62-.27C363.19,425.69,384.49,445,399.78,467.82Z"/><path class="cls-13" d="M282.23,510.67a259.75,259.75,0,0,1-52.7,0l26.34-26.34Z"/></g></svg>