<svg xmlns="http://www.w3.org/2000/svg" viewBox="0 0 512 512"><defs><style>.cls-1{fill:#4acc97;}.cls-2{fill:#43b584;}.cls-3{fill:#27273d;}.cls-4{fill:#f9dcd7;}.cls-5{fill:#fcc8bc;}.cls-11,.cls-6{fill:none;stroke-linecap:round;stroke-miterlimit:10;stroke-width:7px;}.cls-6{stroke:#27273d;}.cls-7{fill:#e5b5ac;}.cls-8{fill:#fff;}.cls-9{fill:#db1b1b;}.cls-10{fill:#32314b;}.cls-11{stroke:#e5b5ac;}</style></defs><title>Avatar Users2</title><g id="BULINE"><circle class="cls-1" cx="256" cy="256" r="256"/></g><g id="Icons"><path class="cls-2" d="M484.77,371A257,257,0,0,1,393,472.28a0,0,0,0,1,0,0c-1,.62-1.92,1.22-2.89,1.82a255.08,255.08,0,0,1-85.34,33.25c-1.77.35-3.54.67-5.32,1q-2.94.5-5.9.93c-1.2.18-2.39.35-3.59.51q-12.37,1.64-25.1,2.08-4.41.15-8.85.15-5.1,0-10.16-.2-12.12-.46-23.93-2.05l-2.85-.39q-3.75-.54-7.45-1.2c-1.21-.2-2.41-.42-3.61-.66a254.81,254.81,0,0,1-88.4-34.83c-2.25-1.42-4.48-2.87-6.68-4.37A257.07,257.07,0,0,1,27.23,371,257.14,257.14,0,0,1,125.6,265.66l0,0a254.78,254.78,0,0,1,51.18-23.15q3.44-1.12,6.93-2.15,7.67-2.25,15.51-4a258.25,258.25,0,0,1,108.79-1q8.5,1.74,16.81,4.06a254.38,254.38,0,0,1,60.83,25.87A257.06,257.06,0,0,1,484.77,371Z"/><path class="cls-3" d="M239.06,25h33.85A124.28,124.28,0,0,1,397.19,149.28v57a0,0,0,0,1,0,0H114.78a0,0,0,0,1,0,0v-57A124.28,124.28,0,0,1,239.06,25Z"/><path class="cls-4" d="M393,472.28c-1,.62-1.92,1.22-2.89,1.82a255.08,255.08,0,0,1-85.34,33.25c-1.77.35-3.54.67-5.32,1q-2.94.5-5.9.93c-1.2.18-2.39.35-3.59.51q-12.37,1.64-25.1,2.08-4.41.15-8.85.15-5.1,0-10.16-.2-12.12-.46-23.93-2.05l-2.85-.39q-3.75-.54-7.45-1.2c-1.21-.2-2.41-.42-3.61-.66a254.81,254.81,0,0,1-88.4-34.83c-2.25-1.42-4.48-2.87-6.68-4.37q.83-.85,1.68-1.68l.43-.43,1-.95c.53-.52,1.07-1,1.61-1.53s.91-.85,1.38-1.27c1.15-1.06,2.33-2.11,3.52-3.14l2-1.65,0,0c.65-.55,1.32-1.09,2-1.63s1.35-1.08,2-1.62l2.07-1.59,1.42-1.06,1-.7,1.37-1,.77-.54c.63-.45,1.28-.89,1.93-1.33q3.35-2.3,6.89-4.46c.74-.46,1.49-.91,2.24-1.35s1.59-.93,2.39-1.39l1.29-.73,1.31-.74c.42-.23.84-.46,1.27-.68l2.2-1.18,1.48-.76,1-.5c1.27-.64,2.55-1.27,3.85-1.89l.6-.27.66-.27h0a3.17,3.17,0,0,1,.37-.15c.37-.14.74-.3,1.14-.44s.67-.25,1-.36l1.39-.46L168,432l2.2-.66c2.13-.62,4.44-1.28,6.87-2l1.18-.32c3.8-1.06,7.82-2.18,11.73-3.35h0c5.09-1.52,10-3.13,14.1-4.82a35.09,35.09,0,0,0,7.68-4.09,9.4,9.4,0,0,0,1.48-1.36c.28-.32.54-.66.8-1,6.57-8.95,3.29-24,3.29-35,0-2.64,0-5-.08-7.1h0c-.59-23.76-3.3-16.46,16.74-23.17a33.81,33.81,0,0,1,5.08-.82h0c14-1.56,50.12-3.12,54.33.82,3.88,3.63,3.75,12,2.71,21.31-1.39,12.53-4.43,26.86-1.63,34a31.83,31.83,0,0,0,5.15,8.94,25.71,25.71,0,0,0,2.25,2.4,30.77,30.77,0,0,0,6,4.41c7.22,4.14,16.17,6.16,25.95,10.39l1.47.65.9.41c.84.39,1.64.78,2.46,1.18.15.07.32.14.46.22q5.79,2.81,11.21,5.84l.72.42c.71.39,1.42.8,2.13,1.22,1.4.82,2.79,1.65,4.15,2.51l1.8,1.13c.95.6,1.88,1.21,2.81,1.83l2.8,1.89c.79.55,1.58,1.09,2.35,1.64h0c.83.6,1.66,1.2,2.47,1.81q3.7,2.73,7.17,5.61l2.29,1.92h0l2.23,2,2.19,2,2,1.9.38.36c.62.59,1.23,1.19,1.83,1.79s1.37,1.36,2,2.05h0c.67.69,1.34,1.39,2,2.09l1.23,1.31"/><path class="cls-4" d="M386.75,160.3v89.19c0,66.55-53,87.86-91.56,121.71a59.44,59.44,0,0,1-79.17,0c-38.6-33.85-91.56-55.16-91.56-121.71V160.3q0-4.53.31-9C129,90,176,41.36,234.25,38.86c1.57-.08,3.17-.11,4.75-.11h33.21c61.83,0,112.22,52,114.44,117C386.72,157.28,386.75,158.78,386.75,160.3Z"/><path class="cls-5" d="M176.8,249.5V160.3c0-63.7,46.17-116,105-121.12-3.16-.3-6.34-.43-9.57-.43H239c-63.26,0-114.53,54.42-114.53,121.55v44.15a26.25,26.25,0,1,0,0,52.49h.25c3.81,60.74,54.17,81.73,91.3,114.26,18.81,16.49,44.46,19.5,65.75,9a61.14,61.14,0,0,1-13.41-9C229.75,337.36,176.8,316,176.8,249.5Z"/><circle class="cls-4" cx="386.74" cy="230.7" r="26.24"/><path class="cls-6" d="M159.74,187.7s33.08-18.43,61.65,0"/><path class="cls-6" d="M287.2,187.7s33.08-18.43,61.64,0"/><rect class="cls-5" x="237.31" y="256.94" width="38.13" height="14.45" rx="6.63"/><path class="cls-7" d="M125.22,220.26a10.44,10.44,0,1,0,0,20.88Z"/><path class="cls-5" d="M386.75,241.14a10.44,10.44,0,1,0,0-20.88Z"/><path class="cls-3" d="M393,472.28c-1,.62-1.92,1.22-2.89,1.82a255.08,255.08,0,0,1-85.34,33.25c-1.77.35-3.54.67-5.32,1q-2.94.5-5.9.93c-1.2.18-2.39.35-3.59.51q-12.37,1.64-25.1,2.08-4.41.15-8.85.15-5.1,0-10.16-.2-12.12-.46-23.93-2.05l-2.85-.39q-3.75-.54-7.45-1.2c-1.21-.2-2.41-.42-3.61-.66a254.81,254.81,0,0,1-88.4-34.83c-2.25-1.42-4.48-2.87-6.68-4.37q.83-.85,1.68-1.68l.43-.43,1-.95c.53-.52,1.07-1,1.61-1.53s.91-.85,1.38-1.27c1.15-1.06,2.33-2.11,3.52-3.14l2-1.65,0,0c.65-.55,1.32-1.09,2-1.63s1.35-1.08,2-1.62l2.07-1.59,1.42-1.06,1-.7,1.37-1,.77-.54c.63-.45,1.28-.89,1.93-1.33q3.35-2.3,6.89-4.46c.74-.46,1.49-.91,2.24-1.35s1.59-.93,2.39-1.39l1.29-.73,1.31-.74c.42-.23.84-.46,1.27-.68l2.2-1.18,1.48-.76,1-.49h0c1.27-.64,2.55-1.27,3.85-1.89l.6-.27.66-.27h0a3.17,3.17,0,0,1,.37-.15c.37-.14.74-.3,1.14-.44s.67-.25,1-.36l1.39-.46L168,432l2.2-.66c2.13-.62,4.44-1.28,6.87-2l1.18-.32c3.8-1.06,7.82-2.18,11.73-3.35h0l18.83,18.78,27.25,27.16,12.86-4.46.38-.13,2.26-2.4,4-4.3.23-.24.26-.28h.49l9,11.81,5.13-2.29,30-13.35,10-4.44,20.38-13.64,2.32-1.55,5.29-3.55c.15.07.32.14.46.22q5.79,2.81,11.21,5.84l.72.42c.71.39,1.42.8,2.13,1.22,1.4.82,2.79,1.65,4.15,2.51l1.8,1.13c.95.6,1.88,1.21,2.81,1.83l2.8,1.89c.79.55,1.58,1.09,2.35,1.64h0c.83.6,1.66,1.2,2.47,1.81q3.7,2.73,7.17,5.61l2.29,1.92h0l2.23,2,2.19,2,2,1.9.38.36c.62.59,1.23,1.19,1.83,1.79s1.37,1.36,2,2.05h0c.67.69,1.34,1.39,2,2.09Z"/><path class="cls-8" d="M256.1,459.79l-.23.31-.25.34-.76,1-3.18,4.27-23.25,31.15-7.18,9.61-1.75,2.35a5.89,5.89,0,0,1-.44.53q-3.75-.54-7.45-1.2c-1.21-.2-2.41-.42-3.61-.66a1.73,1.73,0,0,1-.14-.31L178.25,429l-.83-2.19a6.12,6.12,0,0,1,3.09-7.7L201.72,409l.87-.41a6.13,6.13,0,0,1,7,1.19c1.23,1.23,2.76,2.79,4.5,4.6C228.12,429.05,256.1,459.79,256.1,459.79Z"/><path class="cls-8" d="M335.27,426.82l-1.41,3.72-2.78,7.34-26.25,69.31a.77.77,0,0,1-.07.16c-1.77.35-3.54.67-5.32,1q-2.94.5-5.9.93a5,5,0,0,1-.35-.43l-2.41-3.23-6.7-9-18.62-24.94-8.87-11.89s29.38-32.28,43.06-46.45c1.33-1.37,2.5-2.57,3.49-3.55a6.13,6.13,0,0,1,7-1.19l.11,0,22,10.47A6.12,6.12,0,0,1,335.27,426.82Z"/><ellipse class="cls-3" cx="190.12" cy="227.53" rx="10.97" ry="15.78"/><ellipse class="cls-3" cx="317.58" cy="227.53" rx="10.97" ry="15.78"/><path class="cls-6" d="M170.19,215.9s18.94-12,39.87,0"/><path class="cls-6" d="M297.64,215.9s18.94-12,39.88,0"/><polygon class="cls-3" points="255.61 110.78 255.61 110.78 255.61 110.78 255.61 110.78"/><path class="cls-3" d="M386.75,118.67,374.87,93.39l-23.4-30.6L310.13,37.06h-109L159.74,62.79l-23.4,30.6-11.88,25.28L120,150.2l4.47,54.25s23.13-25.73,29.79-54.71a62,62,0,0,1,14.52-28.4c13.67-14.8,38.57-30.64,76.64-15.27a27.31,27.31,0,0,0,20.38,0c38.07-15.37,63,.47,76.63,15.27A62,62,0,0,1,357,149.74c6.66,29,29.8,54.71,29.8,54.71l4.47-54.25Z"/><path class="cls-8" d="M303.73,491.47l-4.29,16.86q-2.94.5-5.9.93c-1.2.18-2.39.35-3.59.51q-12.37,1.64-25.1,2.08-4.41.15-8.85.15-5.1,0-10.16-.2-12.12-.46-23.93-2.05l-2.85-.39q-3.75-.54-7.45-1.2L210.53,504l8.58-8.23,29.82-28.62,2.64-2.53,3.29-3.16.76-.73.42-.41.55-.52,14.17,9.52,24.05,16.17Z"/><path class="cls-9" d="M285.32,495.64l-1.24,1-19.25,15.11,0,.12q-4.41.15-8.85.15-5.1,0-10.16-.2l.09-1.19-17.5-13.74-1.56-1.23,24.81-29.92,3.94-4.76v-1.17l.23.28,0,0,.17.21.06.07.49-.59V461l8.88,10.72Z"/><path class="cls-10" d="M221.91,509.75l-2.85-.39q-3.75-.54-7.45-1.2c-1.21-.2-2.41-.42-3.61-.66a253.38,253.38,0,0,1-57.32-18.11c-1.64-15.83-1.33-35.93,6.42-53h0c6.51-14.38,18.3-26.62,38.65-32.37a4.48,4.48,0,0,1,5.65,3.41l.32,1.59,2.37,11.83,4.73,23.6,10.29,51.32,2.14,10.72Z"/><path class="cls-10" d="M361.19,489.44a253.09,253.09,0,0,1-56.43,17.91c-1.77.35-3.54.67-5.32,1q-2.94.5-5.9.93c-1.2.18-2.39.35-3.59.51l.83-4.17,4-20.12L300.73,456l7.18-35.81,2.3-11.5.25-1.23a4.49,4.49,0,0,1,5.66-3.41c23.4,6.62,35.49,21.82,41.24,39C362.57,458.5,362.62,475.6,361.19,489.44Z"/><line class="cls-11" x1="238.64" y1="302.97" x2="274.11" y2="302.97"/><line class="cls-11" x1="243.31" y1="316.88" x2="269.44" y2="316.88"/></g></svg>