<svg xmlns="http://www.w3.org/2000/svg" viewBox="0 0 512 512"><defs><style>.cls-1{fill:#4acc97;}.cls-2{fill:#43b584;}.cls-3{fill:#32314b;}.cls-4{fill:#9e4830;}.cls-5{fill:#893d2b;}.cls-6{fill:none;stroke:#27273d;stroke-linecap:round;stroke-miterlimit:10;stroke-width:7px;}.cls-7{fill:#7a3426;}.cls-8{fill:#27273d;}.cls-9{fill:#3e436d;}.cls-10{fill:#fff;}.cls-11{fill:#db1b1b;}</style></defs><title>Avatar Users2</title><g id="BULINE"><circle class="cls-1" cx="256" cy="256" r="256"/></g><g id="Icons"><path class="cls-2" d="M484.77,371A257,257,0,0,1,394,471.66q-1.94,1.24-3.88,2.44a256.19,256.19,0,0,1-270.5-1.43q-4.17-2.62-8.23-5.42A257.1,257.1,0,0,1,27.23,371,257.15,257.15,0,0,1,129,263.66l0,0a254.09,254.09,0,0,1,49.77-21.8c2.07-.66,4.17-1.29,6.27-1.89q7.76-2.23,15.7-4a258.3,258.3,0,0,1,104.93-1.14q8.63,1.69,17,4a254.14,254.14,0,0,1,58.68,24A257.14,257.14,0,0,1,484.77,371Z"/><path class="cls-3" d="M402.7,104.53c-70.28-68.82-169.52-49-203.13-39.59a54.38,54.38,0,0,0-91.68,39.59s-35.31,55.95,20.23,101.1l6.22-31.47,243.25,6.76,4.88,24.71C438,160.48,402.7,104.53,402.7,104.53Z"/><path class="cls-4" d="M394,471.66q-1.94,1.24-3.88,2.44a256.19,256.19,0,0,1-270.5-1.43q-4.17-2.62-8.23-5.42A153,153,0,0,1,122.44,456q4.66-4.31,9.8-8.3a168.6,168.6,0,0,1,31.23-19.13c.36-.17.77-.35,1.23-.52l.36-.15,1.1-.42c.33-.12.65-.24,1-.35s.86-.3,1.35-.44l1.79-.58,2.13-.64,2.28-.66,4.38-1.24,2.78-.77,2.53-.71c2.39-.66,4.81-1.36,7.2-2.08,8.8-2.61,17.08-5.52,21.12-8.62a8.64,8.64,0,0,0,1.41-1.32c7.39-8.54,4-23.85,4-34.93,0-2.56,0-4.83-.08-6.87v0c-.57-23-3.21-15.94,16.23-22.45a32.71,32.71,0,0,1,4.92-.79c13.53-1.51,48.57-3,52.64.79,3.77,3.52,3.64,11.59,2.63,20.65h0c-1.34,12.14-4.28,26-1.57,33a29.21,29.21,0,0,0,7.15,11c6.59,6.26,15.58,8.41,25.77,12.26,2.16.8,4.37,1.69,6.62,2.72.3.12.6.25.89.39l1.85.89.52.25c.15.07.31.14.45.22,3.75,1.81,7.36,3.69,10.86,5.66a174.7,174.7,0,0,1,23.27,15.61c3.37,2.68,6.59,5.47,9.65,8.34A155.57,155.57,0,0,1,394,471.66Z"/><path class="cls-4" d="M382.25,162.85v86.42c0,64.48-51.31,85.13-88.71,117.93a57.61,57.61,0,0,1-76.71,0c-37.4-32.8-88.72-53.45-88.72-117.93V162.85c0-2.93.1-5.84.3-8.71,4.09-59.37,49.67-106.53,106.08-109,1.52-.08,3.07-.11,4.61-.11h32.17c59.91,0,108.73,50.38,110.89,113.4C382.23,159.92,382.25,161.38,382.25,162.85Z"/><path class="cls-5" d="M178.83,249.28V162.84c0-61.72,44.73-112.37,101.7-117.35-3-.29-6.14-.42-9.27-.42H239.1c-61.3,0-111,52.74-111,117.77v42.79a25.43,25.43,0,0,0,0,50.86h.24c3.69,58.85,52.49,79.19,88.47,110.7,18.22,16,43.07,18.9,63.7,8.7a59.26,59.26,0,0,1-13-8.7C230.13,334.41,178.83,313.75,178.83,249.28Z"/><circle class="cls-4" cx="382.25" cy="231.06" r="25.43"/><path class="cls-6" d="M162.29,189.39s32.06-17.85,59.74,0"/><path class="cls-6" d="M285.79,189.39s32.06-17.85,59.73,0"/><rect class="cls-5" x="237.45" y="256.49" width="36.94" height="14.01" rx="6.42"/><path class="cls-7" d="M128.84,220.94a10.12,10.12,0,0,0,0,20.23Z"/><path class="cls-5" d="M382.25,241.17a10.12,10.12,0,1,0,0-20.23Z"/><ellipse class="cls-8" cx="191.73" cy="227.99" rx="10.62" ry="15.29"/><ellipse class="cls-8" cx="315.23" cy="227.99" rx="10.62" ry="15.29"/><path class="cls-6" d="M172.42,216.72s18.35-11.59,38.63,0"/><path class="cls-6" d="M295.91,216.72s18.36-11.59,38.64,0"/><path class="cls-3" d="M407.68,122.18h0a35.76,35.76,0,0,0-31.11-53.41c-.81,0-1.6,0-2.39.08a41.5,41.5,0,0,0-51.84-27.42,52.34,52.34,0,0,0-90.19-9.87,54.92,54.92,0,0,0-84.72,46.13,55.92,55.92,0,0,0,.43,6.77,27.49,27.49,0,1,0,27.26,40.92,54.71,54.71,0,0,0,27.24,7.24c1.27,0,2.53-.06,3.78-.15a52.35,52.35,0,0,0,98.41,18.63,41.41,41.41,0,0,0,55.62,4h0c85.31,24.49,91.25-32.9,91.25-32.9C421.1,138.7,407.68,122.18,407.68,122.18Z"/><path class="cls-9" d="M332.49,66.16c1.16,13.28-.18,32.52-13.72,47a3.39,3.39,0,0,0,2.68,5.73c9-.63,22.16-2.5,29.44-7.94a3.4,3.4,0,0,1,5.26,1.41c1.83,4.75,4.09,12.47,3.12,19.83a3.39,3.39,0,0,0,6,2.5c6.5-7.95,12-22.11,3.86-45.76a3.4,3.4,0,0,0-6-.9L362,89.75a3.41,3.41,0,0,1-5.54-.08L338.67,64A3.39,3.39,0,0,0,332.49,66.16Z"/><path class="cls-10" d="M227.26,288.83a2.37,2.37,0,0,0-2.35,2.55c1.28,15.84,14.35,30.52,30.27,30.52h0c15.93,0,29-14.68,30.28-30.52a2.37,2.37,0,0,0-2.36-2.55Z"/><path class="cls-11" d="M394,471.66q-1.94,1.24-3.88,2.44a256.19,256.19,0,0,1-270.5-1.43q-4.17-2.62-8.23-5.42A153,153,0,0,1,122.44,456q4.66-4.31,9.8-8.3a168.6,168.6,0,0,1,31.23-19.13c.36-.17.77-.35,1.23-.52l.36-.15,1.1-.42c.33-.12.65-.24,1-.35s.86-.3,1.35-.44l1.79-.58,2.13-.64,2.28-.66,4.38-1.24,2.78-.77,2.53-.71a73.34,73.34,0,0,0,141.4.57c2.16.8,4.37,1.69,6.62,2.72.3.12.6.25.89.39l1.85.89.52.25c.15.07.31.14.45.22,3.75,1.81,7.36,3.69,10.86,5.66a174.7,174.7,0,0,1,23.27,15.61c3.37,2.68,6.59,5.47,9.65,8.34A155.57,155.57,0,0,1,394,471.66Z"/><path class="cls-10" d="M335.16,426.61a82.91,82.91,0,0,1-160.45-1.85l4.38-1.24,2.78-.77,2.53-.71a73.34,73.34,0,0,0,141.4.57c2.16.8,4.37,1.69,6.62,2.72.3.12.6.25.89.39Z"/></g></svg>