<svg xmlns="http://www.w3.org/2000/svg" viewBox="0 0 512 512"><defs><style>.cls-1{fill:#4acc97;}.cls-2{fill:#43b584;}.cls-3{fill:#f55b4b;}.cls-4{fill:#c64b42;}.cls-5{fill:#dd5147;}.cls-6{fill:#f58d89;}.cls-7{fill:#dd7f7f;}.cls-8{fill:none;stroke:#27273d;stroke-linecap:round;stroke-miterlimit:10;stroke-width:7px;}.cls-9{fill:#27273d;}.cls-10{fill:#cc7575;}.cls-11{fill:#fff;}.cls-12{fill:#4f4f74;}.cls-13{fill:#3e436d;}</style></defs><title>Avatar Users2</title><g id="BULINE"><circle class="cls-1" cx="256" cy="256" r="256"/></g><g id="Icons"><path class="cls-2" d="M484.77,371a256.89,256.89,0,0,1-70.4,86.13c-.67.54-1.35,1.06-2,1.59A254.71,254.71,0,0,1,390.1,474.1l-1.92,1.16a256.26,256.26,0,0,1-249.68,8.23q-7-3.62-13.76-7.68l-.43-.26q-2.37-1.41-4.71-2.88-4.55-2.87-9-5.93c-1.31-.91-2.61-1.82-3.9-2.76a257,257,0,0,1-79.51-93,257.1,257.1,0,0,1,98.08-105.18l0,0A254.14,254.14,0,0,1,178,242.1c1.08-.35,2.17-.69,3.26-1q4.82-1.47,9.7-2.75h0q5.76-1.5,11.62-2.75,9.36-2,19-3.29,9.76-1.31,19.76-1.88Q248.62,230,256,230q8.46,0,16.78.54a254.24,254.24,0,0,1,36.77,5.08Q316,237,322.41,238.7q4.26,1.14,8.46,2.43a252.86,252.86,0,0,1,43.23,17.69q4.17,2.16,8.24,4.48t7.88,4.67A257.12,257.12,0,0,1,484.77,371Z"/><path class="cls-3" d="M92.46,206.44c-24.6,15.67-57.88,7.43-57.88,7.43s6.59-33.65,31.19-49.32,57.88-7.43,57.88-7.43S117.06,190.77,92.46,206.44Z"/><path class="cls-4" d="M122.43,222.32C109.7,244.17,80.77,251,80.77,251s-8.28-28.56,4.46-50.4,41.66-28.71,41.66-28.71S135.17,200.48,122.43,222.32Z"/><circle class="cls-5" cx="125.76" cy="170.44" r="27.35"/><path class="cls-6" d="M388.18,475.26a256.26,256.26,0,0,1-249.68,8.23q-7-3.62-13.76-7.68l-.43-.26a157,157,0,0,1,17.24-14,168.37,168.37,0,0,1,19.9-12c.38-.22.76-.4,1.15-.6l2.47-1.23c.64-.33,1.32-.64,2-1,4.46-2.11,14.89-4.73,25.32-7.73,11.49-3.31,23-7.08,26.55-11.19,7.53-8.72,4-24.4,4-35.73,0-2.88,0-5.41-.1-7.65v0c-.6-22.79-3.06-15.74,16.62-22.36a45.25,45.25,0,0,1,6.84-1h0c14.92-1.48,48-2.73,52.06,1,3,2.82,3.58,8.48,3.19,15.24-.76,13.49-5.36,31.35-2.13,39.63C306,433.61,319.2,435.19,335,441.41h0c1.9.73,3.82,1.55,5.79,2.46q4.85,2.24,9.41,4.67c1,.5,1.94,1,2.89,1.56,1.87,1,3.69,2.06,5.47,3.14,5,2.93,9.7,6,14.15,9.29A162.21,162.21,0,0,1,388.18,475.26Z"/><path class="cls-6" d="M390.72,166.74v90.38c0,67.4-53.65,89-92.77,123.28a60.15,60.15,0,0,1-80.18,0C178.64,346.13,125,324.52,125,257.12V166.74c0-41.46,19.32-78.16,48.93-100.46A110.94,110.94,0,0,1,241,43.6h33.65A110.93,110.93,0,0,1,341.8,66.28C371.4,88.58,390.72,125.28,390.72,166.74Z"/><path class="cls-7" d="M178,257.12V166.74C178,102.21,224.8,49.25,284.36,44c-3.19-.3-6.42-.43-9.69-.43H241c-64.1,0-116,55.14-116,123.14v44.74a26.59,26.59,0,1,0,0,53.18l.26,0c3.85,61.54,54.88,82.81,92.49,115.76,19.06,16.71,45,19.76,66.61,9.09a62,62,0,0,1-13.58-9.09C231.66,346.13,178,324.53,178,257.12Z"/><circle class="cls-6" cx="390.72" cy="238.07" r="26.59"/><path class="cls-8" d="M160.73,201.55s33.52-18.67,62.46,0"/><ellipse class="cls-9" cx="191.52" cy="234.86" rx="11.11" ry="15.99"/><path class="cls-8" d="M289.86,201.55s33.52-18.67,62.46,0"/><ellipse class="cls-9" cx="320.65" cy="234.86" rx="11.11" ry="15.99"/><rect class="cls-7" x="238.86" y="264.66" width="38.63" height="14.64" rx="6.71"/><path class="cls-8" d="M171.32,223.08s19.19-12.12,40.39,0"/><path class="cls-8" d="M300.45,223.08s19.19-12.12,40.39,0"/><path class="cls-10" d="M125.76,227.49a10.58,10.58,0,1,0,0,21.15Z"/><path class="cls-7" d="M390.72,248.64a10.58,10.58,0,1,0,0-21.15Z"/><path class="cls-11" d="M228,300.58a2.56,2.56,0,0,0-2.55,2.76c1.4,17.12,15.51,33,32.73,33h0c17.21,0,31.33-15.87,32.72-33a2.56,2.56,0,0,0-2.55-2.76Z"/><path class="cls-3" d="M390.72,166.74v17.54H125V166.74c0-41.46,19.32-78.16,48.93-100.46H341.8C371.4,88.58,390.72,125.28,390.72,166.74Z"/><path class="cls-12" d="M401.29,129.87v14.52a5.65,5.65,0,0,1-5.65,5.65H30.79a17.48,17.48,0,0,1,0-35h85.52a98.37,98.37,0,0,1,86.31-82.89,96.09,96.09,0,0,1,10.93-.61h89.38a98.22,98.22,0,0,1,81.42,43.18,8.12,8.12,0,0,1-6.77,12.64h-7a12,12,0,0,0-12,12v11.66a12,12,0,0,0,12,12h23.86A6.82,6.82,0,0,1,401.29,129.87Z"/><path class="cls-13" d="M254.41,150H30.79a17.48,17.48,0,0,1,0-35h85.52a98.37,98.37,0,0,1,86.31-82.89C202,33.59,170,108.91,254.41,150Z"/><path class="cls-11" d="M414.37,457.13c-.67.54-1.35,1.06-2,1.59A254.71,254.71,0,0,1,390.1,474.1l-1.92,1.16a256.26,256.26,0,0,1-249.68,8.23q-7-3.62-13.76-7.68l-.43-.26q-2.37-1.41-4.71-2.88-4.55-2.87-9-5.93c-1.31-.91-2.61-1.82-3.9-2.76a98.42,98.42,0,0,1,22-13.46l21.63-9.6,17.78-7.9a19.38,19.38,0,0,1,20.54,3c1.13,1,2.37,2,3.72,3,1,.8,2.15,1.61,3.32,2.43.78.55,1.6,1.1,2.44,1.64l1.29.82,1.33.82,1.38.81,1.42.8a90.17,90.17,0,0,0,9.49,4.54c.58.24,1.16.47,1.75.69q2.64,1,5.49,1.91l1.86.56.21.06c.6.17,1.2.34,1.82.5,1.34.36,2.71.69,4.12,1s2.72.55,4.12.78l.11,0c.71.12,1.44.23,2.17.33s1.16.17,1.75.23.89.12,1.34.16c.17,0,.35,0,.52.06l1.75.17c.39,0,.78.07,1.18.09s.89.07,1.34.09.66.05,1,.06q1.11.06,2.25.09h.26c.9,0,1.81,0,2.73,0l2,0c9.7-.18,19.37-.18,29.07,0l2,0c.93,0,1.84,0,2.75,0s1.64-.05,2.44-.1l.47,0,1.73-.11,1.33-.11c1.41-.12,2.79-.27,4.15-.45l1.61-.22.68-.11c.4-.05.8-.12,1.19-.19s.71-.12,1.06-.18l1.17-.22.82-.16,1.31-.28c1.31-.28,2.59-.59,3.84-.92q.84-.21,1.65-.45l1.61-.47c2.06-.62,4-1.3,5.93-2,.59-.22,1.16-.45,1.73-.68l1.55-.64q2.64-1.12,5.05-2.34c.38-.19.76-.38,1.13-.58s.83-.43,1.24-.65,1.09-.59,1.62-.89,1.27-.73,1.88-1.1c.41-.24.8-.48,1.19-.73s1-.61,1.46-.92.94-.6,1.39-.92.79-.53,1.17-.8h0l.16-.12c.44-.3.86-.6,1.28-.91l1.21-.9.22-.17c.72-.54,1.41-1.09,2.06-1.62l1.05-.87,1-.85a19.39,19.39,0,0,1,20.54-3l16.2,7.19L402,450.52A99.32,99.32,0,0,1,414.37,457.13Z"/><path class="cls-3" d="M378.74,440.21c-113.87,80.48-199.81,24.82-228.4.71l17.78-7.9a19.38,19.38,0,0,1,20.54,3c10.55,9.12,31.22,22.3,62.14,21.72,9.7-.18,19.37-.18,29.07,0,30.92.58,51.59-12.6,62.13-21.72a19.39,19.39,0,0,1,20.54-3Z"/></g></svg>