<svg xmlns="http://www.w3.org/2000/svg" viewBox="0 0 512 512"><defs><style>.cls-1{fill:#cd88f8;}.cls-2{fill:#af6fdd;}.cls-3{fill:#d84c41;}.cls-4{fill:#fcc8bc;}.cls-5{fill:#fab3a7;}.cls-6{fill:none;stroke:#27273d;stroke-linecap:round;stroke-miterlimit:10;stroke-width:7px;}.cls-7{fill:#f58d89;}.cls-8{fill:#27273d;}.cls-9{fill:#d54545;}.cls-10{fill:#c11e1e;}.cls-11{fill:#3586cb;}.cls-12{fill:#41c0e3;}.cls-13{fill:#f55b4b;}.cls-14{fill:#f97369;}.cls-15{fill:#f6c752;}</style></defs><title>Avatar Users2</title><g id="BULINE"><circle class="cls-1" cx="256" cy="256" r="256"/></g><g id="Icons"><path class="cls-2" d="M484.77,371a255.26,255.26,0,0,1-16.32,27.86q-5.93,8.81-12.56,17.08c-1.86,2.33-3.78,4.63-5.73,6.9-.38.45-.77.9-1.17,1.34a256.67,256.67,0,0,1-54.56,47.19c-1.43.93-2.88,1.83-4.33,2.73q-5.4,3.33-11,6.39a253.78,253.78,0,0,1-36,16.3l-.15,0a252.68,252.68,0,0,1-45.48,11.81q-5.55.92-11.17,1.57c-4,.47-8,.85-12,1.14l-.45,0Q265,512,256,512q-11.62,0-23-1l-.45,0c-1.53-.14-3.06-.29-4.58-.45q-5.62-.62-11.17-1.48a253.47,253.47,0,0,1-49.39-12.76.47.47,0,0,1-.15-.06c-2.06-.75-4.12-1.54-6.15-2.37a254.35,254.35,0,0,1-41.51-21.15q-4.25-2.67-8.37-5.52-7-4.78-13.63-10A256.82,256.82,0,0,1,60.69,421.5q-2.56-3-5-6.12-6.9-8.65-13-17.9A256.68,256.68,0,0,1,27.23,371a254.14,254.14,0,0,1,21.34-35,256.86,256.86,0,0,1,53.79-54.74,253.39,253.39,0,0,1,25.7-17s0,0,0,0a253.49,253.49,0,0,1,41.82-19.37q4.11-1.47,8.29-2.8,3.72-1.18,7.48-2.26,6.92-2,14-3.56a258.32,258.32,0,0,1,107.57-1.09h0q7.84,1.59,15.51,3.66a254.47,254.47,0,0,1,58.7,24l1.45.82a256.75,256.75,0,0,1,61.66,49.25A257.44,257.44,0,0,1,484.77,371Z"/><path class="cls-3" d="M440.58,335.5s22,24.36,27.87,63.36q-5.93,8.81-12.56,17.08l-6-4.8s.36,4.3.27,11.7c-.38.45-.77.9-1.17,1.34a256.67,256.67,0,0,1-54.56,47.19c-1.43.93-2.88,1.83-4.33,2.73q-5.4,3.33-11,6.39a253.78,253.78,0,0,1-36,16.3l-.15,0a252.68,252.68,0,0,1-45.48,11.81q-5.55.92-11.17,1.57c-4,.47-8,.85-12,1.14l-.45,0Q265,512,256,512q-11.62,0-23-1l-.45,0c-1.53-.14-3.06-.29-4.58-.45q-5.62-.62-11.17-1.48a253.47,253.47,0,0,1-49.39-12.76.47.47,0,0,1-.15-.06c-2.06-.75-4.12-1.54-6.15-2.37a254.35,254.35,0,0,1-41.51-21.15q-4.25-2.67-8.37-5.52-7-4.78-13.63-10A256.82,256.82,0,0,1,60.69,421.5c0-6.57.28-10.36.28-10.36l-5.31,4.24q-6.9-8.65-13-17.9c6.15-38.2,27.65-62,27.65-62a34.15,34.15,0,0,1-21.7.47,39.43,39.43,0,0,1-14.76-8.33c31.79,1,36.46-38.31,36.46-38.31C64.05,250,82,210.48,91.61,192.74c3.36-6.16,5.71-9.7,5.71-9.7L126.9,176,150,170.41l28.16-6.74,73.28-17.56,0-1.91,4,1,4-1,0,1.91,97.73,23.41L384,176,413.54,183s35.42,53.24,27,106.29a62.83,62.83,0,0,0,5.64,18.2c5,10.13,14.21,20.62,30.82,20.11a39.29,39.29,0,0,1-13.83,8A34.19,34.19,0,0,1,440.58,335.5Z"/><path class="cls-4" d="M394.43,471.37c-1.43.93-2.88,1.83-4.33,2.73q-5.4,3.33-11,6.39a253.78,253.78,0,0,1-36,16.3l-.15,0a252.68,252.68,0,0,1-45.48,11.81q-5.55.92-11.17,1.57c-4,.47-8,.85-12,1.14l-.45,0Q265,512,256,512q-11.62,0-23-1l-.45,0c-1.53-.14-3.06-.29-4.58-.45q-5.62-.62-11.17-1.48a253.47,253.47,0,0,1-49.39-12.76.47.47,0,0,1-.15-.06c-2.06-.75-4.12-1.54-6.15-2.37a254.35,254.35,0,0,1-41.51-21.15q-4.25-2.67-8.37-5.52a155.86,155.86,0,0,1,19.84-18.42,170.05,170.05,0,0,1,31.59-19.34,11.54,11.54,0,0,1,1.24-.53,3.17,3.17,0,0,1,.37-.15c.35-.14.72-.29,1.11-.43s.66-.24,1-.35.87-.3,1.37-.45l1.81-.59,2.15-.64c2.09-.61,4.35-1.25,6.74-1.92l3.92-1.09c2.88-.8,5.83-1.64,8.73-2.51s5.62-1.72,8.22-2.62a70.45,70.45,0,0,0,9.84-4.06,23.1,23.1,0,0,0,3.3-2,9.33,9.33,0,0,0,1.43-1.34c7.47-8.63,4-24.12,4-35.32,0-2.59,0-4.88-.09-7h0c-.57-23.28-3.24-16.13,16.42-22.71a32.44,32.44,0,0,1,5-.81h0c13.69-1.52,49.14-3.05,53.26.81,3.8,3.56,3.68,11.72,2.65,20.88h0c-1.36,12.29-4.33,26.32-1.59,33.34A28.66,28.66,0,0,0,305,414.3h0a51.94,51.94,0,0,0,9.85,4.76c5.68,2.17,12,4.05,18.71,7.09.3.12.6.26.9.39l2.4,1.16c.15.07.31.14.45.22,3.79,1.83,7.44,3.74,11,5.73a177,177,0,0,1,23.53,15.78,164.48,164.48,0,0,1,15.69,14.28Q391.13,467.45,394.43,471.37Z"/><path class="cls-4" d="M384,160.67v87.41c0,65.23-51.91,86.11-89.74,119.28a58.24,58.24,0,0,1-77.58,0c-37.84-33.17-89.74-54.05-89.74-119.28V160.67q0-4.44.3-8.81c4.13-60.05,50.24-107.75,107.3-110.21,1.54-.08,3.1-.11,4.66-.11H271.7c60.6,0,110,51,112.16,114.7C383.93,157.71,384,159.18,384,160.67Z"/><path class="cls-5" d="M178.19,248.09V160.67C178.19,98.24,223.45,47,281.07,42c-3.09-.29-6.22-.42-9.38-.42H239.16c-62,0-112.26,53.34-112.26,119.13v43.27a25.72,25.72,0,0,0,0,51.44h.25c3.73,59.53,53.09,80.1,89.48,112,18.44,16.16,43.57,19.11,64.44,8.79a59.93,59.93,0,0,1-13.15-8.79C230.09,334.2,178.19,313.31,178.19,248.09Z"/><circle class="cls-4" cx="383.95" cy="229.66" r="25.72"/><path class="cls-6" d="M161.47,187.52s32.43-18.06,60.42,0"/><path class="cls-6" d="M286.39,187.52s32.42-18.06,60.42,0"/><rect class="cls-5" x="237.49" y="255.38" width="37.37" height="14.17" rx="6.49"/><path class="cls-7" d="M127.64,219.43a10.23,10.23,0,0,0,0,20.46Z"/><path class="cls-5" d="M384,239.89a10.23,10.23,0,1,0,0-20.46Z"/><ellipse class="cls-8" cx="191.25" cy="226.56" rx="10.75" ry="15.47"/><ellipse class="cls-8" cx="316.17" cy="226.56" rx="10.75" ry="15.47"/><path class="cls-6" d="M171.71,215.16s18.56-11.72,39.08,0"/><path class="cls-6" d="M296.63,215.16s18.56-11.72,39.08,0"/><path class="cls-9" d="M256.18,294.78c-18.5-3-34.6,9-34.6,9,0,9.56,15.49,18.84,34.6,18.84h0c19.11,0,34.6-9.28,34.6-18.84C290.78,303.78,274.67,291.77,256.18,294.78Z"/><path class="cls-10" d="M280.8,304.6H238.93a6.2,6.2,0,0,1,2.9-3.57,52.2,52.2,0,0,1,22.26-6.68,36.76,36.76,0,0,0-7.91.43c-18.49-3-34.6,9-34.6,9,0,9.55,15.49,18.84,34.6,18.84a59.74,59.74,0,0,0,7.93-.54c-11.11-1.54-20.17-6.17-24.29-11.74a6,6,0,0,1-.92-1.88h41.9a1.93,1.93,0,1,0,0-3.86Z"/><path class="cls-11" d="M233,511l-.45,0c-1.53-.14-3.06-.29-4.58-.45q-5.62-.62-11.17-1.48a253.47,253.47,0,0,1-49.39-12.76,85.13,85.13,0,0,1,10.81-1.34l1.6-.07,1.34,0h.27c.47,0,.92,0,1.39,0s1.17,0,1.76,0h.28l1.51.05h.52a83,83,0,0,1,39.37,11.61h0q3.43,2.07,6.62,4.42Z"/><path class="cls-11" d="M326.27,494.8a85.32,85.32,0,0,1,16.83,2l-.15,0a252.68,252.68,0,0,1-45.48,11.81q-5.55.92-11.17,1.57c-4,.47-8,.85-12,1.14.22-.15.44-.3.65-.46a80,80,0,0,1,14.64-8.59h0a79.8,79.8,0,0,1,12-4.38h0a85.25,85.25,0,0,1,19.87-3.09l1.08,0h.3c.45,0,.89,0,1.34,0Z"/><path class="cls-12" d="M232.55,510.94c-1.53-.14-3.06-.29-4.58-.45q-5.62-.62-11.17-1.48a253.47,253.47,0,0,1-49.39-12.76.47.47,0,0,1-.15-.06,83.7,83.7,0,0,1,11-1.28l1.6-.07,1.34,0h1.67l2,0,1.51.05h.52a84.29,84.29,0,0,1,26.55,5.58,80.07,80.07,0,0,1,13,6.38c2.1,1.26,4.13,2.63,6.08,4.07Z"/><path class="cls-12" d="M343,496.84a252.68,252.68,0,0,1-45.48,11.81q-5.55.92-11.17,1.57c-4,.47-8,.85-12,1.14l-.45,0,.69-.49a81.57,81.57,0,0,1,15.14-8.83,82.93,82.93,0,0,1,12-4.28,84.33,84.33,0,0,1,19.83-3l1.08,0,1.64,0,2.07,0A86.09,86.09,0,0,1,343,496.84Z"/><path class="cls-13" d="M441.2,368.67c8.13,22.2,9.5,40.74,7.79,55.51a256.67,256.67,0,0,1-54.56,47.19c-1.43.93-2.88,1.83-4.33,2.73q-5.4,3.33-11,6.39a45.37,45.37,0,0,1,3.31-6.8,83.67,83.67,0,0,0,5.07-10c10.57-24.84,5.37-47.73-1.11-62.9a72.29,72.29,0,0,0-17.48-24.39c-17.87-16.62-17.92-31.93-13.77-42.87,3.37-8.88,10.68-15.57,19.51-19.07,27.81-11,14.41-40.34,14.41-40.34a68.57,68.57,0,0,1-6.39-9.09c-.44-.77-.86-1.52-1.24-2.27a47,47,0,0,1-3.33-8.08,36.88,36.88,0,0,1,2.08-27.4,21.39,21.39,0,0,0-2.69-22.55c-.32-.42-.67-.82-1-1.21-9.91-10.71-14.69-20.74-16.91-28.73a18.31,18.31,0,0,0-2.44-5.3,19.06,19.06,0,0,0-17.58-8.3,53.32,53.32,0,0,1-43.67-15.68,39.71,39.71,0,0,0-27.45-11.7c-40.43-.45-65.55-13-78.12-21.6-1,.26-1.91.56-2.81.88-12.43,4.45-17.81,14.44-20.09,23a72.63,72.63,0,0,1-12.06,25,41.43,41.43,0,0,0-5.31,9.27c-8.55,20.8,4,40.68,4,40.68a61.73,61.73,0,0,1,15.91,33.75,75.37,75.37,0,0,1-3.18,34,92.2,92.2,0,0,0,.68,49.86v0a102.4,102.4,0,0,0,9.83,23,79.32,79.32,0,0,1,9.16,22.65,81.58,81.58,0,0,1-4,48.83,74,74,0,0,1-10.67,18.82,46.57,46.57,0,0,0-11,43,21,21,0,0,1,.65,6.65c-.06.71-.13,1.42-.22,2.13a254.35,254.35,0,0,1-41.51-21.15q-4.25-2.67-8.37-5.52-7-4.78-13.63-10c-14.72-64.66,12.77-113.87,12.77-113.87.43-.7.84-1.4,1.24-2.08,9.75-16.87,7.69-37.87-4.37-53.18q-2.64-3.36-4.88-6.75c-22.61-34-16.57-69.74-10.75-88.49l.65-2a45.14,45.14,0,0,0,1.38-23.34c-13.66-65.57,34-89.56,34-89.56,9.89-22,27.12-21.37,39.22-17.46a26.94,26.94,0,0,1,4.85-3.65c10.45-69.29,86.75-29.11,86.75-29.11C365.66-19,377.58,93.28,377.58,93.28c60.89,16.36,44.53,101.79,44.53,101.79C458,244,451.45,288.75,446.22,307.53c-.59,2.12-1.17,3.91-1.67,5.33-.9,2.6-1.54,4-1.54,4C431.2,347.77,441.2,368.67,441.2,368.67Z"/><path class="cls-14" d="M320.25,53.34c1.18,13.43-.17,32.89-13.88,47.54a3.44,3.44,0,0,0,2.72,5.8c9.09-.64,22.41-2.52,29.77-8a3.45,3.45,0,0,1,5.33,1.43c1.85,4.8,4.14,12.61,3.15,20a3.43,3.43,0,0,0,6.1,2.53c6.58-8,12.1-22.37,3.91-46.28a3.44,3.44,0,0,0-6-.91l-1.27,1.73a3.44,3.44,0,0,1-5.6-.08l-18-26A3.43,3.43,0,0,0,320.25,53.34Z"/><path class="cls-15" d="M226.41,506.83q.75,1.82,1.56,3.66-5.62-.62-11.17-1.48c-1.2-2.89-2.32-5.75-3.36-8.56,0-.07-.05-.14-.07-.2-13.87-37.52-14.67-68.06-14-82.14.21-4.83.59-7.73.67-8.3a4.77,4.77,0,0,1,9.45,1.34c0,.1-.14,1.1-.28,2.9-.77,10.32-1.79,47.06,17.09,92.43h0C226.31,506.6,226.36,506.71,226.41,506.83Z"/><path class="cls-15" d="M301.65,497.79s0,.08,0,.13h0q-1.87,5.26-4.13,10.73-5.55.92-11.17,1.57,1.74-4,3.29-7.91l.09-.24c16.93-43,16.06-77.46,15.31-87.76-.15-2-.3-3.07-.31-3.16a4.77,4.77,0,0,1,9.45-1.34c.08.61.51,3.85.71,9.26C315.38,433.22,314.37,462.22,301.65,497.79Z"/></g></svg>