<svg xmlns="http://www.w3.org/2000/svg" viewBox="0 0 512 512"><defs><style>.cls-1{fill:#00b564;}.cls-2{fill:#009b51;}.cls-3{fill:#e0af41;}.cls-4{fill:#fcc8bc;}.cls-5{fill:#fa3268;}.cls-6{fill:#dd2c63;}.cls-7{fill:#fc4581;}.cls-8{fill:#fff;}.cls-9{fill:#fab3a7;}.cls-10{fill:none;stroke:#27273d;stroke-linecap:round;stroke-miterlimit:10;stroke-width:7px;}.cls-11{fill:#27273d;}.cls-12{fill:#f58d89;}.cls-13{fill:#db1b1b;}.cls-14{fill:#f6c752;}.cls-15{fill:#f6d372;}</style></defs><title>Avatar Users2</title><g id="BULINE"><circle class="cls-1" cx="256" cy="256" r="256"/></g><g id="Icons"><path class="cls-2" d="M484.77,371a257.13,257.13,0,0,1-87.4,98.46q-3.6,2.37-7.27,4.64c-1.37.84-2.74,1.67-4.13,2.48a252,252,0,0,1-39.91,19.11q-4.43,1.68-8.95,3.18t-8.95,2.8q-4.43,1.32-8.94,2.45A257.94,257.94,0,0,1,205.56,507c-3-.6-6-1.25-8.95-1.95s-6-1.48-9-2.31-6-1.71-8.94-2.65A253.86,253.86,0,0,1,125.06,476q-2.76-1.63-5.46-3.34-1.86-1.17-3.69-2.37A257.15,257.15,0,0,1,27.23,371a257.26,257.26,0,0,1,93-102.07h0q6.28-3.94,12.8-7.52a255.56,255.56,0,0,1,25.69-12.29q11.53-4.74,23.63-8.37c.93-.28,1.86-.56,2.8-.82q8.78-2.53,17.81-4.43,5.07-1.08,10.22-1.94a258.77,258.77,0,0,1,84-.27c1.75.28,3.5.58,5.23.9s3.17.6,4.75.92q8.82,1.78,17.42,4.18a255.45,255.45,0,0,1,55.58,22.78q6.19,3.45,12.18,7.23A257.13,257.13,0,0,1,484.77,371Z"/><path class="cls-3" d="M340.9,98.23a82.4,82.4,0,0,0-163-16.93h0v0a82.76,82.76,0,0,0-1.68,14.36l-9.9,84.92C164,304.24,112.09,346.3,81.15,360.4a8.26,8.26,0,0,0,1,15.43C254,426.62,317.69,209.58,335.3,128.08A82.19,82.19,0,0,0,340.9,98.23Z"/><path class="cls-4" d="M386,476.58a252,252,0,0,1-39.91,19.11q-4.43,1.68-8.95,3.18t-8.95,2.8q-4.43,1.32-8.94,2.45A257.94,257.94,0,0,1,205.56,507c-3-.6-6-1.25-8.95-1.95s-6-1.48-9-2.31-6-1.71-8.94-2.65A253.86,253.86,0,0,1,125.06,476a142.77,142.77,0,0,1,10.71-10.42q5.55-4.83,11.73-9.25c.32-.23.61-.45.93-.67A160.26,160.26,0,0,1,168,443.92l2.29-1.13c.61-.32,1.23-.61,1.85-.91,5.95-2.83,23.29-6.6,35.72-11,5.79-2.06,10.51-4.27,12.52-6.58,7-8.12,3.75-22.7,3.75-33.24,0-2.67,0-5-.09-7.11-.1-3.64-.25-6.45-.33-8.66-.42-10.68.6-7,15.79-12.16a42.07,42.07,0,0,1,6.35-.93h0c13.87-1.37,44.71-2.54,48.43.93,2.47,2.32,3.18,6.7,3.05,12,0,.69,0,1.4-.08,2.14h0c-.49,8.7-2.69,19.34-3,27.61v0c-.14,3.66.09,6.84,1,9.2.1.25.19.48.3.71,3.61,8.74,9.3,12.87,16.33,15.93,6.37,2.79,13.83,4.72,21.84,8.43,3,1.4,5.92,2.85,8.76,4.35.9.47,1.8,1,2.68,1.45a167.57,167.57,0,0,1,18.25,11.57c1,.73,2,1.48,3,2.24h0l0,0a148.64,148.64,0,0,1,11.82,10h0Q382.32,472.62,386,476.58Z"/><path class="cls-5" d="M397.37,469.46q-3.6,2.37-7.27,4.64c-1.37.84-2.74,1.67-4.13,2.48a252,252,0,0,1-39.91,19.11q-4.43,1.68-8.95,3.18t-8.95,2.8q-4.43,1.32-8.94,2.45A257.94,257.94,0,0,1,205.56,507c-3-.6-6-1.25-8.95-1.95s-6-1.48-9-2.31-6-1.71-8.94-2.65A253.86,253.86,0,0,1,125.06,476q-2.76-1.63-5.46-3.34-1.86-1.17-3.69-2.37,3.15-3.49,6.53-6.84c1.19-1.19,2.4-2.34,3.64-3.49l.21-.21q4.56-4.2,9.58-8.13l0,0a170.63,170.63,0,0,1,32.22-19.81,30.47,30.47,0,0,1,3.16-1.26l1-.34,2-.65c2.53-.79,5.49-1.64,8.68-2.52l.77-.22,2.22-.62a1,1,0,0,1,.25-.07.24.24,0,0,1,.1,0,22.31,22.31,0,0,1,16.87,2.09l4.76,2.68,42.51,24a22.27,22.27,0,0,0,22.57-.37l39-23.7L316,428.3a21.86,21.86,0,0,1,19.46-1.73l.1,0c.95.38,1.9.77,2.86,1.18s1.74.76,2.58,1.15c.23.11.44.2.66.32,2.54,1.17,5,2.4,7.39,3.65.21.11.4.22.62.32a179.32,179.32,0,0,1,31.26,20.61c2.72,2.25,5.35,4.56,7.84,6.93Q393.3,465,397.37,469.46Z"/><path class="cls-6" d="M391,463a89.87,89.87,0,0,1-12.67,5.9,201.5,201.5,0,0,1-32.24,8.95c-2.9.58-5.89,1.14-8.95,1.66v19.41q-4.44,1.5-8.95,2.8t-8.94,2.45V482.05a489.71,489.71,0,0,1-58.37,3.37,494.55,494.55,0,0,1-55.29-3q-4.56-.53-8.95-1.12v23.78c-3-.72-6-1.48-9-2.31s-6-1.71-8.94-2.65V478.4c-17.57-3.34-32.29-7.72-42.95-12.81a62.34,62.34,0,0,1-9.69-5.62l0,0,.18-.17q4.58-4.23,9.59-8.16l.07,0q4.13,2,9,3.78l1.16.43,1.43.5c4.32,1.51,9,2.93,14.11,4.24l1.53.39c2,.5,4,1,6,1.44h0c1,.22,1.93.43,2.9.63l.12,0,1.68.35,1.6.33,3.25.64h0v-3.84a8.95,8.95,0,1,1,17.89,0v6.74l1.92.25,2.68.35,1.28.15.8.1.69.08,1.58.18,1.05.12,3.75.4,1.2.12,3.54.34.33,0,1.34.12,2.58.22.47,0,1.08.08c.49.05,1,.08,1.49.12h0c3.61.27,7.28.51,11,.7,1.89.11,3.81.2,5.73.28q2.49.11,5,.18c.69,0,1.36.05,2.06.06,2,.05,4,.1,6,.13l1.28,0,3,0,4.31,0q5.85,0,11.57-.12l3.81-.1c.22,0,.45,0,.66,0l2-.06,1.12,0,2.88-.11.87,0q3-.14,5.89-.3l1.49-.08h.17c.77,0,1.54-.09,2.3-.15l.35,0,.83-.05c2.28-.15,4.54-.31,6.77-.5a2.73,2.73,0,0,0,.41,0l2.72-.23c2.33-.19,4.62-.41,6.89-.65l1.26-.13c2.16-.23,4.29-.48,6.39-.73v-7.49a8.95,8.95,0,1,1,17.89,0v4.9c3.06-.52,6.05-1.08,8.95-1.66,7.36-1.48,14.18-3.14,20.38-5h0a144.43,144.43,0,0,0,14.39-5l0,0q4.06,3.36,7.83,6.89C389.47,461.48,390.23,462.21,391,463Z"/><path class="cls-7" d="M302.45,375.93c-.61-.11-1.25-.22-1.89-.3-.35-.05-.71-.12-1.08-.16-.7-.12-1.41-.23-2.13-.32l-1.19-.17c-6.71-1-13.62-1.65-20.69-2.06-4.77-.27-9.63-.42-14.54-.42-.5,0-1,0-1.53,0h0a249.71,249.71,0,0,0-33,2.37c-.91.11-1.78.23-2.66.38-1.69.23-3.38.5-5.05.8-1.17.19-2.32.39-3.47.61h0C158.09,387.1,117,414.78,117,432.12c0,7.09,6.89,13.74,18.93,19.49,1.78.85,3.67,1.68,5.65,2.49,1.1.44,2.22.88,3.37,1.31l1.16.43s0,0,0,0c.46.16.93.32,1.4.5a.53.53,0,0,1,.18.05l2.16.73c1.84.61,3.73,1.19,5.7,1.78,1,.28,2,.57,3,.84s2,.57,3.08.84l1.53.39,1,.24c1.64.41,3.3.8,5,1.2h0l2.9.63.12,0a.12.12,0,0,1,.09,0l1.59.32,1.6.33,3.25.64h0c2.92.55,5.87,1.07,8.94,1.57h0c2.9.46,5.89.9,8.94,1.32h0l.34.05,1.57.21,1.74.22.94.13.49.06.79.09.8.1.69.08.91.11.66.08h0l1.05.11,1.14.12,2.61.28,1.2.12,3.21.32.33,0,.33,0,1.34.12,1.37.13,1.21.09.47,0,1.08.08.63.06.86.06h0l.9.06q4,.3,8.06.53l2,.11,2.05.1,3.68.18q2.49.11,5,.18c.69,0,1.36.05,2.06.06l2.91.09,3.12,0,1.28,0,3,0h.68c1.24,0,2.46,0,3.71,0,3.87,0,7.71,0,11.49-.13l3.81-.1c.22,0,.45,0,.66,0l2-.06,1.12,0,2.88-.11.87,0,2.56-.13,2.32-.12,1-.05,1.49-.08h.17l1.51-.09.79-.06.35,0,.83-.05c2.17-.15,4.32-.3,6.43-.48l.34,0a2.73,2.73,0,0,0,.41,0l2.72-.23c2.33-.19,4.62-.41,6.89-.65l1.26-.13,1.24-.13c1.74-.19,3.46-.39,5.15-.6,3-.36,6-.75,8.93-1.16h0q9.4-1.36,17.88-3.06h0c7.37-1.48,14.21-3.15,20.41-5a148,148,0,0,0,14.39-5h0s.05,0,.06,0c15.16-6.22,24-13.68,24-21.72C404.91,414.36,361.73,385.74,302.45,375.93ZM236,388.76a35.22,35.22,0,0,1,6.05-5.55v0a32,32,0,0,1,18.9-6.26,31,31,0,0,1,4.23.29h0a32.1,32.1,0,0,1,14.91,6.15s0,0,0,0A35,35,0,0,1,284.3,387h0c.44.43.86.88,1.27,1.36a39.51,39.51,0,0,1,8.7,16.51v0a41.84,41.84,0,0,1,1.31,9.91c0,.23,0,.47,0,.7,0,21.33-15.53,38.62-34.68,38.62s-34.66-17.29-34.66-38.62A41,41,0,0,1,234.93,390h0C235.28,389.58,235.62,389.17,236,388.76Z"/><path class="cls-8" d="M205.56,460.55V507c-3-.6-6-1.25-8.95-1.95s-6-1.48-9-2.31V460.55a8.93,8.93,0,0,1,4.48-7.75,8.82,8.82,0,0,1,4.47-1.2,8.95,8.95,0,0,1,8.95,8.95Z"/><path class="cls-8" d="M346.06,460.55v35.14q-4.43,1.68-8.95,3.18t-8.95,2.8V460.55a8.93,8.93,0,0,1,4.48-7.75,8.82,8.82,0,0,1,4.47-1.2,8.95,8.95,0,0,1,8.95,8.95Z"/><path class="cls-4" d="M380.18,181.45v84.06c0,62.7-49.9,82.79-86.28,114.68a56,56,0,0,1-74.58,0c-36.4-31.89-86.3-52-86.3-114.68V181.45C133,118.2,181.35,66.91,241,66.91h31.3C331.86,66.91,380.18,118.2,380.18,181.45Z"/><path class="cls-9" d="M182.34,265.51V181.45c0-60,43.51-109.29,98.92-114.13-3-.28-6-.41-9-.41H241C181.34,66.91,133,118.2,133,181.45v41.61a24.73,24.73,0,0,0,0,49.46h.24c3.58,57.24,51,77,86,107.67,17.73,15.54,41.89,18.38,62,8.46a57.59,57.59,0,0,1-12.64-8.46C232.24,348.31,182.34,328.22,182.34,265.51Z"/><circle class="cls-4" cx="380.18" cy="247.79" r="24.73"/><path class="cls-10" d="M166.27,213.83s31.17-17.37,58.09,0"/><ellipse class="cls-11" cx="194.9" cy="244.81" rx="10.33" ry="14.87"/><path class="cls-10" d="M286.37,213.83s31.18-17.37,58.1,0"/><ellipse class="cls-11" cx="315.01" cy="244.81" rx="10.33" ry="14.87"/><rect class="cls-9" x="238.94" y="272.52" width="35.93" height="13.62" rx="6.24"/><path class="cls-10" d="M176.11,233.85s17.85-11.27,37.57,0"/><path class="cls-10" d="M296.22,233.85s17.85-11.27,37.57,0"/><path class="cls-12" d="M133.73,238a9.84,9.84,0,0,0,0,19.67Z"/><path class="cls-9" d="M380.19,257.63a9.84,9.84,0,0,0,0-19.67Z"/><path class="cls-8" d="M228,312.69c0,15.31,13.53,30.17,30.21,30.17h0c16.69,0,27.91-14.86,27.91-30.17Z"/><path class="cls-13" d="M287.2,312.69a34.64,34.64,0,0,1-8.85,22.71c-5.46,6.13-13,10.18-21.36,10.18-16.69,0-30.22-16.2-30.22-32.89h1.76c4.17,12.38,15.34,22.41,28.46,22.41,8.33,0,15.9-4.05,21.36-10.2a35.27,35.27,0,0,0,7.09-12.21Z"/><path class="cls-13" d="M257,304.82c-16.15-2.62-30.22,7.87-30.22,7.87H287.2S273.13,302.2,257,304.82Z"/><path class="cls-14" d="M255.9,55.74h-.11C251.29,56,95.63,66.38,133,223.06c0,0-1.14-33.65,32.63-62.34a19.2,19.2,0,0,0,19.17,18.39h17.85a4.18,4.18,0,0,0,3.71-2.27l11.55-22.44v20.53a4.18,4.18,0,0,0,4.18,4.18h19.8a4.19,4.19,0,0,0,4-3l11-36.85,3.65,36.08a4.19,4.19,0,0,0,4.16,3.76H329a19.21,19.21,0,0,0,18.22-13.17c29.89,27.4,31.47,57.12,31.47,57.12C416.06,66.36,260.38,56,255.9,55.74Z"/><path class="cls-15" d="M315.06,91.5c1.17,13.35-.18,32.68-13.8,47.25a3.41,3.41,0,0,0,2.7,5.76c9-.63,22.28-2.51,29.59-8a3.43,3.43,0,0,1,5.3,1.42c1.84,4.78,4.11,12.54,3.13,19.93a3.41,3.41,0,0,0,6.07,2.51c6.53-8,12-22.22,3.88-46a3.43,3.43,0,0,0-6-.9l-1.26,1.72a3.41,3.41,0,0,1-5.56-.08L321.27,89.27A3.41,3.41,0,0,0,315.06,91.5Z"/></g></svg>